<?xml version="1.0" encoding="utf-8"?>
<!-- Generator: Adobe Illustrator 23.0.4, SVG Export Plug-In . SVG Version: 6.00 Build 0)  -->
<svg version="1.1" id="Layer_1" xmlns="http://www.w3.org/2000/svg" xmlns:xlink="http://www.w3.org/1999/xlink" x="0px" y="0px"
	 viewBox="0 0 1700 1080" style="enable-background:new 0 0 1700 1080;" xml:space="preserve">
<style type="text/css">
	.st0{display:none;enable-background:new    ;}
	.st1{font-family:'GillSans';}
	.st2{font-size:80px;}
	.st3{fill:#C68456;stroke:#231F20;stroke-linecap:round;stroke-miterlimit:10;}
	.st4{fill:#FBEDB0;stroke:#231F20;stroke-linecap:round;stroke-miterlimit:10;}
	.st5{stroke:#000000;stroke-linejoin:round;}
</style>
<text transform="matrix(1 0 0 1 910.9834 648.498)" class="st0 st1 st2">LOGICALLY TRUE</text>
<g>
	<path class="st3" d="M1068.9,631.9l-61.4-10.6l53-10.5l-62.9-16.1l57.4-1.9l-37.7-16.5l54,7.1l-31-18.6l99,12.7l295.3,1.3l47.1-14
		l-16.7,18.3l53.1-5.7l-26.7,19.5l46.2-5.7c0,0-46.2,47.8-135.9,59.9c-61.7,7.2-123.9,8.9-185.9,5.2L1068.9,631.9z"/>
	<path class="st4" d="M1238.4,502.5c-33-47.2-70.3-78.1-104.7-62.1c-34.4,16.1-37.9,65.3-19.9,120c17.1,52.7,70.3,78.1,104.7,62.1
		C1252.9,606.4,1270.1,547.9,1238.4,502.5z"/>
	<path class="st4" d="M1455.3,578.5c16.6-53.7,5.7-110.3-15-117.7c-34.8-12.6-72.9,10-104.5,56.7c-30.2,44.8-17.9,100.8,15,117.7
		C1383.8,652.2,1439.4,630.1,1455.3,578.5z"/>
	<path class="st4" d="M1373.3,531.5c9-77.5-1-142.2-50.3-156.9s-97.1,32.2-128,103.7c-29.8,68.9,1,142.2,50.3,156.9
		S1364.4,605.9,1373.3,531.5z"/>
	<path class="st3" d="M1037.9,581.5c0,0-13.7,45.3,60.2,61.8c73.8,16.5,143.2,46.7,212.8,28.6c72.4-18.9,166-20.3,212.2-70.1
		c0,0-27.9,11.8-43.4,13c0,0,20.5-21.7,17.9-33.5c0,0-39.1,27.3-65.7,29.1c0,0,22.3-17.1,27.9-37.8c0,0-62.1,45.3-84.4,46.5
		c0,0,22.9-21.7,22.3-32.9c0,0-39.7,42.8-59.5,44.7c5.1-11.3,6.2-24,3.1-36c0,0-12.7,20.2-31,24.5l-18.3,4.3c0,0-27.3,1.5-40.3-18
		c2.5,10.7,8.9,20,18,26.1c0,0-34.3-10.2-44.1-20.7c0,0,5.3,18,15.2,22.9c0,0-40.3-11.4-53-27.3c-2.5,6.3-2.2,13.4,0.9,19.4
		c0,0-46.5-23.9-59.3-37.5c0,0,9.3,34.3,24.9,45c0,0-55.5-17.1-62.9-45c0,0,0,32.2,7.8,38.5c0,0-40-21.4-45-54.3
		c0,0-5.7,33.2,1.5,40.6C1055.9,613.4,1037.6,586.1,1037.9,581.5z"/>
	<path class="st4" d="M1349.3,538.9c0.7,7.5-2.9,14.7-9.3,18.6"/>
	<path class="st4" d="M1424.2,569c2.2-4,4.1-8.1,5.7-12.3"/>
	<path class="st4" d="M1219.1,579.9c-1.8-4.2-3.8-8.3-6.2-12.2"/>
	<path class="st4" d="M1218.8,506.6c-9,8.4-13.9,20.4-13.3,32.7"/>
	<path class="st4" d="M1163.9,587.2c3.9,6.4,8.3,12.5,13,18.2"/>
	<path class="st4" d="M1377.3,594.1c-4.8,5.7-9.2,11.8-13.3,18.1"/>
</g>
<path class="st5" d="M676.7,499.6c0,0,131.9-82,217.5-71.3c0,0-42.8-35.7-82-42.8c0,0,128.3,3.6,192.5,64.2
	c0,0-121.2,21.4-135.5,107c0,0,3.6-74.9,28.5-99.8C897.7,456.8,762.3,460.4,676.7,499.6z"/>
<path d="M230.5,385.8c0,0,24.1-22.8,36.1,0l11.7,4.7c0,0-20.3,2.2-28,11.7c0,0-1.7,21.9-26.4,28.3s-65.4,5-65.4,5l42.9-25.8
	l-15.3-7.8l11.4-1.4l-12.5-7.5l10.5-0.8c0,0-24.7-23.9-24.7-35.8C170.8,356.4,222.2,387,230.5,385.8z"/>
<path d="M546.9,388.4c0,0-24.1-28.4-36.1,0l-11.7,5.9c0,0,20.3,2.8,28,14.5c0,0,1.7,27.3,26.4,35.3c24.7,8,65.4,6.2,65.4,6.2
	l-42.9-32.2l15.3-9.7l-11.4-1.7l12.5-9.3l-10.5-1c0,0,24.7-29.7,24.7-44.6C606.6,351.8,555.2,389.8,546.9,388.4z"/>
<path d="M373.5,375.6c0,0-8-16.4,8.9-21.4l3.7-11.1l4.1,11.4c0,0,15.8,4.7,8.9,21.1c0,0,19.2-10.3,29.4-7.8s16.9,11.4,33.9,14.4
	c16.9,3.1,16.9,3.1,16.9,3.1s-7.2,6.1-20,7.8c0,0,5,4,7.8,3c2.8-1-13.6,5.3-21.6,6.5c0,0,4.4,4.4,6.9,4.2c2.5-0.3-15.3,2.5-19.2,2.5
	c0,0-1.9,3.1,2.5,3.6c4.4,0.6-19.4,7.5-33,6.7c0,0-2.8,5.8-3.6,6.7c-0.8,0.8,8,32.2,8,32.2s-5.3,4.7-10-1.7c0,0,1.1,22.2-12.2,17.5
	c-13.3-4.7-8.3-17.8-8.3-17.8s-8.9,5.8-11.4,2.5c-2.5-3.3,9.2-32.7,9.2-32.7s-5-5-4.2-6.7c0,0-15.5,0.3-20.8-3.3
	c-5.3-3.6,0-3.6,0-3.6s-19.7,0.4-11.9-3.6c7.8-3.9-25-5.3-11.7-8.4c13.3-3.1-32.7-5.3-12.8-8c0,0-16.4-3.6-20-8.3
	c0,0,25.3-2.2,51.1-15.5C344,368.6,351.8,363.9,373.5,375.6z"/>
<path d="M396.2,535.7c0,0,4.4-13.6,13.3-13.9c8.9-0.3,12.5-0.6,15.8,6.9l11.7,4.4l-12.8,2.5c0,0-0.8,6.7-3.9,10.8
	c0,0,0.6,20.8-26.4,33.3l-1.9,5.3l4.2,9.2l-7.8-7.2v-5.8H386l-3.4,6.7l3.5,6.4l-7.1-5.6v-6.1c0,0-8.3,0-15.3-2.2l-41.4,19.4
	c0,0,28.3-35.8,51.1-50C396.2,535.7,396.2,535.7,396.2,535.7z"/>
<path d="M447.5,581.5c0,0,6.5-8.9,10.5-9.1c0,0,1.5-14.6,20-9.8c18.5,4.8,19.2,3.3,19.2,3.3s-7-32.6-31.3-45.9
	c0,0,30.5,16.1,33.2,18.3l-2.9-8.9l18.1,18.9V541l14.1,18.9c0,0,62.5-14.2,75.9-29.8c0,0-11.7,22.4-19.6,27.8c0,0,7.8,1.7,12-2.4
	c0,0-7.2,11.1-14.1,14.2c0,0,7.4,0.9,10.7-0.9c0,0-18.3,10.7-21.8,11.3c0,0,24.1,19.4,32,39.4c0,0-24.8-16.5-45.7-17.4
	c0,0-34.4,18.9-64.2,0c0,0-13.3-12-22-14.4c0,0-10.5,2.4-13-7.2L447.5,581.5z"/>
<path d="M165.3,513.9c0,0,10.1-4.4,13.7-2.5c0,0,8.7-11.9,22.2,1.7s14.9,12.6,14.9,12.6s10.4-31.6-3.7-55.4c0,0,18.2,29.3,19.4,32.6
	l2-9.1l6.1,25.5l3.7-6.4l2.6,23.4c0,0,61.1,19.4,80.5,12.7c0,0-21.4,13.4-31,14c0,0,5.9,5.4,11.6,4c0,0-11.8,5.9-19.3,5.2
	c0,0,5.9,4.5,9.7,4.6c0,0-21.2,0-24.5-1.3c0,0,10.9,28.9,7.6,50.2c0,0-13-26.8-30.6-38.1c0,0-39.2-1.2-55.4-32.5
	c0,0-5.4-17.1-11.7-23.6c0,0-10.3-3.3-7.5-12.8L165.3,513.9z"/>
</svg>
