<?xml version="1.0" encoding="utf-8"?>
<!-- Generator: Adobe Illustrator 23.0.4, SVG Export Plug-In . SVG Version: 6.00 Build 0)  -->
<svg version="1.1" id="Layer_1" xmlns="http://www.w3.org/2000/svg" xmlns:xlink="http://www.w3.org/1999/xlink" x="0px" y="0px"
	 viewBox="0 0 1700 1080" style="enable-background:new 0 0 1700 1080;" xml:space="preserve">
<style type="text/css">
	.st0{fill:#DA3732;stroke:#000000;stroke-linejoin:round;}
	.st1{fill:#442222;stroke:#000000;stroke-linejoin:round;}
	.st2{fill:#819120;stroke:#000000;stroke-linejoin:round;}
	.st3{fill:#8E6A21;stroke:#000000;stroke-linejoin:round;}
	.st4{fill:#9933CC;stroke:#000000;stroke-width:0.8;stroke-miterlimit:10;}
	.st5{fill:#FFCC33;stroke:#000000;stroke-width:0.8;stroke-linecap:round;stroke-linejoin:round;}
	.st6{fill:#E08122;stroke:#000000;stroke-width:0.8;stroke-miterlimit:10;}
	.st7{fill:#669933;stroke:#000000;stroke-width:0.4;stroke-miterlimit:10;}
	.st8{fill:#7A5D3D;stroke:#000000;stroke-miterlimit:10;}
	.st9{fill:#FFCC33;}
	.st10{fill:#FFEC00;}
	.st11{fill:#A37D57;}
	.st12{stroke:#000000;stroke-linejoin:round;}
	.st13{fill:#DA3732;stroke:#000000;stroke-width:0.8;stroke-linejoin:round;}
	.st14{fill:#DE543E;}
	.st15{fill:#AB2925;}
	.st16{fill:#E27F68;}
	.st17{fill:#A5C058;}
	.st18{fill:#006837;}
	.st19{fill:#72974F;}
	.st20{fill:#D7DC84;}
	.st21{fill:#E27F68;stroke:#000000;stroke-width:0.8;stroke-linecap:round;stroke-linejoin:round;}
	.st22{stroke:#000000;stroke-width:0.8;stroke-linecap:round;stroke-linejoin:round;}
	.st23{fill:#A82925;}
	.st24{opacity:0.7;fill:none;stroke:#000000;stroke-width:7;stroke-miterlimit:10;enable-background:new    ;}
	.st25{fill:#336600;stroke:#000000;stroke-width:0.8;stroke-linecap:round;stroke-linejoin:round;}
	.st26{fill:#EFE8BB;}
	.st27{opacity:0.28;fill:#ADA471;enable-background:new    ;}
	.st28{fill:#722A0D;stroke:#000000;stroke-width:0.8;stroke-linejoin:round;}
	.st29{fill:#EFDF9C;}
	.st30{fill:#ECE1BA;stroke:#B39D6A;stroke-miterlimit:10;}
	.st31{opacity:0.72;fill:#ECE1BA;stroke:#B39D6A;stroke-width:0.81;stroke-linejoin:bevel;enable-background:new    ;}
</style>
<g id="fruits">
	<path class="st0" d="M341.6,162.7c0,0-40.7,12.2-24.4,36.6c10.3,14.6,26.8,23.7,44.7,24.4c0,0,44.7-12.2,44.7-28.5
		s-16.3-48.8-36.6-52.9C354.1,139.2,349.7,142.4,341.6,162.7z"/>
	<polygon class="st1" points="333.5,150.5 341.6,162.7 341.6,146.5 	"/>
	<path class="st2" d="M455.2,191.9c0,0-24-35.1-42.3-12.2c-10.9,14.3-14.5,32.8-9.7,50.1c0,0,24.4,31.4,40.1,26.5
		C459,251.4,484,232,483.2,213C482.5,196.6,477,193.5,455.2,191.9z"/>
	<polygon class="st3" points="464.3,180.5 455.2,191.9 470.7,187 	"/>
	<circle class="st4" cx="382.3" cy="231.9" r="12.2"/>
	<circle class="st4" cx="370.1" cy="215.6" r="12.2"/>
	<circle class="st4" cx="361.9" cy="235.9" r="12.2"/>
	<circle class="st4" cx="394.5" cy="211.5" r="12.2"/>
	<circle class="st4" cx="378.2" cy="195.3" r="12.2"/>
	<circle class="st4" cx="357.9" cy="195.3" r="12.2"/>
	<circle class="st4" cx="402.6" cy="231.9" r="12.2"/>
	<circle class="st4" cx="386.3" cy="248.2" r="12.2"/>
	<circle class="st4" cx="370.1" cy="248.2" r="12.2"/>
	<circle class="st4" cx="349.7" cy="219.7" r="12.2"/>
	<circle class="st4" cx="349.7" cy="235.9" r="12.2"/>
	<circle class="st4" cx="345.7" cy="248.2" r="12.2"/>
	<circle class="st4" cx="370.1" cy="227.8" r="12.2"/>
	<circle class="st4" cx="390.4" cy="223.7" r="12.2"/>
	<circle class="st4" cx="370.1" cy="211.5" r="12.2"/>
	<path class="st5" d="M508.4,191.2c-2.4-5.1-3.8-10.6-4.1-16.3c0-8.1,12.2-16.3,12.2-8.1c0,8.1-4.1,24.4,4.1,32.5
		c8.1,8.1,2.4,25.1,0,28.5c-7,9.9-15,20.3-19.9,26.6c-3.3,4.3-7.7,7.6-12.7,9.6c-16.6,6.7-55.3,18-89.5-3.7c0,0-4.1-4.1,4.1-8.1
		c8.1-4.1,28.5,0,44.7-4.1c16.3-4.1,36.6-24.4,44.7-36.6C500.1,199.3,508.4,199.3,508.4,191.2z"/>
	<ellipse class="st6" cx="286.7" cy="242.1" rx="48.8" ry="44.7"/>
	<ellipse class="st7" cx="272.5" cy="217.6" rx="6.1" ry="4.1"/>
	<ellipse class="st7" cx="264.3" cy="221.7" rx="6.1" ry="4.1"/>
	<ellipse class="st7" cx="264.3" cy="217.6" rx="6.1" ry="4.1"/>
	<path class="st8" d="M221.6,262.4h317.2l0,0v20.1c0,36.1-29.2,65.3-65.3,65.3H286.9c-36.1,0-65.3-29.2-65.3-65.3l0,0L221.6,262.4
		L221.6,262.4z"/>
	<path class="st9" d="M294.8,213.6c15.4,6.1,26.3,20.1,28.5,36.6c0,0,8.1-20.3-8.1-32.5C301.8,207.6,294.8,213.6,294.8,213.6z"/>
	<path class="st10" d="M510.4,217.6c0,0-12.2,32.5-20.3,36.6c0,0,20.3-16.3,24.4-28.5c2.5-6.5,2.5-13.8,0-20.3L510.4,217.6z"/>
	<path class="st11" d="M528.7,274.6H488c0,0-4.1,61-16.3,65.1C471.8,339.7,528.7,327.5,528.7,274.6z"/>
</g>
<g id="fruits_1_">
	<path class="st0" d="M1231,479c0,0-40.7,12.2-24.4,36.6c10.3,14.6,26.8,23.7,44.7,24.4c0,0,44.7-12.2,44.7-28.5
		s-16.3-48.8-36.6-52.9C1243.5,455.5,1239.1,458.7,1231,479z"/>
	<polygon class="st1" points="1222.9,466.8 1231,479 1231,462.7 	"/>
	<path class="st2" d="M1344.6,508.2c0,0-24-35.1-42.3-12.2c-10.9,14.3-14.5,32.8-9.7,50.1c0,0,24.4,31.4,40.1,26.5
		s40.7-24.4,39.9-43.4C1371.9,512.9,1366.4,509.7,1344.6,508.2z"/>
	<polygon class="st3" points="1353.7,496.7 1344.6,508.2 1360.1,503.2 	"/>
	<circle class="st4" cx="1271.7" cy="548.1" r="12.2"/>
	<circle class="st4" cx="1259.5" cy="531.9" r="12.2"/>
	<circle class="st4" cx="1251.3" cy="552.2" r="12.2"/>
	<circle class="st4" cx="1283.9" cy="527.8" r="12.2"/>
	<circle class="st4" cx="1267.6" cy="511.5" r="12.2"/>
	<circle class="st4" cx="1247.3" cy="511.5" r="12.2"/>
	<circle class="st4" cx="1292" cy="548.1" r="12.2"/>
	<circle class="st4" cx="1275.7" cy="564.4" r="12.2"/>
	<circle class="st4" cx="1259.5" cy="564.4" r="12.2"/>
	<circle class="st4" cx="1239.1" cy="535.9" r="12.2"/>
	<circle class="st4" cx="1239.1" cy="552.2" r="12.2"/>
	<circle class="st4" cx="1235.1" cy="564.4" r="12.2"/>
	<circle class="st4" cx="1259.5" cy="544.1" r="12.2"/>
	<circle class="st4" cx="1279.8" cy="540" r="12.2"/>
	<circle class="st4" cx="1259.5" cy="527.8" r="12.2"/>
	<path class="st5" d="M1397.8,507.5c-2.4-5.1-3.8-10.6-4.1-16.3c0-8.1,12.2-16.3,12.2-8.1s-4.1,24.4,4.1,32.5s2.4,25.1,0,28.5
		c-7,9.9-15,20.3-19.9,26.6c-3.3,4.3-7.7,7.6-12.7,9.6c-16.6,6.7-55.3,18-89.5-3.7c0,0-4.1-4.1,4.1-8.1c8.1-4.1,28.5,0,44.7-4.1
		c16.3-4.1,36.6-24.4,44.7-36.6C1389.5,515.6,1397.8,515.6,1397.8,507.5z"/>
	<ellipse class="st6" cx="1176.1" cy="558.3" rx="48.8" ry="44.7"/>
	<ellipse class="st7" cx="1161.9" cy="533.9" rx="6.1" ry="4.1"/>
	<ellipse class="st7" cx="1153.7" cy="538" rx="6.1" ry="4.1"/>
	<ellipse class="st7" cx="1153.7" cy="533.9" rx="6.1" ry="4.1"/>
	<path class="st8" d="M1111,578.6h317.2l0,0v20.1c0,36.1-29.2,65.3-65.3,65.3h-186.6c-36.1,0-65.3-29.2-65.3-65.3l0,0L1111,578.6
		L1111,578.6z"/>
	<path class="st9" d="M1184.2,529.8c15.4,6.1,26.3,20.1,28.5,36.6c0,0,8.1-20.3-8.1-32.5C1191.2,523.9,1184.2,529.8,1184.2,529.8z"
		/>
	<path class="st10" d="M1399.8,533.9c0,0-12.2,32.5-20.3,36.6c0,0,20.3-16.3,24.4-28.5c2.5-6.5,2.5-13.8,0-20.3L1399.8,533.9z"/>
	<path class="st11" d="M1418.1,590.8h-40.7c0,0-4.1,61-16.3,65.1C1361.2,655.9,1418.1,643.7,1418.1,590.8z"/>
</g>
<title>Artboard 3</title>
<path class="st12" d="M684.9,260c0,0,111.4-69.3,183.7-60.2c0,0-36.1-30.1-69.3-36.1c0,0,108.4,3,162.6,54.2
	c0,0-102.4,18.1-114.4,90.3c0,0,3-63.2,24.1-84.3C871.6,223.9,757.2,226.9,684.9,260z"/>
<g id="apple">
	<path class="st13" d="M296.4,475.7c0,0-44.7,11.9-32.8,74.5c11.9,62.6,29.8,89.4,62.6,98.3c23.8,6,6-6,50.7,6
		c44.7,11.9,80.5-95.4,80.5-119.2s-11.9-65.6-50.7-62.6c-38.7,3-56.6,0-56.6,0S305.3,469.7,296.4,475.7z"/>
	<path class="st14" d="M330.7,498c0,0,32.8,17.9,50.7,14.9c17.9-3,35.8-17.9,41.7-6c6,11.9,11.9,17.9,0,47.7S375.4,641,327.7,638
		S256.2,530.7,277,497.9C297.9,465.2,330.7,498,330.7,498z"/>
	<path class="st15" d="M321.7,492.1c0,0,56.6-14.9,56.6,0S363.5,507,363.5,507S342.6,492.1,321.7,492.1z"/>
	<path class="st16" d="M436.5,514.4c0,0-17.9-47.7-110.3-23.8c0,0,59.6,17.9,56.6,29.8c-3,11.9-38.7,0-71.5-3s-11.9,101.3,3,116.2
		c-23.8-20.9-59.6-80.5-35.8-137.1c23.8-32.8,80.5-14.9,104.3-17.9C406.7,475.7,433.5,484.6,436.5,514.4z"/>
	<g>
		<path class="st17" d="M280,420.5c0,0,14.9,56.6,32.8,62.6s35.8,6,41.7,11.9l6-6c0,0-11.9-11.9-11.9-14.9s-6-35.8-29.8-41.7
			C305.6,429.3,292.7,425.3,280,420.5z"/>
		<path class="st18" d="M280,420.5c3,9.2,6,18.4,9.7,27.3c3.4,9,7.9,17.5,13.4,25.4c2.5,3.9,6.1,6.9,10.3,8.8
			c4.6,1.5,9.2,2.7,13.9,3.6l14.2,2.8c2.4,0.5,4.8,1.1,7.2,1.9c2.5,0.7,4.9,2,6.9,3.8h-2.1l6-6v2.1c-3.4-3.4-6.6-7-9.6-10.8
			c-0.8-1-1.5-2.1-2.1-3.2c-0.2-0.4-0.3-0.7-0.4-1.1c-0.1-0.2-0.1-0.5-0.1-0.7V474c0-0.4-0.1-1.1-0.2-1.6c-0.4-2.3-0.9-4.5-1.6-6.8
			c-2.4-9-6.9-17.3-13.2-24.2c-3.2-3.4-7.2-5.9-11.6-7.4c-2.1-0.8-4.5-1.3-6.8-2s-4.6-1.3-6.9-2C297.8,427.2,288.8,424.2,280,420.5z
			 M280,420.5c8.9,3,18.1,5.8,27.3,8.1l6.9,1.8c2.3,0.6,4.6,1,6.9,1.8c4.7,1.5,9,4,12.5,7.5c6.8,7,11.7,15.6,14.3,25
			c0.7,2.3,1.3,4.7,1.7,7.1c0.1,0.6,0.2,1.3,0.2,1.9v0.4l0,0c0.1,0.2,0.1,0.4,0.2,0.6c0.5,1,1.2,1.9,1.8,2.7
			c2.9,3.6,6.1,7.1,9.4,10.4l1,1l-1,1l-6,6l-1,1l-1.1-1c-1.7-1.4-3.6-2.5-5.7-3.1c-2.2-0.7-4.5-1.4-6.9-1.8l-14.2-3
			c-4.8-1-9.5-2.3-14.1-3.8c-2.5-0.9-4.7-2.3-6.5-4.2c-1.8-1.7-3.4-3.7-4.8-5.7c-5.3-8.2-9.6-17-12.8-26.2
			C285.1,439.1,282.3,429.9,280,420.5z"/>
	</g>
	<path class="st19" d="M290.4,428c0,0,35.8,8.9,44.7,20.9c6.4,8.6,11.9,29.8,11.9,29.8s-14.9-23.8-20.9-29.8
		C320.2,442.9,296.4,428,290.4,428z"/>
	<path class="st20" d="M290.4,436.9l50.7,47.7c0,0-32.8-6-35.8-14.9C302.4,460.8,290.4,436.9,290.4,436.9z"/>
	<path class="st18" d="M297.9,438.4c5.4,4,10.5,8.3,15.7,12.6s10.1,8.7,15.1,13.1s9.9,8.9,14.7,13.6l7.2,7c2.3,2.4,4.7,4.8,7,7.2
		c-2.7-2-5.3-4.1-7.9-6.2l-7.7-6.4c-5.1-4.3-10.1-8.7-15.1-13.2c-5-4.4-9.9-8.9-14.7-13.7C307.2,447.9,302.4,443.3,297.9,438.4z"/>
	<path class="st18" d="M318.8,447.4c1,1.3,1.5,3,1.5,4.6c0,1.7-0.5,3.3-1.5,4.6c-1-1.3-1.5-2.9-1.5-4.6
		C317.2,450.3,317.8,448.7,318.8,447.4z"/>
	<path class="st18" d="M326.8,464.4c-1.3,1.5-3.1,2.7-5,3.3c-1.9,0.7-4,0.9-6,0.5c1.3-1.5,3.1-2.7,5-3.3
		C322.7,464.2,324.8,464.1,326.8,464.4z"/>
	<path class="st18" d="M338.3,474.8c-1.7,1.8-3.8,3.2-6.1,4.1c-2.3,1-4.8,1.4-7.3,1.3c3.6-3.6,8.5-5.5,13.6-5.4H338.3z"/>
	<path class="st18" d="M306.9,447.4c-0.7,0.9-1.8,1.5-3,1.5s-2.3-0.6-3-1.5c0.7-0.9,1.8-1.5,3-1.5S306.2,446.5,306.9,447.4z"/>
	<path class="st18" d="M331.5,468.7c-2.2-2.6-2.6-6.4-0.8-9.4c1.1,1.2,1.8,2.8,1.9,4.5C332.8,465.5,332.4,467.2,331.5,468.7z"/>
	<path class="st21" d="M383.5,416.1c0,0-37.9,67.5-24.1,80.5c3.4-12.9,10.3-67.5,41.3-70.7C400.7,425.8,383.5,422.6,383.5,416.1z"/>
	<path class="st22" d="M324.7,489.1c0,0,23.8,3,38.7,11.9c14.9,8.9,35.8,3,35.8,3s-17.9,3-26.8-3C363.5,495,336.6,483.1,324.7,489.1
		z"/>
	<path class="st23" d="M323.2,642.6c0,0,23.8-8.9,47.7-3c23.8,6,80.5-56.6,80.5-101.3c-3,65.6-51.3,101.6-56.6,104.3
		c-6,3-14.9,8.9-25.6,6.3C355,645.3,326.2,639.6,323.2,642.6z"/>
	<path class="st15" d="M382.8,422c1.6,1.6,3.7,2.7,6,3h-3C384.2,425,382.8,423.7,382.8,422z"/>
</g>
<g id="apple_1_">
	<path class="st13" d="M658.6,812c0,0-44.7,11.9-32.8,74.5s29.8,89.4,62.6,98.3c23.8,6,6-6,50.7,6c44.7,11.9,80.5-95.4,80.5-119.2
		S807.7,806,768.9,809c-38.7,3-56.6,0-56.6,0S667.5,806.1,658.6,812z"/>
	<path class="st14" d="M692.8,834.4c0,0,32.8,17.9,50.7,14.9s35.8-17.9,41.7-6c6,11.9,11.9,17.9,0,47.7s-47.7,86.4-95.4,83.4
		s-71.5-107.3-50.7-140.1C660.1,801.6,692.8,834.4,692.8,834.4z"/>
	<path class="st15" d="M683.9,828.4c0,0,56.6-14.9,56.6,0s-14.9,14.9-14.9,14.9S704.8,828.4,683.9,828.4z"/>
	<path class="st16" d="M798.6,850.8c0,0-17.9-47.7-110.3-23.8c0,0,59.6,17.9,56.6,29.8c-3,11.9-38.7,0-71.5-3s-11.9,101.3,3,116.2
		c-23.8-20.9-59.6-80.5-35.8-137.1C664.5,800.1,721.1,818,745,815C768.8,812,795.6,821,798.6,850.8z"/>
	<g>
		<path class="st17" d="M642.2,756.9c0,0,14.9,56.6,32.8,62.6c17.9,6,35.8,6,41.7,11.9l6-6c0,0-11.9-11.9-11.9-14.9
			s-6-35.8-29.8-41.7C667.8,765.6,654.8,761.7,642.2,756.9z"/>
		<path class="st18" d="M642.2,756.9c3,9.2,6,18.4,9.7,27.3c3.4,9,7.9,17.5,13.4,25.4c2.5,3.9,6.1,6.9,10.3,8.8
			c4.6,1.5,9.2,2.7,13.9,3.6l14.2,2.8c2.4,0.5,4.8,1.1,7.2,1.9c2.5,0.7,4.9,2,6.9,3.8h-2.1l6-6v2.1c-3.4-3.4-6.6-7-9.6-10.8
			c-0.8-1-1.5-2.1-2.1-3.2c-0.2-0.4-0.3-0.7-0.4-1.1c-0.1-0.2-0.1-0.5-0.1-0.7v-0.4c0-0.4-0.1-1.1-0.2-1.6c-0.4-2.3-0.9-4.5-1.6-6.8
			c-2.4-9-6.9-17.3-13.2-24.2c-3.2-3.4-7.2-5.9-11.6-7.4c-2.1-0.8-4.5-1.3-6.8-2s-4.6-1.3-6.9-2C660,763.6,650.9,760.6,642.2,756.9z
			 M642.2,756.9c8.9,3,18.1,5.8,27.3,8.1l6.9,1.8c2.3,0.6,4.6,1,6.9,1.8c4.7,1.5,9,4,12.5,7.5c6.8,7,11.7,15.6,14.3,25
			c0.7,2.3,1.3,4.7,1.7,7.1c0.1,0.6,0.2,1.3,0.2,1.9v0.4l0,0c0.1,0.2,0.1,0.4,0.2,0.6c0.5,1,1.2,1.9,1.8,2.7
			c2.9,3.6,6.1,7.1,9.4,10.4l1,1l-1,1l-6,6l-1,1l-1.1-1c-1.7-1.4-3.6-2.5-5.7-3.1c-2.2-0.7-4.5-1.4-6.9-1.8l-14.2-3
			c-4.8-1-9.5-2.3-14.1-3.8c-2.5-0.9-4.7-2.3-6.5-4.2c-1.8-1.7-3.4-3.7-4.8-5.7c-5.3-8.2-9.6-17-12.8-26.2
			C647.2,775.5,644.4,766.2,642.2,756.9z"/>
	</g>
	<path class="st19" d="M652.6,764.3c0,0,35.8,8.9,44.7,20.9c6.4,8.6,11.9,29.8,11.9,29.8s-14.9-23.8-20.9-29.8
		S658.6,764.3,652.6,764.3z"/>
	<path class="st20" d="M652.6,773.3l50.7,47.7c0,0-32.8-6-35.8-14.9C664.5,797.1,652.6,773.3,652.6,773.3z"/>
	<path class="st18" d="M660.1,774.8c5.4,4,10.5,8.3,15.7,12.6c5.1,4.3,10.1,8.7,15.1,13.1c5,4.4,9.9,8.9,14.7,13.6l7.2,7
		c2.3,2.4,4.7,4.8,7,7.2c-2.7-2-5.3-4.1-7.9-6.2l-7.7-6.4c-5.1-4.3-10.1-8.7-15.1-13.2c-5-4.4-9.9-8.9-14.7-13.7
		C669.4,784.3,664.5,779.7,660.1,774.8z"/>
	<path class="st18" d="M680.9,783.7c1,1.3,1.5,3,1.5,4.6c0,1.7-0.5,3.3-1.5,4.6c-1-1.3-1.5-2.9-1.5-4.6
		C679.4,786.7,679.9,785,680.9,783.7z"/>
	<path class="st18" d="M689,800.8c-1.3,1.5-3.1,2.7-5,3.3c-1.9,0.7-4,0.9-6,0.5c1.3-1.5,3.1-2.7,5-3.3
		C684.9,800.6,687,800.4,689,800.8z"/>
	<path class="st18" d="M700.5,811.1c-1.7,1.8-3.8,3.2-6.1,4.1c-2.3,1-4.8,1.4-7.3,1.3c3.6-3.6,8.5-5.5,13.6-5.4L700.5,811.1
		L700.5,811.1z"/>
	<path class="st18" d="M669.1,783.7c-0.7,0.9-1.8,1.5-3,1.5s-2.3-0.6-3-1.5c0.7-0.9,1.8-1.5,3-1.5
		C667.3,782.3,668.4,782.8,669.1,783.7z"/>
	<path class="st18" d="M693.7,805c-2.2-2.6-2.6-6.4-0.8-9.4c1.1,1.2,1.8,2.8,1.9,4.5C694.9,801.8,694.6,803.5,693.7,805z"/>
	<path class="st21" d="M745.6,752.4c0,0-37.9,67.5-24.1,80.5c3.4-12.9,10.3-67.5,41.3-70.7C762.9,762.1,745.6,758.9,745.6,752.4z"/>
	<path class="st22" d="M686.9,825.4c0,0,23.8,3,38.7,11.9s35.8,3,35.8,3s-17.9,3-26.8-3S698.8,819.5,686.9,825.4z"/>
	<path class="st23" d="M685.4,978.9c0,0,23.8-8.9,47.7-3c23.8,6,80.5-56.6,80.5-101.3c-3,65.6-51.3,101.6-56.6,104.3
		c-6,3-14.9,8.9-25.6,6.3C717.2,981.6,688.4,975.9,685.4,978.9z"/>
	<path class="st15" d="M745,758.4c1.6,1.6,3.7,2.7,6,3h-3C746.3,761.4,745,760,745,758.4z"/>
</g>
<path d="M757.4,564.6V550h125.5v14.6H757.4z M757.4,612.2v-14.7h125.5v14.6L757.4,612.2z"/>
<line class="st24" x1="106.5" y1="701.4" x2="1593.5" y2="701.4"/>
<g>
	<path class="st25" d="M976.6,814c0,0,5.1-29.3-35.4-33.5C941.2,780.4,931.1,814,976.6,814z"/>
	<path class="st21" d="M996.3,762.9c0,0-37.1,66.1-23.6,78.8c3.4-12.7,10.1-66.1,40.4-69.3C1013.2,772.4,996.3,769.3,996.3,762.9z"
		/>
	<path class="st13" d="M914.4,815.8c0,0-43.8,11.7-32.1,72.9c11.7,61.3,26.3,90.4,58.3,99.2c23.3,5.8,8.8-8.8,52.5,2.9
		c43.8,11.7,78.8-93.4,78.8-116.7s-11.7-64.2-49.6-61.3s-55.4,0-55.4,0S923.1,810,914.4,815.8z"/>
	<path class="st26" d="M919.8,823.3c0,0-40,10.6-29.2,66.5s23.6,82.8,52.8,90.8c21.3,5.3,8.3-8.3,48.2,2.4
		c39.9,10.6,71.9-85.2,71.9-106.4s-10.6-58.7-45.2-56c-34.6,2.7-50.6,0-50.6,0S927.8,818,919.8,823.3z"/>
	<path class="st27" d="M962.6,883.1c0,0-9.6,2.6-7,16s6.4,19.2,13.4,21.1c5.1,1.3,2.5-2.2,12.1,0.3c9.6,2.6,16-19.5,16-24.6
		s-2.6-14.1-10.9-13.4c-4,0.4-8.1,0.4-12.1,0C974.1,882.4,964.5,881.8,962.6,883.1z"/>
	<path class="st28" d="M970.9,892.7c0,0-11.7,5.8-8.8,8.8S967.9,907.3,970.9,892.7z"/>
	<path class="st28" d="M982.1,892.7c0,0,11.7,5.8,8.8,8.8C987.9,904.4,985,907.3,982.1,892.7z"/>
	<path class="st29" d="M1029.2,822.7c0,0,26.3,8.8,29.2,52.5c2.9,43.8-40.8,96.3-46.7,102.1C1020.5,959.8,1073,875.2,1029.2,822.7z"
		/>
</g>
<g>
	<path class="st30" d="M1273.6,262.2c0,0-13.4,13.2-19.8,11.4c-6.4-1.8-18.9-4.7-15.4-16.9C1241.9,244.5,1255.9,239.5,1273.6,262.2z
		"/>
	<path class="st31" d="M1243.5,263.1c4.2,2.5,9.1,3.9,14,3.9C1257.5,267,1245,263.5,1243.5,263.1z"/>
	<path class="st30" d="M1311.9,269.6c0,0-13.3,13.2-19.7,11.4c-6.4-1.8-18.9-4.7-15.4-16.9C1280.3,251.9,1294.2,247,1311.9,269.6z"
		/>
	<path class="st31" d="M1281.9,270.4c4.2,2.5,9.1,3.8,14,3.9C1295.8,274.3,1283.4,271,1281.9,270.4z"/>
	<path class="st30" d="M1286.6,212.3c0,0,11.1,15.2,8.4,21.2c-2.7,6-7.4,18-19,12.8C1264.4,241.1,1261.6,226.6,1286.6,212.3z"/>
	<path class="st31" d="M1282.9,242.1c3.1-3.9,5.2-8.5,5.9-13.4C1288.9,228.7,1283.7,240.8,1282.9,242.1z"/>
	<path class="st30" d="M1246.9,200.2c0,0,11.1,15.2,8.4,21.2c-2.7,6-7.4,18-19,12.8C1224.7,228.9,1221.9,214.5,1246.9,200.2z"/>
	<path class="st31" d="M1243.2,230.1c3.1-3.9,5.2-8.5,5.9-13.4C1249.2,216.7,1243.9,228.7,1243.2,230.1z"/>
	<path class="st30" d="M1236.9,274.5c0,0-16.4,9.2-22,5.8c-5.7-3.4-17-9.5-10.5-20.4C1210.9,249.1,1226,248,1236.9,274.5z"/>
	<path class="st31" d="M1207.9,267.4c3.5,3.6,7.8,6.2,12.6,7.5C1220.4,274.9,1209.1,268.4,1207.9,267.4z"/>
	<path class="st30" d="M1227.7,241.1c0,0-16.4,9.2-22,5.8s-17-9.5-10.5-20.4C1201.7,215.6,1216.6,214.5,1227.7,241.1z"/>
	<path class="st31" d="M1198.5,233.9c3.5,3.6,7.8,6.1,12.6,7.5C1211.1,241.4,1199.8,234.8,1198.5,233.9z"/>
	<path class="st30" d="M1238,291.8c0,0,15.1-11.2,21.2-8.4s18,7.3,12.8,18.9C1266.8,313.9,1252.4,316.7,1238,291.8z"/>
	<path class="st31" d="M1267.9,295.3c-3.9-3.1-8.6-5.2-13.5-5.9C1254.4,289.4,1266.5,294.5,1267.9,295.3z"/>
	<path class="st30" d="M1303.3,249.6c0,0,3-18.6,9.3-21c6.2-2.4,18-7.3,22.4,4.6C1339.3,245.1,1331,257.5,1303.3,249.6z"/>
	<path class="st31" d="M1327.2,231.2c-4.9,0.5-9.7,2.3-13.7,5.1C1313.5,236.4,1325.6,231.6,1327.2,231.2z"/>
	<path class="st30" d="M1247.6,341c0,0,3-18.6,9.3-21c6.2-2.4,18-7.3,22.4,4.6C1283.6,336.6,1275.4,348.9,1247.6,341z"/>
	<path class="st31" d="M1271.4,322.6c-4.9,0.5-9.5,2.3-13.5,5.1C1257.9,327.8,1269.8,323.1,1271.4,322.6z"/>
	<path class="st30" d="M1315,285.6c0,0,3-18.6,9.2-21c6.2-2.4,18-7.3,22.4,4.6S1342.7,293.4,1315,285.6z"/>
	<path class="st31" d="M1338.8,267.2c-4.9,0.5-9.7,2.3-13.7,5.1C1325.1,272.3,1337.2,267.6,1338.8,267.2z"/>
	<path class="st30" d="M1331.3,300.5c0,0,18.4,3.7,20.5,10s6.6,18.3-5.4,22.2S1322.3,327.8,1331.3,300.5z"/>
	<path class="st31" d="M1348.7,324.9c-0.3-5-1.9-9.8-4.6-14C1344.1,310.9,1348.3,323.3,1348.7,324.9z"/>
	<path class="st30" d="M1349.4,235.5c0,0,18.4,3.7,20.5,10c2.1,6.3,6.7,18.3-5.4,22.2S1340.5,263.1,1349.4,235.5z"/>
	<path class="st31" d="M1366.9,260c-0.3-5-1.9-9.8-4.6-14C1362.2,246.1,1366.5,258.5,1366.9,260z"/>
	<path class="st30" d="M1174,260c0,0,18.4,3.5,20.5,10c2.1,6.5,6.7,18.3-5.4,22.2S1165.1,287.5,1174,260z"/>
	<path class="st31" d="M1191.5,284.5c-0.3-5-1.9-9.8-4.6-14C1186.9,270.5,1191,282.9,1191.5,284.5z"/>
	<path class="st30" d="M1337.7,194.5c0,0,18.4,3.7,20.5,10c2.1,6.3,6.7,18.3-5.4,22.2C1340.8,230.7,1328.9,221.9,1337.7,194.5z"/>
	<path class="st31" d="M1355.2,219c-0.3-5-1.9-9.8-4.6-14C1350.6,205,1354.8,217.4,1355.2,219z"/>
	<path class="st30" d="M1281.9,314.6c0,0,3-18.5,9.2-21c6.2-2.4,18-7.3,22.4,4.6C1317.8,310.2,1309.5,322.5,1281.9,314.6z"/>
	<path class="st31" d="M1305.7,296.3c-4.9,0.5-9.7,2.3-13.7,5.2C1292,301.5,1304.1,296.7,1305.7,296.3z"/>
	<path class="st30" d="M1294.1,208.6c0,0,3-18.6,9.2-21c6.2-2.4,18-7.3,22.4,4.6C1330,204.1,1321.7,216.5,1294.1,208.6z"/>
	<path class="st31" d="M1317.8,190.2c-4.9,0.5-9.6,2.2-13.7,5.1C1304.2,195.4,1316.3,190.6,1317.8,190.2z"/>
	<path class="st30" d="M1257.1,171.7c0,0,18.6-2.7,22.6,2.6c4.1,5.2,12.4,15,2.4,22.7C1272.1,204.8,1257.9,200.5,1257.1,171.7z"/>
	<path class="st31" d="M1281.8,188.9c-1.9-4.6-5.1-8.5-9-11.5C1272.8,177.4,1280.9,187.6,1281.8,188.9z"/>
	<path class="st30" d="M1205.5,293.1c0,0,18.6-2.7,22.7,2.5s12.4,15,2.4,22.7C1220.5,326.1,1206.4,321.8,1205.5,293.1z"/>
	<path class="st31" d="M1230.2,310.2c-2-4.6-5.1-8.5-9-11.5C1221.2,298.7,1229.3,308.9,1230.2,310.2z"/>
</g>
</svg>
