<?xml version="1.0" encoding="utf-8"?>
<!-- Generator: Adobe Illustrator 23.0.4, SVG Export Plug-In . SVG Version: 6.00 Build 0)  -->
<svg version="1.1" id="Layer_1" xmlns="http://www.w3.org/2000/svg" xmlns:xlink="http://www.w3.org/1999/xlink" x="0px" y="0px"
	 viewBox="0 0 1700 1080" style="enable-background:new 0 0 1700 1080;" xml:space="preserve">
<style type="text/css">
	.st0{font-family:'GillSans';}
	.st1{font-size:70px;}
	.st2{display:none;enable-background:new    ;}
	.st3{font-size:80px;}
	.st4{fill:#DA3732;stroke:#000000;stroke-width:0.8;stroke-linejoin:round;}
	.st5{fill:#DE543E;}
	.st6{fill:#AB2925;}
	.st7{fill:#E27F68;}
	.st8{fill:#A5C058;}
	.st9{fill:#006837;}
	.st10{fill:#72974F;}
	.st11{fill:#D7DC84;}
	.st12{fill:#E27F68;stroke:#000000;stroke-width:0.8;stroke-linecap:round;stroke-linejoin:round;}
	.st13{stroke:#000000;stroke-width:0.8;stroke-linecap:round;stroke-linejoin:round;}
	.st14{fill:#A82925;}
	.st15{fill:#336600;stroke:#000000;stroke-width:0.8;stroke-linecap:round;stroke-linejoin:round;}
	.st16{fill:#EFE8BB;}
	.st17{opacity:0.28;fill:#ADA471;enable-background:new    ;}
	.st18{fill:#722A0D;stroke:#000000;stroke-width:0.8;stroke-linejoin:round;}
	.st19{fill:#EFDF9C;}
</style>
<text transform="matrix(1 0 0 1 51.9834 638.498)" class="st0 st1">Conclusion: </text>
<text transform="matrix(1 0 0 1 51.9834 722.498)" class="st0 st1">Apples have seeds. </text>
<text transform="matrix(1 0 0 1 51.9834 806.498)" class="st0 st1">(Specific conclusion)</text>
<text transform="matrix(1 0 0 1 854.9834 414.498)" class="st0 st1">According to the reasons, </text>
<text transform="matrix(1 0 0 1 854.9834 498.498)" class="st0 st1">the conclusion makes sense. </text>
<text transform="matrix(1 0 0 1 910.9834 648.498)" class="st2 st0 st3">LOGICALLY TRUE</text>
<g>
	<g>
		<rect x="429" y="411.5" width="290.3" height="42.1"/>
	</g>
	<g>
		<polygon points="824,431.8 705.1,500.5 705.1,363.2 		"/>
	</g>
</g>
<g id="apple_1_">
	<path class="st4" d="M95.5,357c0,0-36.2,9.7-26.5,60.3S93,489.7,119.6,497c19.3,4.8,4.8-4.8,41,4.8s65.1-77.2,65.1-96.5
		s-9.7-53.1-41-50.7c-31.4,2.4-45.8,0-45.8,0S102.7,352.2,95.5,357z"/>
	<path class="st5" d="M123.2,375.1c0,0,26.5,14.5,41,12.1c14.5-2.4,29-14.5,33.8-4.8c4.8,9.7,9.7,14.5,0,38.6
		c-9.7,24.1-38.6,70-77.2,67.6c-38.6-2.4-57.9-86.9-41-113.4C96.7,348.6,123.2,375.1,123.2,375.1z"/>
	<path class="st6" d="M116,370.3c0,0,45.8-12.1,45.8,0c0,12.1-12.1,12.1-12.1,12.1S132.8,370.3,116,370.3z"/>
	<path class="st7" d="M208.8,388.4c0,0-14.5-38.6-89.3-19.3c0,0,48.3,14.5,45.8,24.1s-31.4,0-57.9-2.4c-26.5-2.4-9.7,82,2.4,94.1
		c-19.3-16.9-48.3-65.1-29-111c19.3-26.5,65.1-12.1,84.4-14.5C184.7,357,206.4,364.3,208.8,388.4z"/>
	<g>
		<path class="st8" d="M82.2,312.4c0,0,12.1,45.8,26.5,50.7s29,4.8,33.8,9.7l4.8-4.8c0,0-9.7-9.7-9.7-12.1c0-2.4-4.8-29-24.1-33.8
			C102.9,319.5,92.4,316.3,82.2,312.4z"/>
		<path class="st9" d="M82.2,312.4c2.4,7.5,4.8,14.9,7.9,22.1c2.8,7.3,6.4,14.2,10.8,20.6c2,3.1,4.9,5.6,8.3,7.1
			c3.7,1.2,7.4,2.2,11.2,2.9l11.5,2.2c1.9,0.4,3.9,0.9,5.8,1.5c2.1,0.6,4,1.6,5.6,3.1h-1.7l4.8-4.8v1.7c-2.8-2.8-5.3-5.7-7.8-8.7
			c-0.6-0.8-1.2-1.7-1.7-2.6c-0.1-0.3-0.3-0.6-0.3-0.9c-0.1-0.2-0.1-0.4-0.1-0.6v-0.3c0-0.4-0.1-0.9-0.2-1.3
			c-0.3-1.8-0.7-3.7-1.3-5.5c-1.9-7.3-5.6-14-10.7-19.6c-2.6-2.7-5.8-4.8-9.4-6c-1.7-0.7-3.6-1.1-5.5-1.6c-1.8-0.5-3.7-1-5.5-1.6
			C96.6,317.8,89.3,315.4,82.2,312.4z M82.2,312.4c7.2,2.4,14.6,4.7,22.1,6.6l5.6,1.4c1.9,0.5,3.7,0.8,5.6,1.5
			c3.8,1.2,7.3,3.3,10.1,6c5.5,5.6,9.5,12.6,11.6,20.2c0.6,1.9,1,3.8,1.4,5.7c0.1,0.5,0.2,1,0.2,1.6c0,0,0,0.3,0,0.4l0,0
			c0.1,0.2,0.1,0.3,0.2,0.5c0.4,0.8,0.9,1.5,1.5,2.2c2.4,2.9,4.9,5.8,7.6,8.4l0.8,0.8l-0.8,0.8l-4.8,4.8l-0.8,0.8l-0.9-0.8
			c-1.3-1.2-2.9-2-4.6-2.5c-1.8-0.6-3.7-1.1-5.5-1.5l-11.5-2.4c-3.9-0.8-7.7-1.8-11.4-3.1c-2-0.7-3.8-1.9-5.3-3.4
			c-1.4-1.4-2.7-3-3.9-4.6c-4.3-6.6-7.8-13.7-10.4-21.2C86.3,327.4,84,320,82.2,312.4z"/>
	</g>
	<path class="st10" d="M90.6,318.4c0,0,29,7.2,36.2,16.9c5.2,6.9,9.7,24.1,9.7,24.1s-12.1-19.3-16.9-24.1S95.5,318.4,90.6,318.4z"/>
	<path class="st11" d="M90.6,325.7l41,38.6c0,0-26.5-4.8-29-12.1C100.3,345,90.6,325.7,90.6,325.7z"/>
	<path class="st9" d="M96.7,326.9c4.3,3.3,8.5,6.7,12.7,10.2c4.1,3.5,8.2,7,12.2,10.6c4,3.6,8,7.2,11.9,11.1l5.8,5.7
		c1.9,2,3.8,3.9,5.6,5.9c-2.2-1.6-4.3-3.3-6.4-5l-6.3-5.2c-4.1-3.5-8.2-7.1-12.2-10.7c-4-3.6-8-7.2-11.9-11.1
		S100.3,330.9,96.7,326.9z"/>
	<path class="st9" d="M113.5,334.1c0.8,1.1,1.2,2.4,1.2,3.7c0,1.3-0.4,2.7-1.2,3.7c-0.8-1.1-1.2-2.4-1.2-3.7
		C112.3,336.5,112.8,335.2,113.5,334.1z"/>
	<path class="st9" d="M120.1,347.9c-1.1,1.2-2.5,2.2-4.1,2.7c-1.5,0.6-3.2,0.7-4.8,0.4c1.1-1.2,2.5-2.2,4.1-2.7
		C116.8,347.8,118.4,347.6,120.1,347.9z"/>
	<path class="st9" d="M129.4,356.3c-1.4,1.4-3.1,2.6-5,3.3c-1.9,0.8-3.9,1.1-5.9,1C121.4,357.8,125.4,356.2,129.4,356.3L129.4,356.3
		z"/>
	<path class="st9" d="M104,334.1c-0.6,0.7-1.5,1.2-2.4,1.2c-0.9,0-1.8-0.5-2.4-1.2c0.6-0.8,1.5-1.2,2.4-1.2
		C102.5,332.9,103.4,333.4,104,334.1z"/>
	<path class="st9" d="M123.9,351.4c-1.8-2.1-2.1-5.2-0.7-7.6c0.9,1,1.4,2.3,1.5,3.6C124.9,348.8,124.6,350.2,123.9,351.4z"/>
	<path class="st12" d="M166,308.8c0,0-30.7,54.7-19.5,65.1c2.8-10.5,8.3-54.7,33.4-57.3C179.9,316.6,166,314,166,308.8z"/>
	<path class="st13" d="M118.4,367.9c0,0,19.3,2.4,31.4,9.7c12.1,7.2,29,2.4,29,2.4s-14.5,2.4-21.7-2.4S128,363.1,118.4,367.9z"/>
	<path class="st14" d="M117.2,492.1c0,0,19.3-7.2,38.6-2.4s65.1-45.8,65.1-82c-2.4,53.1-41.5,82.3-45.8,84.4
		c-4.8,2.4-12.1,7.2-20.7,5.1C142.9,494.3,119.6,489.7,117.2,492.1z"/>
	<path class="st6" d="M165.4,313.6c1.3,1.3,3,2.2,4.8,2.4h-2.4C166.5,316,165.4,314.9,165.4,313.6z"/>
</g>
<g>
	<path class="st15" d="M337.7,356.6c0,0,4.1-23.8-28.7-27.2C309,329.4,300.8,356.6,337.7,356.6z"/>
	<path class="st12" d="M353.6,315.2c0,0-30,53.5-19.1,63.8c2.7-10.3,8.2-53.5,32.7-56.1C367.2,322.9,353.6,320.4,353.6,315.2z"/>
	<path class="st4" d="M287.3,358.1c0,0-35.4,9.4-26,59c9.4,49.6,21.3,73.2,47.2,80.3c18.9,4.7,7.1-7.1,42.5,2.4
		c35.4,9.4,63.8-75.6,63.8-94.5s-9.4-52-40.2-49.6s-44.9,0-44.9,0S294.4,353.3,287.3,358.1z"/>
	<path class="st16" d="M291.7,364.1c0,0-32.4,8.6-23.6,53.9s19.1,67,42.8,73.5c17.2,4.3,6.7-6.7,39,1.9s58.2-69,58.2-86.1
		c0-17.1-8.6-47.5-36.6-45.3c-28,2.1-41,0-41,0S298.1,359.9,291.7,364.1z"/>
	<path class="st17" d="M326.3,412.5c0,0-7.7,2.1-5.7,12.9c2.1,10.9,5.2,15.5,10.9,17.1c4.2,1,2.1-1.8,9.8,0.3s13-15.8,13-19.9
		s-2.1-11.4-8.8-10.9c-3.3,0.4-6.6,0.4-9.8,0C335.6,412,327.8,411.5,326.3,412.5z"/>
	<path class="st18" d="M333,420.3c0,0-9.4,4.7-7.1,7.1C328.3,429.8,330.6,432.1,333,420.3z"/>
	<path class="st18" d="M342.1,420.3c0,0,9.4,4.7,7.1,7.1C346.8,429.8,344.4,432.1,342.1,420.3z"/>
	<path class="st19" d="M380.2,363.7c0,0,21.3,7.1,23.6,42.5s-33.1,77.9-37.8,82.7C373.2,474.7,415.7,406.2,380.2,363.7z"/>
</g>
<text transform="matrix(1 0 0 1 911.9834 627.498)" class="st0 st3">LOGICALLY TRUE</text>
</svg>
