<svg id="Layer_1" data-name="Layer 1" xmlns="http://www.w3.org/2000/svg" viewBox="0 0 100 100"><title>Artboard 1</title><path d="M33.1,33.28A5.78,5.78,0,0,0,36,38.2V37.06a3.48,3.48,0,0,1,1.2-2.69,4.33,4.33,0,0,1,3-1.09q5,0,5,5a7,7,0,0,1-2.63,5.55,9.74,9.74,0,0,1-6.53,2.23,11,11,0,0,1-8.3-3.38,11.94,11.94,0,0,1-3.26-8.64q0-9.61,8.19-15.86t21-6.24q12.7,0,20.44,5.95a18.86,18.86,0,0,1,7.73,15.69q0,12.26-12.14,18.44-2.05,1-5.27,2.4-6.75,2.86-9.22,5.5a9.82,9.82,0,0,0-2.46,7,11.16,11.16,0,0,1-.57,4.36Q51.31,73,48.56,73q-4.81,0-4.81-6a15.87,15.87,0,0,1,2.74-9.39q3.43-4.7,12.6-9.73,8.25-4.47,10.65-7.22a10.91,10.91,0,0,0,2.41-7.44A12,12,0,0,0,67,23.14c-3.43-2.55-8-3.83-13.62-3.83s-10.54,1.35-14.43,4.06S33.1,29.38,33.1,33.28ZM49.59,92.82a7.21,7.21,0,1,1,0-14.42,6.74,6.74,0,0,1,5,2.11,7.32,7.32,0,0,1,0,10.2A6.74,6.74,0,0,1,49.59,92.82Z"/></svg>