<svg id="Layer_1" data-name="Layer 1" xmlns="http://www.w3.org/2000/svg" viewBox="0 0 100 100"><defs><style>.cls-1{fill:#da3732;}.cls-1,.cls-2,.cls-3,.cls-4,.cls-5,.cls-6,.cls-7,.cls-8,.cls-9{stroke:#000;}.cls-1,.cls-2,.cls-3,.cls-4,.cls-6{stroke-linejoin:round;}.cls-2{fill:#422;}.cls-3{fill:#819120;}.cls-4{fill:#8e6a21;}.cls-5{fill:#93c;}.cls-5,.cls-7,.cls-8,.cls-9{stroke-miterlimit:10;}.cls-5,.cls-6,.cls-7{stroke-width:0.8px;}.cls-10,.cls-6{fill:#fc3;}.cls-6{stroke-linecap:round;}.cls-7{fill:#e08122;}.cls-8{fill:#693;stroke-width:0.4px;}.cls-9{fill:#7a5d3d;}.cls-11{fill:#ffec00;}.cls-12{fill:#a37d57;}</style></defs><title>Artboard 2</title><g id="fruits"><path class="cls-1" d="M40.5,24.5s-10,3-6,9a14.16,14.16,0,0,0,11,6s11-3,11-7-4-12-9-13C43.58,18.72,42.5,19.5,40.5,24.5Z"/><polygon class="cls-2" points="38.5 21.5 40.5 24.5 40.5 20.5 38.5 21.5"/><path class="cls-3" d="M68.42,31.67s-5.89-8.62-10.39-3A14.16,14.16,0,0,0,55.64,41s6,7.73,9.86,6.52,10-6,9.81-10.67C75.14,32.83,73.79,32.06,68.42,31.67Z"/><polygon class="cls-4" points="70.67 28.86 68.42 31.67 72.23 30.46 70.67 28.86"/><circle class="cls-5" cx="50.5" cy="41.5" r="3"/><circle class="cls-5" cx="47.5" cy="37.5" r="3"/><circle class="cls-5" cx="45.5" cy="42.5" r="3"/><circle class="cls-5" cx="53.5" cy="36.5" r="3"/><circle class="cls-5" cx="49.5" cy="32.5" r="3"/><circle class="cls-5" cx="44.5" cy="32.5" r="3"/><circle class="cls-5" cx="55.5" cy="41.5" r="3"/><circle class="cls-5" cx="51.5" cy="45.5" r="3"/><circle class="cls-5" cx="47.5" cy="45.5" r="3"/><circle class="cls-5" cx="42.5" cy="38.5" r="3"/><circle class="cls-5" cx="42.5" cy="42.5" r="3"/><circle class="cls-5" cx="41.5" cy="45.5" r="3"/><circle class="cls-5" cx="47.5" cy="40.5" r="3"/><circle class="cls-5" cx="52.5" cy="39.5" r="3"/><circle class="cls-5" cx="47.5" cy="36.5" r="3"/><path class="cls-6" d="M81.5,31.5a10.34,10.34,0,0,1-1-4c0-2,3-4,3-2s-1,6,1,8,.58,6.18,0,7c-1.72,2.43-3.69,5-4.9,6.55a7.39,7.39,0,0,1-3.13,2.36c-4.08,1.64-13.6,4.42-22-.91,0,0-1-1,1-2s7,0,11-1,9-6,11-9S81.5,33.5,81.5,31.5Z"/><ellipse class="cls-7" cx="27" cy="44" rx="12" ry="11"/><ellipse class="cls-8" cx="23.5" cy="38" rx="1.5" ry="1"/><ellipse class="cls-8" cx="21.5" cy="39" rx="1.5" ry="1"/><ellipse class="cls-8" cx="21.5" cy="38" rx="1.5" ry="1"/><path class="cls-9" d="M11,49H89a0,0,0,0,1,0,0v4.94A16.06,16.06,0,0,1,72.94,70H27.06A16.06,16.06,0,0,1,11,53.94V49A0,0,0,0,1,11,49Z"/><path class="cls-10" d="M29,37a11.23,11.23,0,0,1,7,9s2-5-2-8C30.7,35.53,29,37,29,37Z"/><path class="cls-11" d="M82,38s-3,8-5,9c0,0,5-4,6-7a6.93,6.93,0,0,0,0-5Z"/><path class="cls-12" d="M86.5,52h-10s-1,15-4,16C72.5,68,86.5,65,86.5,52Z"/></g></svg>