<svg id="Layer_1" data-name="Layer 1" xmlns="http://www.w3.org/2000/svg" viewBox="0 0 100 100"><defs><style>.cls-1{fill:#0c0c0c;}.cls-2{fill:#ed332b;}.cls-3{fill:#f58c3a;}.cls-3,.cls-4,.cls-5{stroke:#231f20;stroke-miterlimit:10;}.cls-4{fill:#f9eb18;}.cls-5{fill:#ebebe2;}.cls-6{fill:#fff;}</style></defs><title>Artboard 1</title><path class="cls-1" d="M59.72,13.18c0-6.53-6.24-11.82-13.93-11.82S32.25,6.67,31.87,13.18c-.55,9.18,6.23,9.91,13.92,9.91S59.72,19.71,59.72,13.18Z"/><path class="cls-2" d="M36,16.45s.18,2.9,6,2.17,6.11-1.15,6-3.5-3.56-3.81-8.7-2.24S36,16.45,36,16.45Z"/><path class="cls-1" d="M38.77,22.44s-6.4-1.33-11.84,5-7.85,15-9.66,24.28S8.45,70.9,8.93,74.16s6.28,8.7,12.81-1.81a41.14,41.14,0,0,0,5.8-21.94L45.16,32.59,58,43.83l5.19,15.71,4.36.72s7.12,16.31,12.8,16.68S90.61,74.52,83,65s-7.13-3.87-14.14-27.07c-2-8.22-10.15-17.28-19.33-16.8S38.77,22.44,38.77,22.44Z"/><path class="cls-3" d="M34.36,82.8s-1.45,2.53-3.26,2.9l-1.81.36c-.61.12-10.88,2.54-11.48,4.83s-.61,7,12,6.65S41.37,93,41.25,88,34.36,82.8,34.36,82.8Z"/><path class="cls-3" d="M54.13,84.5s-4.83,4.84-5.19,7.74-1.93,4.63,5.19,5.7,14.5,2.15,17.4-4.25-11-5-14.62-10S54.13,84.5,54.13,84.5Z"/><path class="cls-4" d="M68.88,66.42C65.25,39.07,57.7,28.09,45.11,28S25.25,44.12,25.17,64.35,35.94,87.56,48.52,87.61,70.53,85.76,68.88,66.42Z"/><path class="cls-5" d="M68.92,67.67C65.17,42.05,57.58,31.78,45,31.78s-19.8,15.15-19.8,34.11S36.06,87.6,48.64,87.6,70.64,85.79,68.92,67.67Z"/><ellipse class="cls-6" cx="49.54" cy="9.46" rx="2.05" ry="2.79" transform="translate(8.87 39.3) rotate(-47.08)"/><ellipse class="cls-6" cx="35.27" cy="9.71" rx="2.79" ry="1.43" transform="translate(9.23 35.4) rotate(-60)"/><ellipse class="cls-1" cx="35.3" cy="9.72" rx="1.78" ry="0.98" transform="translate(9.23 35.43) rotate(-60)"/><ellipse class="cls-1" cx="50" cy="9.72" rx="1.14" ry="1.59" transform="translate(2.62 28.42) rotate(-32.54)"/></svg>