<?xml version="1.0" encoding="utf-8"?>
<!-- Generator: Adobe Illustrator 23.0.4, SVG Export Plug-In . SVG Version: 6.00 Build 0)  -->
<svg version="1.1" id="Layer_1" xmlns="http://www.w3.org/2000/svg" xmlns:xlink="http://www.w3.org/1999/xlink" x="0px" y="0px"
	 viewBox="0 0 1700 1080" style="enable-background:new 0 0 1700 1080;" xml:space="preserve">
<style type="text/css">
	.st0{display:none;enable-background:new    ;}
	.st1{font-family:'GillSans';}
	.st2{font-size:80px;}
	.st3{fill:#C68456;stroke:#231F20;stroke-linecap:round;stroke-miterlimit:10;}
	.st4{fill:#FBEDB0;stroke:#231F20;stroke-linecap:round;stroke-miterlimit:10;}
	.st5{stroke:#000000;stroke-linejoin:round;}
	.st6{fill:#4453A3;stroke:#000000;stroke-width:0.8;stroke-linecap:round;stroke-miterlimit:10;}
	.st7{fill:#F9EB18;stroke:#000000;stroke-width:0.8;stroke-linecap:round;stroke-miterlimit:10;}
	.st8{fill:#848A8A;stroke:#000000;stroke-width:0.8;stroke-linecap:round;stroke-miterlimit:10;}
	.st9{fill:#DA1F29;stroke:#000000;stroke-width:0.8;stroke-linecap:round;stroke-miterlimit:10;}
	.st10{fill:#D1C9C2;stroke:#000000;stroke-width:0.8;stroke-linecap:round;stroke-miterlimit:10;}
	.st11{fill:none;stroke:#000000;stroke-width:0.8;stroke-linecap:round;stroke-miterlimit:10;}
	.st12{fill:#2A1B1B;stroke:#000000;stroke-width:0.8;stroke-linecap:round;stroke-miterlimit:10;}
	.st13{fill:#DFCD85;stroke:#000000;stroke-width:0.8;stroke-linecap:round;stroke-miterlimit:10;}
	.st14{fill:#FFFFFF;stroke:#000000;stroke-width:0.8;stroke-linecap:round;stroke-miterlimit:10;}
	.st15{fill:#8C523D;stroke:#000000;stroke-width:0.8;stroke-linecap:round;stroke-miterlimit:10;}
	.st16{fill:#25291D;stroke:#000000;stroke-width:0.8;stroke-linecap:round;stroke-miterlimit:10;}
	.st17{fill:#DA1F29;}
	.st18{opacity:0.7;fill:none;stroke:#000000;stroke-width:7;stroke-miterlimit:10;enable-background:new    ;}
</style>
<text transform="matrix(1 0 0 1 910.9834 648.498)" class="st0 st1 st2">LOGICALLY TRUE</text>
<g>
	<path class="st3" d="M1034.4,305.1l-52.9-9.1l45.7-9.1L973,273l49.5-1.6L990,257.2l46.6,6.2l-26.8-16.1l85.3,11l254.6,1.1
		l40.6-12.1l-14.4,15.8l45.8-4.9l-23,16.9l39.9-4.9c0,0-39.9,41.2-117.2,51.6c-53.2,6.2-106.9,7.7-160.3,4.5L1034.4,305.1z"/>
	<path class="st4" d="M1180.5,193.6c-28.5-40.7-60.7-67.4-90.3-53.5c-29.7,13.8-32.7,56.3-17.2,103.5c14.8,45.4,60.7,67.4,90.3,53.5
		C1193,283.2,1207.8,232.7,1180.5,193.6z"/>
	<path class="st4" d="M1367.5,259.1c14.3-46.3,4.9-95.1-12.9-101.5c-30-10.9-62.9,8.6-90.1,48.9c-26,38.6-15.5,86.9,12.9,101.5
		C1305.8,322.7,1353.8,303.6,1367.5,259.1z"/>
	<path class="st4" d="M1296.8,218.5c7.8-66.8-0.9-122.6-43.4-135.3s-83.8,27.7-110.4,89.4c-25.7,59.4,0.9,122.6,43.4,135.3
		C1228.9,320.6,1289.2,282.7,1296.8,218.5z"/>
	<path class="st3" d="M1007.6,261.7c0,0-11.8,39.1,51.9,53.3s123.5,40.3,183.5,24.6c62.4-16.3,143.1-17.5,183-60.5
		c0,0-24.1,10.2-37.4,11.2c0,0,17.6-18.7,15.5-28.9c0,0-33.7,23.6-56.7,25.1c0,0,19.2-14.8,24-32.6c0,0-53.5,39.1-72.8,40.1
		c0,0,19.7-18.7,19.3-28.3c0,0-34.2,36.9-51.3,38.5c4.4-9.7,5.4-20.7,2.7-31c0,0-10.9,17.4-26.8,21.1l-15.8,3.7
		c0,0-23.6,1.3-34.8-15.5c2.1,9.2,7.7,17.2,15.5,22.5c0,0-29.6-8.8-38-17.9c0,0,4.6,15.5,13.1,19.7c0,0-34.7-9.9-45.7-23.5
		c-2.2,5.4-1.9,11.5,0.8,16.8c0,0-40.1-20.6-51.1-32.4c0,0,8,29.6,21.4,38.8c0,0-47.9-14.8-54.2-38.8c0,0,0,27.8,6.7,33.2
		c0,0-34.5-18.5-38.8-46.8c0,0-4.9,28.6,1.3,35C1023.1,289.2,1007.3,265.7,1007.6,261.7z"/>
	<path class="st4" d="M1276.1,225c0.6,6.4-2.5,12.6-8,16.1"/>
	<path class="st4" d="M1340.7,250.9c1.9-3.4,3.5-7,4.9-10.6"/>
	<path class="st4" d="M1163.8,260.3c-1.5-3.6-3.3-7.1-5.3-10.5"/>
	<path class="st4" d="M1163.6,197.1c-7.8,7.3-12,17.6-11.4,28.2"/>
	<path class="st4" d="M1116.2,266.6c3.4,5.5,7.1,10.7,11.2,15.7"/>
	<path class="st4" d="M1300.3,272.5c-4.1,5-8,10.2-11.4,15.6"/>
</g>
<g>
	<path class="st3" d="M1072.4,933.1l-52.9-9.1l45.7-9.1L1011,901l49.5-1.6l-32.5-14.2l46.6,6.2l-26.8-16.1l85.3,11l254.6,1.1
		l40.6-12.1l-14.4,15.8l45.8-4.9l-23,16.9l39.9-4.9c0,0-39.9,41.2-117.2,51.6c-53.2,6.2-106.9,7.7-160.3,4.5L1072.4,933.1z"/>
	<path class="st4" d="M1218.5,821.6c-28.5-40.7-60.7-67.4-90.3-53.5c-29.7,13.8-32.7,56.3-17.2,103.5c14.8,45.4,60.7,67.4,90.3,53.5
		C1231,911.2,1245.8,860.7,1218.5,821.6z"/>
	<path class="st4" d="M1405.5,887.2c14.3-46.3,4.9-95.1-12.9-101.5c-30-10.9-62.9,8.6-90.1,48.9c-26,38.6-15.5,86.9,12.9,101.5
		S1391.8,931.6,1405.5,887.2z"/>
	<path class="st4" d="M1334.8,846.6c7.8-66.8-0.9-122.6-43.4-135.3s-83.8,27.7-110.4,89.4c-25.7,59.4,0.9,122.6,43.4,135.3
		C1266.9,948.6,1327.2,910.7,1334.8,846.6z"/>
	<path class="st3" d="M1045.6,889.7c0,0-11.8,39.1,51.9,53.3c63.7,14.2,123.5,40.3,183.5,24.6c62.4-16.3,143.1-17.5,183-60.5
		c0,0-24.1,10.2-37.4,11.2c0,0,17.6-18.7,15.5-28.9c0,0-33.7,23.6-56.7,25.1c0,0,19.2-14.8,24-32.6c0,0-53.5,39.1-72.8,40.1
		c0,0,19.7-18.7,19.3-28.3c0,0-34.2,36.9-51.3,38.5c4.4-9.7,5.4-20.7,2.7-31c0,0-10.9,17.4-26.8,21.1l-15.8,3.7
		c0,0-23.6,1.3-34.8-15.5c2.1,9.2,7.7,17.2,15.5,22.5c0,0-29.6-8.8-38-17.9c0,0,4.6,15.5,13.1,19.7c0,0-34.7-9.9-45.7-23.5
		c-2.2,5.4-1.9,11.5,0.8,16.8c0,0-40.1-20.6-51.1-32.4c0,0,8,29.6,21.4,38.8c0,0-47.9-14.8-54.2-38.8c0,0,0,27.8,6.7,33.2
		c0,0-34.5-18.5-38.8-46.8c0,0-4.9,28.6,1.3,35C1061.1,917.2,1045.3,893.7,1045.6,889.7z"/>
	<path class="st4" d="M1314.1,853c0.6,6.4-2.5,12.6-8,16.1"/>
	<path class="st4" d="M1378.7,878.9c1.9-3.4,3.5-7,4.9-10.6"/>
	<path class="st4" d="M1201.8,888.3c-1.5-3.6-3.3-7.1-5.3-10.5"/>
	<path class="st4" d="M1201.6,825.1c-7.8,7.3-12,17.6-11.4,28.2"/>
	<path class="st4" d="M1154.2,894.6c3.4,5.5,7.1,10.7,11.2,15.7"/>
	<path class="st4" d="M1338.3,900.6c-4.1,5-8,10.2-11.4,15.6"/>
</g>
<path class="st5" d="M696.1,191.1c0,0,113.8-70.7,187.5-61.5c0,0-36.9-30.7-70.7-36.9c0,0,110.7,3.1,166,55.3
	c0,0-104.5,18.4-116.8,92.2c0,0,3.1-64.6,24.6-86.1C886.7,154.2,769.9,157.3,696.1,191.1z"/>
<path class="st5" d="M683.1,863.7c0,0,113.8-70.7,187.5-61.5c0,0-36.9-30.7-70.7-36.9c0,0,110.7,3.1,166,55.3
	c0,0-104.5,18.4-116.8,92.2c0,0,3.1-64.6,24.6-86.1C873.7,826.8,756.9,829.9,683.1,863.7z"/>
<g>
	<path class="st6" d="M567.9,465.6c7-3.1,14.1-5.8,21.3-8.1c9.9-3,23-5.4,25.6-8.2s1.4,8.2-9.2,14.7c-8.3,4.5-17.2,7.7-26.4,9.6
		c0,0,33.4-3.4,36-3.6s-9.3,25.2-41.3,18c0,0,38.6,3.6,28.5,16.4c0,0-5.3,6.5-23.8,2.5c0,0,22,22.3-10.8,13.6
		c0,0,14.2,27.6-14.2,8.2c0,0-1.8,21.2-13.8,4.7c0,0-3.9,13.5-13.2-0.7c0,0-10.5,21.4-16-1.3c0,0-7.2,16.5-17.3-1.2
		c0,0-5.6,17.2-13.7-1.2c-8.1-18.4,5.1-24.7,5.1-24.7L567.9,465.6z"/>
	<path class="st7" d="M483.6,506.6c0,0,10.2,31.6,27.4,6.1c0,0,10.2,17,23.5-6.1c0,0,19.8,5.4,12.9-11.8c0,0,38.6-1.7,9.9-14.4
		c0,0,16.5,4,17.1-6s-10.4-7.2-10.4-7.2l-29.7,8.7l-48.1,18.9L483.6,506.6z"/>
	<path class="st8" d="M450.3,557.6c0,0-7.2,6.4-3.4,12.9c3.8,6.5,2,11.1,13.2,12.9c11.2,1.8,15.2,2.9,22.3,1.8
		c7.1-1.1,2.5,7.2-2.6,7.9s-6.6-2.8-11.5-2.4c-3,0.3-6,0.8-9,1.7c2.7,2.4,5.5,4.5,8.6,6.4c4.3,2.5-1.9,8.3-7.8,5.2
		c-3.4-1.8-5.9-5.1-6.8-8.9c-2-2-4.8-2.8-7.5-2.4l-4.5,0.8c0,0-8,1.7-6.1-1.7s4.4-4.8,10.8-6.8c3.6-1.3-11.1-15.1-10.8-25.9
		C435.5,548.3,450.3,557.6,450.3,557.6z"/>
	<path class="st8" d="M407.2,562.5c0.7,6.6,1.8,13.2,3.3,19.7c1.9,6.5,2.2,8.3-7.9,9.2s-7.5,6.3,0,6.1l7.5-0.3c0,0,4.7-0.3,10,14.4
		c2.1,8,12.2,5.7,13.3,3.1c1.1-2.6-8.3-6.4-10.1-12.9s-1.2-5.4-1.2-5.4s11.9,12.3,22.2,8.5c5.8-1.3,14-3.8,1.5-7.2s-8.9,1-23.4-8
		c-14.6-8.9,0-30.5,0-30.5L407.2,562.5z"/>
	<path class="st9" d="M468.2,466.4c3.5-0.6,7.1,0.8,9.3,3.6c5,4.8,16.2,12.9,22,9.8s27.3-16.1,31.7-16.1s14.4,6.9,20.4,5.1
		c5.9-1.8,21.6-7.6,30.4-7.2c0,0-11.6,4.6-15,6.5c-3.3,1.9,1.4,8.9-21.6,8.3c0,0,2.5,8.7-12.7,6.1c0,0-10.4,21.4-14.8,8.4
		c0,0-8.8,22.7-17.1,5c0,0-3.6,14-14.4,8.6C475.5,499.2,468.2,466.4,468.2,466.4z"/>
	<path class="st9" d="M486.2,480.6c-6.6-9.4-8.1-5.7-12.2-11.5c-4-5.8,1.8-14.7,1.8-14.7l4.3-4.6c0,0,19-37.3-3.6-60
		s-48.8-6.2-48.8-6.2c-0.3-3.5,4.4-15,4.4-15c-6.3,2.1-15.1,18-15.1,18l-0.9-7.8c0,0-1.7,5.7-3.2,9.8c-1.5,4.1-25.2,24.1-12.8,50
		c10.5,21.8,11.1,24.9,11,25.2c7.2,9.3,1.1,21.2-8.9,26.2c-1.7,2.4-11.2,15.4-23.3,17.7c-13.3,2.5-5.4,27-5.4,27
		s-21.3,7.8-66.2,21.1s-22,17.2-22,17.2c-38.1,21.2-3.6,18.7-3.6,18.7c-16.1,11.1,16.8,7.2,16.8,7.2s-10.2,7.8-5.1,11.2
		s36.6-8.4,53.7-17.7c17.2-9.3,32.7-27.6,43.9-26.9c11.2,0.7,10.8,7,15.5,7c10.7-0.2,21.1-3,30.5-8c2.8,1.7,6,2.6,9.3,2.6l3.1-1.5
		c3.1-1.5,2.8-5.8,6.1-7.2c3.3-1.4,3.1,1.3,14.1-9C501.7,518.4,492.8,490,486.2,480.6z"/>
	<path class="st10" d="M468.2,411.5c0,0-8.7-19.6-19.3-21.1c-10.6-1.4-23.1,7.2-27.8,19.8c-4.8,12.5,1.8,24.3,10.4,24.3
		c0,0-5.4,41.9,39.7,13.1C516.1,418.8,468.2,411.5,468.2,411.5z"/>
	<path class="st7" d="M555.3,495.8c1.1,1,23.3,11.2,23.3,11.2"/>
	<line class="st11" x1="549.1" y1="508.9" x2="567.9" y2="520.6"/>
	<path class="st11" d="M538.5,511.9c0,0,11.2,14.4,15.2,16.9"/>
	<path class="st11" d="M534.6,516.3c0,0,3.3,14.4,5.3,17.2"/>
	<path class="st11" d="M525.8,521.9c0,0,0,9,1.1,10.8"/>
	<path class="st11" d="M511.4,520.6c-0.6,3.6-0.8,7.2-0.8,10.8"/>
	<path class="st11" d="M492.7,520.7c-0.4,3.3-0.2,6.6,0.7,9.8"/>
	<path class="st6" d="M321.8,445.5c-6.4-4.2-12.9-8-19.7-11.4c-9.4-4.5-21.8-9.1-23.9-12.2s-2.7,7.7,6.6,16
		c7.5,5.7,15.7,10.4,24.5,13.7c0,0-32.2-8.7-34.9-9.3c-2.7-0.6,5.2,26.4,37.8,24.5c0,0-38.6-2.7-30.7,11.6c0,0,4.1,7.2,23.1,6.2
		c0,0-25.2,18.5,8.3,15.2c0,0-18.5,24.9,12.7,10.4c0,0-1.7,21.2,12.9,6.8c0,0,1.7,14,13.1,1.5c0,0,6.8,22.9,16,1.2
		c0,0,4.4,17.5,17.2,1.7c0,0,2.7,18,13.7,1s-1-25.2-1-25.2L321.8,445.5z"/>
	<path class="st7" d="M326.8,450.7c0,0-10.4-8.3-14-1.8c-3.5,6.5,1.5,10.8,11.6,12.7c0,0-8.9-0.6-9.3,4.6s4.4,10.6,17.1,11.4
		c0,0-6.2,7.2,0,12.7s11.2,2.3,11.2,2.3s4.9,20.2,14.1,14.8c7.2-4.3,7.7-5.6,7.7-5.6c0.2-1.4,4.6,20.7,24.3,8.9c0,0,4-1.3,3.9-7.7
		c0,0,8,14.4,8.8-7l0.8-21.6l-2.9,6L326.8,450.7z"/>
	<path class="st9" d="M411.1,464L411.1,464c-0.6,0.9-1.4,1.6-2.3,2.1c-21.6,11.5-22.3,6.8-28.8,2.8s-22.5-20-27.1-18.8
		c-17.4,5.1-22.2-0.4-33-7.2c-10.8-6.8-12.9-4.3-12.9-4.3c4.6,2.9,8.9,6.1,13,9.7c10.2,13.4,19.4,10.8,19.4,10.8
		c-1.3,10,11.6,8.7,11.6,8.7c0.3,20.4,12.6,11.1,12.6,11.1c9,26.6,15.5,8.2,15.5,8.2c5.6,18.3,17.2-2.1,17.2-2.1
		c0.4,4.5,6.2,4.8,6.2,4.8S422.6,479.8,411.1,464z"/>
	<path class="st12" d="M471.8,430.5c0,0-7.5,10.4-3.9,18.3c3.5,7.9,17.2,18.5,32.6,0C500.4,448.7,497.9,426.1,471.8,430.5z"/>
	<path class="st13" d="M471.4,430.6c0,0-10.2-26.3-2.2-33.8s22.2-13.8,41.6,7.8c19.4,21.6-0.8,48.2-8.9,53.7
		C501.9,458.4,502.5,424.8,471.4,430.6z"/>
	<path class="st14" d="M437.6,428.1c0,0-15-17.6,1.6-25.7c14.1-4.9,18.5,17.7,13.7,22C447.6,424.5,442.4,425.8,437.6,428.1z"/>
	<path class="st11" d="M433.1,430.6c7.6-4.6,16.4-6.7,25.2-5.9"/>
	<ellipse class="st15" cx="442.3" cy="418.4" rx="8.3" ry="7.2"/>
	<ellipse class="st16" cx="442.7" cy="419.4" rx="5.4" ry="5.8"/>
	<ellipse transform="matrix(0.753 -0.658 0.658 0.753 -163.8691 391.6638)" class="st14" cx="439.8" cy="414.1" rx="3.6" ry="4.7"/>
	<path class="st6" d="M380.6,534.7c0,0-2.8-2.7-13.2,1.8l-10.4,4.4l0,0c-1.6,0-15.9,2-16.5,4.2s10.8,5.7,15.6,5.5
		c4.8-0.2,23.9-9.5,26.1-10.8C384.4,538.5,380.6,534.7,380.6,534.7z"/>
	<path class="st6" d="M388.9,537.7c0,0-4.2-2-13.3,0.9c-9.1,2.9-21.8,11.2-26,17c-4.2,5.7-11.2,10.1-5.9,11.4
		c5.3,1.3,27.1-8.6,31.4-11.2C379.4,553.1,391.2,543.1,388.9,537.7z"/>
	<path class="st6" d="M392.5,540.4c0,0-5.1-3.9-15.2,1.8s-32.4,25.8-33.6,29.6s-1.2,2.4-1.2,3.6c0,1.2,0.9,13.4,15.7,4.6
		C372.9,571.2,392.5,540.4,392.5,540.4z"/>
	<path class="st6" d="M358.1,582.2c0,0,13.4-0.5,19.4-4.7s13-19,15-24.5c1.1-4.1,1.1-8.5,0-12.6c0,0-23.6,20.5-27.1,25.6l-3.6,5.1
		l0,0C361.8,571.1,353.3,579.7,358.1,582.2z"/>
	<path class="st7" d="M329.3,477.2c-1.3,0.9-24.8,7.2-24.8,7.2"/>
	<line class="st11" x1="333.5" y1="491.2" x2="312.9" y2="499.7"/>
	<path class="st11" d="M343.3,495.8c0,0-13.4,12.3-17.8,14.4"/>
	<path class="st11" d="M346.5,500.8c0,0-5.6,13.9-8.1,16.1"/>
	<path class="st11" d="M354.4,507.9c0,0-1.3,8.9-2.8,10.6"/>
	<path class="st11" d="M368.6,508.8c0,3.6-0.4,7.2-1,10.8"/>
	<path class="st11" d="M387.2,512c-0.1,3.2-1,6.4-2.4,9.3"/>
	<path class="st11" d="M324.5,461.5c0,0,12.3,0.6,14-0.4"/>
	<path class="st11" d="M332.2,477.5c6.3-0.9,12.5-2.3,18.6-4"/>
	<path class="st11" d="M343.4,492.5c0,0,18.2-7.2,21.1-10.8"/>
	<path class="st11" d="M365.2,501.6c3-2.2,5.4-5.1,7-8.5"/>
	<path class="st11" d="M393.5,502.9c-0.5-3.6-1.5-7.1-2.9-10.4"/>
	<path class="st11" d="M285.3,573.1c0,0,49.5-9,64.3-17.7"/>
	<path class="st11" d="M281.7,591.7c0,0,55.7-18,64.9-23.8"/>
	<path class="st11" d="M298.4,599.2c16.2-3.8,31.9-9.5,46.9-17"/>
	<path class="st7" d="M510.9,512.6c0.7-3.7,0.6-7.6-0.3-11.3"/>
	<path class="st7" d="M534.5,506.6c0,0-0.9-15.1-4.5-19.5"/>
	<path class="st7" d="M547.5,494.8c-1.8-4.4-4.3-8.5-7.4-12"/>
	<line class="st11" x1="557.3" y1="480.4" x2="545.3" y2="476.3"/>
	<path class="st11" d="M459.3,592.3c0,0-2.7-1.8-2.4-4.2"/>
	<line class="st11" x1="422.1" y1="596.2" x2="420.2" y2="591.8"/>
	<path class="st11" d="M453.3,595c0,0-3.6-4.2-2.8-6.3"/>
	<path class="st11" d="M437,564.7c4.1-2.2,7.7-5.4,10.4-9.2"/>
	<path class="st11" d="M422.1,452c0,0,2.4,7.5,17.7,9.7"/>
	<path class="st11" d="M460.6,461.6c4.2,0.2,8.3,0,12.4-0.6"/>
	<ellipse class="st17" cx="419.5" cy="469.2" rx="9" ry="7.2"/>
</g>
<g>
	<path class="st6" d="M556.4,811.6c7-3.1,14.1-5.8,21.3-8.1c9.9-3,23-5.4,25.6-8.2s1.4,8.2-9.2,14.7c-8.3,4.5-17.2,7.7-26.4,9.6
		c0,0,33.4-3.4,36-3.6c2.6-0.2-9.3,25.2-41.3,18c0,0,38.6,3.6,28.5,16.4c0,0-5.3,6.5-23.8,2.5c0,0,22,22.3-10.8,13.6
		c0,0,14.2,27.6-14.2,8.2c0,0-1.8,21.2-13.8,4.7c0,0-3.9,13.5-13.2-0.7c0,0-10.5,21.4-16-1.3c0,0-7.2,16.5-17.3-1.2
		c0,0-5.6,17.2-13.7-1.2s5.1-24.7,5.1-24.7L556.4,811.6z"/>
	<path class="st7" d="M472,852.6c0,0,10.2,31.6,27.4,6.1c0,0,10.2,17,23.5-6.1c0,0,19.8,5.4,12.9-11.8c0,0,38.6-1.7,9.9-14.4
		c0,0,16.5,4,17.1-6c0.5-10-10.4-7.2-10.4-7.2l-29.7,8.7l-48.1,18.9L472,852.6z"/>
	<path class="st8" d="M438.8,903.6c0,0-7.2,6.4-3.4,12.9c3.8,6.5,2,11.1,13.2,12.9c11.2,1.8,15.2,2.9,22.3,1.8
		c7.1-1.1,2.5,7.2-2.6,7.9s-6.6-2.8-11.5-2.4c-3,0.3-6,0.8-9,1.7c2.7,2.4,5.5,4.5,8.6,6.4c4.3,2.5-1.9,8.3-7.8,5.2
		c-3.4-1.8-5.9-5.1-6.8-8.9c-2-2-4.8-2.8-7.5-2.4l-4.5,0.8c0,0-8,1.7-6.1-1.7s4.4-4.8,10.8-6.8c3.6-1.3-11.1-15.1-10.8-25.9
		C424,894.3,438.8,903.6,438.8,903.6z"/>
	<path class="st8" d="M395.7,908.5c0.7,6.6,1.8,13.2,3.3,19.7c1.9,6.5,2.2,8.3-7.9,9.2c-10.1,0.8-7.5,6.3,0,6.1l7.5-0.3
		c0,0,4.7-0.3,10,14.4c2.1,8,12.2,5.7,13.3,3.1c1.1-2.6-8.3-6.4-10.1-12.9s-1.2-5.4-1.2-5.4s11.9,12.3,22.2,8.5
		c5.8-1.3,14-3.8,1.5-7.2s-8.9,1-23.4-8c-14.6-8.9,0-30.5,0-30.5L395.7,908.5z"/>
	<path class="st9" d="M456.6,812.4c3.5-0.6,7.1,0.8,9.3,3.6c5,4.8,16.2,12.9,22,9.8c5.8-3,27.3-16.1,31.7-16.1
		c4.4,0,14.4,6.9,20.4,5.1c5.9-1.8,21.6-7.6,30.4-7.2c0,0-11.6,4.6-15,6.5c-3.3,1.9,1.4,8.9-21.6,8.3c0,0,2.5,8.7-12.7,6.1
		c0,0-10.4,21.4-14.8,8.4c0,0-8.8,22.7-17.1,5c0,0-3.6,14-14.4,8.6C464,845.2,456.6,812.4,456.6,812.4z"/>
	<path class="st9" d="M474.7,826.6c-6.6-9.4-8.1-5.7-12.2-11.5c-4-5.8,1.8-14.7,1.8-14.7l4.3-4.6c0,0,19-37.3-3.6-60
		s-48.8-6.2-48.8-6.2c-0.3-3.5,4.4-15,4.4-15c-6.3,2.1-15.1,18-15.1,18l-0.9-7.8c0,0-1.7,5.7-3.2,9.8s-25.2,24.1-12.8,50
		c10.5,21.8,11.1,24.9,11,25.2c7.2,9.3,1.1,21.2-8.9,26.2c-1.7,2.4-11.2,15.4-23.3,17.7c-13.3,2.5-5.4,27-5.4,27
		s-21.3,7.8-66.2,21.1s-22,17.2-22,17.2c-38.1,21.2-3.6,18.7-3.6,18.7c-16.1,11.1,16.8,7.2,16.8,7.2s-10.2,7.8-5.1,11.2
		c5.1,3.5,36.6-8.4,53.7-17.7c17.2-9.3,32.7-27.6,43.9-26.9c11.2,0.7,10.8,7,15.5,7c10.7-0.2,21.1-3,30.5-8c2.8,1.7,6,2.6,9.3,2.6
		l3.1-1.5c3.1-1.5,2.8-5.8,6.1-7.2c3.3-1.4,3.1,1.3,14.1-9C490.2,864.4,481.3,836,474.7,826.6z"/>
	<path class="st10" d="M456.6,757.5c0,0-8.7-19.6-19.3-21.1c-10.6-1.4-23.1,7.2-27.8,19.8c-4.8,12.5,1.8,24.3,10.4,24.3
		c0,0-5.4,41.9,39.7,13.1S456.6,757.5,456.6,757.5z"/>
	<path class="st7" d="M543.8,841.8c1.1,1,23.3,11.2,23.3,11.2"/>
	<line class="st11" x1="537.5" y1="854.9" x2="556.4" y2="866.6"/>
	<path class="st11" d="M527,857.9c0,0,11.2,14.4,15.2,16.9"/>
	<path class="st11" d="M523.1,862.3c0,0,3.3,14.4,5.3,17.2"/>
	<path class="st11" d="M514.3,867.9c0,0,0,9,1.1,10.8"/>
	<path class="st11" d="M499.9,866.6c-0.6,3.6-0.8,7.2-0.8,10.8"/>
	<path class="st11" d="M481.1,866.7c-0.4,3.3-0.2,6.6,0.7,9.8"/>
	<path class="st6" d="M310.3,791.5c-6.4-4.2-12.9-8-19.7-11.4c-9.4-4.5-21.8-9.1-23.9-12.2c-2.1-3.1-2.7,7.7,6.6,16
		c7.5,5.7,15.7,10.4,24.5,13.7c0,0-32.2-8.7-34.9-9.3c-2.7-0.6,5.2,26.4,37.8,24.5c0,0-38.6-2.7-30.7,11.6c0,0,4.1,7.2,23.1,6.2
		c0,0-25.2,18.5,8.3,15.2c0,0-18.5,24.9,12.7,10.4c0,0-1.7,21.2,12.9,6.8c0,0,1.7,14,13.1,1.5c0,0,6.8,22.9,16,1.2
		c0,0,4.4,17.5,17.2,1.7c0,0,2.7,18,13.7,1s-1-25.2-1-25.2L310.3,791.5z"/>
	<path class="st7" d="M315.3,796.7c0,0-10.4-8.3-14-1.8c-3.5,6.5,1.5,10.8,11.6,12.7c0,0-8.9-0.6-9.3,4.6s4.4,10.6,17.1,11.4
		c0,0-6.2,7.2,0,12.7s11.2,2.3,11.2,2.3s4.9,20.2,14.1,14.8c7.2-4.3,7.7-5.6,7.7-5.6c0.2-1.4,4.6,20.7,24.3,8.9c0,0,4-1.3,3.9-7.7
		c0,0,8,14.4,8.8-7l0.8-21.6l-2.9,6L315.3,796.7z"/>
	<path class="st9" d="M399.6,810L399.6,810c-0.6,0.9-1.4,1.6-2.3,2.1c-21.6,11.5-22.3,6.8-28.8,2.8s-22.5-20-27.1-18.8
		c-17.4,5.1-22.2-0.4-33-7.2s-12.9-4.3-12.9-4.3c4.6,2.9,8.9,6.1,13,9.7c10.2,13.4,19.4,10.8,19.4,10.8c-1.3,10,11.6,8.7,11.6,8.7
		c0.3,20.4,12.6,11.1,12.6,11.1c9,26.6,15.5,8.2,15.5,8.2c5.6,18.3,17.2-2.1,17.2-2.1c0.4,4.5,6.2,4.8,6.2,4.8S411,825.8,399.6,810z
		"/>
	<path class="st12" d="M460.2,776.5c0,0-7.5,10.4-3.9,18.3c3.5,7.9,17.2,18.5,32.6,0C488.8,794.7,486.3,772.1,460.2,776.5z"/>
	<path class="st13" d="M459.9,776.6c0,0-10.2-26.3-2.2-33.8s22.2-13.8,41.6,7.8c19.4,21.6-0.8,48.2-8.9,53.7
		C490.4,804.4,491,770.8,459.9,776.6z"/>
	<path class="st14" d="M426.1,774.1c0,0-15-17.6,1.6-25.7c14.1-4.9,18.5,17.7,13.7,22C436,770.5,430.8,771.8,426.1,774.1z"/>
	<path class="st11" d="M421.6,776.6c7.6-4.6,16.4-6.7,25.2-5.9"/>
	<ellipse class="st15" cx="430.8" cy="764.4" rx="8.3" ry="7.2"/>
	<ellipse class="st16" cx="431.2" cy="765.4" rx="5.4" ry="5.8"/>
	<ellipse transform="matrix(0.753 -0.658 0.658 0.753 -394.3764 469.5406)" class="st14" cx="428.3" cy="760.1" rx="3.6" ry="4.7"/>
	<path class="st6" d="M369.1,880.7c0,0-2.8-2.7-13.2,1.8l-10.4,4.4l0,0c-1.6,0-15.9,2-16.5,4.2s10.8,5.7,15.6,5.5
		s23.9-9.5,26.1-10.8C372.9,884.5,369.1,880.7,369.1,880.7z"/>
	<path class="st6" d="M377.3,883.7c0,0-4.2-2-13.3,0.9c-9.1,2.9-21.8,11.2-26,17c-4.2,5.7-11.2,10.1-5.9,11.4
		c5.3,1.3,27.1-8.6,31.4-11.2C367.9,899.1,379.7,889.1,377.3,883.7z"/>
	<path class="st6" d="M380.9,886.4c0,0-5.1-3.9-15.2,1.8s-32.4,25.8-33.6,29.6s-1.2,2.4-1.2,3.6c0,1.2,0.9,13.4,15.7,4.6
		C361.3,917.2,380.9,886.4,380.9,886.4z"/>
	<path class="st6" d="M346.6,928.2c0,0,13.4-0.5,19.4-4.7s13-19,15-24.5c1.1-4.1,1.1-8.5,0-12.6c0,0-23.6,20.5-27.1,25.6l-3.6,5.1
		l0,0C350.3,917.1,341.8,925.7,346.6,928.2z"/>
	<path class="st7" d="M317.8,823.2c-1.3,0.9-24.8,7.2-24.8,7.2"/>
	<line class="st11" x1="321.9" y1="837.2" x2="301.3" y2="845.7"/>
	<path class="st11" d="M331.8,841.8c0,0-13.4,12.3-17.8,14.4"/>
	<path class="st11" d="M335,846.8c0,0-5.6,13.9-8.1,16.1"/>
	<path class="st11" d="M342.9,853.9c0,0-1.3,8.9-2.8,10.6"/>
	<path class="st11" d="M357,854.8c0,3.6-0.4,7.2-1,10.8"/>
	<path class="st11" d="M375.6,858c-0.1,3.2-1,6.4-2.4,9.3"/>
	<path class="st11" d="M313,807.5c0,0,12.3,0.6,14-0.4"/>
	<path class="st11" d="M320.7,823.5c6.3-0.9,12.5-2.3,18.6-4"/>
	<path class="st11" d="M331.9,838.5c0,0,18.2-7.2,21.1-10.8"/>
	<path class="st11" d="M353.7,847.6c3-2.2,5.4-5.1,7-8.5"/>
	<path class="st11" d="M381.9,848.9c-0.5-3.6-1.5-7.1-2.9-10.4"/>
	<path class="st11" d="M273.7,919.1c0,0,49.5-9,64.3-17.7"/>
	<path class="st11" d="M270.1,937.7c0,0,55.7-18,64.9-23.8"/>
	<path class="st11" d="M286.9,945.2c16.2-3.8,31.9-9.5,46.9-17"/>
	<path class="st7" d="M499.4,858.6c0.7-3.7,0.6-7.6-0.3-11.3"/>
	<path class="st7" d="M522.9,852.6c0,0-0.9-15.1-4.5-19.5"/>
	<path class="st7" d="M535.9,840.8c-1.8-4.4-4.3-8.5-7.4-12"/>
	<line class="st11" x1="545.8" y1="826.4" x2="533.8" y2="822.3"/>
	<path class="st11" d="M447.8,938.3c0,0-2.7-1.8-2.4-4.2"/>
	<line class="st11" x1="410.5" y1="942.2" x2="408.7" y2="937.8"/>
	<path class="st11" d="M441.8,941c0,0-3.6-4.2-2.8-6.3"/>
	<path class="st11" d="M425.5,910.7c4.1-2.2,7.7-5.4,10.4-9.2"/>
	<path class="st11" d="M410.5,798c0,0,2.4,7.5,17.7,9.7"/>
	<path class="st11" d="M449,807.6c4.2,0.2,8.3,0,12.4-0.6"/>
	<ellipse class="st17" cx="408" cy="815.2" rx="9" ry="7.2"/>
</g>
<path d="M751,478v-17.1h147V478H751z M751,533.8v-17.2h147v17.1L751,533.8z"/>
<line class="st18" x1="96" y1="660.1" x2="1583" y2="660.1"/>
<path d="M316.8,119.7c0,0,20.4-19.2,30.5,0l9.8,4c0,0-17.1,1.9-23.7,9.8c0,0-1.4,18.5-22.3,23.9c-20.9,5.4-55.3,4.2-55.3,4.2
	l36.3-21.8l-12.9-6.6l9.6-1.2l-10.5-6.3l8.9-0.7c0,0-20.9-20.2-20.9-30.2C266.4,94.8,309.7,120.6,316.8,119.7z"/>
<path d="M584,121.9c0,0-20.4-24-30.5,0l-9.8,5c0,0,17.1,2.3,23.7,12.3c0,0,1.4,23.1,22.3,29.8s55.3,5.3,55.3,5.3L608.6,147l12.9-8.2
	l-9.6-1.5l10.5-7.9l-8.9-0.9c0,0,20.9-25.1,20.9-37.7C634.4,90.9,591,123,584,121.9z"/>
<path d="M437.5,111c0,0-6.8-13.8,7.5-18l3.1-9.4l3.5,9.6c0,0,13.4,4,7.5,17.8c0,0,16.2-8.7,24.8-6.6c8.7,2.1,14.3,9.6,28.6,12.2
	c14.3,2.6,14.3,2.6,14.3,2.6s-6.1,5.2-16.9,6.6c0,0,4.2,3.4,6.6,2.5s-11.5,4.5-18.3,5.5c0,0,3.8,3.8,5.9,3.5
	c2.1-0.2-12.9,2.1-16.2,2.1c0,0-1.6,2.6,2.1,3c3.8,0.5-16.4,6.3-27.9,5.6c0,0-2.3,4.9-3,5.6c-0.7,0.7,6.8,27.2,6.8,27.2
	s-4.5,4-8.4-1.4c0,0,0.9,18.8-10.3,14.8c-11.3-4-7-15-7-15s-7.5,4.9-9.6,2.1c-2.1-2.8,7.7-27.7,7.7-27.7s-4.2-4.2-3.5-5.6
	c0,0-13.1,0.2-17.6-2.8c-4.5-3,0-3,0-3s-16.6,0.3-10.1-3c6.6-3.3-21.1-4.5-9.8-7.1s-27.7-4.5-10.8-6.8c0,0-13.8-3-16.9-7
	c0,0,21.3-1.9,43.1-13.1C412.6,105.1,419.2,101.2,437.5,111z"/>
<path d="M456.7,246.3c0,0,3.8-11.5,11.3-11.7c7.5-0.2,10.5-0.5,13.4,5.9l9.8,3.8l-10.8,2.1c0,0-0.7,5.6-3.3,9.1
	c0,0,0.5,17.6-22.3,28.1l-1.6,4.5l3.5,7.7l-6.6-6.1v-4.9h-2.1l-2.9,5.6l2.9,5.4l-6-4.7v-5.2c0,0-7,0-12.9-1.9l-34.9,16.4
	c0,0,23.9-30.2,43.1-42.2C456.7,246.3,456.7,246.3,456.7,246.3z"/>
<path d="M500,284.9c0,0,5.5-7.5,8.9-7.7c0,0,1.3-12.3,16.9-8.3c15.6,4.1,16.3,2.8,16.3,2.8s-5.9-27.5-26.4-38.8
	c0,0,25.8,13.6,28.1,15.5l-2.4-7.5l15.3,15.9v-6.3l11.9,15.9c0,0,52.8-12,64.1-25.2c0,0-9.8,18.9-16.6,23.4c0,0,6.6,1.4,10.2-2
	c0,0-6.1,9.4-11.9,12c0,0,6.3,0.8,9.1-0.8c0,0-15.5,9.1-18.4,9.5c0,0,20.3,16.4,27,33.3c0,0-20.9-13.9-38.6-14.7
	c0,0-29.1,15.9-54.2,0c0,0-11.3-10.2-18.6-12.2c0,0-8.9,2-10.9-6.1L500,284.9z"/>
<path d="M261.7,227.9c0,0,8.5-3.7,11.6-2.1c0,0,7.3-10,18.7,1.4s12.6,10.7,12.6,10.7s8.8-26.7-3.1-46.8c0,0,15.3,24.8,16.3,27.5
	l1.7-7.7l5.1,21.5l3.2-5.4l2.2,19.8c0,0,51.6,16.4,68,10.8c0,0-18.1,11.3-26.2,11.8c0,0,4.9,4.5,9.8,3.4c0,0-10,5-16.3,4.4
	c0,0,5,3.8,8.2,3.9c0,0-17.9,0-20.7-1.1c0,0,9.2,24.4,6.4,42.4c0,0-11-22.6-25.8-32.2c0,0-33.1-1-46.8-27.5c0,0-4.6-14.5-9.9-19.9
	c0,0-8.7-2.8-6.3-10.8L261.7,227.9z"/>
<path d="M1065.5,409.8c0,0,20.4-19.2,30.5,0l9.8,4c0,0-17.1,1.9-23.7,9.8c0,0-1.4,18.5-22.3,23.9s-55.3,4.2-55.3,4.2l36.3-21.8
	l-12.9-6.6l9.6-1.2l-10.5-6.3l8.9-0.7c0,0-20.9-20.2-20.9-30.2C1015.1,385,1058.5,410.8,1065.5,409.8z"/>
<path d="M1332.8,412c0,0-20.4-24-30.5,0l-9.8,5c0,0,17.1,2.3,23.7,12.3c0,0,1.4,23.1,22.3,29.8s55.3,5.3,55.3,5.3l-36.3-27.2
	l12.9-8.2l-9.6-1.5l10.5-7.9l-8.9-0.9c0,0,20.9-25.1,20.9-37.7C1383.2,381.1,1339.8,413.2,1332.8,412z"/>
<path d="M1186.3,401.2c0,0-6.8-13.8,7.5-18l3.1-9.4l3.5,9.6c0,0,13.4,4,7.5,17.8c0,0,16.2-8.7,24.8-6.6c8.7,2.1,14.3,9.6,28.6,12.2
	c14.3,2.6,14.3,2.6,14.3,2.6s-6.1,5.2-16.9,6.6c0,0,4.2,3.4,6.6,2.5c2.3-0.9-11.5,4.5-18.3,5.5c0,0,3.8,3.8,5.9,3.5
	s-12.9,2.1-16.2,2.1c0,0-1.6,2.6,2.1,3c3.8,0.5-16.4,6.3-27.9,5.6c0,0-2.3,4.9-3,5.6c-0.7,0.7,6.8,27.2,6.8,27.2s-4.5,4-8.4-1.4
	c0,0,0.9,18.8-10.3,14.8s-7-15-7-15s-7.5,4.9-9.6,2.1c-2.1-2.8,7.7-27.7,7.7-27.7s-4.2-4.2-3.5-5.6c0,0-13.1,0.2-17.6-2.8
	c-4.5-3,0-3,0-3s-16.6,0.3-10.1-3c6.6-3.3-21.1-4.5-9.8-7.1s-27.7-4.5-10.8-6.8c0,0-13.8-3-16.9-7c0,0,21.3-1.9,43.1-13.1
	C1161.4,395.3,1168,391.3,1186.3,401.2z"/>
<path d="M1205.5,536.4c0,0,3.8-11.5,11.3-11.7c7.5-0.2,10.5-0.5,13.4,5.9l9.8,3.8l-10.8,2.1c0,0-0.7,5.6-3.3,9.1
	c0,0,0.5,17.6-22.3,28.1l-1.6,4.5l3.5,7.7l-6.6-6.1v-4.9h-2.1l-2.9,5.6l2.9,5.4l-6-4.7V576c0,0-7,0-12.9-1.9l-34.9,16.4
	c0,0,23.9-30.2,43.1-42.2C1205.5,536.4,1205.5,536.4,1205.5,536.4z"/>
<path d="M1248.8,575.1c0,0,5.5-7.5,8.9-7.7c0,0,1.3-12.3,16.9-8.3c15.6,4.1,16.3,2.8,16.3,2.8s-5.9-27.5-26.4-38.8
	c0,0,25.8,13.6,28.1,15.5l-2.4-7.5l15.3,15.9v-6.3l11.9,15.9c0,0,52.8-12,64.1-25.2c0,0-9.8,18.9-16.6,23.4c0,0,6.6,1.4,10.2-2
	c0,0-6.1,9.4-11.9,12c0,0,6.3,0.8,9.1-0.8c0,0-15.5,9.1-18.4,9.5c0,0,20.3,16.4,27,33.3c0,0-20.9-13.9-38.6-14.7
	c0,0-29.1,15.9-54.2,0c0,0-11.3-10.2-18.6-12.2c0,0-8.9,2-10.9-6.1L1248.8,575.1z"/>
<path d="M1010.5,518c0,0,8.5-3.7,11.6-2.1c0,0,7.3-10,18.7,1.4c11.4,11.4,12.6,10.7,12.6,10.7s8.8-26.7-3.1-46.8
	c0,0,15.3,24.8,16.3,27.5l1.7-7.7l5.1,21.5l3.2-5.4l2.2,19.8c0,0,51.6,16.4,68,10.8c0,0-18.1,11.3-26.2,11.8c0,0,4.9,4.5,9.8,3.4
	c0,0-10,5-16.3,4.4c0,0,5,3.8,8.2,3.9c0,0-17.9,0-20.7-1.1c0,0,9.2,24.4,6.4,42.4c0,0-11-22.6-25.8-32.2c0,0-33.1-1-46.8-27.5
	c0,0-4.6-14.5-9.9-19.9c0,0-8.7-2.8-6.3-10.8L1010.5,518z"/>
</svg>
