<?xml version="1.0" encoding="utf-8"?>
<!-- Generator: Adobe Illustrator 23.0.4, SVG Export Plug-In . SVG Version: 6.00 Build 0)  -->
<svg version="1.1" id="Layer_1" xmlns="http://www.w3.org/2000/svg" xmlns:xlink="http://www.w3.org/1999/xlink" x="0px" y="0px"
	 viewBox="0 0 1700 1080" style="enable-background:new 0 0 1700 1080;" xml:space="preserve">
<style type="text/css">
	.st0{display:none;enable-background:new    ;}
	.st1{font-family:'GillSans';}
	.st2{font-size:80px;}
	.st3{fill:#C68456;stroke:#231F20;stroke-linecap:round;stroke-miterlimit:10;}
	.st4{fill:#FBEDB0;stroke:#231F20;stroke-linecap:round;stroke-miterlimit:10;}
	.st5{stroke:#000000;stroke-linejoin:round;}
	.st6{fill:#4453A3;stroke:#000000;stroke-width:0.8;stroke-linecap:round;stroke-miterlimit:10;}
	.st7{fill:#F9EB18;stroke:#000000;stroke-width:0.8;stroke-linecap:round;stroke-miterlimit:10;}
	.st8{fill:#848A8A;stroke:#000000;stroke-width:0.8;stroke-linecap:round;stroke-miterlimit:10;}
	.st9{fill:#DA1F29;stroke:#000000;stroke-width:0.8;stroke-linecap:round;stroke-miterlimit:10;}
	.st10{fill:#D1C9C2;stroke:#000000;stroke-width:0.8;stroke-linecap:round;stroke-miterlimit:10;}
	.st11{fill:none;stroke:#000000;stroke-width:0.8;stroke-linecap:round;stroke-miterlimit:10;}
	.st12{fill:#2A1B1B;stroke:#000000;stroke-width:0.8;stroke-linecap:round;stroke-miterlimit:10;}
	.st13{fill:#DFCD85;stroke:#000000;stroke-width:0.8;stroke-linecap:round;stroke-miterlimit:10;}
	.st14{fill:#FFFFFF;stroke:#000000;stroke-width:0.8;stroke-linecap:round;stroke-miterlimit:10;}
	.st15{fill:#8C523D;stroke:#000000;stroke-width:0.8;stroke-linecap:round;stroke-miterlimit:10;}
	.st16{fill:#25291D;stroke:#000000;stroke-width:0.8;stroke-linecap:round;stroke-miterlimit:10;}
	.st17{fill:#DA1F29;}
	.st18{opacity:0.7;fill:none;stroke:#000000;stroke-width:7;stroke-miterlimit:10;enable-background:new    ;}
	.st19{font-size:85px;}
</style>
<text transform="matrix(1 0 0 1 910.9834 648.498)" class="st0 st1 st2">LOGICALLY TRUE</text>
<g>
	<g id="Layer_1-2">
		
			<image style="overflow:visible;enable-background:new    ;" width="1158" height="823" id="Screen_Shot_2020-02-25_at_6.09.27_PM" xlink:href="E236EB3E153AD679.png"  transform="matrix(0.2716 0 0 0.2716 349.8613 104.6491)">
		</image>
	</g>
</g>
<g>
	<g id="Layer_1-2_1_">
		
			<image style="overflow:visible;enable-background:new    ;" width="1158" height="823" id="Screen_Shot_2020-02-25_at_6.09.27_PM_1_" xlink:href="E236EB3E153AD67B.png"  transform="matrix(0.2784 0 0 0.2784 1026.2643 417.7647)">
		</image>
	</g>
</g>
<g>
	<path class="st3" d="M1011.4,299.9l-44.2-7.6l38.2-7.6l-45.2-11.6l41.3-1.4l-27.1-11.8l38.9,5.1l-22.3-13.4l71.2,9.2l212.5,0.9
		l33.9-10.1l-12,13.2l38.2-4.1l-19.2,14.1l33.3-4.1c0,0-33.3,34.4-97.8,43.1c-44.4,5.2-89.2,6.4-133.8,3.7L1011.4,299.9z"/>
	<path class="st4" d="M1133.3,206.8c-23.8-34-50.6-56.2-75.4-44.7c-24.8,11.6-27.3,47-14.4,86.4c12.3,37.9,50.6,56.2,75.4,44.7
		S1156.1,239.4,1133.3,206.8z"/>
	<path class="st4" d="M1289.4,261.5c11.9-38.6,4.1-79.4-10.8-84.7c-25-9.1-52.5,7.2-75.2,40.8c-21.7,32.2-12.9,72.5,10.8,84.7
		C1237.9,314.5,1278,298.6,1289.4,261.5z"/>
	<path class="st4" d="M1230.4,227.6c6.5-55.8-0.7-102.3-36.2-112.9c-35.4-10.6-69.9,23.2-92.1,74.6c-21.5,49.5,0.7,102.3,36.2,112.9
		C1173.7,312.8,1224,281.2,1230.4,227.6z"/>
	<path class="st3" d="M989,263.6c0,0-9.8,32.6,43.3,44.5c53.1,11.9,103,33.6,153.1,20.6c52.1-13.6,119.5-14.6,152.7-50.5
		c0,0-20.1,8.5-31.3,9.4c0,0,14.7-15.6,12.9-24.1c0,0-28.1,19.7-47.3,21c0,0,16-12.3,20.1-27.2c0,0-44.7,32.6-60.7,33.5
		c0,0,16.4-15.6,16.1-23.6c0,0-28.6,30.8-42.8,32.2c3.7-8.1,4.5-17.3,2.2-25.9c0,0-9.1,14.5-22.3,17.6l-13.2,3.1c0,0-19.7,1.1-29-13
		c1.8,7.7,6.4,14.4,13,18.8c0,0-24.7-7.4-31.7-14.9c0,0,3.8,13,10.9,16.4c0,0-29-8.2-38.2-19.6c-1.8,4.5-1.6,9.6,0.7,14
		c0,0-33.5-17.2-42.6-27c0,0,6.7,24.7,17.9,32.4c0,0-40-12.3-45.2-32.4c0,0,0,23.2,5.6,27.7c0,0-28.8-15.4-32.4-39.1
		c0,0-4.1,23.9,1.1,29.2C1002,286.6,988.8,267,989,263.6z"/>
	<path class="st4" d="M1213.1,233c0.5,5.4-2.1,10.5-6.7,13.4"/>
	<path class="st4" d="M1267,254.6c1.6-2.9,3-5.8,4.1-8.9"/>
	<path class="st4" d="M1119.4,262.5c-1.3-3-2.8-5.9-4.4-8.8"/>
	<path class="st4" d="M1119.2,209.7c-6.5,6.1-10,14.7-9.5,23.6"/>
	<path class="st4" d="M1079.7,267.7c2.8,4.6,6,9,9.4,13.1"/>
	<path class="st4" d="M1233.3,272.7c-3.5,4.1-6.6,8.5-9.5,13"/>
</g>
<g>
	<path class="st3" d="M1029,957.4l-43.5-7.5l37.5-7.4l-44.5-11.4l40.7-1.3l-26.7-11.7l38.2,5.1l-22-13.2l70.1,9l209.1,0.9l33.4-9.9
		l-11.9,13l37.6-4l-18.9,13.8l32.7-4c0,0-32.7,33.8-96.2,42.4c-43.7,5.1-87.7,6.3-131.6,3.7L1029,957.4z"/>
	<path class="st4" d="M1149,865.8c-23.4-33.4-49.8-55.3-74.2-43.9s-26.8,46.2-14.1,85c12.1,37.3,49.8,55.3,74.2,43.9
		S1171.5,897.9,1149,865.8z"/>
	<path class="st4" d="M1302.6,919.6c11.7-38,4-78.1-10.6-83.3c-24.6-8.9-51.6,7.1-74,40.2c-21.4,31.7-12.7,71.4,10.6,83.3
		C1251.9,971.8,1291.3,956.1,1302.6,919.6z"/>
	<path class="st4" d="M1244.5,886.3c6.4-54.9-0.7-100.7-35.6-111.1c-34.9-10.4-68.8,22.8-90.6,73.4c-21.1,48.8,0.7,100.7,35.6,111.1
		C1188.8,970.1,1238.2,939,1244.5,886.3z"/>
	<path class="st3" d="M1007,921.7c0,0-9.7,32.1,42.6,43.8s101.4,33.1,150.7,20.2c51.3-13.4,117.5-14.4,150.3-49.6
		c0,0-19.8,8.4-30.7,9.2c0,0,14.5-15.4,12.7-23.7c0,0-27.7,19.3-46.5,20.6c0,0,15.8-12.1,19.7-26.8c0,0-43.9,32.1-59.8,32.9
		c0,0,16.2-15.4,15.8-23.3c0,0-28.1,30.3-42.2,31.6c3.6-8,4.4-17,2.2-25.5c0,0-9,14.3-22,17.4l-12.9,3.1c0,0-19.3,1.1-28.6-12.7
		c1.8,7.5,6.3,14.1,12.7,18.4c0,0-24.3-7.2-31.2-14.7c0,0,3.8,12.7,10.8,16.2c0,0-28.5-8.1-37.5-19.3c-1.8,4.5-1.6,9.5,0.6,13.8
		c0,0-32.9-16.9-42-26.6c0,0,6.6,24.3,17.6,31.8c0,0-39.3-12.1-44.5-31.8c0,0,0,22.8,5.5,27.2c0,0-28.3-15.2-31.8-38.4
		c0,0-4,23.5,1.1,28.8C1019.8,944.3,1006.8,925,1007,921.7z"/>
	<path class="st4" d="M1227.5,891.6c0.5,5.3-2.1,10.4-6.6,13.2"/>
	<path class="st4" d="M1280.6,912.9c1.6-2.8,2.9-5.7,4-8.7"/>
	<path class="st4" d="M1135.3,920.6c-1.3-3-2.7-5.9-4.4-8.6"/>
	<path class="st4" d="M1135.1,868.7c-6.4,6-9.8,14.4-9.4,23.2"/>
	<path class="st4" d="M1096.2,925.8c2.8,4.5,5.9,8.8,9.2,12.9"/>
	<path class="st4" d="M1247.4,930.7c-3.4,4.1-6.5,8.3-9.4,12.8"/>
</g>
<path class="st5" d="M729.1,204.7c0,0,94.9-59,156.5-51.3c0,0-30.8-25.7-59-30.8c0,0,92.4,2.6,138.5,46.2c0,0-87.2,15.4-97.5,77
	c0,0,2.6-53.9,20.5-71.8C888.2,173.9,790.7,176.5,729.1,204.7z"/>
<path class="st5" d="M709.4,900.4c0,0,93.4-58.1,154-50.5c0,0-30.3-25.2-58.1-30.3c0,0,90.9,2.5,136.3,45.4c0,0-85.8,15.1-95.9,75.7
	c0,0,2.5-53,20.2-70.7C865.9,870.1,770,872.6,709.4,900.4z"/>
<g>
	<path class="st6" d="M632.8,485.5c6-2.7,12-5,18.3-6.9c8.5-2.6,19.7-4.6,21.9-7s1.2,7-7.8,12.6c-7.1,3.8-14.7,6.6-22.6,8.2
		c0,0,28.6-2.9,30.8-3.1c2.3-0.2-8,21.6-35.3,15.4c0,0,33,3.1,24.4,14.1c0,0-4.5,5.6-20.4,2.1c0,0,18.8,19.1-9.3,11.7
		c0,0,12.2,23.6-12.1,7c0,0-1.5,18.1-11.8,4c0,0-3.3,11.5-11.3-0.6c0,0-8.9,18.4-13.7-1.1c0,0-6.2,14.1-14.8-1c0,0-4.8,14.7-11.8-1
		s4.4-21.1,4.4-21.1L632.8,485.5z"/>
	<path class="st7" d="M560.6,520.6c0,0,8.7,27,23.4,5.2c0,0,8.7,14.6,20.1-5.2c0,0,16.9,4.6,11-10.1c0,0,33.1-1.4,8.5-12.3
		c0,0,14.1,3.4,14.6-5.2c0.5-8.5-8.9-6.2-8.9-6.2l-25.4,7.5l-41.1,16.1L560.6,520.6z"/>
	<path class="st8" d="M532.2,564.2c0,0-6.2,5.5-2.9,11c3.3,5.6,1.7,9.5,11.3,11c9.6,1.5,13,2.5,19.1,1.5s2.2,6.2-2.3,6.8
		s-5.7-2.4-9.8-2c-2.6,0.2-5.2,0.7-7.7,1.4c2.3,2,4.7,3.9,7.3,5.5c3.7,2.1-1.7,7.1-6.6,4.4c-2.9-1.6-5.1-4.3-5.8-7.6
		c-1.7-1.7-4.1-2.4-6.4-2l-3.9,0.7c0,0-6.9,1.4-5.2-1.4c1.7-2.8,3.8-4.1,9.3-5.8c3.1-1.1-9.5-12.9-9.3-22.2
		C519.5,556.2,532.2,564.2,532.2,564.2z"/>
	<path class="st8" d="M495.3,568.4c0.6,5.7,1.5,11.3,2.8,16.8c1.6,5.6,1.9,7.1-6.8,7.8c-8.7,0.7-6.4,5.4,0,5.2l6.4-0.2
		c0,0,4-0.2,8.5,12.3c1.8,6.9,10.4,4.9,11.4,2.6c1-2.3-7.1-5.5-8.7-11c-1.5-5.6-1-4.6-1-4.6s10.2,10.5,19,7.3c5-1.1,12-3.3,1.3-6.2
		c-10.7-2.9-7.6,0.8-20-6.8c-12.5-7.6,0-26.1,0-26.1L495.3,568.4z"/>
	<path class="st9" d="M547.5,486.1c3-0.5,6.1,0.7,8,3.1c4.3,4.1,13.9,11,18.8,8.4s23.3-13.8,27.1-13.8c3.8,0,12.3,5.9,17.4,4.4
		c5.1-1.5,18.5-6.5,26-6.2c0,0-10,3.9-12.8,5.6s1.2,7.6-18.5,7.1c0,0,2.2,7.5-10.9,5.2c0,0-8.9,18.3-12.7,7.2c0,0-7.5,19.4-14.6,4.3
		c0,0-3.1,12-12.3,7.3C553.7,514.2,547.5,486.1,547.5,486.1z"/>
	<path class="st9" d="M562.9,498.3c-5.7-8.1-7-4.9-10.4-9.8c-3.5-5,1.5-12.6,1.5-12.6l3.7-3.9c0,0,16.3-31.9-3.1-51.3
		s-41.7-5.3-41.7-5.3c-0.2-3,3.8-12.8,3.8-12.8c-5.4,1.8-12.9,15.4-12.9,15.4l-0.8-6.6c0,0-1.4,4.9-2.7,8.4
		c-1.3,3.5-21.6,20.6-10.9,42.8c9,18.7,9.5,21.3,9.4,21.6c6.2,8,0.9,18.2-7.6,22.4c-1.4,2-9.6,13.2-20,15.1
		c-11.4,2.1-4.6,23.1-4.6,23.1s-18.2,6.7-56.7,18c-38.4,11.4-18.8,14.7-18.8,14.7c-32.6,18.1-3.1,16-3.1,16
		c-13.8,9.5,14.3,6.2,14.3,6.2s-8.8,6.6-4.4,9.6s31.3-7.2,46-15.2c14.7-8,28-23.6,37.6-23s9.3,6,13.3,6c9.1-0.2,18.1-2.5,26.1-6.9
		c2.4,1.5,5.1,2.3,7.9,2.3l2.6-1.3c2.6-1.3,2.4-5,5.2-6.2c2.8-1.2,2.6,1.1,12.1-7.7C576.1,530.6,568.6,506.3,562.9,498.3z"/>
	<path class="st10" d="M547.5,439.2c0,0-7.5-16.8-16.5-18s-19.7,6.2-23.8,16.9s1.6,20.8,8.9,20.8c0,0-4.6,35.9,33.9,11.2
		S547.5,439.2,547.5,439.2z"/>
	<path class="st7" d="M622,511.3c1,0.9,19.9,9.6,19.9,9.6"/>
	<line class="st11" x1="616.7" y1="522.5" x2="632.8" y2="532.6"/>
	<path class="st11" d="M607.7,525.1c0,0,9.6,12.3,13,14.5"/>
	<path class="st11" d="M604.3,528.9c0,0,2.8,12.3,4.6,14.7"/>
	<path class="st11" d="M596.8,533.7c0,0,0,7.7,1,9.3"/>
	<path class="st11" d="M584.5,532.6c-0.5,3.1-0.7,6.2-0.6,9.3"/>
	<path class="st11" d="M568.4,532.6c-0.4,2.8-0.2,5.6,0.6,8.4"/>
	<path class="st6" d="M422.2,468.3c-5.4-3.6-11.1-6.8-16.9-9.8c-8-3.9-18.7-7.8-20.4-10.5c-1.8-2.7-2.3,6.6,5.7,13.7
		c6.4,4.9,13.4,8.9,21,11.7c0,0-27.6-7.5-29.9-8c-2.3-0.5,4.4,22.6,32.4,21c0,0-33.1-2.3-26.3,10c0,0,3.5,6.2,19.7,5.3
		c0,0-21.6,15.8,7.1,13c0,0-15.8,21.3,10.9,8.9c0,0-1.4,18.1,11,5.9c0,0,1.4,11.9,11.2,1.3c0,0,5.9,19.6,13.7,1c0,0,3.7,15,14.7,1.4
		c0,0,2.3,15.4,11.8,0.9c9.4-14.5-0.9-21.6-0.9-21.6L422.2,468.3z"/>
	<path class="st7" d="M426.5,472.7c0,0-8.9-7.1-11.9-1.6c-3,5.5,1.3,9.3,10,10.8c0,0-7.6-0.5-8,3.9c-0.3,4.4,3.7,9.1,14.6,9.8
		c0,0-5.3,6.2,0,10.9c5.3,4.7,9.6,1.9,9.6,1.9s4.2,17.2,12.1,12.6c6.2-3.6,6.6-4.8,6.6-4.8c0.2-1.2,3.9,17.7,20.8,7.6
		c0,0,3.5-1.1,3.3-6.6c0,0,6.8,12.3,7.5-6l0.7-18.5l-2.5,5.2L426.5,472.7z"/>
	<path class="st9" d="M498.7,484.1L498.7,484.1c-0.5,0.8-1.2,1.4-2,1.8c-18.5,9.8-19.1,5.8-24.7,2.4c-5.6-3.4-19.2-17.1-23.2-16.1
		c-14.9,4.4-19-0.4-28.2-6.2s-11-3.7-11-3.7c3.9,2.5,7.6,5.2,11.1,8.3c8.8,11.5,16.6,9.3,16.6,9.3c-1.1,8.5,10,7.5,10,7.5
		c0.2,17.4,10.8,9.5,10.8,9.5c7.7,22.8,13.3,7,13.3,7c4.7,15.7,14.7-1.8,14.7-1.8c0.3,3.9,5.3,4.1,5.3,4.1S508.4,497.6,498.7,484.1z
		"/>
	<path class="st12" d="M550.5,455.4c0,0-6.4,8.9-3.4,15.6s14.7,15.8,27.9,0C575,471.1,572.9,451.7,550.5,455.4z"/>
	<path class="st13" d="M550.3,455.6c0,0-8.8-22.5-1.9-28.9c6.9-6.4,19-11.8,35.6,6.7c16.6,18.5-0.7,41.2-7.6,46
		C576.4,479.3,576.8,450.6,550.3,455.6z"/>
	<path class="st14" d="M521.3,453.4c0,0-12.8-15.1,1.4-22c12.1-4.2,15.8,15.1,11.7,18.8C529.8,450.3,525.4,451.4,521.3,453.4z"/>
	<path class="st11" d="M517.5,455.5c6.5-3.9,14-5.7,21.6-5.1"/>
	<ellipse class="st15" cx="525.3" cy="445.1" rx="7.1" ry="6.2"/>
	<ellipse class="st16" cx="525.7" cy="446" rx="4.6" ry="5"/>
	<ellipse transform="matrix(0.753 -0.658 0.658 0.753 -161.2449 453.3118)" class="st14" cx="523.2" cy="441.4" rx="3.1" ry="4"/>
	<path class="st6" d="M472.6,544.6c0,0-2.4-2.3-11.3,1.5l-8.9,3.8l0,0c-1.3,0-13.6,1.7-14.2,3.6c-0.6,1.9,9.3,4.9,13.4,4.7
		c4.1-0.2,20.4-8.1,22.3-9.3C475.8,547.9,472.6,544.6,472.6,544.6z"/>
	<path class="st6" d="M479.6,547.1c0,0-3.6-1.7-11.3,0.8c-7.8,2.5-18.7,9.6-22.3,14.5s-9.6,8.6-5,9.7c4.5,1.1,23.2-7.4,26.9-9.6
		C471.5,560.3,481.6,551.8,479.6,547.1z"/>
	<path class="st6" d="M482.7,549.5c0,0-4.3-3.3-13,1.5c-8.7,4.8-27.8,22.1-28.8,25.3s-1,2.1-1,3.1s0.7,11.5,13.4,3.9
		C465.9,575.8,482.7,549.5,482.7,549.5z"/>
	<path class="st6" d="M453.3,585.2c0,0,11.5-0.4,16.6-4c5.1-3.6,11.1-16.3,12.8-21c0.9-3.5,0.9-7.2,0-10.8c0,0-20.2,17.6-23.2,21.9
		l-3.1,4.3l0,0C456.5,575.8,449.2,583.1,453.3,585.2z"/>
	<path class="st7" d="M428.7,495.4c-1.1,0.7-21.2,6.2-21.2,6.2"/>
	<line class="st11" x1="432.2" y1="507.4" x2="414.6" y2="514.7"/>
	<path class="st11" d="M440.7,511.4c0,0-11.4,10.5-15.2,12.3"/>
	<path class="st11" d="M443.4,515.6c0,0-4.8,11.9-6.9,13.8"/>
	<path class="st11" d="M450.1,521.6c0,0-1.1,7.6-2.4,9"/>
	<path class="st11" d="M462.2,522.5c0,3.1-0.3,6.2-0.9,9.3"/>
	<path class="st11" d="M478.2,525.2c-0.1,2.8-0.8,5.5-2,8"/>
	<path class="st11" d="M424.6,482c0,0,10.5,0.5,11.9-0.4"/>
	<path class="st11" d="M431.2,495.7c5.4-0.8,10.7-1.9,15.9-3.4"/>
	<path class="st11" d="M440.7,508.5c0,0,15.6-6.2,18.1-9.3"/>
	<path class="st11" d="M459.4,516.3c2.5-1.9,4.6-4.4,6-7.3"/>
	<path class="st11" d="M483.6,517.4c-0.5-3.1-1.3-6.1-2.5-8.9"/>
	<path class="st11" d="M391,577.5c0,0,42.4-7.7,55-15.1"/>
	<path class="st11" d="M387.9,593.4c0,0,47.6-15.4,55.5-20.3"/>
	<path class="st11" d="M402.2,599.8c13.9-3.3,27.3-8.2,40.1-14.5"/>
	<path class="st7" d="M584.1,525.7c0.6-3.2,0.5-6.5-0.2-9.7"/>
	<path class="st7" d="M604.2,520.6c0,0-0.8-12.9-3.9-16.7"/>
	<path class="st7" d="M615.3,510.4c-1.5-3.8-3.7-7.2-6.4-10.3"/>
	<line class="st11" x1="623.7" y1="498.2" x2="613.5" y2="494.7"/>
	<path class="st11" d="M539.9,593.9c0,0-2.3-1.5-2.1-3.6"/>
	<line class="st11" x1="508" y1="597.2" x2="506.4" y2="593.5"/>
	<path class="st11" d="M534.8,596.2c0,0-3.1-3.6-2.4-5.4"/>
	<path class="st11" d="M520.8,570.2c3.5-1.9,6.6-4.6,8.9-7.9"/>
	<path class="st11" d="M508,473.9c0,0,2,6.4,15.2,8.3"/>
	<path class="st11" d="M541,482.1c3.6,0.2,7.1,0,10.6-0.5"/>
	<ellipse class="st17" cx="505.8" cy="488.5" rx="7.7" ry="6.2"/>
</g>
<g>
	<path class="st6" d="M605.3,857.6c5.7-2.5,11.6-4.8,17.5-6.7c8.2-2.5,18.9-4.4,21-6.7c2.1-2.3,1.2,6.7-7.5,12
		c-6.8,3.7-14.1,6.3-21.7,7.9c0,0,27.4-2.8,29.6-3c2.2-0.2-7.7,20.7-33.9,14.8c0,0,31.7,3,23.4,13.5c0,0-4.4,5.4-19.5,2
		c0,0,18.1,18.4-8.9,11.2c0,0,11.7,22.6-11.6,6.7c0,0-1.5,17.4-11.4,3.8c0,0-3.2,11.1-10.8-0.6c0,0-8.6,17.6-13.1-1.1
		c0,0-5.9,13.6-14.2-0.9c0,0-4.6,14.1-11.3-1c-6.7-15.1,4.2-20.2,4.2-20.2L605.3,857.6z"/>
	<path class="st7" d="M536.1,891.3c0,0,8.3,26,22.5,5c0,0,8.4,14,19.3-5c0,0,16.2,4.4,10.6-9.7c0,0,31.7-1.4,8.2-11.8
		c0,0,13.6,3.3,14-4.9s-8.6-5.9-8.6-5.9l-24.4,7.2l-39.5,15.5L536.1,891.3z"/>
	<path class="st8" d="M508.8,933.1c0,0-5.9,5.2-2.8,10.6s1.6,9.1,10.9,10.6c9.2,1.5,12.5,2.4,18.3,1.5c5.8-0.9,2.1,5.9-2.2,6.5
		c-4.2,0.6-5.4-2.3-9.4-2c-2.5,0.2-5,0.7-7.4,1.4c2.2,2,4.5,3.7,7,5.2c3.5,2-1.6,6.8-6.4,4.2c-2.8-1.5-4.9-4.2-5.6-7.3
		c-1.6-1.6-3.9-2.3-6.2-2l-3.7,0.7c0,0-6.6,1.4-5-1.4c1.6-2.7,3.6-4,8.9-5.6c3-1-9.1-12.4-8.9-21.3
		C496.7,925.5,508.8,933.1,508.8,933.1z"/>
	<path class="st8" d="M473.4,937.2c0.5,5.4,1.4,10.8,2.7,16.2c1.6,5.4,1.8,6.8-6.5,7.5c-8.3,0.7-6.1,5.2,0,5l6.2-0.2
		c0,0,3.9-0.2,8.2,11.8c1.7,6.6,10,4.7,10.9,2.5c0.9-2.2-6.8-5.2-8.3-10.6c-1.5-5.4-1-4.4-1-4.4s9.8,10.1,18.2,7
		c4.8-1.1,11.5-3.1,1.2-5.9c-10.2-2.8-7.3,0.8-19.2-6.5c-12-7.3,0-25.1,0-25.1L473.4,937.2z"/>
	<path class="st9" d="M523.4,858.2c2.9-0.5,5.8,0.7,7.6,3c4.1,4,13.3,10.6,18.1,8.1s22.4-13.2,26-13.2s11.8,5.7,16.7,4.2
		c4.9-1.5,17.8-6.2,24.9-5.9c0,0-9.6,3.8-12.3,5.4c-2.7,1.6,1.1,7.3-17.8,6.8c0,0,2.1,7.2-10.4,5c0,0-8.5,17.6-12.2,6.9
		c0,0-7.2,18.6-14,4.1c0,0-3,11.5-11.8,7S523.4,858.2,523.4,858.2z"/>
	<path class="st9" d="M538.2,869.9c-5.4-7.8-6.7-4.7-10-9.4s1.5-12.1,1.5-12.1l3.5-3.8c0,0,15.6-30.6-3-49.3
		c-18.6-18.6-40-5.1-40-5.1c-0.2-2.8,3.6-12.3,3.6-12.3c-5.2,1.7-12.4,14.8-12.4,14.8l-0.8-6.4c0,0-1.4,4.7-2.6,8.1
		s-20.7,19.8-10.5,41.1c8.6,17.9,9.1,20.4,9.1,20.7c5.9,7.7,0.9,17.4-7.3,21.5c-1.4,2-9.2,12.6-19.1,14.5c-10.9,2-4.4,22.2-4.4,22.2
		s-17.5,6.4-54.4,17.3c-36.9,10.9-18.1,14.1-18.1,14.1c-31.3,17.4-3,15.4-3,15.4c-13.2,9.1,13.8,5.9,13.8,5.9s-8.4,6.4-4.2,9.2
		s30-6.9,44.1-14.6c14.1-7.6,26.8-22.6,36.1-22.1c9.2,0.6,8.9,5.7,12.7,5.7c8.8-0.2,17.3-2.4,25-6.6c2.3,1.4,4.9,2.2,7.6,2.2
		l2.5-1.3c2.5-1.2,2.3-4.8,5-5.9s2.5,1,11.6-7.4C551,900.9,543.7,877.6,538.2,869.9z"/>
	<path class="st10" d="M523.4,813.2c0,0-7.2-16.1-15.9-17.3c-8.7-1.2-18.9,5.9-22.8,16.2c-3.9,10.3,1.5,19.9,8.5,19.9
		c0,0-4.4,34.4,32.6,10.8C562.8,819.2,523.4,813.2,523.4,813.2z"/>
	<path class="st7" d="M595,882.4c0.9,0.9,19.1,9.2,19.1,9.2"/>
	<line class="st11" x1="589.9" y1="893.1" x2="605.4" y2="902.8"/>
	<path class="st11" d="M581.2,895.6c0,0,9.2,11.8,12.5,13.9"/>
	<path class="st11" d="M578,899.2c0,0,2.7,11.8,4.4,14.1"/>
	<path class="st11" d="M570.8,903.9c0,0,0,7.4,0.9,8.9"/>
	<path class="st11" d="M559,902.8c-0.5,2.9-0.7,5.9-0.6,8.9"/>
	<path class="st11" d="M543.6,902.8c-0.4,2.7-0.2,5.4,0.6,8"/>
	<path class="st6" d="M403.3,841.1c-5.2-3.4-10.6-6.5-16.2-9.4c-7.7-3.7-17.9-7.5-19.6-10s-2.2,6.3,5.4,13.1
		c6.1,4.7,12.9,8.5,20.1,11.2c0,0-26.5-7.2-28.7-7.7s4.2,21.7,31,20.1c0,0-31.7-2.2-25.2,9.6c0,0,3.4,5.9,18.9,5.1
		c0,0-20.7,15.2,6.8,12.5c0,0-15.2,20.5,10.4,8.5c0,0-1.4,17.4,10.6,5.6c0,0,1.4,11.5,10.7,1.2c0,0,5.6,18.8,13.1,1
		c0,0,3.6,14.4,14.1,1.4c0,0,2.2,14.8,11.3,0.9c9.1-13.9-0.9-20.7-0.9-20.7L403.3,841.1z"/>
	<path class="st7" d="M407.4,845.4c0,0-8.6-6.8-11.5-1.5c-2.9,5.3,1.2,8.9,9.6,10.4c0,0-7.3-0.5-7.7,3.8c-0.3,4.3,3.6,8.7,14,9.4
		c0,0-5.1,5.9,0,10.4c5.1,4.5,9.2,1.9,9.2,1.9s4,16.5,11.6,12.1c5.9-3.5,6.3-4.6,6.3-4.6c0.1-1.1,3.8,17,20,7.3c0,0,3.3-1,3.2-6.3
		c0,0,6.5,11.8,7.2-5.7l0.7-17.8l-2.4,4.9L407.4,845.4z"/>
	<path class="st9" d="M476.6,856.3L476.6,856.3c-0.5,0.8-1.1,1.4-1.9,1.7c-17.8,9.4-18.3,5.6-23.7,2.3s-18.5-16.5-22.3-15.4
		c-14.3,4.2-18.2-0.4-27.1-5.9c-8.9-5.6-10.6-3.5-10.6-3.5c3.8,2.4,7.3,5,10.7,8c8.4,11,15.9,8.9,15.9,8.9c-1,8.2,9.6,7.2,9.6,7.2
		c0.2,16.7,10.4,9.1,10.4,9.1c7.4,21.8,12.7,6.7,12.7,6.7c4.6,15,14.1-1.7,14.1-1.7c0.3,3.7,5.1,3.9,5.1,3.9S486,869.2,476.6,856.3z
		"/>
	<path class="st12" d="M526.4,828.8c0,0-6.1,8.5-3.2,15s14.1,15.2,26.8,0C549.9,843.8,547.8,825.2,526.4,828.8z"/>
	<path class="st13" d="M526.1,828.9c0,0-8.4-21.6-1.8-27.8c6.6-6.2,18.2-11.4,34.1,6.4s-0.7,39.6-7.3,44.1
		C551.2,851.7,551.6,824.1,526.1,828.9z"/>
	<path class="st14" d="M498.3,826.8c0,0-12.3-14.4,1.3-21.1c11.6-4,15.2,14.5,11.2,18C506.5,823.9,502.3,824.9,498.3,826.8z"/>
	<path class="st11" d="M494.7,828.9c6.2-3.8,13.5-5.5,20.7-4.9"/>
	<ellipse class="st15" cx="502.2" cy="818.8" rx="6.8" ry="5.9"/>
	<ellipse class="st16" cx="502.6" cy="819.7" rx="4.4" ry="4.8"/>
	<ellipse transform="matrix(0.753 -0.658 0.658 0.753 -412.9705 530.5109)" class="st14" cx="500.2" cy="815.3" rx="3" ry="3.8"/>
	<path class="st6" d="M451.6,914.4c0,0-2.3-2.2-10.9,1.5l-8.5,3.6l0,0c-1.3,0-13.1,1.6-13.6,3.5c-0.5,1.8,8.9,4.7,12.8,4.5
		c4-0.2,19.6-7.8,21.4-8.9C454.7,917.5,451.6,914.4,451.6,914.4z"/>
	<path class="st6" d="M458.3,916.8c0,0-3.4-1.6-10.9,0.7c-7.5,2.4-17.9,9.2-21.4,13.9s-9.2,8.3-4.8,9.4c4.4,1.1,22.3-7.1,25.8-9.2
		C450.6,929.4,460.3,921.2,458.3,916.8z"/>
	<path class="st6" d="M461.3,919.1c0,0-4.2-3.2-12.5,1.5c-8.3,4.6-26.6,21.2-27.6,24.3c-1,3.1-1,2-1,3s0.7,11,12.9,3.8
		C445.2,944.3,461.3,919.1,461.3,919.1z"/>
	<path class="st6" d="M433.1,953.3c0,0,11-0.4,16-3.8c4.9-3.4,10.7-15.6,12.3-20.1c0.9-3.4,0.9-6.9,0-10.3c0,0-19.4,16.9-22.3,21
		l-3,4.2l0,0C436.1,944.2,429.1,951.3,433.1,953.3z"/>
	<path class="st7" d="M409.5,867.1c-1,0.7-20.3,5.9-20.3,5.9"/>
	<line class="st11" x1="412.8" y1="878.6" x2="395.9" y2="885.6"/>
	<path class="st11" d="M420.9,882.4c0,0-11,10.1-14.6,11.8"/>
	<path class="st11" d="M423.6,886.5c0,0-4.6,11.4-6.7,13.2"/>
	<path class="st11" d="M430,892.3c0,0-1,7.3-2.3,8.7"/>
	<path class="st11" d="M441.7,893.1c0,3-0.3,5.9-0.8,8.9"/>
	<path class="st11" d="M456.9,895.7c-0.1,2.7-0.8,5.3-2,7.7"/>
	<path class="st11" d="M405.5,854.2c0,0,10.1,0.5,11.5-0.4"/>
	<path class="st11" d="M411.8,867.4c5.2-0.8,10.3-1.8,15.3-3.3"/>
	<path class="st11" d="M421,879.7c0,0,15-5.9,17.3-8.9"/>
	<path class="st11" d="M438.9,887.2c2.4-1.8,4.4-4.2,5.7-7"/>
	<path class="st11" d="M462.1,888.2c-0.4-2.9-1.2-5.8-2.4-8.6"/>
	<path class="st11" d="M373.3,945.9c0,0,40.7-7.4,52.8-14.5"/>
	<path class="st11" d="M370.3,961.2c0,0,45.7-14.8,53.3-19.5"/>
	<path class="st11" d="M384.1,967.3c13.3-3.2,26.2-7.8,38.5-13.9"/>
	<path class="st7" d="M558.6,896.2c0.5-3.1,0.5-6.2-0.2-9.3"/>
	<path class="st7" d="M577.9,891.3c0,0-0.7-12.4-3.7-16"/>
	<path class="st7" d="M588.6,881.6c-1.5-3.6-3.5-6.9-6.1-9.9"/>
	<line class="st11" x1="596.6" y1="869.8" x2="586.8" y2="866.4"/>
	<path class="st11" d="M516.2,961.6c0,0-2.2-1.5-2-3.5"/>
	<line class="st11" x1="485.6" y1="964.8" x2="484.1" y2="961.2"/>
	<path class="st11" d="M511.3,963.8c0,0-3-3.4-2.3-5.2"/>
	<path class="st11" d="M497.8,938.9c3.4-1.8,6.3-4.4,8.5-7.6"/>
	<path class="st11" d="M485.6,846.5c0,0,2,6.1,14.6,7.9"/>
	<path class="st11" d="M517.2,854.4c3.4,0.2,6.8,0,10.2-0.5"/>
	<ellipse class="st17" cx="483.5" cy="860.5" rx="7.4" ry="5.9"/>
</g>
<path d="M789.4,496.1v-14.6h125.8v14.6H789.4z M789.4,543.8v-14.7h125.8v14.6L789.4,543.8z"/>
<line class="st18" x1="96" y1="660.1" x2="1583" y2="660.1"/>
<text transform="matrix(1 0 0 1 190.9834 97.498)" class="st1 st19">General Statement 1:  Bird lays eggs</text>
<text transform="matrix(1 0 0 1 211.9834 392.4438)" class="st1 st19">General Statement 1:  Parrot is a bird </text>
<text transform="matrix(1 0 0 1 29.9834 741.7299)" class="st1 st19">Specific Conclusion :  Therefore, parrot lays eggs</text>
</svg>
