<?xml version="1.0" encoding="utf-8"?>
<!-- Generator: Adobe Illustrator 23.0.4, SVG Export Plug-In . SVG Version: 6.00 Build 0)  -->
<svg version="1.1" id="Layer_1" xmlns="http://www.w3.org/2000/svg" xmlns:xlink="http://www.w3.org/1999/xlink" x="0px" y="0px"
	 viewBox="0 0 1700 1080" style="enable-background:new 0 0 1700 1080;" xml:space="preserve">
<style type="text/css">
	.st0{font-family:'GillSans';}
	.st1{font-size:70px;}
	.st2{display:none;enable-background:new    ;}
	.st3{font-size:80px;}
	.st4{fill:#C68456;stroke:#231F20;stroke-linecap:round;stroke-miterlimit:10;}
	.st5{fill:#FBEDB0;stroke:#231F20;stroke-linecap:round;stroke-miterlimit:10;}
	.st6{fill:#4453A3;stroke:#000000;stroke-width:0.8;stroke-linecap:round;stroke-miterlimit:10;}
	.st7{fill:#F9EB18;stroke:#000000;stroke-width:0.8;stroke-linecap:round;stroke-miterlimit:10;}
	.st8{fill:#848A8A;stroke:#000000;stroke-width:0.8;stroke-linecap:round;stroke-miterlimit:10;}
	.st9{fill:#DA1F29;stroke:#000000;stroke-width:0.8;stroke-linecap:round;stroke-miterlimit:10;}
	.st10{fill:#D1C9C2;stroke:#000000;stroke-width:0.8;stroke-linecap:round;stroke-miterlimit:10;}
	.st11{fill:none;stroke:#000000;stroke-width:0.8;stroke-linecap:round;stroke-miterlimit:10;}
	.st12{fill:#2A1B1B;stroke:#000000;stroke-width:0.8;stroke-linecap:round;stroke-miterlimit:10;}
	.st13{fill:#DFCD85;stroke:#000000;stroke-width:0.8;stroke-linecap:round;stroke-miterlimit:10;}
	.st14{fill:#FFFFFF;stroke:#000000;stroke-width:0.8;stroke-linecap:round;stroke-miterlimit:10;}
	.st15{fill:#8C523D;stroke:#000000;stroke-width:0.8;stroke-linecap:round;stroke-miterlimit:10;}
	.st16{fill:#25291D;stroke:#000000;stroke-width:0.8;stroke-linecap:round;stroke-miterlimit:10;}
	.st17{fill:#DA1F29;}
</style>
<text transform="matrix(1 0 0 1 51.9834 638.498)" class="st0 st1">Conclusion: </text>
<text transform="matrix(1 0 0 1 51.9834 722.498)" class="st0 st1">Therefore, parrot lays eggs.</text>
<text transform="matrix(1 0 0 1 51.9834 806.498)" class="st0 st1">(Specific conclusion)</text>
<text transform="matrix(1 0 0 1 854.9834 414.498)" class="st0 st1">According to the reasons, </text>
<text transform="matrix(1 0 0 1 854.9834 498.498)" class="st0 st1">the conclusion makes sense. </text>
<text transform="matrix(1 0 0 1 910.9834 648.498)" class="st2 st0 st3">LOGICALLY TRUE</text>
<g>
	<g>
		<rect x="429" y="411.5" width="290.3" height="42.1"/>
	</g>
	<g>
		<polygon points="824,431.8 705.1,500.5 705.1,363.2 		"/>
	</g>
</g>
<g>
	<path class="st4" d="M165,518.9l-29.1-5l25.1-5l-29.8-7.6l27.2-0.9l-17.9-7.8l25.6,3.4l-14.7-8.8l46.9,6l139.9,0.6l22.3-6.6
		l-7.9,8.7l25.1-2.7l-12.6,9.3l21.9-2.7c0,0-21.9,22.6-64.4,28.4c-29.2,3.4-58.7,4.2-88.1,2.5L165,518.9z"/>
	<path class="st5" d="M245.2,457.6c-15.6-22.4-33.3-37-49.6-29.4s-17.9,30.9-9.4,56.8c8.1,25,33.3,37,49.6,29.4
		C252.1,506.8,260.3,479.1,245.2,457.6z"/>
	<path class="st5" d="M348,493.6c7.8-25.4,2.7-52.2-7.1-55.7c-16.5-6-34.5,4.7-49.5,26.9c-14.3,21.2-8.5,47.7,7.1,55.7
		C314.1,528.5,340.4,518,348,493.6z"/>
	<path class="st5" d="M309.1,471.3c4.3-36.7-0.5-67.4-23.8-74.3c-23.3-7-46,15.2-60.6,49.1c-14.1,32.6,0.5,67.4,23.8,74.3
		C271.8,527.4,304.9,506.5,309.1,471.3z"/>
	<path class="st4" d="M150.3,495c0,0-6.5,21.5,28.5,29.3c35,7.8,67.8,22.1,100.8,13.5c34.3-9,78.6-9.6,100.5-33.2
		c0,0-13.2,5.6-20.6,6.2c0,0,9.7-10.3,8.5-15.9c0,0-18.5,12.9-31.1,13.8c0,0,10.6-8.1,13.2-17.9c0,0-29.4,21.5-40,22
		c0,0,10.8-10.3,10.6-15.6c0,0-18.8,20.3-28.2,21.2c2.4-5.3,3-11.4,1.5-17c0,0-6,9.6-14.7,11.6l-8.7,2.1c0,0-12.9,0.7-19.1-8.5
		c1.2,5,4.2,9.5,8.5,12.3c0,0-16.2-4.8-20.9-9.8c0,0,2.5,8.5,7.2,10.8c0,0-19.1-5.4-25.1-12.9c-1.2,3-1,6.3,0.4,9.2
		c0,0-22-11.3-28.1-17.8c0,0,4.4,16.2,11.8,21.3c0,0-26.3-8.1-29.8-21.3c0,0,0,15.3,3.7,18.2c0,0-18.9-10.1-21.3-25.7
		c0,0-2.7,15.7,0.7,19.2C158.8,510.1,150.1,497.2,150.3,495z"/>
	<path class="st5" d="M297.8,474.8c0.3,3.5-1.4,6.9-4.4,8.8"/>
	<path class="st5" d="M333.2,489.1c1-1.9,1.9-3.8,2.7-5.8"/>
	<path class="st5" d="M236.1,494.2c-0.8-2-1.8-3.9-2.9-5.8"/>
	<path class="st5" d="M236,459.5c-4.3,4-6.6,9.7-6.3,15.5"/>
	<path class="st5" d="M209.9,497.7c1.9,3,3.9,5.9,6.2,8.6"/>
	<path class="st5" d="M311,501c-2.3,2.7-4.4,5.6-6.3,8.6"/>
</g>
<g>
	<path class="st6" d="M370.8,238.4c6-2.7,12-5,18.3-6.9c8.5-2.6,19.7-4.6,21.9-7s1.2,7-7.8,12.6c-7.1,3.8-14.7,6.6-22.6,8.2
		c0,0,28.6-2.9,30.8-3.1c2.3-0.2-8,21.6-35.3,15.4c0,0,33,3.1,24.4,14.1c0,0-4.5,5.6-20.4,2.1c0,0,18.8,19.1-9.3,11.7
		c0,0,12.2,23.6-12.1,7c0,0-1.5,18.1-11.8,4c0,0-3.3,11.5-11.3-0.6c0,0-8.9,18.4-13.7-1.1c0,0-6.2,14.1-14.8-1c0,0-4.8,14.7-11.8-1
		c-7-15.7,4.4-21.1,4.4-21.1L370.8,238.4z"/>
	<path class="st7" d="M298.6,273.5c0,0,8.7,27,23.4,5.2c0,0,8.7,14.6,20.1-5.2c0,0,16.9,4.6,11-10.1c0,0,33.1-1.4,8.5-12.3
		c0,0,14.1,3.4,14.6-5.2s-8.9-6.2-8.9-6.2l-25.4,7.5l-41.1,16.1L298.6,273.5z"/>
	<path class="st8" d="M270.2,317.1c0,0-6.2,5.5-2.9,11c3.3,5.6,1.7,9.5,11.3,11s13,2.5,19.1,1.5c6-0.9,2.2,6.2-2.3,6.8
		c-4.4,0.6-5.7-2.4-9.8-2c-2.6,0.2-5.2,0.7-7.7,1.4c2.3,2,4.7,3.9,7.3,5.5c3.7,2.1-1.7,7.1-6.6,4.4c-2.9-1.6-5.1-4.3-5.8-7.6
		c-1.7-1.7-4.1-2.4-6.4-2l-3.9,0.7c0,0-6.9,1.4-5.2-1.4c1.7-2.8,3.8-4.1,9.3-5.8c3.1-1.1-9.5-12.9-9.3-22.2
		C257.5,309.1,270.2,317.1,270.2,317.1z"/>
	<path class="st8" d="M233.3,321.4c0.6,5.7,1.5,11.3,2.8,16.8c1.6,5.6,1.9,7.1-6.8,7.8c-8.7,0.7-6.4,5.4,0,5.2l6.4-0.2
		c0,0,4-0.2,8.5,12.3c1.8,6.9,10.4,4.9,11.4,2.6s-7.1-5.5-8.7-11c-1.5-5.6-1-4.6-1-4.6s10.2,10.5,19,7.3c5-1.1,12-3.3,1.3-6.2
		c-10.7-2.9-7.6,0.8-20-6.8c-12.5-7.6,0-26.1,0-26.1L233.3,321.4z"/>
	<path class="st9" d="M285.5,239.1c3-0.5,6.1,0.7,8,3.1c4.3,4.1,13.9,11,18.8,8.4s23.3-13.8,27.1-13.8s12.3,5.9,17.4,4.4
		c5.1-1.5,18.5-6.5,26-6.2c0,0-10,3.9-12.8,5.6c-2.8,1.7,1.2,7.6-18.5,7.1c0,0,2.2,7.5-10.9,5.2c0,0-8.9,18.3-12.7,7.2
		c0,0-7.5,19.4-14.6,4.3c0,0-3.1,12-12.3,7.3C291.7,267.2,285.5,239.1,285.5,239.1z"/>
	<path class="st9" d="M300.9,251.2c-5.7-8.1-7-4.9-10.4-9.8c-3.5-5,1.5-12.6,1.5-12.6l3.7-3.9c0,0,16.3-31.9-3.1-51.3
		s-41.7-5.3-41.7-5.3c-0.2-3,3.8-12.8,3.8-12.8c-5.4,1.8-12.9,15.4-12.9,15.4l-0.8-6.6c0,0-1.4,4.9-2.7,8.4
		c-1.3,3.5-21.6,20.6-10.9,42.8c9,18.7,9.5,21.3,9.4,21.6c6.2,8,0.9,18.2-7.6,22.4c-1.4,2-9.6,13.2-20,15.1
		c-11.4,2.1-4.6,23.1-4.6,23.1s-18.2,6.7-56.7,18S129,330.4,129,330.4c-32.6,18.1-3.1,16-3.1,16c-13.8,9.5,14.3,6.2,14.3,6.2
		s-8.8,6.6-4.4,9.6c4.4,3,31.3-7.2,46-15.2c14.7-8,28-23.6,37.6-23c9.6,0.6,9.3,6,13.3,6c9.1-0.2,18.1-2.5,26.1-6.9
		c2.4,1.5,5.1,2.3,7.9,2.3l2.6-1.3c2.6-1.3,2.4-5,5.2-6.2c2.8-1.2,2.6,1.1,12.1-7.7C314.1,283.6,306.6,259.3,300.9,251.2z"/>
	<path class="st10" d="M285.5,192.1c0,0-7.5-16.8-16.5-18c-9.1-1.2-19.7,6.2-23.8,16.9c-4.1,10.7,1.6,20.8,8.9,20.8
		c0,0-4.6,35.9,33.9,11.2S285.5,192.1,285.5,192.1z"/>
	<path class="st7" d="M360,264.2c1,0.9,19.9,9.6,19.9,9.6"/>
	<line class="st11" x1="354.7" y1="275.4" x2="370.8" y2="285.5"/>
	<path class="st11" d="M345.7,278c0,0,9.6,12.3,13,14.5"/>
	<path class="st11" d="M342.3,281.8c0,0,2.8,12.3,4.6,14.7"/>
	<path class="st11" d="M334.8,286.6c0,0,0,7.7,1,9.3"/>
	<path class="st11" d="M322.5,285.5c-0.5,3.1-0.7,6.2-0.6,9.3"/>
	<path class="st11" d="M306.4,285.5c-0.4,2.8-0.2,5.6,0.6,8.4"/>
	<path class="st6" d="M160.2,221.2c-5.4-3.6-11.1-6.8-16.9-9.8c-8-3.9-18.7-7.8-20.4-10.5c-1.8-2.7-2.3,6.6,5.7,13.7
		c6.4,4.9,13.4,8.9,21,11.7c0,0-27.6-7.5-29.9-8c-2.3-0.5,4.4,22.6,32.4,21c0,0-33.1-2.3-26.3,10c0,0,3.5,6.2,19.7,5.3
		c0,0-21.6,15.8,7.1,13c0,0-15.8,21.3,10.9,8.9c0,0-1.4,18.1,11,5.9c0,0,1.4,11.9,11.2,1.3c0,0,5.9,19.6,13.7,1c0,0,3.7,15,14.7,1.4
		c0,0,2.3,15.4,11.8,0.9c9.4-14.5-0.9-21.6-0.9-21.6L160.2,221.2z"/>
	<path class="st7" d="M164.5,225.7c0,0-8.9-7.1-11.9-1.6c-3,5.5,1.3,9.3,10,10.8c0,0-7.6-0.5-8,3.9c-0.3,4.4,3.7,9.1,14.6,9.8
		c0,0-5.3,6.2,0,10.9s9.6,1.9,9.6,1.9s4.2,17.2,12.1,12.6c6.2-3.6,6.6-4.8,6.6-4.8c0.2-1.2,3.9,17.7,20.8,7.6c0,0,3.5-1.1,3.3-6.6
		c0,0,6.8,12.3,7.5-6l0.7-18.5l-2.5,5.2L164.5,225.7z"/>
	<path class="st9" d="M236.7,237L236.7,237c-0.5,0.8-1.2,1.4-2,1.8c-18.5,9.8-19.1,5.8-24.7,2.4c-5.6-3.4-19.2-17.1-23.2-16.1
		c-14.9,4.4-19-0.4-28.2-6.2c-9.3-5.8-11-3.7-11-3.7c3.9,2.5,7.6,5.2,11.1,8.3c8.8,11.5,16.6,9.3,16.6,9.3c-1.1,8.5,10,7.5,10,7.5
		c0.2,17.4,10.8,9.5,10.8,9.5c7.7,22.8,13.3,7,13.3,7C214,272.4,224,255,224,255c0.3,3.9,5.3,4.1,5.3,4.1S246.4,250.5,236.7,237z"/>
	<path class="st12" d="M288.5,208.4c0,0-6.4,8.9-3.4,15.6c3,6.8,14.7,15.8,27.9,0C313,224,310.9,204.6,288.5,208.4z"/>
	<path class="st13" d="M288.3,208.5c0,0-8.8-22.5-1.9-28.9c6.9-6.4,19-11.8,35.6,6.7c16.6,18.5-0.7,41.2-7.6,46
		C314.4,232.2,314.8,203.5,288.3,208.5z"/>
	<path class="st14" d="M259.3,206.3c0,0-12.8-15.1,1.4-22c12.1-4.2,15.8,15.1,11.7,18.8C267.8,203.3,263.4,204.4,259.3,206.3z"/>
	<path class="st11" d="M255.5,208.5c6.5-3.9,14-5.7,21.6-5.1"/>
	<ellipse class="st15" cx="263.3" cy="198" rx="7.1" ry="6.2"/>
	<ellipse class="st16" cx="263.7" cy="198.9" rx="4.6" ry="5"/>
	<ellipse transform="matrix(0.753 -0.658 0.658 0.753 -63.383 219.8788)" class="st14" cx="261.2" cy="194.4" rx="3.1" ry="4"/>
	<path class="st6" d="M210.6,297.5c0,0-2.4-2.3-11.3,1.5l-8.9,3.8l0,0c-1.3,0-13.6,1.7-14.2,3.6c-0.6,1.9,9.3,4.9,13.4,4.7
		c4.1-0.2,20.4-8.1,22.3-9.3S210.6,297.5,210.6,297.5z"/>
	<path class="st6" d="M217.6,300.1c0,0-3.6-1.7-11.3,0.8c-7.8,2.5-18.7,9.6-22.3,14.5c-3.6,4.9-9.6,8.6-5,9.7
		c4.5,1.1,23.2-7.4,26.9-9.6S219.6,304.7,217.6,300.1z"/>
	<path class="st6" d="M220.7,302.4c0,0-4.3-3.3-13,1.5c-8.7,4.8-27.8,22.1-28.8,25.3c-1,3.2-1,2.1-1,3.1c0,1,0.7,11.5,13.4,3.9
		C203.9,328.8,220.7,302.4,220.7,302.4z"/>
	<path class="st6" d="M191.3,338.2c0,0,11.5-0.4,16.6-4s11.1-16.3,12.8-21c0.9-3.5,0.9-7.2,0-10.8c0,0-20.2,17.6-23.2,21.9l-3.1,4.3
		l0,0C194.5,328.7,187.2,336.1,191.3,338.2z"/>
	<path class="st7" d="M166.7,248.4c-1.1,0.7-21.2,6.2-21.2,6.2"/>
	<line class="st11" x1="170.2" y1="260.3" x2="152.6" y2="267.6"/>
	<path class="st11" d="M178.7,264.3c0,0-11.4,10.5-15.2,12.3"/>
	<path class="st11" d="M181.4,268.6c0,0-4.8,11.9-6.9,13.8"/>
	<path class="st11" d="M188.1,274.6c0,0-1.1,7.6-2.4,9"/>
	<path class="st11" d="M200.2,275.4c0,3.1-0.3,6.2-0.9,9.3"/>
	<path class="st11" d="M216.2,278.1c-0.1,2.8-0.8,5.5-2,8"/>
	<path class="st11" d="M162.6,234.9c0,0,10.5,0.5,11.9-0.4"/>
	<path class="st11" d="M169.2,248.6c5.4-0.8,10.7-1.9,15.9-3.4"/>
	<path class="st11" d="M178.7,261.4c0,0,15.6-6.2,18.1-9.3"/>
	<path class="st11" d="M197.4,269.2c2.5-1.9,4.6-4.4,6-7.3"/>
	<path class="st11" d="M221.6,270.3c-0.5-3.1-1.3-6.1-2.5-8.9"/>
	<path class="st11" d="M129,330.4c0,0,42.4-7.7,55-15.1"/>
	<path class="st11" d="M125.9,346.3c0,0,47.6-15.4,55.5-20.3"/>
	<path class="st11" d="M140.2,352.7c13.9-3.3,27.3-8.2,40.1-14.5"/>
	<path class="st7" d="M322.1,278.7c0.6-3.2,0.5-6.5-0.2-9.7"/>
	<path class="st7" d="M342.2,273.5c0,0-0.8-12.9-3.9-16.7"/>
	<path class="st7" d="M353.3,263.4c-1.5-3.8-3.7-7.2-6.4-10.3"/>
	<line class="st11" x1="361.7" y1="251.1" x2="351.5" y2="247.6"/>
	<path class="st11" d="M277.9,346.8c0,0-2.3-1.5-2.1-3.6"/>
	<line class="st11" x1="246" y1="350.2" x2="244.4" y2="346.4"/>
	<path class="st11" d="M272.8,349.1c0,0-3.1-3.6-2.4-5.4"/>
	<path class="st11" d="M258.8,323.2c3.5-1.9,6.6-4.6,8.9-7.9"/>
	<path class="st11" d="M246,226.8c0,0,2,6.4,15.2,8.3"/>
	<path class="st11" d="M279,235c3.6,0.2,7.1,0,10.6-0.5"/>
	<ellipse class="st17" cx="243.8" cy="241.5" rx="7.7" ry="6.2"/>
</g>
<text transform="matrix(1 0 0 1 931.9834 629.498)" class="st0 st3">LOGICALLY TRUE</text>
</svg>
