<?xml version="1.0" encoding="utf-8"?>
<!-- Generator: Adobe Illustrator 23.0.4, SVG Export Plug-In . SVG Version: 6.00 Build 0)  -->
<svg version="1.1" id="Layer_1" xmlns="http://www.w3.org/2000/svg" xmlns:xlink="http://www.w3.org/1999/xlink" x="0px" y="0px"
	 viewBox="0 0 1700 1080" style="enable-background:new 0 0 1700 1080;" xml:space="preserve">
<style type="text/css">
	.st0{fill:#DA3732;stroke:#000000;stroke-linejoin:round;}
	.st1{fill:#442222;stroke:#000000;stroke-linejoin:round;}
	.st2{fill:#819120;stroke:#000000;stroke-linejoin:round;}
	.st3{fill:#8E6A21;stroke:#000000;stroke-linejoin:round;}
	.st4{fill:#9933CC;stroke:#000000;stroke-width:0.8;stroke-miterlimit:10;}
	.st5{fill:#FFCC33;stroke:#000000;stroke-width:0.8;stroke-linecap:round;stroke-linejoin:round;}
	.st6{fill:#E08122;stroke:#000000;stroke-width:0.8;stroke-miterlimit:10;}
	.st7{fill:#669933;stroke:#000000;stroke-width:0.4;stroke-miterlimit:10;}
	.st8{fill:#7A5D3D;stroke:#000000;stroke-miterlimit:10;}
	.st9{fill:#FFCC33;}
	.st10{fill:#FFEC00;}
	.st11{fill:#A37D57;}
</style>
<g id="fruits">
	<path class="st0" d="M754.4,284c0,0-83.8,25.2-50.3,75.5c21.2,30.2,55.3,48.8,92.2,50.3c0,0,92.2-25.2,92.2-58.7
		s-33.5-100.6-75.5-109C780.2,235.6,771.2,242.1,754.4,284z"/>
	<polygon class="st1" points="737.6,258.9 754.4,284 754.4,250.5 	"/>
	<path class="st2" d="M988.5,344.1c0,0-49.4-72.3-87.1-25.2c-22.4,29.4-29.8,67.7-20,103.4c0,0,50.3,64.8,82.7,54.7
		c32.4-10.1,83.8-50.3,82.2-89.5C1044.8,353.9,1033.5,347.4,988.5,344.1z"/>
	<polygon class="st3" points="1007.3,320.6 988.5,344.1 1020.4,334 	"/>
	<circle class="st4" cx="838.2" cy="426.6" r="25.2"/>
	<circle class="st4" cx="813.1" cy="393" r="25.2"/>
	<circle class="st4" cx="796.3" cy="434.9" r="25.2"/>
	<circle class="st4" cx="863.4" cy="384.6" r="25.2"/>
	<circle class="st4" cx="829.9" cy="351.1" r="25.2"/>
	<circle class="st4" cx="787.9" cy="351.1" r="25.2"/>
	<circle class="st4" cx="880.2" cy="426.6" r="25.2"/>
	<circle class="st4" cx="846.6" cy="460.1" r="25.2"/>
	<circle class="st4" cx="813.1" cy="460.1" r="25.2"/>
	<circle class="st4" cx="771.2" cy="401.4" r="25.2"/>
	<circle class="st4" cx="771.2" cy="434.9" r="25.2"/>
	<circle class="st4" cx="762.8" cy="460.1" r="25.2"/>
	<circle class="st4" cx="813.1" cy="418.2" r="25.2"/>
	<circle class="st4" cx="855" cy="409.8" r="25.2"/>
	<circle class="st4" cx="813.1" cy="384.6" r="25.2"/>
	<path class="st5" d="M1098.1,342.7c-5-10.5-7.9-21.9-8.4-33.5c0-16.8,25.2-33.5,25.2-16.8s-8.4,50.3,8.4,67.1s4.9,51.8,0,58.7
		c-14.4,20.4-30.9,41.9-41.1,54.9c-6.8,8.8-15.9,15.7-26.2,19.8c-34.2,13.7-114,37.1-184.4-7.6c0,0-8.4-8.4,8.4-16.8
		c16.8-8.4,58.7,0,92.2-8.4c33.5-8.4,75.5-50.3,92.2-75.5C1081.1,359.5,1098.1,359.5,1098.1,342.7z"/>
	<ellipse class="st6" cx="641.2" cy="447.5" rx="100.6" ry="92.2"/>
	<ellipse class="st7" cx="611.9" cy="397.2" rx="12.6" ry="8.4"/>
	<ellipse class="st7" cx="595.1" cy="405.6" rx="12.6" ry="8.4"/>
	<ellipse class="st7" cx="595.1" cy="397.2" rx="12.6" ry="8.4"/>
	<path class="st8" d="M507.1,489.4H1161l0,0v41.4c0,74.4-60.3,134.6-134.6,134.6H641.7c-74.4,0-134.6-60.3-134.6-134.6l0,0V489.4
		L507.1,489.4z"/>
	<path class="st9" d="M658,388.8c31.8,12.6,54.3,41.5,58.7,75.5c0,0,16.8-41.9-16.8-67.1C672.2,376.5,658,388.8,658,388.8z"/>
	<path class="st10" d="M1102.3,397.2c0,0-25.2,67.1-41.9,75.5c0,0,41.9-33.5,50.3-58.7c5.2-13.5,5.2-28.4,0-41.9L1102.3,397.2z"/>
	<path class="st11" d="M1140.1,514.6h-83.8c0,0-8.4,125.8-33.5,134.1C1022.7,648.7,1140.1,623.6,1140.1,514.6z"/>
</g>
</svg>
