<?xml version="1.0" encoding="utf-8"?>
<!-- Generator: Adobe Illustrator 23.0.4, SVG Export Plug-In . SVG Version: 6.00 Build 0)  -->
<svg version="1.1" id="Layer_1" xmlns="http://www.w3.org/2000/svg" xmlns:xlink="http://www.w3.org/1999/xlink" x="0px" y="0px"
	 viewBox="0 0 1700 1080" style="enable-background:new 0 0 1700 1080;" xml:space="preserve">
<style type="text/css">
	.st0{fill:#DA3732;stroke:#000000;stroke-linejoin:round;}
	.st1{fill:#442222;stroke:#000000;stroke-linejoin:round;}
	.st2{fill:#819120;stroke:#000000;stroke-linejoin:round;}
	.st3{fill:#8E6A21;stroke:#000000;stroke-linejoin:round;}
	.st4{fill:#9933CC;stroke:#000000;stroke-width:0.8;stroke-miterlimit:10;}
	.st5{fill:#FFCC33;stroke:#000000;stroke-width:0.8;stroke-linecap:round;stroke-linejoin:round;}
	.st6{fill:#E08122;stroke:#000000;stroke-width:0.8;stroke-miterlimit:10;}
	.st7{fill:#669933;stroke:#000000;stroke-width:0.4;stroke-miterlimit:10;}
	.st8{fill:#7A5D3D;stroke:#000000;stroke-miterlimit:10;}
	.st9{fill:#FFCC33;}
	.st10{fill:#FFEC00;}
	.st11{fill:#A37D57;}
	.st12{stroke:#000000;stroke-linejoin:round;}
	.st13{fill:#ECE1BA;stroke:#B39D6A;stroke-miterlimit:10;}
	.st14{opacity:0.72;fill:#ECE1BA;stroke:#B39D6A;stroke-width:0.81;stroke-linejoin:bevel;enable-background:new    ;}
</style>
<g id="fruits">
	<path class="st0" d="M331.1,355c0,0-69.9,21-41.9,62.9c17.7,25.2,46.1,40.7,76.9,41.9c0,0,76.9-21,76.9-48.9S415,327,380.1,320
		C352.6,314.6,345.1,320.1,331.1,355z"/>
	<polygon class="st1" points="317.1,334.1 331.1,355 331.1,327.1 	"/>
	<path class="st2" d="M526.2,405.1c0,0-41.2-60.2-72.6-21c-18.7,24.5-24.9,56.4-16.7,86.2c0,0,41.9,54,68.9,45.6
		c27-8.5,69.9-41.9,68.6-74.6C573.2,413.2,563.7,407.9,526.2,405.1z"/>
	<polygon class="st3" points="541.9,385.5 526.2,405.1 552.8,396.7 	"/>
	<circle class="st4" cx="401" cy="473.8" r="21"/>
	<circle class="st4" cx="380" cy="445.9" r="21"/>
	<circle class="st4" cx="366" cy="480.8" r="21"/>
	<circle class="st4" cx="421.9" cy="438.9" r="21"/>
	<circle class="st4" cx="394" cy="410.9" r="21"/>
	<circle class="st4" cx="359" cy="410.9" r="21"/>
	<circle class="st4" cx="435.9" cy="473.8" r="21"/>
	<circle class="st4" cx="408" cy="501.8" r="21"/>
	<circle class="st4" cx="380" cy="501.8" r="21"/>
	<circle class="st4" cx="345.1" cy="452.9" r="21"/>
	<circle class="st4" cx="345.1" cy="480.8" r="21"/>
	<circle class="st4" cx="338.1" cy="501.8" r="21"/>
	<circle class="st4" cx="380" cy="466.8" r="21"/>
	<circle class="st4" cx="415" cy="459.9" r="21"/>
	<circle class="st4" cx="380" cy="438.9" r="21"/>
	<path class="st5" d="M617.6,403.9c-4.2-8.8-6.6-18.3-7-28c0-14,21-28,21-14s-7,41.9,7,55.9s4.1,43.2,0,48.9
		c-12,17-25.8,34.9-34.2,45.8c-5.7,7.4-13.2,13.1-21.9,16.5c-28.5,11.5-95,30.9-153.8-6.4c0,0-7-7,7-14s48.9,0,76.9-7
		c28-7,62.9-41.9,76.9-62.9S617.6,417.9,617.6,403.9z"/>
	<ellipse class="st6" cx="236.7" cy="491.3" rx="83.9" ry="76.9"/>
	<ellipse class="st7" cx="212.3" cy="449.4" rx="10.5" ry="7"/>
	<ellipse class="st7" cx="198.3" cy="456.4" rx="10.5" ry="7"/>
	<ellipse class="st7" cx="198.3" cy="449.4" rx="10.5" ry="7"/>
	<path class="st8" d="M124.9,526.2H670l0,0v34.5c0,62-50.3,112.2-112.2,112.2H237.2c-62,0-112.2-50.3-112.2-112.2l0,0L124.9,526.2
		L124.9,526.2z"/>
	<path class="st9" d="M250.7,442.4c26.5,10.5,45.3,34.6,48.9,62.9c0,0,14-34.9-14-55.9C262.6,432.1,250.7,442.4,250.7,442.4z"/>
	<path class="st10" d="M621.1,449.4c0,0-21,55.9-34.9,62.9c0,0,34.9-28,41.9-48.9c4.3-11.2,4.3-23.7,0-34.9L621.1,449.4z"/>
	<path class="st11" d="M652.6,547.2h-69.9c0,0-7,104.8-28,111.8C554.7,659,652.6,638.1,652.6,547.2z"/>
</g>
<title>Artboard 3</title>
<path class="st12" d="M705.2,501.7c0,0,145.1-90.2,239.2-78.4c0,0-47.1-39.2-90.2-47.1c0,0,141.2,3.9,211.8,70.6
	c0,0-133.3,23.5-149,117.6c0,0,3.9-82.3,31.4-109.8C948.3,454.7,799.3,458.6,705.2,501.7z"/>
<g>
	<path class="st13" d="M1341.3,512.8c0,0-24.6,24.3-36.3,20.9c-11.8-3.3-34.7-8.7-28.3-31.1C1283.1,480.3,1308.7,471.2,1341.3,512.8
		z"/>
	<path class="st14" d="M1286,514.5c7.8,4.6,16.6,7.1,25.7,7.3C1311.7,521.7,1288.8,515.3,1286,514.5z"/>
	<path class="st13" d="M1411.7,526.5c0,0-24.5,24.3-36.3,20.9c-11.8-3.3-34.7-8.7-28.3-31.1C1353.5,493.9,1379.2,484.9,1411.7,526.5
		z"/>
	<path class="st14" d="M1356.5,528c7.8,4.6,16.6,7.1,25.7,7.2C1382.2,535.2,1359.2,529,1356.5,528z"/>
	<path class="st13" d="M1365.2,421.2c0,0,20.4,27.9,15.4,39c-5,11.1-13.6,33.1-34.9,23.4S1319.2,447.4,1365.2,421.2z"/>
	<path class="st14" d="M1358.5,476c5.7-7.1,9.5-15.6,10.9-24.6C1369.4,451.4,1360,473.5,1358.5,476z"/>
	<path class="st13" d="M1292.2,398.9c0,0,20.4,27.9,15.4,39c-5,11.1-13.6,33.1-34.9,23.4C1251.5,451.7,1246.2,425.2,1292.2,398.9z"
		/>
	<path class="st14" d="M1285.5,453.9c5.7-7.1,9.5-15.6,10.9-24.6C1296.4,429.3,1286.7,451.3,1285.5,453.9z"/>
	<path class="st13" d="M1273.9,535.6c0,0-30.1,17-40.5,10.7s-31.2-17.5-19.3-37.4C1226.1,488.9,1253.7,486.8,1273.9,535.6z"/>
	<path class="st14" d="M1220.5,522.4c6.4,6.5,14.3,11.3,23.1,13.8C1243.6,536.2,1222.8,524.2,1220.5,522.4z"/>
	<path class="st13" d="M1256.9,474c0,0-30.1,16.9-40.5,10.6c-10.5-6.3-31.2-17.5-19.3-37.4C1209.1,427.2,1236.5,425.3,1256.9,474z"
		/>
	<path class="st14" d="M1203.3,460.9c6.3,6.6,14.3,11.3,23.1,13.7C1226.4,474.6,1205.7,462.6,1203.3,460.9z"/>
	<path class="st13" d="M1276,567.2c0,0,27.8-20.6,39-15.5c11.2,5.1,33.1,13.5,23.5,34.8C1328.9,607.9,1302.3,613.1,1276,567.2z"/>
	<path class="st14" d="M1330.9,573.7c-7.2-5.7-15.8-9.5-24.9-10.9C1306,562.8,1328.3,572.3,1330.9,573.7z"/>
	<path class="st13" d="M1395.9,489.8c0,0,5.6-34.1,17-38.5s33.1-13.4,41.2,8.4C1462.1,481.5,1446.8,504.2,1395.9,489.8z"/>
	<path class="st14" d="M1439.8,456c-9.1,0.9-17.8,4.1-25.2,9.4C1414.6,465.4,1437,456.7,1439.8,456z"/>
	<path class="st13" d="M1293.5,657.7c0,0,5.6-34.1,17-38.5s33.1-13.4,41.2,8.5S1344.5,672.2,1293.5,657.7z"/>
	<path class="st14" d="M1337.3,624c-9,0.9-17.5,4.2-24.9,9.4C1312.4,633.4,1334.4,624.8,1337.3,624z"/>
	<path class="st13" d="M1417.4,555.8c0,0,5.5-34.1,17-38.5s33.1-13.4,41.2,8.4C1483.6,547.6,1468.2,570.3,1417.4,555.8z"/>
	<path class="st14" d="M1461.2,522.1c-9.1,0.9-17.8,4.1-25.2,9.4C1436,531.5,1458.3,522.8,1461.2,522.1z"/>
	<path class="st13" d="M1447.3,583.2c0,0,33.8,6.8,37.7,18.4c3.9,11.6,12.2,33.6-10,40.8C1452.9,649.7,1430.8,633.5,1447.3,583.2z"
		/>
	<path class="st14" d="M1479.4,628.2c-0.5-9.2-3.4-18-8.5-25.7C1470.9,602.5,1478.6,625.3,1479.4,628.2z"/>
	<path class="st13" d="M1480.6,463.9c0,0,33.8,6.8,37.6,18.4s12.3,33.7-9.9,40.8C1486.2,530.3,1464.3,514.5,1480.6,463.9z"/>
	<path class="st14" d="M1512.7,508.9c-0.5-9.2-3.5-18-8.5-25.7C1504.2,483.2,1512.1,506,1512.7,508.9z"/>
	<path class="st13" d="M1158.3,508.9c0,0,33.8,6.4,37.6,18.4c3.8,11.9,12.3,33.6-9.9,40.8S1141.9,559.4,1158.3,508.9z"/>
	<path class="st14" d="M1190.4,553.9c-0.5-9.2-3.5-18-8.5-25.7C1181.9,528.2,1189.6,551,1190.4,553.9z"/>
	<path class="st13" d="M1459.2,388.5c0,0,33.8,6.8,37.6,18.4s12.3,33.6-9.9,40.8C1464.8,455,1442.9,438.8,1459.2,388.5z"/>
	<path class="st14" d="M1491.3,433.5c-0.5-9.2-3.5-18-8.5-25.7C1482.7,407.8,1490.6,430.6,1491.3,433.5z"/>
	<path class="st13" d="M1356.5,609.2c0,0,5.5-34,17-38.5c11.4-4.5,33.1-13.4,41.2,8.5S1407.3,623.7,1356.5,609.2z"/>
	<path class="st14" d="M1400.3,575.5c-9.1,0.9-17.8,4.3-25.2,9.6C1375.1,585.1,1397.4,576.3,1400.3,575.5z"/>
	<path class="st13" d="M1378.9,414.4c0,0,5.5-34.1,17-38.5c11.4-4.4,33.1-13.5,41.2,8.4C1445,406.1,1429.7,428.8,1378.9,414.4z"/>
	<path class="st14" d="M1422.6,380.6c-9.1,0.9-17.7,4.1-25.1,9.4C1397.5,390,1419.8,381.4,1422.6,380.6z"/>
	<path class="st13" d="M1311,346.6c0,0,34.2-4.9,41.6,4.7s22.9,27.6,4.4,41.8C1338.5,407.4,1312.4,399.5,1311,346.6z"/>
	<path class="st14" d="M1356.4,378.2c-3.6-8.4-9.3-15.7-16.6-21.1C1339.8,357.1,1354.7,375.7,1356.4,378.2z"/>
	<path class="st13" d="M1216.1,569.6c0,0,34.2-5,41.7,4.6c7.5,9.6,22.8,27.6,4.4,41.8C1243.7,630.3,1217.7,622.4,1216.1,569.6z"/>
	<path class="st14" d="M1261.6,601.2c-3.6-8.4-9.3-15.7-16.6-21.2C1244.9,580,1260,598.7,1261.6,601.2z"/>
</g>
</svg>
