<?xml version="1.0" encoding="utf-8"?>
<!-- Generator: Adobe Illustrator 23.0.4, SVG Export Plug-In . SVG Version: 6.00 Build 0)  -->
<svg version="1.1" id="Layer_1" xmlns="http://www.w3.org/2000/svg" xmlns:xlink="http://www.w3.org/1999/xlink" x="0px" y="0px"
	 viewBox="0 0 1700 1080" style="enable-background:new 0 0 1700 1080;" xml:space="preserve">
<style type="text/css">
	.st0{fill:#DA3732;stroke:#000000;stroke-linejoin:round;}
	.st1{fill:#442222;stroke:#000000;stroke-linejoin:round;}
	.st2{fill:#819120;stroke:#000000;stroke-linejoin:round;}
	.st3{fill:#8E6A21;stroke:#000000;stroke-linejoin:round;}
	.st4{fill:#9933CC;stroke:#000000;stroke-width:0.8;stroke-miterlimit:10;}
	.st5{fill:#FFCC33;stroke:#000000;stroke-width:0.8;stroke-linecap:round;stroke-linejoin:round;}
	.st6{fill:#E08122;stroke:#000000;stroke-width:0.8;stroke-miterlimit:10;}
	.st7{fill:#669933;stroke:#000000;stroke-width:0.4;stroke-miterlimit:10;}
	.st8{fill:#7A5D3D;stroke:#000000;stroke-miterlimit:10;}
	.st9{fill:#FFCC33;}
	.st10{fill:#FFEC00;}
	.st11{fill:#A37D57;}
	.st12{stroke:#000000;stroke-linejoin:round;}
	.st13{fill:#DA3732;stroke:#000000;stroke-width:0.8;stroke-linejoin:round;}
	.st14{fill:#DE543E;}
	.st15{fill:#AB2925;}
	.st16{fill:#E27F68;}
	.st17{fill:#A5C058;}
	.st18{fill:#006837;}
	.st19{fill:#72974F;}
	.st20{fill:#D7DC84;}
	.st21{fill:#E27F68;stroke:#000000;stroke-width:0.8;stroke-linecap:round;stroke-linejoin:round;}
	.st22{stroke:#000000;stroke-width:0.8;stroke-linecap:round;stroke-linejoin:round;}
	.st23{fill:#A82925;}
	.st24{opacity:0.7;fill:none;stroke:#000000;stroke-width:7;stroke-miterlimit:10;enable-background:new    ;}
	.st25{fill:#336600;stroke:#000000;stroke-width:0.8;stroke-linecap:round;stroke-linejoin:round;}
	.st26{fill:#EFE8BB;}
	.st27{opacity:0.28;fill:#ADA471;enable-background:new    ;}
	.st28{fill:#722A0D;stroke:#000000;stroke-width:0.8;stroke-linejoin:round;}
	.st29{fill:#EFDF9C;}
	.st30{font-family:'GillSans';}
	.st31{font-size:85px;}
	.st32{fill:#C1272D;}
	.st33{fill:#ECE1BA;stroke:#B39D6A;stroke-miterlimit:10;}
	.st34{opacity:0.72;fill:#ECE1BA;stroke:#B39D6A;stroke-width:0.81;stroke-linejoin:bevel;enable-background:new    ;}
</style>
<g id="fruits">
	<path class="st0" d="M341.6,162.7c0,0-40.7,12.2-24.4,36.6c10.3,14.6,26.8,23.7,44.7,24.4c0,0,44.7-12.2,44.7-28.5
		s-16.3-48.8-36.6-52.9C354.1,139.2,349.7,142.4,341.6,162.7z"/>
	<polygon class="st1" points="333.5,150.5 341.6,162.7 341.6,146.5 	"/>
	<path class="st2" d="M455.2,191.9c0,0-24-35.1-42.3-12.2c-10.9,14.3-14.5,32.8-9.7,50.1c0,0,24.4,31.4,40.1,26.5
		C459,251.4,484,232,483.2,213C482.5,196.6,477,193.5,455.2,191.9z"/>
	<polygon class="st3" points="464.3,180.5 455.2,191.9 470.7,187 	"/>
	<circle class="st4" cx="382.3" cy="231.9" r="12.2"/>
	<circle class="st4" cx="370.1" cy="215.6" r="12.2"/>
	<circle class="st4" cx="361.9" cy="235.9" r="12.2"/>
	<circle class="st4" cx="394.5" cy="211.5" r="12.2"/>
	<circle class="st4" cx="378.2" cy="195.3" r="12.2"/>
	<circle class="st4" cx="357.9" cy="195.3" r="12.2"/>
	<circle class="st4" cx="402.6" cy="231.9" r="12.2"/>
	<circle class="st4" cx="386.3" cy="248.2" r="12.2"/>
	<circle class="st4" cx="370.1" cy="248.2" r="12.2"/>
	<circle class="st4" cx="349.7" cy="219.7" r="12.2"/>
	<circle class="st4" cx="349.7" cy="235.9" r="12.2"/>
	<circle class="st4" cx="345.7" cy="248.2" r="12.2"/>
	<circle class="st4" cx="370.1" cy="227.8" r="12.2"/>
	<circle class="st4" cx="390.4" cy="223.7" r="12.2"/>
	<circle class="st4" cx="370.1" cy="211.5" r="12.2"/>
	<path class="st5" d="M508.4,191.2c-2.4-5.1-3.8-10.6-4.1-16.3c0-8.1,12.2-16.3,12.2-8.1c0,8.1-4.1,24.4,4.1,32.5
		c8.1,8.1,2.4,25.1,0,28.5c-7,9.9-15,20.3-19.9,26.6c-3.3,4.3-7.7,7.6-12.7,9.6c-16.6,6.7-55.3,18-89.5-3.7c0,0-4.1-4.1,4.1-8.1
		c8.1-4.1,28.5,0,44.7-4.1c16.3-4.1,36.6-24.4,44.7-36.6C500.1,199.3,508.4,199.3,508.4,191.2z"/>
	<ellipse class="st6" cx="286.7" cy="242.1" rx="48.8" ry="44.7"/>
	<ellipse class="st7" cx="272.5" cy="217.6" rx="6.1" ry="4.1"/>
	<ellipse class="st7" cx="264.3" cy="221.7" rx="6.1" ry="4.1"/>
	<ellipse class="st7" cx="264.3" cy="217.6" rx="6.1" ry="4.1"/>
	<path class="st8" d="M221.6,262.4h317.2l0,0v20.1c0,36.1-29.2,65.3-65.3,65.3H286.9c-36.1,0-65.3-29.2-65.3-65.3l0,0L221.6,262.4
		L221.6,262.4z"/>
	<path class="st9" d="M294.8,213.6c15.4,6.1,26.3,20.1,28.5,36.6c0,0,8.1-20.3-8.1-32.5C301.8,207.6,294.8,213.6,294.8,213.6z"/>
	<path class="st10" d="M510.4,217.6c0,0-12.2,32.5-20.3,36.6c0,0,20.3-16.3,24.4-28.5c2.5-6.5,2.5-13.8,0-20.3L510.4,217.6z"/>
	<path class="st11" d="M528.7,274.6H488c0,0-4.1,61-16.3,65.1C471.8,339.7,528.7,327.5,528.7,274.6z"/>
</g>
<g id="fruits_1_">
	<path class="st0" d="M1231,479c0,0-40.7,12.2-24.4,36.6c10.3,14.6,26.8,23.7,44.7,24.4c0,0,44.7-12.2,44.7-28.5
		s-16.3-48.8-36.6-52.9C1243.5,455.5,1239.1,458.7,1231,479z"/>
	<polygon class="st1" points="1222.9,466.8 1231,479 1231,462.7 	"/>
	<path class="st2" d="M1344.6,508.2c0,0-24-35.1-42.3-12.2c-10.9,14.3-14.5,32.8-9.7,50.1c0,0,24.4,31.4,40.1,26.5
		s40.7-24.4,39.9-43.4C1371.9,512.9,1366.4,509.7,1344.6,508.2z"/>
	<polygon class="st3" points="1353.7,496.7 1344.6,508.2 1360.1,503.2 	"/>
	<circle class="st4" cx="1271.7" cy="548.1" r="12.2"/>
	<circle class="st4" cx="1259.5" cy="531.9" r="12.2"/>
	<circle class="st4" cx="1251.3" cy="552.2" r="12.2"/>
	<circle class="st4" cx="1283.9" cy="527.8" r="12.2"/>
	<circle class="st4" cx="1267.6" cy="511.5" r="12.2"/>
	<circle class="st4" cx="1247.3" cy="511.5" r="12.2"/>
	<circle class="st4" cx="1292" cy="548.1" r="12.2"/>
	<circle class="st4" cx="1275.7" cy="564.4" r="12.2"/>
	<circle class="st4" cx="1259.5" cy="564.4" r="12.2"/>
	<circle class="st4" cx="1239.1" cy="535.9" r="12.2"/>
	<circle class="st4" cx="1239.1" cy="552.2" r="12.2"/>
	<circle class="st4" cx="1235.1" cy="564.4" r="12.2"/>
	<circle class="st4" cx="1259.5" cy="544.1" r="12.2"/>
	<circle class="st4" cx="1279.8" cy="540" r="12.2"/>
	<circle class="st4" cx="1259.5" cy="527.8" r="12.2"/>
	<path class="st5" d="M1397.8,507.5c-2.4-5.1-3.8-10.6-4.1-16.3c0-8.1,12.2-16.3,12.2-8.1s-4.1,24.4,4.1,32.5s2.4,25.1,0,28.5
		c-7,9.9-15,20.3-19.9,26.6c-3.3,4.3-7.7,7.6-12.7,9.6c-16.6,6.7-55.3,18-89.5-3.7c0,0-4.1-4.1,4.1-8.1c8.1-4.1,28.5,0,44.7-4.1
		c16.3-4.1,36.6-24.4,44.7-36.6C1389.5,515.6,1397.8,515.6,1397.8,507.5z"/>
	<ellipse class="st6" cx="1176.1" cy="558.3" rx="48.8" ry="44.7"/>
	<ellipse class="st7" cx="1161.9" cy="533.9" rx="6.1" ry="4.1"/>
	<ellipse class="st7" cx="1153.7" cy="538" rx="6.1" ry="4.1"/>
	<ellipse class="st7" cx="1153.7" cy="533.9" rx="6.1" ry="4.1"/>
	<path class="st8" d="M1111,578.6h317.2l0,0v20.1c0,36.1-29.2,65.3-65.3,65.3h-186.6c-36.1,0-65.3-29.2-65.3-65.3l0,0L1111,578.6
		L1111,578.6z"/>
	<path class="st9" d="M1184.2,529.8c15.4,6.1,26.3,20.1,28.5,36.6c0,0,8.1-20.3-8.1-32.5C1191.2,523.9,1184.2,529.8,1184.2,529.8z"
		/>
	<path class="st10" d="M1399.8,533.9c0,0-12.2,32.5-20.3,36.6c0,0,20.3-16.3,24.4-28.5c2.5-6.5,2.5-13.8,0-20.3L1399.8,533.9z"/>
	<path class="st11" d="M1418.1,590.8h-40.7c0,0-4.1,61-16.3,65.1C1361.2,655.9,1418.1,643.7,1418.1,590.8z"/>
</g>
<title>Artboard 3</title>
<path class="st12" d="M684.9,260c0,0,111.4-69.3,183.7-60.2c0,0-36.1-30.1-69.3-36.1c0,0,108.4,3,162.6,54.2
	c0,0-102.4,18.1-114.4,90.3c0,0,3-63.2,24.1-84.3C871.6,223.9,757.2,226.9,684.9,260z"/>
<g id="apple">
	<path class="st13" d="M294.4,497.2c0,0-44.7,11.9-32.8,74.5c11.9,62.6,29.8,89.4,62.6,98.3c23.8,6,6-6,50.7,6
		c44.7,11.9,80.5-95.4,80.5-119.2s-11.9-65.6-50.7-62.6c-38.7,3-56.6,0-56.6,0S303.4,491.2,294.4,497.2z"/>
	<path class="st14" d="M328.7,519.5c0,0,32.8,17.9,50.7,14.9c17.9-3,35.8-17.9,41.7-6c6,11.9,11.9,17.9,0,47.7s-47.7,86.4-95.4,83.4
		S254.2,552.2,275,519.4S328.7,519.5,328.7,519.5z"/>
	<path class="st15" d="M319.8,513.6c0,0,56.6-14.9,56.6,0c0,14.9-14.9,14.9-14.9,14.9S340.6,513.6,319.8,513.6z"/>
	<path class="st16" d="M434.5,535.9c0,0-17.9-47.7-110.3-23.8c0,0,59.6,17.9,56.6,29.8c-3,11.9-38.7,0-71.5-3s-11.9,101.3,3,116.2
		c-23.8-20.9-59.6-80.5-35.8-137.1c23.8-32.8,80.5-14.9,104.3-17.9C404.7,497.2,431.5,506.1,434.5,535.9z"/>
	<g>
		<path class="st17" d="M278,442.1c0,0,14.9,56.6,32.8,62.6s35.8,6,41.7,11.9l6-6c0,0-11.9-11.9-11.9-14.9s-6-35.8-29.8-41.7
			C303.6,450.8,290.7,446.8,278,442.1z"/>
		<path class="st18" d="M278,442.1c3,9.2,6,18.4,9.7,27.3c3.4,9,7.9,17.5,13.4,25.4c2.5,3.9,6.1,6.9,10.3,8.8
			c4.6,1.5,9.2,2.7,13.9,3.6l14.2,2.8c2.4,0.5,4.8,1.1,7.2,1.9c2.5,0.7,4.9,2,6.9,3.8h-2.1l6-6v2.1c-3.4-3.4-6.6-7-9.6-10.8
			c-0.8-1-1.5-2.1-2.1-3.2c-0.2-0.4-0.3-0.7-0.4-1.1c-0.1-0.2-0.1-0.5-0.1-0.7v-0.4c0-0.4-0.1-1.1-0.2-1.6c-0.4-2.3-0.9-4.5-1.6-6.8
			c-2.4-9-6.9-17.3-13.2-24.2c-3.2-3.4-7.2-5.9-11.6-7.4c-2.1-0.8-4.5-1.3-6.8-2s-4.6-1.3-6.9-2C295.9,448.7,286.8,445.8,278,442.1z
			 M278,442.1c8.9,3,18.1,5.8,27.3,8.1l6.9,1.8c2.3,0.6,4.6,1,6.9,1.8c4.7,1.5,9,4,12.5,7.5c6.8,7,11.7,15.6,14.3,25
			c0.7,2.3,1.3,4.7,1.7,7.1c0.1,0.6,0.2,1.3,0.2,1.9v0.4l0,0c0.1,0.2,0.1,0.4,0.2,0.6c0.5,1,1.2,1.9,1.8,2.7
			c2.9,3.6,6.1,7.1,9.4,10.4l1,1l-1,1l-6,6l-1,1l-1.1-1c-1.7-1.4-3.6-2.5-5.7-3.1c-2.2-0.7-4.5-1.4-6.9-1.8l-14.2-3
			c-4.8-1-9.5-2.3-14.1-3.8c-2.5-0.9-4.7-2.3-6.5-4.2c-1.8-1.7-3.4-3.7-4.8-5.7c-5.3-8.2-9.6-17-12.8-26.2
			C283.1,460.6,280.3,451.4,278,442.1z"/>
	</g>
	<path class="st19" d="M288.5,449.5c0,0,35.8,8.9,44.7,20.9c6.4,8.6,11.9,29.8,11.9,29.8s-14.9-23.8-20.9-29.8
		C318.3,464.4,294.4,449.5,288.5,449.5z"/>
	<path class="st20" d="M288.5,458.5l50.7,47.7c0,0-32.8-6-35.8-14.9C300.4,482.3,288.5,458.5,288.5,458.5z"/>
	<path class="st18" d="M295.9,459.9c5.4,4,10.5,8.3,15.7,12.6s10.1,8.7,15.1,13.1s9.9,8.9,14.7,13.6l7.2,7c2.3,2.4,4.7,4.8,7,7.2
		c-2.7-2-5.3-4.1-7.9-6.2l-7.7-6.4c-5.1-4.3-10.1-8.7-15.1-13.2c-5-4.4-9.9-8.9-14.7-13.7C305.2,469.5,300.4,464.9,295.9,459.9z"/>
	<path class="st18" d="M316.8,468.9c1,1.3,1.5,3,1.5,4.6c0,1.7-0.5,3.3-1.5,4.6c-1-1.3-1.5-2.9-1.5-4.6S315.8,470.2,316.8,468.9z"/>
	<path class="st18" d="M324.8,486c-1.3,1.5-3.1,2.7-5,3.3c-1.9,0.7-4,0.9-6,0.5c1.3-1.5,3.1-2.7,5-3.3
		C320.8,485.8,322.8,485.6,324.8,486z"/>
	<path class="st18" d="M336.3,496.3c-1.7,1.8-3.8,3.2-6.1,4.1c-2.3,1-4.8,1.4-7.3,1.3c3.6-3.6,8.5-5.5,13.6-5.4H336.3z"/>
	<path class="st18" d="M305,468.9c-0.7,0.9-1.8,1.5-3,1.5s-2.3-0.6-3-1.5c0.7-0.9,1.8-1.5,3-1.5S304.3,468,305,468.9z"/>
	<path class="st18" d="M329.5,490.2c-2.2-2.6-2.6-6.4-0.8-9.4c1.1,1.2,1.8,2.8,1.9,4.5C330.8,487,330.4,488.7,329.5,490.2z"/>
	<path class="st21" d="M381.5,437.6c0,0-37.9,67.5-24.1,80.5c3.4-12.9,10.3-67.5,41.3-70.7C398.7,447.3,381.5,444.1,381.5,437.6z"/>
	<path class="st22" d="M322.7,510.6c0,0,23.8,3,38.7,11.9c14.9,8.9,35.8,3,35.8,3s-17.9,3-26.8-3S334.7,504.6,322.7,510.6z"/>
	<path class="st23" d="M321.3,664.1c0,0,23.8-8.9,47.7-3c23.8,6,80.5-56.6,80.5-101.3c-3,65.6-51.3,101.6-56.6,104.3
		c-6,3-14.9,8.9-25.6,6.3C353,666.8,324.2,661.1,321.3,664.1z"/>
	<path class="st15" d="M380.9,443.6c1.6,1.6,3.7,2.7,6,3h-3C382.2,446.5,380.9,445.2,380.9,443.6z"/>
</g>
<g id="apple_1_">
	<path class="st13" d="M677.6,831.9c0,0-36.2,9.7-26.5,60.3c9.7,50.7,24.1,72.4,50.7,79.6c19.3,4.8,4.8-4.8,41,4.8
		s65.1-77.2,65.1-96.5s-9.7-53.1-41-50.7c-31.4,2.4-45.8,0-45.8,0S684.8,827.1,677.6,831.9z"/>
	<path class="st14" d="M705.3,850c0,0,26.5,14.5,41,12.1s29-14.5,33.8-4.8s9.7,14.5,0,38.6s-38.6,70-77.2,67.6
		c-38.6-2.4-57.9-86.9-41-113.4C678.8,823.5,705.3,850,705.3,850z"/>
	<path class="st15" d="M698.1,845.2c0,0,45.8-12.1,45.8,0s-12.1,12.1-12.1,12.1S714.9,845.2,698.1,845.2z"/>
	<path class="st16" d="M790.9,863.3c0,0-14.5-38.6-89.3-19.3c0,0,48.3,14.5,45.8,24.1c-2.4,9.7-31.4,0-57.9-2.4s-9.7,82,2.4,94.1
		c-19.3-16.9-48.3-65.1-29-111c19.3-26.5,65.1-12.1,84.4-14.5C766.8,831.9,788.5,839.1,790.9,863.3z"/>
	<g>
		<path class="st17" d="M664.3,787.3c0,0,12.1,45.8,26.5,50.7c14.5,4.8,29,4.8,33.8,9.7l4.8-4.8c0,0-9.7-9.7-9.7-12.1
			c0-2.4-4.8-29-24.1-33.8C685,794.3,674.5,791.1,664.3,787.3z"/>
		<path class="st18" d="M664.3,787.3c2.4,7.5,4.8,14.9,7.9,22.1c2.8,7.3,6.4,14.2,10.8,20.6c2,3.1,4.9,5.6,8.3,7.1
			c3.7,1.2,7.4,2.2,11.2,2.9l11.5,2.2c1.9,0.4,3.9,0.9,5.8,1.5c2.1,0.6,4,1.6,5.6,3.1h-1.7l4.8-4.8v1.7c-2.8-2.8-5.3-5.7-7.8-8.7
			c-0.6-0.8-1.2-1.7-1.7-2.6c-0.1-0.3-0.3-0.6-0.3-0.9c-0.1-0.2-0.1-0.4-0.1-0.6v-0.3c0-0.4-0.1-0.9-0.2-1.3
			c-0.3-1.8-0.7-3.7-1.3-5.5c-1.9-7.3-5.6-14-10.7-19.6c-2.6-2.7-5.8-4.8-9.4-6c-1.7-0.7-3.6-1.1-5.5-1.6c-1.8-0.5-3.7-1-5.5-1.6
			C678.7,792.7,671.4,790.3,664.3,787.3z M664.3,787.3c7.2,2.4,14.6,4.7,22.1,6.6l5.6,1.4c1.9,0.5,3.7,0.8,5.6,1.5
			c3.8,1.2,7.3,3.3,10.1,6c5.5,5.6,9.5,12.6,11.6,20.2c0.6,1.9,1,3.8,1.4,5.7c0.1,0.5,0.2,1,0.2,1.6c0,0,0,0.3,0,0.4l0,0
			c0.1,0.2,0.1,0.3,0.2,0.5c0.4,0.8,0.9,1.5,1.5,2.2c2.4,2.9,4.9,5.8,7.6,8.4l0.8,0.8l-0.8,0.8l-4.8,4.8l-0.8,0.8l-0.9-0.8
			c-1.3-1.2-2.9-2-4.6-2.5c-1.8-0.6-3.7-1.1-5.5-1.5l-11.5-2.4c-3.9-0.8-7.7-1.8-11.4-3.1c-2-0.7-3.8-1.9-5.3-3.4
			c-1.4-1.4-2.7-3-3.9-4.6c-4.3-6.6-7.8-13.7-10.4-21.2C668.4,802.3,666.1,794.8,664.3,787.3z"/>
	</g>
	<path class="st19" d="M672.7,793.3c0,0,29,7.2,36.2,16.9c5.2,6.9,9.7,24.1,9.7,24.1s-12.1-19.3-16.9-24.1
		C696.9,805.4,677.6,793.3,672.7,793.3z"/>
	<path class="st20" d="M672.7,800.5l41,38.6c0,0-26.5-4.8-29-12.1S672.7,800.5,672.7,800.5z"/>
	<path class="st18" d="M678.8,801.7c4.3,3.3,8.5,6.7,12.7,10.2c4.1,3.5,8.2,7,12.2,10.6s8,7.2,11.9,11.1l5.8,5.7
		c1.9,2,3.8,3.9,5.6,5.9c-2.2-1.6-4.3-3.3-6.4-5l-6.3-5.2c-4.1-3.5-8.2-7.1-12.2-10.7c-4-3.6-8-7.2-11.9-11.1
		C686.3,809.4,682.4,805.7,678.8,801.7z"/>
	<path class="st18" d="M695.6,809c0.8,1.1,1.2,2.4,1.2,3.7s-0.4,2.7-1.2,3.7c-0.8-1.1-1.2-2.4-1.2-3.7
		C694.4,811.4,694.8,810.1,695.6,809z"/>
	<path class="st18" d="M702.2,822.8c-1.1,1.2-2.5,2.2-4.1,2.7c-1.5,0.6-3.2,0.7-4.8,0.4c1.1-1.2,2.5-2.2,4.1-2.7
		C698.9,822.6,700.5,822.5,702.2,822.8z"/>
	<path class="st18" d="M711.5,831.2c-1.4,1.4-3.1,2.6-5,3.3c-1.9,0.8-3.9,1.1-5.9,1C703.5,832.6,707.5,831.1,711.5,831.2
		L711.5,831.2z"/>
	<path class="st18" d="M686.1,809c-0.6,0.7-1.5,1.2-2.4,1.2s-1.8-0.5-2.4-1.2c0.6-0.8,1.5-1.2,2.4-1.2S685.5,808.2,686.1,809z"/>
	<path class="st18" d="M706,826.2c-1.8-2.1-2.1-5.2-0.7-7.6c0.9,1,1.4,2.3,1.5,3.6C707,823.6,706.7,825,706,826.2z"/>
	<path class="st21" d="M748,783.6c0,0-30.7,54.7-19.5,65.1c2.8-10.5,8.3-54.7,33.4-57.3C762,791.5,748,788.9,748,783.6z"/>
	<path class="st22" d="M700.5,842.8c0,0,19.3,2.4,31.4,9.7c12.1,7.2,29,2.4,29,2.4s-14.5,2.4-21.7-2.4
		C731.8,847.6,710.1,837.9,700.5,842.8z"/>
	<path class="st23" d="M699.3,967c0,0,19.3-7.2,38.6-2.4s65.1-45.8,65.1-82c-2.4,53.1-41.5,82.3-45.8,84.4
		c-4.8,2.4-12.1,7.2-20.7,5.1C725,969.2,701.7,964.6,699.3,967z"/>
	<path class="st15" d="M747.5,788.5c1.3,1.3,3,2.2,4.8,2.4h-2.4C748.6,790.9,747.5,789.8,747.5,788.5z"/>
</g>
<path d="M757.4,574.3v-14.6h125.5v14.6H757.4z M757.4,622v-14.7h125.5v14.6L757.4,622z"/>
<line class="st24" x1="106.5" y1="701.4" x2="1593.5" y2="701.4"/>
<g>
	<path class="st25" d="M935,833.5c0,0,4.1-23.8-28.7-27.2C906.4,806.3,898.2,833.5,935,833.5z"/>
	<path class="st21" d="M951,792.1c0,0-30,53.5-19.1,63.8c2.7-10.3,8.2-53.5,32.7-56.1C964.6,799.8,951,797.3,951,792.1z"/>
	<path class="st13" d="M884.7,835c0,0-35.4,9.4-26,59s21.3,73.2,47.2,80.3c18.9,4.7,7.1-7.1,42.5,2.4c35.4,9.4,63.8-75.6,63.8-94.5
		s-9.4-52-40.2-49.6c-30.7,2.4-44.9,0-44.9,0S891.7,830.2,884.7,835z"/>
	<path class="st26" d="M889.1,841.1c0,0-32.4,8.6-23.6,53.9s19.1,67,42.8,73.5c17.2,4.3,6.7-6.7,39,1.9c32.3,8.6,58.2-69,58.2-86.1
		s-8.6-47.5-36.6-45.3c-28,2.1-41,0-41,0S895.5,836.8,889.1,841.1z"/>
	<path class="st27" d="M923.7,889.4c0,0-7.7,2.1-5.7,12.9s5.2,15.5,10.9,17.1c4.2,1,2.1-1.8,9.8,0.3s13-15.8,13-19.9
		c0-4.1-2.1-11.4-8.8-10.9c-3.3,0.4-6.6,0.4-9.8,0C933,888.9,925.2,888.4,923.7,889.4z"/>
	<path class="st28" d="M930.4,897.2c0,0-9.4,4.7-7.1,7.1C925.7,906.7,928,909.1,930.4,897.2z"/>
	<path class="st28" d="M939.5,897.2c0,0,9.4,4.7,7.1,7.1C944.2,906.7,941.8,909.1,939.5,897.2z"/>
	<path class="st29" d="M977.6,840.6c0,0,21.3,7.1,23.6,42.5c2.4,35.4-33.1,77.9-37.8,82.7C970.5,951.6,1013.1,883.1,977.6,840.6z"/>
</g>
<text transform="matrix(1 0 0 1 162.0504 428.4764)" class="st30 st31">General Statement 2:  Apple is a fruit. </text>
<text transform="matrix(1 0 0 1 162.0503 116.3641)" class="st30 st31">General Statement 1:  Fruits have seeds. </text>
<text transform="matrix(1 0 0 1 135.7636 1037.7063)" class="st30 st31">Specific Conclusion:  Apples have seeds. </text>
<text transform="matrix(1 -7.940244e-05 7.940244e-05 1 660.0518 773.2818)" class="st32 st30 st31">Leads to a </text>
<g>
	<path class="st33" d="M1262.1,250c0,0-10.8,10.7-16,9.2c-5.2-1.5-15.2-3.8-12.4-13.7C1236.6,235.7,1247.8,231.7,1262.1,250z"/>
	<path class="st34" d="M1237.8,250.7c3.4,2,7.3,3.1,11.3,3.2C1249.1,253.9,1239.1,251.1,1237.8,250.7z"/>
	<path class="st33" d="M1293.1,256c0,0-10.8,10.7-15.9,9.2c-5.2-1.5-15.3-3.8-12.4-13.7C1267.5,241.7,1278.8,237.7,1293.1,256z"/>
	<path class="st34" d="M1268.8,256.6c3.4,2,7.3,3.1,11.3,3.2C1280.1,259.8,1270,257.1,1268.8,256.6z"/>
	<path class="st33" d="M1272.6,209.8c0,0,9,12.2,6.8,17.1c-2.2,4.9-6,14.5-15.3,10.3C1254.7,232.9,1252.4,221.2,1272.6,209.8z"/>
	<path class="st34" d="M1269.7,233.8c2.5-3.1,4.2-6.8,4.8-10.8C1274.5,223,1270.3,232.7,1269.7,233.8z"/>
	<path class="st33" d="M1240.6,199.9c0,0,9,12.2,6.8,17.1c-2.2,4.9-6,14.5-15.3,10.3S1220.4,211.5,1240.6,199.9z"/>
	<path class="st34" d="M1237.7,224.1c2.5-3.1,4.2-6.8,4.8-10.8C1242.4,213.3,1238.2,223,1237.7,224.1z"/>
	<path class="st33" d="M1232.5,260c0,0-13.2,7.4-17.8,4.7c-4.6-2.8-13.7-7.7-8.5-16.4S1223.7,238.6,1232.5,260z"/>
	<path class="st34" d="M1209.1,254.2c2.8,2.9,6.3,5,10.2,6.1C1219.2,260.2,1210.1,255,1209.1,254.2z"/>
	<path class="st33" d="M1225.1,232.9c0,0-13.2,7.4-17.8,4.7c-4.6-2.8-13.7-7.7-8.5-16.4S1216.1,211.5,1225.1,232.9z"/>
	<path class="st34" d="M1201.5,227.2c2.8,2.9,6.3,5,10.2,6C1211.7,233.2,1202.6,227.9,1201.5,227.2z"/>
	<path class="st33" d="M1233.4,273.9c0,0,12.2-9.1,17.1-6.8c4.9,2.3,14.5,5.9,10.3,15.3C1256.7,291.7,1245,294,1233.4,273.9z"/>
	<path class="st34" d="M1257.6,276.7c-3.2-2.5-6.9-4.2-10.9-4.8C1246.6,271.9,1256.4,276.1,1257.6,276.7z"/>
	<path class="st33" d="M1286.1,239.9c0,0,2.5-15,7.5-16.9c5-1.9,14.6-5.9,18.1,3.7C1315.2,236.2,1308.5,246.2,1286.1,239.9z"/>
	<path class="st34" d="M1305.4,225c-4,0.4-7.8,1.8-11.1,4.1C1294.3,229.2,1304.2,225.3,1305.4,225z"/>
	<path class="st33" d="M1241.1,313.6c0,0,2.5-15,7.5-16.9s14.6-5.9,18.1,3.7S1263.6,320,1241.1,313.6z"/>
	<path class="st34" d="M1260.4,298.8c-3.9,0.4-7.7,1.8-10.9,4.1C1249.5,302.9,1259.1,299.1,1260.4,298.8z"/>
	<path class="st33" d="M1295.6,268.9c0,0,2.4-15,7.4-16.9c5-1.9,14.6-5.9,18.1,3.7C1324.7,265.2,1317.9,275.2,1295.6,268.9z"/>
	<path class="st34" d="M1314.8,254c-4,0.4-7.8,1.8-11.1,4.1C1303.7,258.2,1313.5,254.4,1314.8,254z"/>
	<path class="st33" d="M1308.7,280.9c0,0,14.9,3,16.6,8.1c1.7,5.1,5.4,14.8-4.4,17.9C1311.2,310.1,1301.5,303,1308.7,280.9z"/>
	<path class="st34" d="M1322.8,300.6c-0.2-4-1.5-7.9-3.7-11.3C1319.1,289.4,1322.4,299.4,1322.8,300.6z"/>
	<path class="st33" d="M1323.3,228.5c0,0,14.9,3,16.5,8.1c1.7,5.1,5.4,14.8-4.3,17.9C1325.8,257.6,1316.2,250.7,1323.3,228.5z"/>
	<path class="st34" d="M1337.4,248.3c-0.2-4-1.5-7.9-3.8-11.3C1333.7,237,1337.2,247,1337.4,248.3z"/>
	<path class="st33" d="M1181.8,248.3c0,0,14.9,2.8,16.5,8.1c1.7,5.2,5.4,14.8-4.3,17.9S1174.6,270.5,1181.8,248.3z"/>
	<path class="st34" d="M1195.9,268c-0.2-4-1.5-7.9-3.8-11.3C1192.1,256.7,1195.5,266.7,1195.9,268z"/>
	<path class="st33" d="M1313.9,195.4c0,0,14.9,3,16.5,8.1c1.7,5.1,5.4,14.8-4.3,17.9S1306.8,217.5,1313.9,195.4z"/>
	<path class="st34" d="M1328,215.1c-0.2-4-1.5-7.9-3.8-11.3C1324.3,203.9,1327.7,213.8,1328,215.1z"/>
	<path class="st33" d="M1268.8,292.3c0,0,2.4-14.9,7.4-16.9c5-2,14.6-5.9,18.1,3.7S1291.2,298.7,1268.8,292.3z"/>
	<path class="st34" d="M1288.1,277.5c-4,0.4-7.8,1.9-11.1,4.2C1277,281.7,1286.8,277.8,1288.1,277.5z"/>
	<path class="st33" d="M1278.7,206.7c0,0,2.4-15,7.4-16.9s14.6-5.9,18.1,3.7C1307.7,203.1,1301,213.1,1278.7,206.7z"/>
	<path class="st34" d="M1297.9,191.9c-4,0.4-7.8,1.8-11,4.1C1286.8,196,1296.6,192.2,1297.9,191.9z"/>
	<path class="st33" d="M1248.8,177c0,0,15-2.2,18.3,2.1c3.3,4.2,10,12.1,1.9,18.4C1260.9,203.7,1249.5,200.2,1248.8,177z"/>
	<path class="st34" d="M1268.8,190.9c-1.6-3.7-4.1-6.9-7.3-9.3C1261.5,181.6,1268.1,189.8,1268.8,190.9z"/>
	<path class="st33" d="M1207.2,274.9c0,0,15-2.2,18.3,2c3.3,4.2,10,12.1,1.9,18.4C1219.3,301.6,1207.9,298.1,1207.2,274.9z"/>
	<path class="st34" d="M1227.1,288.8c-1.6-3.7-4.1-6.9-7.3-9.3C1219.8,279.5,1226.4,287.7,1227.1,288.8z"/>
</g>
</svg>
