<svg id="Layer_1" data-name="Layer 1" xmlns="http://www.w3.org/2000/svg" viewBox="0 0 100 100"><defs><style>.cls-1{fill:#360;}.cls-1,.cls-2,.cls-3,.cls-6{stroke:#000;stroke-linejoin:round;stroke-width:0.8px;}.cls-1,.cls-2{stroke-linecap:round;}.cls-2{fill:#e27f68;}.cls-3{fill:#da3732;}.cls-3,.cls-5{isolation:isolate;}.cls-4{fill:#efe8bb;}.cls-5{fill:#ada471;opacity:0.28;}.cls-6{fill:#722a0d;}.cls-7{fill:#efdf9c;}</style></defs><title>Artboard 4</title><path class="cls-1" d="M51.47,24.5S53.21,14.44,39.33,13C39.33,13,35.86,24.5,51.47,24.5Z"/><path class="cls-2" d="M58.22,7S45.51,29.66,50.14,34C51.29,29.66,53.6,11.34,64,10.26,64,10.26,58.22,9.18,58.22,7Z"/><path class="cls-3" d="M30.14,25.13s-15,4-11,25,9,31,20,34c8,2,3-3,18,1s27-32,27-40-4-22-17-21-19,0-19,0S33.14,23.13,30.14,25.13Z"/><path class="cls-4" d="M32,27.71S18.3,31.36,22,50.52,30.08,78.9,40.11,81.64c7.3,1.82,2.83-2.83,16.52.82S81.26,53.26,81.26,46,77.61,25.89,65.75,26.8s-17.34,0-17.34,0S34.73,25.89,32,27.71Z"/><path class="cls-5" d="M46.66,48.19s-3.28.88-2.41,5.48,2.19,6.57,4.6,7.22c1.76.44.87-.77,4.15.11s5.49-6.68,5.49-8.43-.88-4.82-3.72-4.6a19.37,19.37,0,0,1-4.16,0S47.32,47.75,46.66,48.19Z"/><path class="cls-6" d="M49.5,51.5s-4,2-3,3S48.5,56.5,49.5,51.5Z"/><path class="cls-6" d="M53.34,51.5s4,2,3,3S54.34,56.5,53.34,51.5Z"/><path class="cls-7" d="M69.5,27.5s9,3,10,18-14,33-16,35C66.5,74.5,84.5,45.5,69.5,27.5Z"/></svg>