<svg id="Layer_1" data-name="Layer 1" xmlns="http://www.w3.org/2000/svg" viewBox="0 0 100 100"><defs><style>.cls-1{fill:#8e775f;stroke-miterlimit:10;}.cls-1,.cls-12,.cls-13,.cls-3{stroke:#000;}.cls-2{fill:#ba9b79;}.cls-3{fill:#da3732;}.cls-12,.cls-13,.cls-3{stroke-linejoin:round;stroke-width:0.34px;}.cls-11,.cls-14,.cls-3,.cls-4,.cls-5,.cls-6,.cls-7{isolation:isolate;}.cls-4{fill:#de543e;}.cls-15,.cls-5{fill:#ab2925;}.cls-12,.cls-6{fill:#e27f68;}.cls-8{fill:#a5c058;}.cls-9{fill:#006837;}.cls-10{fill:#72974f;}.cls-11{fill:#d7dc84;}.cls-12,.cls-13{stroke-linecap:round;}.cls-14{fill:#a82925;}</style></defs><title>Artboard 6</title><polygon class="cls-1" points="50.5 49.5 30.5 60.5 51 73.45 69.94 61.48 50.5 49.5"/><polygon class="cls-2" points="19.5 34.28 50.5 15.88 50.5 49.72 19.5 68.12 19.5 34.28"/><path d="M50,16.76V49.43L20,67.24V34.57L50,16.76M51,15,19,34V69L51,50V15Z"/><polygon class="cls-2" points="51.5 49.72 51.5 15.88 82.5 34.28 82.5 68.12 51.5 49.72"/><path d="M52,16.76,82,34.57V67.24L52,49.43V16.76M51,15V50L83,69V34L51,15Z"/><g id="apple"><path class="cls-3" d="M26.92,18.53s-6.41,1.71-4.7,10.69,4.27,12.82,9,14.1c3.41.86.85-.85,7.26.86S50,30.5,50,27.08s-1.71-9.4-7.27-9a38.71,38.71,0,0,1-8.12,0S28.2,17.68,26.92,18.53Z"/><path class="cls-4" d="M31.84,21.74s4.7,2.56,7.26,2.14,5.13-2.57,6-.86,1.7,2.57,0,6.84-6.84,12.39-13.68,12S21.15,26.44,24.14,21.74,31.84,21.74,31.84,21.74Z"/><path class="cls-5" d="M30.55,20.89s8.12-2.14,8.12,0A2.09,2.09,0,0,1,36.54,23,12.15,12.15,0,0,0,30.55,20.89Z"/><path class="cls-6" d="M47,24.09s-2.57-6.84-15.81-3.42c0,0,8.54,2.57,8.12,4.28s-5.56,0-10.26-.43-1.71,14.53.43,16.67c-3.42-3-8.55-11.54-5.13-19.66,3.42-4.7,11.54-2.14,15-2.57S46.58,19.82,47,24.09Z"/><g class="cls-7"><path class="cls-8" d="M24.57,10.63s2.14,8.12,4.7,9,5.13.86,6,1.71l.85-.85s-1.71-1.71-1.71-2.14-.85-5.13-4.27-6A48.88,48.88,0,0,1,24.57,10.63Z"/><path class="cls-9" d="M24.57,10.63A41.32,41.32,0,0,0,26,14.54a17.33,17.33,0,0,0,1.92,3.64,3.49,3.49,0,0,0,1.47,1.26,19.34,19.34,0,0,0,2,.51l2,.4a4.42,4.42,0,0,1,2,.81h-.3l.85-.85v.3a16.86,16.86,0,0,1-1.37-1.55,2.61,2.61,0,0,1-.3-.46,1.07,1.07,0,0,1-.07-.15c0-.08,0-.15,0-.17a2.08,2.08,0,0,0,0-.23,8,8,0,0,0-.23-1A8.15,8.15,0,0,0,32,13.61a4.12,4.12,0,0,0-1.65-1c-.63-.21-1.32-.36-2-.57C27.13,11.59,25.83,11.15,24.57,10.63Zm0,0c1.29.45,2.6.83,3.91,1.17.66.18,1.32.31,2,.51a4.49,4.49,0,0,1,1.79,1.07A8.09,8.09,0,0,1,34.31,17c.1.33.18.67.25,1a2.19,2.19,0,0,1,0,.28.73.73,0,0,0,0,.08.26.26,0,0,0,0,.08,2.35,2.35,0,0,0,.27.4,17.13,17.13,0,0,0,1.35,1.49l.15.15-.15.15-.85.85-.15.15-.15-.15a4.08,4.08,0,0,0-1.81-.71l-2-.42a21,21,0,0,1-2-.54,3.63,3.63,0,0,1-1.61-1.43,17.21,17.21,0,0,1-1.85-3.75C25.31,13.3,24.91,12,24.57,10.63Z"/></g><path class="cls-10" d="M26.07,11.7s5.13,1.28,6.41,3A16.82,16.82,0,0,1,34.19,19a42.18,42.18,0,0,0-3-4.27C30.34,13.83,26.92,11.7,26.07,11.7Z"/><path class="cls-11" d="M26.07,13l7.26,6.84s-4.7-.86-5.13-2.14S26.07,13,26.07,13Z"/><path class="cls-9" d="M27.14,13.19c1.54,1.15,3,2.43,4.41,3.69s2.83,2.59,4.13,4c-1.54-1.15-3-2.43-4.41-3.69S28.44,14.61,27.14,13.19Z"/><path class="cls-9" d="M30.13,14.47a1.2,1.2,0,0,1,.21.67,1.07,1.07,0,0,1-.21.66,1.16,1.16,0,0,1-.22-.66A1.21,1.21,0,0,1,30.13,14.47Z"/><path class="cls-9" d="M31.28,16.92a1.69,1.69,0,0,1-.72.48,1.88,1.88,0,0,1-.86.07,1.82,1.82,0,0,1,.72-.48A1.88,1.88,0,0,1,31.28,16.92Z"/><path class="cls-9" d="M32.93,18.41a2.73,2.73,0,0,1-1.95.77,2.47,2.47,0,0,1,.9-.59A2.58,2.58,0,0,1,32.93,18.41Z"/><path class="cls-9" d="M28.43,14.47a.6.6,0,0,1-.43.22.62.62,0,0,1-.44-.22.65.65,0,0,1,.44-.21A.63.63,0,0,1,28.43,14.47Z"/><path class="cls-9" d="M32,17.53a1.2,1.2,0,0,1-.28-.65,1.22,1.22,0,0,1,.16-.7,1.29,1.29,0,0,1,.27.66A1.26,1.26,0,0,1,32,17.53Z"/><path class="cls-12" d="M39.41,10S34,19.67,36,21.51c.5-1.84,1.49-9.67,5.93-10.13C41.88,11.38,39.41,10.92,39.41,10Z"/><path class="cls-13" d="M31,20.46a17.26,17.26,0,0,1,5.56,1.71c2.13,1.28,5.13.42,5.13.42s-2.57.43-3.85-.42S32.69,19.6,31,20.46Z"/><path class="cls-14" d="M30.77,42.47A13,13,0,0,1,37.61,42c3.42.85,11.54-8.12,11.54-14.53a19.64,19.64,0,0,1-8.12,15c-.86.42-2.14,1.28-3.68.89C35.33,42.86,31.2,42,30.77,42.47Z"/><path class="cls-15" d="M39.32,10.84a1.46,1.46,0,0,0,.85.43h-.43A.42.42,0,0,1,39.32,10.84Z"/></g><g id="apple-2" data-name="apple"><path class="cls-3" d="M39.92,27.53s-6.41,1.71-4.7,10.69,4.27,12.82,9,14.1c3.41.86.85-.85,7.26.86S63,39.5,63,36.08s-1.71-9.4-7.27-9a38.71,38.71,0,0,1-8.12,0S41.2,26.68,39.92,27.53Z"/><path class="cls-4" d="M44.84,30.74s4.7,2.56,7.26,2.14,5.13-2.57,6-.86,1.7,2.57,0,6.84-6.84,12.39-13.68,12S34.15,35.44,37.14,30.74,44.84,30.74,44.84,30.74Z"/><path class="cls-5" d="M43.55,29.89s8.12-2.14,8.12,0A2.09,2.09,0,0,1,49.54,32,12.15,12.15,0,0,0,43.55,29.89Z"/><path class="cls-6" d="M60,33.09s-2.57-6.84-15.81-3.42c0,0,8.54,2.57,8.12,4.28s-5.56,0-10.26-.43-1.71,14.53.43,16.67c-3.42-3-8.55-11.54-5.13-19.66,3.42-4.7,11.54-2.14,15-2.57S59.58,28.82,60,33.09Z"/><g class="cls-7"><path class="cls-8" d="M37.57,19.63s2.14,8.12,4.7,9,5.13.86,6,1.71l.85-.85s-1.71-1.71-1.71-2.14-.85-5.13-4.27-6A48.88,48.88,0,0,1,37.57,19.63Z"/><path class="cls-9" d="M37.57,19.63A41.32,41.32,0,0,0,39,23.54a17.33,17.33,0,0,0,1.92,3.64,3.49,3.49,0,0,0,1.47,1.26,19.34,19.34,0,0,0,2,.51l2,.4a4.42,4.42,0,0,1,2,.81h-.3l.85-.85v.3a16.86,16.86,0,0,1-1.37-1.55,2.61,2.61,0,0,1-.3-.46,1.07,1.07,0,0,1-.07-.15c0-.08,0-.15,0-.17a2.08,2.08,0,0,0,0-.23,8,8,0,0,0-.23-1A8.15,8.15,0,0,0,45,22.61a4.12,4.12,0,0,0-1.65-1.05c-.63-.21-1.32-.36-2-.57C40.13,20.59,38.83,20.15,37.57,19.63Zm0,0c1.29.45,2.6.83,3.91,1.17.66.18,1.32.31,2,.51a4.49,4.49,0,0,1,1.79,1.07A8.09,8.09,0,0,1,47.31,26c.1.33.18.67.25,1a2.19,2.19,0,0,1,0,.28.73.73,0,0,0,0,.08.26.26,0,0,0,0,.08,2.35,2.35,0,0,0,.27.4,17.13,17.13,0,0,0,1.35,1.49l.15.15-.15.15-.85.85-.15.15-.15-.15a4.08,4.08,0,0,0-1.81-.71l-2-.42a21,21,0,0,1-2-.54,3.63,3.63,0,0,1-1.61-1.43,17.21,17.21,0,0,1-1.85-3.75C38.31,22.3,37.91,21,37.57,19.63Z"/></g><path class="cls-10" d="M39.07,20.7s5.13,1.28,6.41,3A16.82,16.82,0,0,1,47.19,28a42.18,42.18,0,0,0-3-4.27C43.34,22.83,39.92,20.7,39.07,20.7Z"/><path class="cls-11" d="M39.07,22l7.26,6.84s-4.7-.86-5.13-2.14S39.07,22,39.07,22Z"/><path class="cls-9" d="M40.14,22.19c1.54,1.15,3,2.43,4.41,3.69s2.83,2.59,4.13,4c-1.54-1.15-3-2.43-4.41-3.69S41.44,23.61,40.14,22.19Z"/><path class="cls-9" d="M43.13,23.47a1.2,1.2,0,0,1,.21.67,1.07,1.07,0,0,1-.21.66,1.16,1.16,0,0,1-.22-.66A1.21,1.21,0,0,1,43.13,23.47Z"/><path class="cls-9" d="M44.28,25.92a1.69,1.69,0,0,1-.72.48,1.88,1.88,0,0,1-.86.07,1.82,1.82,0,0,1,.72-.48A1.88,1.88,0,0,1,44.28,25.92Z"/><path class="cls-9" d="M45.93,27.41a2.73,2.73,0,0,1-2,.77,2.47,2.47,0,0,1,.9-.59A2.58,2.58,0,0,1,45.93,27.41Z"/><path class="cls-9" d="M41.43,23.47a.6.6,0,0,1-.43.22.62.62,0,0,1-.44-.22.65.65,0,0,1,.44-.21A.63.63,0,0,1,41.43,23.47Z"/><path class="cls-9" d="M45,26.53a1.2,1.2,0,0,1-.28-.65,1.22,1.22,0,0,1,.16-.7,1.29,1.29,0,0,1,.27.66A1.26,1.26,0,0,1,45,26.53Z"/><path class="cls-12" d="M52.41,19S47,28.67,49,30.51c.5-1.84,1.49-9.67,5.93-10.13C54.88,20.38,52.41,19.92,52.41,19Z"/><path class="cls-13" d="M44,29.46a17.26,17.26,0,0,1,5.56,1.71c2.13,1.28,5.13.42,5.13.42s-2.57.43-3.85-.42S45.69,28.6,44,29.46Z"/><path class="cls-14" d="M43.77,51.47A13,13,0,0,1,50.61,51c3.42.85,11.54-8.12,11.54-14.53a19.64,19.64,0,0,1-8.12,15c-.86.42-2.14,1.28-3.68.89C48.33,51.86,44.2,51,43.77,51.47Z"/><path class="cls-15" d="M52.32,19.84a1.46,1.46,0,0,0,.85.43h-.43A.42.42,0,0,1,52.32,19.84Z"/></g><g id="apple-3" data-name="apple"><path class="cls-3" d="M55.92,22.53s-6.41,1.71-4.7,10.69,4.27,12.82,9,14.1c3.41.86.85-.85,7.26.86S79,34.5,79,31.08s-1.71-9.4-7.27-9a38.71,38.71,0,0,1-8.12,0S57.2,21.68,55.92,22.53Z"/><path class="cls-4" d="M60.84,25.74s4.7,2.56,7.26,2.14,5.13-2.57,6-.86,1.7,2.57,0,6.84-6.84,12.39-13.68,12S50.15,30.44,53.14,25.74,60.84,25.74,60.84,25.74Z"/><path class="cls-5" d="M59.55,24.89s8.12-2.14,8.12,0A2.09,2.09,0,0,1,65.54,27,12.15,12.15,0,0,0,59.55,24.89Z"/><path class="cls-6" d="M76,28.09s-2.57-6.84-15.81-3.42c0,0,8.54,2.57,8.12,4.28s-5.56,0-10.26-.43-1.71,14.53.43,16.67c-3.42-3-8.55-11.54-5.13-19.66,3.42-4.7,11.54-2.14,15-2.57S75.58,23.82,76,28.09Z"/><g class="cls-7"><path class="cls-8" d="M53.57,14.63s2.14,8.12,4.7,9,5.13.86,6,1.71l.85-.85s-1.71-1.71-1.71-2.14-.85-5.13-4.27-6A48.88,48.88,0,0,1,53.57,14.63Z"/><path class="cls-9" d="M53.57,14.63A41.32,41.32,0,0,0,55,18.54a17.33,17.33,0,0,0,1.92,3.64,3.49,3.49,0,0,0,1.47,1.26,19.34,19.34,0,0,0,2,.51l2,.4a4.42,4.42,0,0,1,2,.81h-.3l.85-.85v.3a16.86,16.86,0,0,1-1.37-1.55,2.61,2.61,0,0,1-.3-.46,1.07,1.07,0,0,1-.07-.15c0-.08,0-.15,0-.17a2.08,2.08,0,0,0,0-.23,8,8,0,0,0-.23-1A8.15,8.15,0,0,0,61,17.61a4.12,4.12,0,0,0-1.65-1.05c-.63-.21-1.32-.36-2-.57C56.13,15.59,54.83,15.15,53.57,14.63Zm0,0c1.29.45,2.6.83,3.91,1.17.66.18,1.32.31,2,.51a4.49,4.49,0,0,1,1.79,1.07A8.09,8.09,0,0,1,63.31,21c.1.33.18.67.25,1a2.19,2.19,0,0,1,0,.28.73.73,0,0,0,0,.08.26.26,0,0,0,0,.08,2.35,2.35,0,0,0,.27.4,17.13,17.13,0,0,0,1.35,1.49l.15.15-.15.15-.85.85-.15.15-.15-.15a4.08,4.08,0,0,0-1.81-.71l-2-.42a21,21,0,0,1-2-.54,3.63,3.63,0,0,1-1.61-1.43,17.21,17.21,0,0,1-1.85-3.75C54.31,17.3,53.91,16,53.57,14.63Z"/></g><path class="cls-10" d="M55.07,15.7s5.13,1.28,6.41,3A16.82,16.82,0,0,1,63.19,23a42.18,42.18,0,0,0-3-4.27C59.34,17.83,55.92,15.7,55.07,15.7Z"/><path class="cls-11" d="M55.07,17l7.26,6.84s-4.7-.86-5.13-2.14S55.07,17,55.07,17Z"/><path class="cls-9" d="M56.14,17.19c1.54,1.15,3,2.43,4.41,3.69s2.83,2.59,4.13,4c-1.54-1.15-3-2.43-4.41-3.69S57.44,18.61,56.14,17.19Z"/><path class="cls-9" d="M59.13,18.47a1.2,1.2,0,0,1,.21.67,1.07,1.07,0,0,1-.21.66,1.16,1.16,0,0,1-.22-.66A1.21,1.21,0,0,1,59.13,18.47Z"/><path class="cls-9" d="M60.28,20.92a1.69,1.69,0,0,1-.72.48,1.88,1.88,0,0,1-.86.07,1.82,1.82,0,0,1,.72-.48A1.88,1.88,0,0,1,60.28,20.92Z"/><path class="cls-9" d="M61.93,22.41a2.73,2.73,0,0,1-2,.77,2.47,2.47,0,0,1,.9-.59A2.58,2.58,0,0,1,61.93,22.41Z"/><path class="cls-9" d="M57.43,18.47a.6.6,0,0,1-.43.22.62.62,0,0,1-.44-.22.65.65,0,0,1,.44-.21A.63.63,0,0,1,57.43,18.47Z"/><path class="cls-9" d="M61,21.53a1.2,1.2,0,0,1-.28-.65,1.22,1.22,0,0,1,.16-.7,1.29,1.29,0,0,1,.27.66A1.26,1.26,0,0,1,61,21.53Z"/><path class="cls-12" d="M68.41,14S63,23.67,65,25.51c.5-1.84,1.49-9.67,5.93-10.13C70.88,15.38,68.41,14.92,68.41,14Z"/><path class="cls-13" d="M60,24.46a17.26,17.26,0,0,1,5.56,1.71c2.13,1.28,5.13.42,5.13.42s-2.57.43-3.85-.42S61.69,23.6,60,24.46Z"/><path class="cls-14" d="M59.77,46.47A13,13,0,0,1,66.61,46c3.42.85,11.54-8.12,11.54-14.53a19.64,19.64,0,0,1-8.12,15c-.86.42-2.14,1.28-3.68.89C64.33,46.86,60.2,46,59.77,46.47Z"/><path class="cls-15" d="M68.32,14.84a1.46,1.46,0,0,0,.85.43h-.43A.42.42,0,0,1,68.32,14.84Z"/></g><polygon class="cls-2" points="51.5 53.28 82.5 34.88 82.5 68.72 51.5 87.12 51.5 53.28"/><path d="M82,35.76V68.43L52,86.24V53.57L82,35.76M83,34,51,53V88L83,69V34Z"/><polygon class="cls-2" points="19.5 68.72 19.5 34.88 50.5 53.28 50.5 87.12 19.5 68.72"/><path d="M20,35.76,50,53.57V86.24L20,68.43V35.76M19,34V69L51,88V53L19,34Z"/></svg>