<?xml version="1.0" encoding="utf-8"?>
<!-- Generator: Adobe Illustrator 23.0.4, SVG Export Plug-In . SVG Version: 6.00 Build 0)  -->
<svg version="1.1" id="Layer_1" xmlns="http://www.w3.org/2000/svg" xmlns:xlink="http://www.w3.org/1999/xlink" x="0px" y="0px"
	 viewBox="0 0 100 100" style="enable-background:new 0 0 100 100;" xml:space="preserve">
<path d="M28.3,33.3c0,0,3.6-3.4,5.4,0l1.7,0.7c0,0-3,0.3-4.2,1.7c0,0-0.2,3.3-3.9,4.2c-3.7,1-9.8,0.7-9.8,0.7l6.4-3.9l-2.3-1.2
	l1.7-0.2l-1.9-1.1l1.6-0.1c0,0-3.7-3.6-3.7-5.4C19.4,28.9,27.1,33.5,28.3,33.3z"/>
<path d="M75.7,33.7c0,0-3.6-4.2-5.4,0l-1.7,0.9c0,0,3,0.4,4.2,2.2c0,0,0.2,4.1,3.9,5.3c3.7,1.2,9.8,0.9,9.8,0.9l-6.4-4.8l2.3-1.5
	l-1.7-0.3l1.9-1.4L81,34.9c0,0,3.7-4.5,3.7-6.7C84.7,28.2,77,33.9,75.7,33.7z"/>
<path d="M49.7,31.8c0,0-1.2-2.5,1.3-3.2l0.5-1.7l0.6,1.7c0,0,2.4,0.7,1.3,3.2c0,0,2.9-1.5,4.4-1.2c1.5,0.4,2.5,1.7,5.1,2.2
	s2.5,0.5,2.5,0.5s-1.1,0.9-3,1.2c0,0,0.7,0.6,1.2,0.4s-2,0.8-3.2,1c0,0,0.7,0.7,1,0.6c0.4,0-2.3,0.4-2.9,0.4c0,0-0.3,0.5,0.4,0.5
	c0.7,0.1-2.9,1.1-4.9,1c0,0-0.4,0.9-0.5,1s1.2,4.8,1.2,4.8s-0.8,0.7-1.5-0.2c0,0,0.2,3.3-1.8,2.6c-2-0.7-1.2-2.7-1.2-2.7
	s-1.3,0.9-1.7,0.4c-0.4-0.5,1.4-4.9,1.4-4.9s-0.7-0.7-0.6-1c0,0-2.3,0-3.1-0.5c-0.8-0.5,0-0.5,0-0.5s-3,0.1-1.8-0.5
	c1.2-0.6-3.7-0.8-1.7-1.3c2-0.5-4.9-0.8-1.9-1.2c0,0-2.5-0.5-3-1.2c0,0,3.8-0.3,7.6-2.3C45.3,30.7,46.5,30,49.7,31.8z"/>
<path d="M53.1,55.8c0,0,0.7-2,2-2.1c1.3,0,1.9-0.1,2.4,1l1.7,0.7l-1.9,0.4c0,0-0.1,1-0.6,1.6c0,0,0.1,3.1-3.9,5l-0.3,0.8l0.6,1.4
	L52,63.5v-0.9h-0.4l-0.5,1l0.5,1l-1.1-0.8v-0.9c0,0-1.2,0-2.3-0.3l-6.2,2.9c0,0,4.2-5.4,7.6-7.5C53.1,55.8,53.1,55.8,53.1,55.8z"/>
<path d="M60.8,62.6c0,0,1-1.3,1.6-1.4c0,0,0.2-2.2,3-1.5c2.8,0.7,2.9,0.5,2.9,0.5s-1.1-4.9-4.7-6.9c0,0,4.6,2.4,5,2.7l-0.4-1.3
	l2.7,2.8v-1.1l2.1,2.8c0,0,9.4-2.1,11.4-4.5c0,0-1.7,3.4-2.9,4.2c0,0,1.2,0.2,1.8-0.4c0,0-1.1,1.7-2.1,2.1c0,0,1.1,0.1,1.6-0.1
	c0,0-2.7,1.6-3.3,1.7c0,0,3.6,2.9,4.8,5.9c0,0-3.7-2.5-6.8-2.6c0,0-5.2,2.8-9.6,0c0,0-2-1.8-3.3-2.2c0,0-1.6,0.4-1.9-1.1L60.8,62.6z
	"/>
<path d="M18.6,52.5c0,0,1.5-0.7,2-0.4c0,0,1.3-1.8,3.3,0.2s2.2,1.9,2.2,1.9s1.6-4.7-0.6-8.3c0,0,2.7,4.4,2.9,4.9l0.3-1.4l0.9,3.8
	l0.6-1l0.4,3.5c0,0,9.2,2.9,12.1,1.9c0,0-3.2,2-4.6,2.1c0,0,0.9,0.8,1.7,0.6c0,0-1.8,0.9-2.9,0.8c0,0,0.9,0.7,1.5,0.7
	c0,0-3.2,0-3.7-0.2c0,0,1.6,4.3,1.1,7.5c0,0-2-4-4.6-5.7c0,0-5.9-0.2-8.3-4.9c0,0-0.8-2.6-1.7-3.5c0,0-1.5-0.5-1.1-1.9L18.6,52.5z"
	/>
</svg>
