<svg id="Layer_1" data-name="Layer 1" xmlns="http://www.w3.org/2000/svg" viewBox="0 0 100 100"><defs><style>.cls-1{fill:#fdcb37;}.cls-1,.cls-2,.cls-3,.cls-4,.cls-5,.cls-6,.cls-7,.cls-8,.cls-9{stroke:#000;stroke-linecap:round;stroke-miterlimit:10;stroke-width:0.8px;}.cls-2{fill:#ebebe3;}.cls-3{fill:#32221a;}.cls-4{fill:#5d391e;}.cls-5{fill:none;}.cls-6{fill:#fff;}.cls-7{fill:#fefefe;}.cls-8{fill:#fbce32;}.cls-9{fill:#fffefe;}</style></defs><title>Artboard 1</title><path class="cls-1" d="M66.5,76.5s-1,6,4,7a22.58,22.58,0,0,0,9,0l3,4s-4-2-5-2h-5l4,3s1,3,2,4h-4s-3-6-5-7-4,4-4,4l-3,1s-1-4,1-5a7.74,7.74,0,0,1,3-1s-5-6-3-9S66.5,76.5,66.5,76.5Z"/><path class="cls-1" d="M57.5,86.5c3,1,8,6,8,6,1-2,0-3,0-3-3-5-3-2-8-5s-2-9-2-9h-4s2,6,2,7,0,2-5,2c-3,0-4,5-4,5s5-4,8-3l3,1,3,4,1,4,1-3Z"/><path class="cls-2" d="M61.5,9.5c-1-1-9,2-9,2l4,1c-10,1-8,14-8,14v2c0,2,6,10,4,12-6,6-10,22-17,23s-13-5-16-8-7-2-9-2c-1,2-1,5,2,8-4-2-9,0-9,0s0,4,3,6h-4c0,8,13,15,25,12s13-3,20-5c14,0,23-4,23-4,14-14,12-24,8-27s-4-5-3-7,4-2,5-13-14-19-19-19l3,3c-3-2-9,0-9,0S60.5,8.5,61.5,9.5Z"/><path class="cls-3" d="M58.5,59.5l8-11s4,7,5,10c0,0,2-9,2-10s6,5,6,8a24,24,0,0,0,2-8s2,2-1,9c-1,5-1,4-5,10,0,0-5,6-8,7l-1,2a3.53,3.53,0,0,1-4-1,17.78,17.78,0,0,1-11,2c-6-1-5-1-8-2l-6-2Z"/><path class="cls-4" d="M33.5,65.5s-2-5,9-15,15-9,15-9,13-1,5,14-24,22-24,22-7,2-3-3c0,0-11,8-3-4C32.5,70.5,27.5,71.5,33.5,65.5Z"/><path class="cls-5" d="M59.5,13.5s4,3,7,3"/><ellipse class="cls-6" cx="62" cy="20.31" rx="4.81" ry="3.5" transform="translate(30.34 77.36) rotate(-79.11)"/><ellipse class="cls-7" cx="61.72" cy="21.95" rx="2.96" ry="2.83" transform="translate(32.47 80.56) rotate(-83.05)"/><ellipse class="cls-8" cx="61.78" cy="22.88" rx="1.87" ry="1.81" transform="translate(27.64 79.23) rotate(-79.11)"/><ellipse class="cls-3" cx="61.98" cy="22.44" rx="1.17" ry="1.13" transform="translate(28.23 79.07) rotate(-79.11)"/><ellipse class="cls-9" cx="60.05" cy="21.33" rx="0.78" ry="1.24" transform="translate(5.8 54.76) rotate(-51.19)"/><path class="cls-5" d="M71.5,16.5s6-2,7-4"/><ellipse class="cls-6" cx="75.43" cy="18.62" rx="2.08" ry="3.11" transform="translate(-1.21 5.86) rotate(-4.41)"/><ellipse class="cls-8" cx="75.98" cy="20.44" rx="1.17" ry="1.13" transform="translate(41.55 91.19) rotate(-79.11)"/><path class="cls-1" d="M66.5,27.5s5-6,7-6,5-3,15,4,8,14,8,14l-8-5s-8,1-13,2a8.4,8.4,0,0,1-8-3S65.5,28.5,66.5,27.5Z"/><path class="cls-1" d="M72.5,31.5s9-4,16,3"/><path class="cls-5" d="M12.5,61.5s12,6,14,6"/><path class="cls-5" d="M6.5,67.5s14,6,18,5"/><path class="cls-4" d="M33.5,65.5s12-10,14-12"/><line class="cls-4" x1="32.5" y1="70.5" x2="42.5" y2="63.5"/><path class="cls-4" d="M36.5,73.5s6-4,9-8"/></svg>