<svg id="Layer_1" data-name="Layer 1" xmlns="http://www.w3.org/2000/svg" viewBox="0 0 100 100"><defs><style>.cls-1{fill:#c68456;}.cls-1,.cls-2{stroke:#231f20;stroke-linecap:round;stroke-miterlimit:10;}.cls-2{fill:#fbedb0;}</style></defs><title>Artboard 1</title><path class="cls-1" d="M16.28,63,5.54,61.15l9.28-1.84-11-2.82,10.05-.33L7.27,53.28l9.45,1.25-5.43-3.26L28.61,53.5l51.68.22,8.25-2.45-2.93,3.21,9.29-1-4.67,3.42,8.09-1s-8.09,8.36-23.78,10.48A185,185,0,0,1,42,67.29Z"/><path class="cls-2" d="M45.94,40.36C40.16,32.1,33.63,26.69,27.61,29.5s-6.63,11.43-3.49,21c3,9.22,12.31,13.67,18.33,10.86S51.49,48.3,45.94,40.36Z"/><path class="cls-2" d="M83.9,53.67c2.9-9.39,1-19.3-2.62-20.6C75.19,30.86,68.52,34.82,63,43c-5.28,7.84-3.14,17.64,2.62,20.6S81.12,62.69,83.9,53.67Z"/><path class="cls-2" d="M69.55,45.43c1.58-13.56-.18-24.89-8.8-27.46s-17,5.63-22.4,18.15c-5.22,12.05.18,24.89,8.8,27.46S68,58.45,69.55,45.43Z"/><path class="cls-1" d="M10.85,54.18S8.46,62.11,21.38,65s25.06,8.17,37.24,5c12.67-3.31,29.05-3.55,37.14-12.27,0,0-4.89,2.07-7.6,2.28,0,0,3.58-3.8,3.14-5.86,0,0-6.84,4.78-11.5,5.1,0,0,3.9-3,4.88-6.62,0,0-10.86,7.93-14.77,8.14,0,0,4-3.8,3.91-5.75,0,0-6.95,7.49-10.42,7.82a9.43,9.43,0,0,0,.54-6.3s-2.22,3.53-5.43,4.29l-3.2.76s-4.78.27-7.06-3.15A7.56,7.56,0,0,0,51.4,63s-6-1.79-7.71-3.63c0,0,.93,3.15,2.66,4,0,0-7.05-2-9.28-4.77A4.09,4.09,0,0,0,37.23,62s-8.14-4.18-10.37-6.57c0,0,1.63,6,4.35,7.87,0,0-9.72-3-11-7.87,0,0,0,5.64,1.36,6.73,0,0-7-3.75-7.87-9.5,0,0-1,5.81.27,7.11C14,59.77,10.79,55,10.85,54.18Z"/><path class="cls-2" d="M65.35,46.74A3.48,3.48,0,0,1,63.73,50"/><path class="cls-2" d="M78.46,52a16.48,16.48,0,0,0,1-2.16"/><path class="cls-2" d="M42.56,53.9a17,17,0,0,0-1.08-2.13"/><path class="cls-2" d="M42.51,41.08a7.34,7.34,0,0,0-2.32,5.73"/><path class="cls-2" d="M32.9,55.18a28.67,28.67,0,0,0,2.28,3.19"/><path class="cls-2" d="M70.25,56.39a29.93,29.93,0,0,0-2.32,3.17"/></svg>