<svg id="Layer_1" data-name="Layer 1" xmlns="http://www.w3.org/2000/svg" xmlns:xlink="http://www.w3.org/1999/xlink" viewBox="0 0 200 200"><defs><style>.cls-1{fill:url(#linear-gradient);}</style><linearGradient id="linear-gradient" x1="32.87" y1="100.06" x2="166.17" y2="100.06" gradientUnits="userSpaceOnUse"><stop offset="0" stop-color="#fbb03b"/><stop offset="0.32" stop-color="#e352ac"/><stop offset="0.96" stop-color="#aa0004"/></linearGradient></defs><title>Artboard 1</title><path class="cls-1" d="M118.76,134.51H72.92v-4.59q0-11.7,2.65-19a41.85,41.85,0,0,1,7.91-13.33q5.24-6,23.58-21.23,9.76-8,9.77-14.6t-3.92-10.32C110.3,49,106.33,47.77,101,47.77a19.1,19.1,0,0,0-14.18,5.67q-5.61,5.67-7.18,19.78l-46.8-5.79q2.4-25.82,18.76-41.56t50.12-15.74q26.3,0,42.47,11Q166.17,36,166.17,60.67a38.17,38.17,0,0,1-5.67,19.79q-5.67,9.53-23.16,23.28-12.19,9.66-15.38,15.5T118.76,134.51ZM80.47,146.69h30.86a9.12,9.12,0,0,1,9.12,9.12v25.07a9.12,9.12,0,0,1-9.12,9.12H80.47a9.12,9.12,0,0,1-9.12-9.12V155.81A9.12,9.12,0,0,1,80.47,146.69Z"/></svg>