<svg xmlns="http://www.w3.org/2000/svg" viewBox="0 0 1043.3 313.55"><defs><style>.cls-1{fill:#fff;}</style></defs><title>Asset 1</title><g id="Layer_2" data-name="Layer 2"><g id="Layer_1-2" data-name="Layer 1"><path class="cls-1" d="M111.23,80V233.53a22.24,22.24,0,0,0,22.24,22.24h22.25A22.25,22.25,0,0,1,178,278v8.9a22.24,22.24,0,0,1-22.24,22.24H22.25A22.25,22.25,0,0,1,0,286.92V278a22.25,22.25,0,0,1,22.25-22.25h20a22.24,22.24,0,0,0,22.24-22.24V80A22.25,22.25,0,0,0,42.27,57.79h-20A22.25,22.25,0,0,1,0,35.55v-8.9A22.25,22.25,0,0,1,22.25,4.4H155.72A22.25,22.25,0,0,1,178,26.65v8.9a22.24,22.24,0,0,1-22.24,22.24H133.47A22.25,22.25,0,0,0,111.23,80Zm238-53.39V87.79c0,23.93-32.61,31-42.5,9.2L270.64,17.45a22.26,22.26,0,0,0-20.25-13H238a22.25,22.25,0,0,0-22.24,22.25V286.92A22.24,22.24,0,0,0,238,309.16h4.45a22.25,22.25,0,0,0,22.25-22.24V228.77c0-23.78,32.28-31,42.38-9.45l36.15,77a22.24,22.24,0,0,0,20.13,12.8h12.56a22.25,22.25,0,0,0,22.25-22.24V26.65A22.25,22.25,0,0,0,375.94,4.4h-4.45A22.25,22.25,0,0,0,349.25,26.65Zm267.94,129c-4.44,82-15.5,153-112.52,157.89-.62,0-1.24,0-1.86,0L451.9,312a22.24,22.24,0,0,1-21.57-22.23V24.21a22.24,22.24,0,0,1,20.2-22.15c29-2.68,81.55-5.12,106.6,9,35.59,20,64.51,62.29,60.06,144.6M538.33,64.42C528,56.65,515.26,54.26,504.5,54A22.21,22.21,0,0,0,481.72,76.2V237.43A22.25,22.25,0,0,0,503,259.65l10.48.46a21.5,21.5,0,0,0,2.78,0c42.89-3.83,47.82-50.37,49.81-104.1,2-54.3-9.92-78.2-27.72-91.55m287-28.87v-8.9A22.25,22.25,0,0,0,803.05,4.4H680.7a22.25,22.25,0,0,0-22.24,22.25V286.92a22.24,22.24,0,0,0,22.24,22.24H803.05a22.25,22.25,0,0,0,22.25-22.24V278a22.25,22.25,0,0,0-22.25-22.25H729.64a22.24,22.24,0,0,1-22.24-22.24V204.61a22.25,22.25,0,0,1,22.24-22.25h64.51a22.25,22.25,0,0,0,22.25-22.24v-8.9A22.25,22.25,0,0,0,794.15,129H729.64a22.25,22.25,0,0,1-22.24-22.25V80a22.25,22.25,0,0,1,22.24-22.25h73.41A22.25,22.25,0,0,0,825.3,35.55ZM998.81,206.83v26.7a22.25,22.25,0,0,1-22.25,22.24H949.87a22.25,22.25,0,0,1-22.25-22.24V26.65A22.25,22.25,0,0,0,905.38,4.4h-4.45a22.25,22.25,0,0,0-22.25,22.25V286.92a22.25,22.25,0,0,0,22.25,22.24h120.12a22.25,22.25,0,0,0,22.25-22.24V206.83a22.25,22.25,0,0,0-22.25-22.24h0A22.24,22.24,0,0,0,998.81,206.83Z"/></g></g></svg>