<svg id="Layer_1" data-name="Layer 1" xmlns="http://www.w3.org/2000/svg" viewBox="0 0 100 100"><defs><style>.cls-1{fill:#8e775f;stroke:#000;stroke-miterlimit:10;}.cls-2{fill:#ba9b79;}</style></defs><title>Artboard 5</title><polygon class="cls-1" points="49.5 48.5 29.5 59.5 50 72.45 68.94 60.48 49.5 48.5"/><polygon class="cls-2" points="18.5 33.28 49.5 14.88 49.5 48.72 18.5 67.12 18.5 33.28"/><path d="M49,15.76V48.43L19,66.24V33.57L49,15.76M50,14,18,33V68L50,49V14Z"/><polygon class="cls-2" points="50.5 48.72 50.5 14.88 81.5 33.28 81.5 67.12 50.5 48.72"/><path d="M51,15.76,81,33.57V66.24L51,48.43V15.76M50,14V49L82,68V33L50,14Z"/><polygon class="cls-2" points="50.5 52.28 81.5 33.88 81.5 67.72 50.5 86.12 50.5 52.28"/><path d="M81,34.76V67.43L51,85.24V52.57L81,34.76M82,33,50,52V87L82,68V33Z"/><polygon class="cls-2" points="18.5 67.72 18.5 33.88 49.5 52.28 49.5 86.12 18.5 67.72"/><path d="M19,34.76,49,52.57V85.24L19,67.43V34.76M18,33V68L50,87V52L18,33Z"/></svg>