<?xml version="1.0" encoding="utf-8"?>
<!-- Generator: Adobe Illustrator 23.0.4, SVG Export Plug-In . SVG Version: 6.00 Build 0)  -->
<svg version="1.1" id="Layer_1" xmlns="http://www.w3.org/2000/svg" xmlns:xlink="http://www.w3.org/1999/xlink" x="0px" y="0px"
	 viewBox="0 0 1700 1080" style="enable-background:new 0 0 1700 1080;" xml:space="preserve">
<style type="text/css">
	.st0{fill:#DA3732;stroke:#000000;stroke-width:0.8;stroke-linejoin:round;}
	.st1{fill:#DE543E;}
	.st2{fill:#AB2925;}
	.st3{fill:#E27F68;}
	.st4{fill:#A5C058;}
	.st5{fill:#006837;}
	.st6{fill:#72974F;}
	.st7{fill:#D7DC84;}
	.st8{fill:#E27F68;stroke:#000000;stroke-width:0.8;stroke-linecap:round;stroke-linejoin:round;}
	.st9{stroke:#000000;stroke-width:0.8;stroke-linecap:round;stroke-linejoin:round;}
	.st10{fill:#A82925;}
	.st11{fill:#DA3732;stroke:#000000;stroke-linejoin:round;}
	.st12{fill:#442222;stroke:#000000;stroke-linejoin:round;}
	.st13{fill:#819120;stroke:#000000;stroke-linejoin:round;}
	.st14{fill:#8E6A21;stroke:#000000;stroke-linejoin:round;}
	.st15{fill:#9933CC;stroke:#000000;stroke-width:0.8;stroke-miterlimit:10;}
	.st16{fill:#FFCC33;stroke:#000000;stroke-width:0.8;stroke-linecap:round;stroke-linejoin:round;}
	.st17{fill:#E08122;stroke:#000000;stroke-width:0.8;stroke-miterlimit:10;}
	.st18{fill:#669933;stroke:#000000;stroke-width:0.4;stroke-miterlimit:10;}
	.st19{fill:#7A5D3D;stroke:#000000;stroke-miterlimit:10;}
	.st20{fill:#FFCC33;}
	.st21{fill:#FFEC00;}
	.st22{fill:#A37D57;}
	.st23{fill:#8E775F;stroke:#000000;stroke-miterlimit:10;}
	.st24{fill:#BA9B79;}
	.st25{font-family:'GillSans';}
	.st26{font-size:65.2379px;}
	.st27{opacity:0.7;fill:none;stroke:#000000;stroke-width:7;stroke-miterlimit:10;}
	.st28{fill:#DA3732;stroke:#000000;stroke-width:0.34;stroke-linejoin:round;}
	.st29{fill:#E27F68;stroke:#000000;stroke-width:0.34;stroke-linecap:round;stroke-linejoin:round;}
	.st30{stroke:#000000;stroke-width:0.34;stroke-linecap:round;stroke-linejoin:round;}
	.st31{font-size:85px;}
	.st32{fill:#C1272D;}
</style>
<g id="apple">
	<path class="st0" d="M309.5,185.7c0,0-31.7,8.4-23.2,52.8c8.4,44.4,21.1,63.4,44.4,69.7c16.9,4.2,4.2-4.2,35.9,4.2
		c31.7,8.4,57-67.6,57-84.5s-8.4-46.5-35.9-44.4s-40.1,0-40.1,0S315.8,181.5,309.5,185.7z"/>
	<path class="st1" d="M333.7,201.6c0,0,23.2,12.7,35.9,10.6c12.7-2.1,25.3-12.7,29.6-4.2s8.4,12.7,0,33.8s-33.8,61.3-67.6,59.1
		c-33.8-2.1-50.7-76-35.9-99.3S333.7,201.6,333.7,201.6z"/>
	<path class="st2" d="M327.4,197.3c0,0,40.1-10.6,40.1,0S357,207.9,357,207.9S342.2,197.3,327.4,197.3z"/>
	<path class="st3" d="M408.7,213.2c0,0-12.7-33.8-78.1-16.9c0,0,42.2,12.7,40.1,21.1c-2.1,8.4-27.5,0-50.7-2.1
		c-23.2-2.1-8.4,71.8,2.1,82.4c-16.9-14.8-42.2-57-25.3-97.2c16.9-23.2,57-10.6,73.9-12.7C387.6,185.7,406.6,192.1,408.7,213.2z"/>
	<g>
		<path class="st4" d="M297.8,146.6c0,0,10.6,40.1,23.2,44.4c12.7,4.2,25.3,4.2,29.6,8.4l4.2-4.2c0,0-8.4-8.4-8.4-10.6
			c0-2.1-4.2-25.3-21.1-29.6C316,152.8,306.8,150,297.8,146.6z"/>
		<path class="st5" d="M297.8,146.6c2.1,6.5,4.2,13,6.9,19.3c2.4,6.3,5.6,12.4,9.5,18c1.8,2.7,4.3,4.9,7.3,6.2
			c3.2,1,6.5,1.9,9.8,2.6l10.1,2c1.7,0.4,3.4,0.8,5.1,1.3c1.8,0.5,3.5,1.4,4.9,2.7h-1.5l4.2-4.2v1.5c-2.4-2.4-4.7-5-6.8-7.6
			c-0.5-0.7-1-1.5-1.5-2.3c-0.1-0.3-0.2-0.5-0.3-0.8c0-0.2-0.1-0.3-0.1-0.5v-0.3c0-0.3-0.1-0.8-0.1-1.1c-0.3-1.6-0.7-3.2-1.1-4.8
			c-1.7-6.4-4.9-12.3-9.4-17.1c-2.3-2.4-5.1-4.2-8.2-5.2c-1.5-0.6-3.2-1-4.8-1.4c-1.6-0.5-3.3-0.9-4.9-1.4
			C310.5,151.4,304,149.3,297.8,146.6z M297.8,146.6c6.3,2.1,12.8,4.1,19.3,5.8l4.9,1.2c1.6,0.4,3.3,0.7,4.9,1.3
			c3.3,1,6.4,2.9,8.9,5.3c4.8,4.9,8.3,11,10.1,17.7c0.5,1.7,0.9,3.3,1.2,5c0.1,0.5,0.1,0.9,0.2,1.4c0,0,0,0.3,0,0.3l0,0
			c0,0.1,0.1,0.3,0.2,0.4c0.4,0.7,0.8,1.3,1.3,1.9c2.1,2.6,4.3,5,6.7,7.4l0.7,0.7l-0.7,0.7l-4.2,4.2l-0.7,0.7l-0.8-0.7
			c-1.2-1-2.6-1.8-4.1-2.2c-1.6-0.5-3.2-1-4.9-1.3l-10.1-2.1c-3.4-0.7-6.7-1.6-10-2.7c-1.7-0.6-3.3-1.6-4.6-3
			c-1.3-1.2-2.4-2.6-3.4-4.1c-3.8-5.8-6.8-12-9.1-18.6C301.4,159.8,299.4,153.3,297.8,146.6z"/>
	</g>
	<path class="st6" d="M305.2,151.9c0,0,25.3,6.3,31.7,14.8c4.6,6.1,8.4,21.1,8.4,21.1s-10.6-16.9-14.8-21.1
		C326.3,162.5,309.5,151.9,305.2,151.9z"/>
	<path class="st7" d="M305.2,158.3l35.9,33.8c0,0-23.2-4.2-25.3-10.6C313.7,175.2,305.2,158.3,305.2,158.3z"/>
	<path class="st5" d="M310.5,159.3c3.8,2.9,7.5,5.9,11.1,8.9c3.6,3.1,7.2,6.2,10.7,9.3c3.5,3.1,7,6.3,10.4,9.7l5.1,5
		c1.6,1.7,3.3,3.4,4.9,5.1c-1.9-1.4-3.8-2.9-5.6-4.4l-5.5-4.5c-3.6-3-7.2-6.2-10.7-9.3s-7-6.3-10.4-9.7
		C317.1,166.1,313.7,162.8,310.5,159.3z"/>
	<path class="st5" d="M325.3,165.6c0.7,0.9,1.1,2.1,1.1,3.3c0,1.2-0.3,2.3-1.1,3.3c-0.7-0.9-1.1-2.1-1.1-3.3
		C324.2,167.7,324.6,166.6,325.3,165.6z"/>
	<path class="st5" d="M331,177.8c-1,1.1-2.2,1.9-3.6,2.3c-1.4,0.5-2.8,0.6-4.2,0.3c1-1.1,2.2-1.9,3.6-2.3
		C328.1,177.6,329.6,177.5,331,177.8z"/>
	<path class="st5" d="M339.1,185.1c-1.2,1.3-2.7,2.3-4.4,2.9c-1.6,0.7-3.4,1-5.2,0.9C332.2,186.4,335.6,185,339.1,185.1L339.1,185.1
		z"/>
	<path class="st5" d="M316.9,165.6c-0.5,0.6-1.3,1-2.1,1.1c-0.8,0-1.6-0.4-2.1-1.1c0.5-0.7,1.3-1,2.1-1.1
		C315.6,164.6,316.4,165,316.9,165.6z"/>
	<path class="st5" d="M334.3,180.8c-1.6-1.9-1.8-4.5-0.6-6.7c0.8,0.9,1.3,2,1.4,3.2C335.2,178.5,335,179.7,334.3,180.8z"/>
	<path class="st8" d="M371.2,143.5c0,0-26.8,47.9-17.1,57c2.4-9.2,7.3-47.9,29.3-50.1C383.4,150.4,371.2,148.1,371.2,143.5z"/>
	<path class="st9" d="M329.5,195.2c0,0,16.9,2.1,27.5,8.4c10.6,6.3,25.3,2.1,25.3,2.1s-12.7,2.1-19-2.1
		C357,199.4,338,191,329.5,195.2z"/>
	<path class="st10" d="M328.5,304c0,0,16.9-6.3,33.8-2.1c16.9,4.2,57-40.1,57-71.8c-2.1,46.5-36.3,72-40.1,73.9
		c-4.2,2.1-10.6,6.3-18.2,4.4C351,305.9,330.6,301.9,328.5,304z"/>
	<path class="st2" d="M370.7,147.7c1.1,1.1,2.6,1.9,4.2,2.1h-2.1C371.6,149.8,370.7,148.9,370.7,147.7z"/>
</g>
<g id="fruits">
	<path class="st11" d="M1225.8,158.9c0,0-28,8.4-16.8,25.2c7.1,10.1,18.5,16.3,30.8,16.8c0,0,30.8-8.4,30.8-19.6
		c0-11.2-11.2-33.6-25.2-36.4C1234.4,142.7,1231.4,144.9,1225.8,158.9z"/>
	<polygon class="st12" points="1220.2,150.5 1225.8,158.9 1225.8,147.7 	"/>
	<path class="st13" d="M1304,179c0,0-16.5-24.1-29.1-8.4c-7.5,9.8-10,22.6-6.7,34.5c0,0,16.8,21.7,27.6,18.3
		c10.8-3.4,28-16.8,27.5-29.9C1322.8,182.2,1319,180.1,1304,179z"/>
	<polygon class="st14" points="1310.3,171.1 1304,179 1314.7,175.6 	"/>
	<circle class="st15" cx="1253.8" cy="206.5" r="8.4"/>
	<circle class="st15" cx="1245.4" cy="195.3" r="8.4"/>
	<circle class="st15" cx="1239.8" cy="209.3" r="8.4"/>
	<circle class="st15" cx="1262.2" cy="192.5" r="8.4"/>
	<circle class="st15" cx="1251" cy="181.3" r="8.4"/>
	<circle class="st15" cx="1237" cy="181.3" r="8.4"/>
	<circle class="st15" cx="1267.8" cy="206.5" r="8.4"/>
	<circle class="st15" cx="1256.6" cy="217.7" r="8.4"/>
	<circle class="st15" cx="1245.4" cy="217.7" r="8.4"/>
	<circle class="st15" cx="1231.4" cy="198.1" r="8.4"/>
	<circle class="st15" cx="1231.4" cy="209.3" r="8.4"/>
	<circle class="st15" cx="1228.6" cy="217.7" r="8.4"/>
	<circle class="st15" cx="1245.4" cy="203.7" r="8.4"/>
	<circle class="st15" cx="1259.4" cy="200.9" r="8.4"/>
	<circle class="st15" cx="1245.4" cy="192.5" r="8.4"/>
	<path class="st16" d="M1340.6,178.5c-1.7-3.5-2.6-7.3-2.8-11.2c0-5.6,8.4-11.2,8.4-5.6s-2.8,16.8,2.8,22.4c5.6,5.6,1.6,17.3,0,19.6
		c-4.8,6.8-10.3,14-13.7,18.3c-2.3,3-5.3,5.2-8.8,6.6c-11.4,4.6-38.1,12.4-61.6-2.5c0,0-2.8-2.8,2.8-5.6c5.6-2.8,19.6,0,30.8-2.8
		c11.2-2.8,25.2-16.8,30.8-25.2C1335,184.1,1340.6,184.1,1340.6,178.5z"/>
	<ellipse class="st17" cx="1188" cy="213.5" rx="33.6" ry="30.8"/>
	<ellipse class="st18" cx="1178.2" cy="196.7" rx="4.2" ry="2.8"/>
	<ellipse class="st18" cx="1172.6" cy="199.5" rx="4.2" ry="2.8"/>
	<ellipse class="st18" cx="1172.6" cy="196.7" rx="4.2" ry="2.8"/>
	<path class="st19" d="M1143.2,227.5h218.5l0,0v13.8c0,24.8-20.1,45-45,45h-128.5c-24.8,0-45-20.1-45-45l0,0V227.5L1143.2,227.5z"/>
	<path class="st20" d="M1193.6,193.9c10.6,4.2,18.1,13.9,19.6,25.2c0,0,5.6-14-5.6-22.4C1198.4,189.8,1193.6,193.9,1193.6,193.9z"/>
	<path class="st21" d="M1342,196.7c0,0-8.4,22.4-14,25.2c0,0,14-11.2,16.8-19.6c1.7-4.5,1.7-9.5,0-14L1342,196.7z"/>
	<path class="st22" d="M1354.6,235.9h-28c0,0-2.8,42-11.2,44.8C1315.4,280.7,1354.6,272.3,1354.6,235.9z"/>
</g>
<g id="fruits_1_">
	<path class="st11" d="M1229.2,479.6c0,0-28,8.4-16.8,25.2c7.1,10.1,18.5,16.3,30.8,16.8c0,0,30.8-8.4,30.8-19.6
		s-11.2-33.6-25.2-36.4C1237.8,463.4,1234.8,465.6,1229.2,479.6z"/>
	<polygon class="st12" points="1223.6,471.2 1229.2,479.6 1229.2,468.4 	"/>
	<path class="st13" d="M1307.4,499.7c0,0-16.5-24.1-29.1-8.4c-7.5,9.8-10,22.6-6.7,34.5c0,0,16.8,21.7,27.6,18.3
		c10.8-3.4,28-16.8,27.5-29.9C1326.2,503,1322.4,500.8,1307.4,499.7z"/>
	<polygon class="st14" points="1313.7,491.8 1307.4,499.7 1318,496.3 	"/>
	<circle class="st15" cx="1257.2" cy="527.2" r="8.4"/>
	<circle class="st15" cx="1248.8" cy="516" r="8.4"/>
	<circle class="st15" cx="1243.2" cy="530" r="8.4"/>
	<circle class="st15" cx="1265.6" cy="513.2" r="8.4"/>
	<circle class="st15" cx="1254.4" cy="502" r="8.4"/>
	<circle class="st15" cx="1240.4" cy="502" r="8.4"/>
	<circle class="st15" cx="1271.2" cy="527.2" r="8.4"/>
	<circle class="st15" cx="1260" cy="538.5" r="8.4"/>
	<circle class="st15" cx="1248.8" cy="538.5" r="8.4"/>
	<circle class="st15" cx="1234.8" cy="518.8" r="8.4"/>
	<circle class="st15" cx="1234.8" cy="530" r="8.4"/>
	<circle class="st15" cx="1232" cy="538.5" r="8.4"/>
	<circle class="st15" cx="1248.8" cy="524.4" r="8.4"/>
	<circle class="st15" cx="1262.8" cy="521.6" r="8.4"/>
	<circle class="st15" cx="1248.8" cy="513.2" r="8.4"/>
	<path class="st16" d="M1344,499.2c-1.7-3.5-2.6-7.3-2.8-11.2c0-5.6,8.4-11.2,8.4-5.6s-2.8,16.8,2.8,22.4c5.6,5.6,1.6,17.3,0,19.6
		c-4.8,6.8-10.3,14-13.7,18.3c-2.3,3-5.3,5.2-8.8,6.6c-11.4,4.6-38.1,12.4-61.6-2.5c0,0-2.8-2.8,2.8-5.6c5.6-2.8,19.6,0,30.8-2.8
		s25.2-16.8,30.8-25.2C1338.3,504.8,1344,504.8,1344,499.2z"/>
	<ellipse class="st17" cx="1191.3" cy="534.3" rx="33.6" ry="30.8"/>
	<ellipse class="st18" cx="1181.5" cy="517.4" rx="4.2" ry="2.8"/>
	<ellipse class="st18" cx="1175.9" cy="520.2" rx="4.2" ry="2.8"/>
	<ellipse class="st18" cx="1175.9" cy="517.4" rx="4.2" ry="2.8"/>
	<path class="st19" d="M1146.5,548.3H1365l0,0v13.8c0,24.8-20.1,45-45,45h-128.5c-24.8,0-45-20.1-45-45l0,0V548.3L1146.5,548.3z"/>
	<path class="st20" d="M1196.9,514.6c10.6,4.2,18.1,13.9,19.6,25.2c0,0,5.6-14-5.6-22.4C1201.7,510.5,1196.9,514.6,1196.9,514.6z"/>
	<path class="st21" d="M1345.4,517.4c0,0-8.4,22.4-14,25.2c0,0,14-11.2,16.8-19.6c1.7-4.5,1.7-9.5,0-14L1345.4,517.4z"/>
	<path class="st22" d="M1358,556.7h-28c0,0-2.8,42-11.2,44.8C1318.8,601.5,1358,593.1,1358,556.7z"/>
</g>
<path d="M746.3,212.7v-9.9h85.2v9.9H746.3z M746.3,245.1v-10h85.2v9.9L746.3,245.1z"/>
<g>
	<polygon class="st23" points="347.4,533.1 300.1,559.1 348.5,589.7 393.3,561.4 	"/>
	<polygon class="st24" points="274.2,497.2 347.4,453.7 347.4,533.6 274.2,577.1 	"/>
	<path d="M346.2,455.8v77.1l-70.8,42v-77.1L346.2,455.8 M348.5,451.7L273,496.5v82.6l75.5-44.9V451.7z"/>
	<polygon class="st24" points="349.7,533.6 349.7,453.7 422.9,497.2 422.9,577.1 	"/>
	<path d="M350.9,455.8l70.8,42V575l-70.8-42V455.8 M348.5,451.7v82.6l75.5,44.9v-82.6L348.5,451.7z"/>
	<polygon class="st24" points="349.7,542 422.9,498.6 422.9,578.5 349.7,621.9 	"/>
	<path d="M421.7,500.7v77.1l-70.8,42v-77.1L421.7,500.7 M424.1,496.5l-75.5,44.9V624l75.5-44.9V496.5z"/>
	<polygon class="st24" points="274.2,578.5 274.2,498.6 347.4,542 347.4,621.9 	"/>
	<path d="M275.4,500.7l70.8,42v77.1l-70.8-42V500.7 M273,496.5v82.6l75.5,44.9v-82.6L273,496.5z"/>
</g>
<text transform="matrix(1 0 0 1 686.3691 561.4746)" class="st25 st26">is full of</text>
<line class="st27" x1="114" y1="652.5" x2="1601" y2="652.5"/>
<g>
	<polygon class="st23" points="817.2,840.6 766.3,868.6 818.5,901.6 866.7,871.1 	"/>
	<polygon class="st24" points="738.3,801.8 817.2,755 817.2,841.2 738.3,888 	"/>
	<path d="M816,757.2v83.2l-76.4,45.4v-83.2L816,757.2 M818.5,752.7L737,801.1v89.1l81.5-48.4V752.7z"/>
	<polygon class="st24" points="819.8,841.2 819.8,755 898.7,801.8 898.7,888 	"/>
	<path d="M821,757.2l76.4,45.4v83.2L821,840.4V757.2 M818.5,752.7v89.1l81.5,48.4v-89.1L818.5,752.7z"/>
	<g id="apple_1_">
		<path class="st28" d="M757.2,761.7c0,0-16.3,4.4-12,27.2c4.4,22.9,10.9,32.7,22.9,35.9c8.7,2.2,2.2-2.2,18.5,2.2
			c16.3,4.4,29.3-34.8,29.3-43.6s-4.4-23.9-18.5-22.9c-6.9,0.7-13.8,0.7-20.7,0C776.8,760.6,760.4,759.6,757.2,761.7z"/>
		<path class="st1" d="M769.7,769.9c0,0,12,6.5,18.5,5.5c6.5-1.1,13.1-6.5,15.3-2.2c2.2,4.4,4.3,6.5,0,17.4
			c-4.3,10.9-17.4,31.6-34.8,30.6c-17.4-1-26.2-39.3-18.5-51.2C757.7,757.9,769.7,769.9,769.7,769.9z"/>
		<path class="st2" d="M766.4,767.7c0,0,20.7-5.5,20.7,0c0,2.9-2.3,5.3-5.3,5.4c-0.1,0-0.1,0-0.2,0
			C777.2,770,771.9,768.1,766.4,767.7z"/>
		<path class="st3" d="M808.3,775.9c0,0-6.5-17.4-40.3-8.7c0,0,21.8,6.5,20.7,10.9c-1.1,4.4-14.2,0-26.1-1.1
			c-12-1.1-4.4,37,1.1,42.5c-8.7-7.6-21.8-29.4-13.1-50.1c8.7-12,29.4-5.5,38.2-6.5S807.2,765,808.3,775.9z"/>
		<g>
			<path class="st4" d="M751.2,741.6c0,0,5.5,20.7,12,22.9c6.5,2.2,13.1,2.2,15.3,4.4l2.2-2.2c0,0-4.4-4.4-4.4-5.5
				s-2.2-13.1-10.9-15.3C760.6,744.8,755.8,743.3,751.2,741.6z"/>
			<path class="st5" d="M751.2,741.6c1,3.4,2.3,6.7,3.6,10c1.3,3.3,2.9,6.4,4.9,9.3c0.9,1.4,2.2,2.5,3.7,3.2c1.7,0.5,3.4,1,5.1,1.3
				l5.1,1c1.8,0.3,3.6,1,5.1,2.1H778l2.2-2.2v0.8c-1.2-1.2-2.4-2.6-3.5-3.9c-0.3-0.4-0.6-0.8-0.8-1.2c-0.1-0.1-0.1-0.3-0.2-0.4
				c0-0.2,0-0.4,0-0.4c0-0.2,0-0.4,0-0.6c-0.1-0.9-0.3-1.7-0.6-2.5c-0.9-3.3-2.6-6.3-5-8.8c-1.2-1.2-2.6-2-4.2-2.5
				c-1.6-0.5-3.4-0.9-5.1-1.5C757.7,744,754.4,742.9,751.2,741.6z M751.2,741.6c3.3,1.1,6.6,2.1,10,3c1.7,0.5,3.4,0.8,5.1,1.3
				c1.7,0.5,3.3,1.5,4.6,2.7c2.5,2.6,4.3,5.7,5.2,9.2c0.3,0.8,0.5,1.7,0.6,2.5c0,0.2,0,0.5,0,0.7c0,0.1,0,0.1,0,0.2
				c0,0.1,0,0.1,0,0.2c0.2,0.4,0.4,0.7,0.7,1c1.1,1.3,2.2,2.6,3.4,3.8l0.4,0.4l-0.4,0.4l-2.2,2.2l-0.4,0.4l-0.4-0.4
				c-1.4-1-2.9-1.6-4.6-1.8l-5.1-1.1c-1.7-0.4-3.4-0.8-5.1-1.4c-1.7-0.8-3.1-2-4.1-3.6c-2-3-3.5-6.2-4.7-9.6
				C753.1,748.4,752.1,745.1,751.2,741.6z"/>
		</g>
		<path class="st6" d="M755,744.3c0,0,13.1,3.3,16.3,7.6c1.9,3.4,3.4,7.1,4.4,11c-2.3-3.8-4.9-7.4-7.6-10.9
			C765.9,749.8,757.2,744.3,755,744.3z"/>
		<path class="st7" d="M755,747.6l18.5,17.4c0,0-12-2.2-13.1-5.5C759.3,756.4,755,747.6,755,747.6z"/>
		<path class="st5" d="M757.7,748.1c3.9,2.9,7.6,6.2,11.2,9.4c3.6,3.2,7.2,6.6,10.5,10.2c-3.9-2.9-7.6-6.2-11.2-9.4
			C764.7,755.1,761,751.7,757.7,748.1z"/>
		<path class="st5" d="M765.3,751.4c0.3,0.5,0.5,1.1,0.5,1.7c0,0.6-0.2,1.2-0.5,1.7c-0.4-0.5-0.5-1.1-0.6-1.7
			C764.8,752.5,765,751.9,765.3,751.4z"/>
		<path class="st5" d="M768.3,757.6c-0.5,0.6-1.1,1-1.8,1.2c-0.7,0.2-1.5,0.3-2.2,0.2c0.5-0.5,1.1-1,1.8-1.2
			C766.8,757.6,767.5,757.5,768.3,757.6z"/>
		<path class="st5" d="M772.5,761.4c-1.3,1.3-3.1,2-5,2c0.6-0.7,1.4-1.2,2.3-1.5C770.7,761.5,771.6,761.4,772.5,761.4z"/>
		<path class="st5" d="M761,751.4c-0.3,0.3-0.7,0.5-1.1,0.6c-0.4,0-0.8-0.2-1.1-0.6c0.3-0.3,0.7-0.5,1.1-0.5
			C760.3,750.9,760.7,751.1,761,751.4z"/>
		<path class="st5" d="M770.1,759.2c-0.4-0.5-0.6-1-0.7-1.7c0-0.6,0.1-1.2,0.4-1.8c0.4,0.5,0.6,1.1,0.7,1.7
			C770.5,758,770.4,758.6,770.1,759.2z"/>
		<path class="st29" d="M789,740c0,0-13.8,24.6-8.7,29.3c1.3-4.7,3.8-24.6,15.1-25.8C795.3,743.5,789,742.3,789,740z"/>
		<path class="st30" d="M767.6,766.6c4.9,0.6,9.7,2.1,14.2,4.4c5.4,3.3,13.1,1.1,13.1,1.1s-6.5,1.1-9.8-1.1
			C781.7,768.8,771.9,764.5,767.6,766.6z"/>
		<path class="st10" d="M767,822.7c5.6-2,11.6-2.4,17.4-1.2c8.7,2.2,29.4-20.7,29.4-37c-0.7,15.2-8.3,29.3-20.7,38.2
			c-2.2,1.1-5.5,3.3-9.4,2.3C778.6,823.7,768.1,821.5,767,822.7z"/>
		<path class="st2" d="M788.8,742.1c0.6,0.6,1.3,1,2.2,1.1h-1.1C789.2,743.2,788.8,742.8,788.8,742.1
			C788.8,742.2,788.8,742.1,788.8,742.1z"/>
	</g>
	<g id="apple-2">
		<path class="st28" d="M790.3,784.6c0,0-16.3,4.4-12,27.2c4.4,22.9,10.9,32.7,22.9,35.9c8.7,2.2,2.2-2.2,18.5,2.2
			c16.3,4.4,29.3-34.8,29.3-43.6c0-8.7-4.4-23.9-18.5-22.9c-6.9,0.7-13.8,0.7-20.7,0C809.9,783.5,793.5,782.5,790.3,784.6z"/>
		<path class="st1" d="M802.8,792.8c0,0,12,6.5,18.5,5.5c6.5-1.1,13.1-6.5,15.3-2.2c2.2,4.4,4.3,6.5,0,17.4
			c-4.3,10.9-17.4,31.6-34.8,30.6c-17.4-1-26.2-39.3-18.5-51.2C790.8,780.9,802.8,792.8,802.8,792.8z"/>
		<path class="st2" d="M799.5,790.7c0,0,20.7-5.5,20.7,0c0,2.9-2.3,5.3-5.3,5.4c-0.1,0-0.1,0-0.2,0
			C810.3,792.9,805,791.1,799.5,790.7z"/>
		<path class="st3" d="M841.4,798.8c0,0-6.5-17.4-40.3-8.7c0,0,21.8,6.5,20.7,10.9c-1.1,4.4-14.2,0-26.1-1.1
			c-12-1.1-4.4,37,1.1,42.5c-8.7-7.6-21.8-29.4-13.1-50.1c8.7-12,29.4-5.5,38.2-6.5C830.8,784.6,840.4,787.9,841.4,798.8z"/>
		<g>
			<path class="st4" d="M784.3,764.5c0,0,5.5,20.7,12,22.9c6.5,2.2,13.1,2.2,15.3,4.4l2.2-2.2c0,0-4.4-4.4-4.4-5.5
				s-2.2-13.1-10.9-15.3C793.7,767.7,788.9,766.3,784.3,764.5z"/>
			<path class="st5" d="M784.3,764.5c1,3.4,2.3,6.7,3.6,10c1.3,3.3,2.9,6.4,4.9,9.3c0.9,1.4,2.2,2.5,3.7,3.2c1.7,0.5,3.4,1,5.1,1.3
				l5.1,1c1.8,0.3,3.6,1,5.1,2.1h-0.8l2.2-2.2v0.8c-1.2-1.2-2.4-2.6-3.5-3.9c-0.3-0.4-0.6-0.8-0.8-1.2c-0.1-0.1-0.1-0.3-0.2-0.4
				c0-0.2,0-0.4,0-0.4c0-0.2,0-0.4,0-0.6c-0.1-0.9-0.3-1.7-0.6-2.5c-0.9-3.3-2.6-6.3-5-8.8c-1.2-1.2-2.6-2.1-4.2-2.7
				c-1.6-0.5-3.4-0.9-5.1-1.5C790.8,767,787.5,765.9,784.3,764.5z M784.3,764.5c3.3,1.1,6.6,2.1,10,3c1.7,0.5,3.4,0.8,5.1,1.3
				c1.7,0.5,3.3,1.5,4.6,2.7c2.5,2.6,4.3,5.7,5.2,9.2c0.3,0.8,0.5,1.7,0.6,2.5c0,0.2,0,0.5,0,0.7c0,0.1,0,0.1,0,0.2
				c0,0.1,0,0.1,0,0.2c0.2,0.4,0.4,0.7,0.7,1c1.1,1.3,2.2,2.6,3.4,3.8l0.4,0.4l-0.4,0.4l-2.2,2.2l-0.4,0.4l-0.4-0.4
				c-1.4-1-2.9-1.6-4.6-1.8l-5.1-1.1c-1.7-0.4-3.4-0.8-5.1-1.4c-1.7-0.8-3.1-2-4.1-3.6c-2-3-3.5-6.2-4.7-9.6
				C786.2,771.3,785.2,768,784.3,764.5z"/>
		</g>
		<path class="st6" d="M788.1,767.3c0,0,13.1,3.3,16.3,7.6c1.9,3.4,3.4,7.1,4.4,11c-2.3-3.8-4.9-7.4-7.6-10.9
			C799,772.7,790.3,767.3,788.1,767.3z"/>
		<path class="st7" d="M788.1,770.6l18.5,17.4c0,0-12-2.2-13.1-5.5C792.4,779.3,788.1,770.6,788.1,770.6z"/>
		<path class="st5" d="M790.8,771c3.9,2.9,7.6,6.2,11.2,9.4c3.6,3.2,7.2,6.6,10.5,10.2c-3.9-2.9-7.6-6.2-11.2-9.4
			C797.8,778,794.2,774.7,790.8,771z"/>
		<path class="st5" d="M798.5,774.3c0.3,0.5,0.5,1.1,0.5,1.7c0,0.6-0.2,1.2-0.5,1.7c-0.4-0.5-0.5-1.1-0.6-1.7
			C797.9,775.4,798.1,774.8,798.5,774.3z"/>
		<path class="st5" d="M801.4,780.5c-0.5,0.6-1.1,1-1.8,1.2c-0.7,0.2-1.5,0.3-2.2,0.2c0.5-0.5,1.1-1,1.8-1.2
			C799.9,780.5,800.7,780.4,801.4,780.5z"/>
		<path class="st5" d="M805.6,784.3c-1.4,1.3-3.2,2-5.1,2c0.6-0.7,1.4-1.2,2.3-1.5C803.7,784.4,804.6,784.3,805.6,784.3z"/>
		<path class="st5" d="M794.1,774.3c-0.3,0.3-0.7,0.5-1.1,0.6c-0.4,0-0.8-0.2-1.1-0.6c0.3-0.3,0.7-0.5,1.1-0.5
			C793.5,773.8,793.8,774,794.1,774.3z"/>
		<path class="st5" d="M803.2,782.1c-0.4-0.5-0.6-1-0.7-1.7c0-0.6,0.1-1.2,0.4-1.8c0.4,0.5,0.6,1.1,0.7,1.7
			C803.6,781,803.5,781.6,803.2,782.1z"/>
		<path class="st29" d="M822.1,762.9c0,0-13.8,24.6-8.7,29.3c1.3-4.7,3.8-24.6,15.1-25.8C828.4,766.4,822.1,765.3,822.1,762.9z"/>
		<path class="st30" d="M800.7,789.6c4.9,0.6,9.7,2.1,14.2,4.4c5.4,3.3,13.1,1.1,13.1,1.1s-6.5,1.1-9.8-1.1
			C814.8,791.8,805,787.4,800.7,789.6z"/>
		<path class="st10" d="M800.1,845.6c5.6-2,11.6-2.4,17.4-1.2c8.7,2.2,29.4-20.7,29.4-37c-0.7,15.2-8.3,29.3-20.7,38.2
			c-2.2,1.1-5.5,3.3-9.4,2.3C811.7,846.6,801.2,844.4,800.1,845.6z"/>
		<path class="st2" d="M821.9,765.1c0.6,0.6,1.3,1,2.2,1.1h-1.1C822.3,766.2,821.9,765.7,821.9,765.1
			C821.9,765.1,821.9,765.1,821.9,765.1z"/>
	</g>
	<g id="apple-3">
		<path class="st28" d="M831,771.9c0,0-16.3,4.4-12,27.2c4.4,22.9,10.9,32.7,22.9,35.9c8.7,2.2,2.2-2.2,18.5,2.2
			c16.3,4.4,29.3-34.8,29.3-43.6s-4.4-23.9-18.5-22.9c-6.9,0.7-13.8,0.7-20.7,0C850.6,770.8,834.3,769.7,831,771.9z"/>
		<path class="st1" d="M843.6,780.1c0,0,12,6.5,18.5,5.5c6.5-1.1,13.1-6.5,15.3-2.2c2.2,4.4,4.3,6.5,0,17.4
			c-4.3,10.9-17.4,31.6-34.8,30.6c-17.4-1-26.2-39.3-18.5-51.2C831.6,768.1,843.6,780.1,843.6,780.1z"/>
		<path class="st2" d="M840.3,777.9c0,0,20.7-5.5,20.7,0c0,2.9-2.3,5.3-5.3,5.4c-0.1,0-0.1,0-0.2,0
			C851,780.2,845.7,778.3,840.3,777.9z"/>
		<path class="st3" d="M882.2,786.1c0,0-6.5-17.4-40.3-8.7c0,0,21.8,6.5,20.7,10.9c-1.1,4.4-14.2,0-26.1-1.1
			c-12-1.1-4.4,37,1.1,42.5c-8.7-7.6-21.8-29.4-13.1-50.1c8.7-12,29.4-5.5,38.2-6.5C871.5,771.9,881.1,775.2,882.2,786.1z"/>
		<g>
			<path class="st4" d="M825,751.8c0,0,5.5,20.7,12,22.9c6.5,2.2,13.1,2.2,15.3,4.4l2.2-2.2c0,0-4.4-4.4-4.4-5.5
				s-2.2-13.1-10.9-15.3C834.4,755,829.7,753.5,825,751.8z"/>
			<path class="st5" d="M825,751.8c1,3.4,2.3,6.7,3.6,10c1.3,3.3,2.9,6.4,4.9,9.3c0.9,1.4,2.2,2.5,3.7,3.2c1.7,0.5,3.4,1,5.1,1.3
				l5.1,1c1.8,0.3,3.6,1,5.1,2.1h-0.8l2.2-2.2v0.8c-1.2-1.2-2.4-2.6-3.5-3.9c-0.3-0.4-0.6-0.8-0.8-1.2c-0.1-0.1-0.1-0.3-0.2-0.4
				c0-0.2,0-0.4,0-0.4c0-0.2,0-0.4,0-0.6c-0.1-0.9-0.3-1.7-0.6-2.5c-0.9-3.3-2.6-6.3-5-8.8c-1.2-1.2-2.6-2.1-4.2-2.7
				c-1.6-0.5-3.4-0.9-5.1-1.5C831.6,754.2,828.3,753.1,825,751.8z M825,751.8c3.3,1.1,6.6,2.1,10,3c1.7,0.5,3.4,0.8,5.1,1.3
				c1.7,0.5,3.3,1.5,4.6,2.7c2.5,2.6,4.3,5.7,5.2,9.2c0.3,0.8,0.5,1.7,0.6,2.5c0,0.2,0,0.5,0,0.7c0,0.1,0,0.1,0,0.2
				c0,0.1,0,0.1,0,0.2c0.2,0.4,0.4,0.7,0.7,1c1.1,1.3,2.2,2.6,3.4,3.8l0.4,0.4l-0.4,0.4l-2.2,2.2l-0.4,0.4l-0.4-0.4
				c-1.4-1-2.9-1.6-4.6-1.8l-5.1-1.1c-1.7-0.4-3.4-0.8-5.1-1.4c-1.7-0.8-3.1-2-4.1-3.6c-2-3-3.5-6.2-4.7-9.6
				C826.9,758.6,825.9,755.3,825,751.8z"/>
		</g>
		<path class="st6" d="M828.9,754.5c0,0,13.1,3.3,16.3,7.6c1.9,3.4,3.4,7.1,4.4,11c-2.3-3.8-4.9-7.4-7.6-10.9
			C839.7,759.9,831,754.5,828.9,754.5z"/>
		<path class="st7" d="M828.9,757.8l18.5,17.4c0,0-12-2.2-13.1-5.5C833.2,766.5,828.9,757.8,828.9,757.8z"/>
		<path class="st5" d="M831.6,758.3c3.9,2.9,7.6,6.2,11.2,9.4c3.6,3.2,7.2,6.6,10.5,10.2c-3.9-2.9-7.6-6.2-11.2-9.4
			C838.5,765.3,834.9,761.9,831.6,758.3z"/>
		<path class="st5" d="M839.2,761.6c0.3,0.5,0.5,1.1,0.5,1.7c0,0.6-0.2,1.2-0.5,1.7c-0.4-0.5-0.5-1.1-0.6-1.7
			C838.7,762.7,838.9,762.1,839.2,761.6z"/>
		<path class="st5" d="M842.1,767.8c-0.5,0.6-1.1,1-1.8,1.2c-0.7,0.2-1.5,0.3-2.2,0.2c0.5-0.5,1.1-1,1.8-1.2
			C840.7,767.8,841.4,767.7,842.1,767.8z"/>
		<path class="st5" d="M846.3,771.6c-1.4,1.3-3.2,2-5.1,2c0.6-0.7,1.4-1.2,2.3-1.5C844.4,771.7,845.4,771.6,846.3,771.6z"/>
		<path class="st5" d="M834.9,761.6c-0.3,0.3-0.7,0.5-1.1,0.6c-0.4,0-0.8-0.2-1.1-0.6c0.3-0.3,0.7-0.5,1.1-0.5
			C834.2,761.1,834.6,761.3,834.9,761.6z"/>
		<path class="st5" d="M844,769.4c-0.4-0.5-0.6-1-0.7-1.7c0-0.6,0.1-1.2,0.4-1.8c0.4,0.5,0.6,1.1,0.7,1.7
			C844.4,768.2,844.3,768.8,844,769.4z"/>
		<path class="st29" d="M862.8,750.2c0,0-13.8,24.6-8.7,29.3c1.3-4.7,3.8-24.6,15.1-25.8C869.1,753.7,862.8,752.5,862.8,750.2z"/>
		<path class="st30" d="M841.4,776.8c4.9,0.6,9.7,2.1,14.2,4.4c5.4,3.3,13.1,1.1,13.1,1.1s-6.5,1.1-9.8-1.1
			C855.6,779,845.7,774.6,841.4,776.8z"/>
		<path class="st10" d="M840.8,832.9c5.6-2,11.6-2.4,17.4-1.2c8.7,2.2,29.4-20.7,29.4-37c-0.7,15.2-8.3,29.3-20.7,38.2
			c-2.2,1.1-5.5,3.3-9.4,2.3C852.4,833.9,841.9,831.7,840.8,832.9z"/>
		<path class="st2" d="M862.6,752.3c0.6,0.6,1.3,1,2.2,1.1h-1.1C863.1,753.4,862.6,752.9,862.6,752.3
			C862.6,752.3,862.6,752.3,862.6,752.3z"/>
	</g>
	<polygon class="st24" points="819.8,850.2 898.7,803.4 898.7,889.6 819.8,936.4 	"/>
	<path d="M897.5,805.6v83.2L821,934.2V851L897.5,805.6 M900,801.1l-81.5,48.4v89.1l81.5-48.4V801.1z"/>
	<polygon class="st24" points="738.3,889.6 738.3,803.4 817.2,850.2 817.2,936.4 	"/>
	<path d="M739.5,805.6L816,851v83.2l-76.4-45.4V805.6 M737,801.1v89.1l81.5,48.4v-89.1L737,801.1z"/>
</g>
<text transform="matrix(1 0 0 1 89.9834 111.498)" class="st25 st31">Specific Statement 1:  Apple is a fruit. </text>
<text transform="matrix(1 0 0 1 89.9834 411.498)" class="st25 st31">Specific Statement 2:  The box is full of fruit. </text>
<text transform="matrix(1 0 0 1 81.9834 1010.498)" class="st25 st31">General Conclusion: The box is full of apples. </text>
<text transform="matrix(1 -7.940244e-05 7.940244e-05 1 636.9855 720.513)" class="st32 st25 st31">Leads to a </text>
</svg>
