<?xml version="1.0" encoding="utf-8"?>
<!-- Generator: Adobe Illustrator 23.0.4, SVG Export Plug-In . SVG Version: 6.00 Build 0)  -->
<svg version="1.1" id="Layer_1" xmlns="http://www.w3.org/2000/svg" xmlns:xlink="http://www.w3.org/1999/xlink" x="0px" y="0px"
	 viewBox="0 0 1700 1080" style="enable-background:new 0 0 1700 1080;" xml:space="preserve">
<style type="text/css">
	.st0{display:none;enable-background:new    ;}
	.st1{font-family:'GillSans';}
	.st2{font-size:80px;}
	.st3{fill:#4453A3;stroke:#000000;stroke-width:0.8;stroke-linecap:round;stroke-miterlimit:10;}
	.st4{fill:#F9EB18;stroke:#000000;stroke-width:0.8;stroke-linecap:round;stroke-miterlimit:10;}
	.st5{fill:#848A8A;stroke:#000000;stroke-width:0.8;stroke-linecap:round;stroke-miterlimit:10;}
	.st6{fill:#DA1F29;stroke:#000000;stroke-width:0.8;stroke-linecap:round;stroke-miterlimit:10;}
	.st7{fill:#D1C9C2;stroke:#000000;stroke-width:0.8;stroke-linecap:round;stroke-miterlimit:10;}
	.st8{fill:none;stroke:#000000;stroke-width:0.8;stroke-linecap:round;stroke-miterlimit:10;}
	.st9{fill:#2A1B1B;stroke:#000000;stroke-width:0.8;stroke-linecap:round;stroke-miterlimit:10;}
	.st10{fill:#DFCD85;stroke:#000000;stroke-width:0.8;stroke-linecap:round;stroke-miterlimit:10;}
	.st11{fill:#FFFFFF;stroke:#000000;stroke-width:0.8;stroke-linecap:round;stroke-miterlimit:10;}
	.st12{fill:#8C523D;stroke:#000000;stroke-width:0.8;stroke-linecap:round;stroke-miterlimit:10;}
	.st13{fill:#25291D;stroke:#000000;stroke-width:0.8;stroke-linecap:round;stroke-miterlimit:10;}
	.st14{fill:#DA1F29;}
	.st15{fill:#0C0C0C;}
	.st16{fill:#ED332B;}
	.st17{fill:#F58C3A;stroke:#231F20;stroke-miterlimit:10;}
	.st18{fill:#F9EB18;stroke:#231F20;stroke-miterlimit:10;}
	.st19{fill:#EBEBE2;stroke:#231F20;stroke-miterlimit:10;}
	.st20{fill:#FFFFFF;}
	.st21{fill:#FDCB37;stroke:#000000;stroke-width:0.8;stroke-linecap:round;stroke-miterlimit:10;}
	.st22{fill:#EBEBE3;stroke:#000000;stroke-width:0.8;stroke-linecap:round;stroke-miterlimit:10;}
	.st23{fill:#32221A;stroke:#000000;stroke-width:0.8;stroke-linecap:round;stroke-miterlimit:10;}
	.st24{fill:#5D391E;stroke:#000000;stroke-width:0.8;stroke-linecap:round;stroke-miterlimit:10;}
	.st25{fill:#FEFEFE;stroke:#000000;stroke-width:0.8;stroke-linecap:round;stroke-miterlimit:10;}
	.st26{fill:#FBCE32;stroke:#000000;stroke-width:0.8;stroke-linecap:round;stroke-miterlimit:10;}
	.st27{fill:#FFFEFE;stroke:#000000;stroke-width:0.8;stroke-linecap:round;stroke-miterlimit:10;}
	.st28{font-size:85px;}
	.st29{enable-background:new    ;}
</style>
<text transform="matrix(1 0 0 1 910.9834 648.498)" class="st0 st1 st2">LOGICALLY TRUE</text>
<g>
	<path class="st3" d="M1557.1,194.2c6.5-2.9,13.2-5.5,20.1-7.6c9.4-2.8,21.6-5.1,24-7.7s1.3,7.7-8.6,13.8c-7.8,4.2-16.2,7.3-24.9,9
		c0,0,31.4-3.2,33.9-3.4c2.5-0.2-8.8,23.7-38.8,17c0,0,36.3,3.4,26.8,15.5c0,0-5,6.1-22.4,2.3c0,0,20.7,21-10.2,12.8
		c0,0,13.4,25.9-13.3,7.7c0,0-1.7,19.9-13,4.4c0,0-3.7,12.7-12.4-0.6c0,0-9.8,20.2-15.1-1.3c0,0-6.8,15.5-16.2-1.1
		c0,0-5.3,16.2-12.9-1.1c-7.7-17.3,4.8-23.2,4.8-23.2L1557.1,194.2z"/>
	<path class="st4" d="M1477.7,232.8c0,0,9.6,29.7,25.8,5.7c0,0,9.6,16,22.1-5.7c0,0,18.6,5.1,12.1-11.1c0,0,36.4-1.6,9.4-13.6
		c0,0,15.5,3.7,16-5.7c0.5-9.4-9.8-6.8-9.8-6.8l-27.9,8.2l-45.2,17.7L1477.7,232.8z"/>
	<path class="st5" d="M1446.5,280.7c0,0-6.8,6-3.2,12.1s1.9,10.4,12.4,12.1s14.3,2.7,21,1.7c6.6-1,2.4,6.8-2.5,7.4
		s-6.2-2.6-10.8-2.2c-2.9,0.3-5.7,0.8-8.4,1.6c2.5,2.2,5.2,4.2,8.1,6c4,2.3-1.8,7.8-7.3,4.8c-3.2-1.7-5.6-4.8-6.4-8.3
		c-1.9-1.8-4.5-2.7-7.1-2.2l-4.3,0.8c0,0-7.6,1.6-5.7-1.6c1.8-3.1,4.2-4.5,10.2-6.4c3.4-1.2-10.5-14.2-10.2-24.4
		C1432.5,272,1446.5,280.7,1446.5,280.7z"/>
	<path class="st5" d="M1405.9,285.4c0.6,6.2,1.7,12.4,3.1,18.5c1.8,6.1,2.1,7.8-7.5,8.6s-7,6,0,5.7l7.1-0.3c0,0,4.4-0.3,9.4,13.6
		c1.9,7.6,11.5,5.4,12.5,2.9c1.1-2.5-7.8-6-9.5-12.1c-1.7-6.1-1.2-5.1-1.2-5.1s11.2,11.5,20.9,8c5.5-1.3,13.2-3.6,1.4-6.8
		s-8.3,0.9-22-7.5c-13.7-8.4,0-28.7,0-28.7L1405.9,285.4z"/>
	<path class="st6" d="M1463.2,194.9c3.3-0.6,6.7,0.7,8.7,3.4c4.7,4.5,15.3,12.1,20.7,9.3s25.7-15.1,29.8-15.1s13.6,6.5,19.2,4.8
		c5.6-1.7,20.3-7.2,28.6-6.8c0,0-11,4.3-14.1,6.1c-3.1,1.8,1.3,8.3-20.3,7.8c0,0,2.4,8.2-12,5.7c0,0-9.8,20.1-13.9,7.9
		c0,0-8.2,21.4-16,4.7c0,0-3.4,13.2-13.6,8.1C1470.2,225.8,1463.2,194.9,1463.2,194.9z"/>
	<path class="st6" d="M1480.2,208.3c-6.2-8.9-7.7-5.4-11.5-10.8c-3.8-5.5,1.7-13.8,1.7-13.8l4-4.3c0,0,17.9-35.1-3.4-56.4
		c-21.3-21.4-45.9-5.9-45.9-5.9c-0.3-3.3,4.1-14.1,4.1-14.1c-6,1.9-14.2,17-14.2,17l-0.9-7.3c0,0-1.6,5.4-3,9.3
		c-1.4,3.9-23.7,22.7-12,47.1c9.9,20.5,10.4,23.4,10.4,23.7c6.8,8.8,1,20-8.4,24.7c-1.6,2.2-10.6,14.5-21.9,16.6
		c-12.5,2.3-5.1,25.4-5.1,25.4s-20,7.3-62.3,19.8s-20.7,16.1-20.7,16.1c-35.8,19.9-3.4,17.6-3.4,17.6c-15.1,10.4,15.8,6.8,15.8,6.8
		s-9.6,7.3-4.8,10.5s34.4-7.9,50.6-16.7c16.1-8.7,30.8-25.9,41.3-25.3c10.6,0.6,10.2,6.5,14.6,6.5c10-0.2,19.9-2.8,28.7-7.6
		c2.6,1.6,5.6,2.5,8.7,2.5l2.9-1.5c2.9-1.4,2.6-5.5,5.7-6.8c3.1-1.3,2.9,1.2,13.3-8.4C1494.8,243.9,1486.4,217.2,1480.2,208.3z"/>
	<path class="st7" d="M1463.2,143.3c0,0-8.2-18.4-18.2-19.8c-10-1.4-21.7,6.8-26.2,18.6s1.7,22.9,9.8,22.9c0,0-5.1,39.4,37.3,12.3
		C1508.3,150.2,1463.2,143.3,1463.2,143.3z"/>
	<path class="st4" d="M1545.2,222.6c1.1,1,21.9,10.5,21.9,10.5"/>
	<line class="st8" x1="1539.3" y1="234.9" x2="1557.1" y2="246"/>
	<path class="st8" d="M1529.4,237.8c0,0,10.5,13.6,14.3,15.9"/>
	<path class="st8" d="M1525.7,241.9c0,0,3.1,13.6,5,16.2"/>
	<path class="st8" d="M1517.5,247.2c0,0,0,8.5,1.1,10.2"/>
	<path class="st8" d="M1503.9,246c-0.5,3.4-0.8,6.8-0.7,10.2"/>
	<path class="st8" d="M1486.3,246c-0.4,3.1-0.2,6.2,0.7,9.2"/>
	<path class="st3" d="M1325.6,175.3c-6-3.9-12.2-7.5-18.5-10.7c-8.8-4.2-20.5-8.5-22.5-11.5s-2.5,7.3,6.2,15
		c7,5.4,14.8,9.7,23.1,12.9c0,0-30.3-8.2-32.8-8.8c-2.5-0.6,4.8,24.9,35.6,23.1c0,0-36.4-2.5-28.9,11c0,0,3.9,6.8,21.7,5.9
		c0,0-23.7,17.4,7.8,14.3c0,0-17.4,23.5,11.9,9.8c0,0-1.6,19.9,12.1,6.4c0,0,1.6,13.1,12.3,1.4c0,0,6.4,21.5,15.1,1.2
		c0,0,4.1,16.4,16.2,1.6c0,0,2.5,17,12.9,1c10.4-16-1-23.7-1-23.7L1325.6,175.3z"/>
	<path class="st4" d="M1330.3,180.2c0,0-9.8-7.8-13.1-1.7c-3.3,6.1,1.4,10.2,11,11.9c0,0-8.4-0.6-8.8,4.3c-0.4,4.9,4.1,10,16,10.7
		c0,0-5.9,6.8,0,11.9c5.9,5.2,10.5,2.1,10.5,2.1s4.6,19,13.3,13.9c6.8-4,7.2-5.3,7.2-5.3c0.2-1.3,4.3,19.5,22.9,8.4
		c0,0,3.8-1.2,3.7-7.2c0,0,7.5,13.6,8.3-6.6l0.8-20.3l-2.7,5.7L1330.3,180.2z"/>
	<path class="st6" d="M1409.6,192.7L1409.6,192.7c-0.5,0.9-1.3,1.6-2.2,2c-20.3,10.8-21,6.4-27.1,2.6c-6.1-3.8-21.2-18.9-25.5-17.7
		c-16.4,4.8-20.9-0.4-31-6.8c-10.2-6.4-12.1-4-12.1-4c4.3,2.7,8.4,5.8,12.2,9.1c9.6,12.6,18.2,10.2,18.2,10.2
		c-1.2,9.4,11,8.2,11,8.2c0.3,19.2,11.9,10.4,11.9,10.4c8.5,25,14.6,7.7,14.6,7.7c5.2,17.2,16.2-1.9,16.2-1.9
		c0.4,4.3,5.9,4.5,5.9,4.5S1420.3,207.6,1409.6,192.7z"/>
	<path class="st9" d="M1466.6,161.2c0,0-7,9.8-3.7,17.2c3.3,7.4,16.2,17.4,30.7,0C1493.5,178.4,1491.2,157.1,1466.6,161.2z"/>
	<path class="st10" d="M1466.3,161.3c0,0-9.6-24.8-2.1-31.8s20.9-13,39.1,7.3c18.2,20.3-0.8,45.3-8.3,50.6
		C1495,187.4,1495.5,155.9,1466.3,161.3z"/>
	<path class="st11" d="M1434.5,159c0,0-14.1-16.5,1.5-24.2c13.3-4.6,17.4,16.6,12.9,20.7C1443.9,155.6,1439,156.8,1434.5,159z"/>
	<path class="st8" d="M1430.3,161.3c7.1-4.3,15.4-6.3,23.7-5.6"/>
	<ellipse class="st12" cx="1438.9" cy="149.8" rx="7.8" ry="6.8"/>
	<ellipse class="st13" cx="1439.3" cy="150.8" rx="5.1" ry="5.5"/>
	<ellipse transform="matrix(0.753 -0.658 0.658 0.753 258.9109 981.3067)" class="st11" cx="1436.5" cy="145.8" rx="3.4" ry="4.4"/>
	<path class="st3" d="M1380.9,259.2c0,0-2.7-2.5-12.4,1.7l-9.8,4.1l0,0c-1.5,0-15,1.9-15.6,4s10.2,5.4,14.7,5.2
		c4.5-0.2,22.4-9,24.5-10.2S1380.9,259.2,1380.9,259.2z"/>
	<path class="st3" d="M1388.6,262c0,0-3.9-1.9-12.5,0.8c-8.5,2.7-20.5,10.6-24.5,16c-3.9,5.4-10.5,9.5-5.5,10.7s25.5-8.1,29.6-10.6
		S1390.9,267.1,1388.6,262z"/>
	<path class="st3" d="M1392,264.6c0,0-4.8-3.6-14.3,1.7c-9.6,5.3-30.5,24.3-31.6,27.8c-1.1,3.5-1.2,2.3-1.2,3.4s0.8,12.6,14.8,4.3
		C1373.6,293.6,1392,264.6,1392,264.6z"/>
	<path class="st3" d="M1359.7,303.9c0,0,12.6-0.4,18.3-4.4c5.6-3.9,12.2-17.9,14.1-23.1c1-3.9,1-8,0-11.8c0,0-22.2,19.3-25.5,24.1
		l-3.4,4.8l0,0C1363.2,293.5,1355.2,301.6,1359.7,303.9z"/>
	<path class="st4" d="M1332.7,205.1c-1.2,0.8-23.3,6.8-23.3,6.8"/>
	<line class="st8" x1="1336.5" y1="218.3" x2="1317.2" y2="226.3"/>
	<path class="st8" d="M1345.8,222.7c0,0-12.6,11.6-16.7,13.6"/>
	<path class="st8" d="M1348.8,227.4c0,0-5.3,13.1-7.6,15.2"/>
	<path class="st8" d="M1356.2,234c0,0-1.2,8.4-2.7,9.9"/>
	<path class="st8" d="M1369.5,234.9c0,3.4-0.3,6.8-0.9,10.2"/>
	<path class="st8" d="M1387,237.8c-0.1,3-0.9,6-2.2,8.8"/>
	<path class="st8" d="M1328.1,190.4c0,0,11.5,0.6,13.1-0.4"/>
	<path class="st8" d="M1335.4,205.4c5.9-0.9,11.8-2.1,17.5-3.7"/>
	<path class="st8" d="M1345.9,219.5c0,0,17.2-6.8,19.9-10.2"/>
	<path class="st8" d="M1366.4,228.1c2.8-2.1,5-4.8,6.5-8"/>
	<path class="st8" d="M1393,229.3c-0.5-3.4-1.4-6.7-2.7-9.8"/>
	<path class="st8" d="M1291.2,295.3c0,0,46.6-8.5,60.5-16.6"/>
	<path class="st8" d="M1287.8,312.9c0,0,52.4-17,61-22.3"/>
	<path class="st8" d="M1303.6,319.9c15.3-3.6,30-9,44.1-16"/>
	<path class="st4" d="M1503.5,238.5c0.6-3.5,0.5-7.1-0.3-10.6"/>
	<path class="st4" d="M1525.6,232.8c0,0-0.8-14.2-4.2-18.3"/>
	<path class="st4" d="M1537.8,221.7c-1.7-4.1-4-8-7-11.3"/>
	<line class="st8" x1="1547.1" y1="208.2" x2="1535.8" y2="204.3"/>
	<path class="st8" d="M1454.9,313.4c0,0-2.5-1.7-2.3-4"/>
	<line class="st8" x1="1419.9" y1="317.1" x2="1418.1" y2="312.9"/>
	<path class="st8" d="M1449.3,315.9c0,0-3.4-3.9-2.6-5.9"/>
	<path class="st8" d="M1433.9,287.4c3.9-2.1,7.2-5.1,9.8-8.7"/>
	<path class="st8" d="M1419.9,181.4c0,0,2.2,7,16.7,9.1"/>
	<path class="st8" d="M1456.1,190.5c3.9,0.2,7.8,0,11.7-0.6"/>
	<ellipse class="st14" cx="1417.5" cy="197.6" rx="8.5" ry="6.8"/>
</g>
<g>
	<path class="st15" d="M1458.7,805.3c0-18.2-17.4-32.9-38.8-32.9c-21.4,0-37.7,14.8-38.8,32.9c-1.5,25.6,17.4,27.6,38.8,27.6
		S1458.7,823.5,1458.7,805.3z"/>
	<path class="st16" d="M1392.6,814.4c0,0,0.5,8.1,16.7,6s17-3.2,16.7-9.8c-0.3-6.5-9.9-10.6-24.2-6.2
		C1387.5,808.8,1392.6,814.4,1392.6,814.4z"/>
	<path class="st15" d="M1400.3,831.1c0,0-17.8-3.7-33,13.9c-15.2,17.6-21.9,41.8-26.9,67.7c-5,25.9-24.6,53.4-23.2,62.5
		c1.3,9.1,17.5,24.2,35.7-5c11-18.5,16.6-39.6,16.2-61.1l49.1-49.7l35.8,31.3l14.5,43.8l12.1,2c0,0,19.8,45.5,35.7,46.5
		c15.8,1,28.6-6.7,7.4-33.3c-21.2-26.5-19.9-10.8-39.4-75.4c-5.6-22.9-28.3-48.2-53.9-46.8C1404.7,828.8,1400.3,831.1,1400.3,831.1z
		"/>
	<path class="st17" d="M1388.1,999.3c0,0-4,7.1-9.1,8.1l-5,1c-1.7,0.3-30.3,7.1-32,13.5s-1.7,19.5,33.4,18.5s32.2-12.7,31.9-26.6
		C1406.9,999.8,1388.1,999.3,1388.1,999.3z"/>
	<path class="st17" d="M1443.1,1004c0,0-13.5,13.5-14.5,21.6c-1,8.1-5.4,12.9,14.5,15.9s40.4,6,48.5-11.8
		c8.1-17.8-30.7-13.9-40.7-27.9C1440.8,987.8,1443.1,1004,1443.1,1004z"/>
	<path class="st18" d="M1484.2,953.6c-10.1-76.2-31.2-106.8-66.2-107.1c-35.1-0.3-55.3,44.9-55.6,101.3c-0.2,56.4,30,64.7,65.1,64.8
		S1488.8,1007.5,1484.2,953.6z"/>
	<path class="st19" d="M1484.4,957.1c-10.4-71.4-31.6-100-66.7-100s-55.2,42.2-55.2,95.1c0,52.8,30.3,60.5,65.3,60.5
		C1462.9,1012.7,1489.2,1007.6,1484.4,957.1z"/>
	
		<ellipse transform="matrix(0.681 -0.7323 0.7323 0.681 -125.8089 1301.0374)" class="st20" cx="1430.3" cy="794.9" rx="5.7" ry="7.8"/>
	<ellipse transform="matrix(0.5 -0.866 0.866 0.5 6.2891 1602.0944)" class="st20" cx="1390.6" cy="795.6" rx="7.8" ry="4"/>
	<ellipse transform="matrix(0.5 -0.866 0.866 0.5 6.3003 1602.1641)" class="st15" cx="1390.7" cy="795.6" rx="5" ry="2.7"/>
	
		<ellipse transform="matrix(0.843 -0.5379 0.5379 0.843 -203.2151 894.959)" class="st15" cx="1431.6" cy="795.6" rx="3.2" ry="4.4"/>
</g>
<g>
	<path class="st21" d="M1454.2,644.5c0,0-3.1,18.5,12.3,21.6c9.1,1.9,18.6,1.9,27.7,0l9.2,12.3c0,0-12.3-6.2-15.4-6.2h-15.4
		l12.3,9.2c0,0,3.1,9.2,6.2,12.3h-12.3c0,0-9.2-18.5-15.4-21.6c-6.2-3.1-12.3,12.3-12.3,12.3l-9.2,3.1c0,0-3.1-12.3,3.1-15.4
		c2.8-1.7,6-2.7,9.2-3.1c0,0-15.4-18.5-9.2-27.7S1454.2,644.5,1454.2,644.5z"/>
	<path class="st21" d="M1426.5,675.3c9.2,3.1,24.6,18.5,24.6,18.5c3.1-6.2,0-9.2,0-9.2c-9.2-15.4-9.2-6.2-24.6-15.4
		c-15.4-9.2-6.2-27.7-6.2-27.7H1408c0,0,6.2,18.5,6.2,21.6s0,6.2-15.4,6.2c-9.2,0-12.3,15.4-12.3,15.4s15.4-12.3,24.6-9.2l9.2,3.1
		l9.2,12.3l3.1,12.3l3.1-9.2L1426.5,675.3z"/>
	<path class="st22" d="M1438.8,438.2c-3.1-3.1-27.7,6.2-27.7,6.2l12.3,3.1c-30.8,3.1-24.6,43.1-24.6,43.1v6.2
		c0,6.2,18.5,30.8,12.3,37c-18.5,18.5-30.8,67.8-52.4,70.8c-21.6,3.1-40-15.4-49.3-24.6c-9.2-9.2-21.6-6.2-27.7-6.2
		c-3.1,6.2-3.1,15.4,6.2,24.6c-12.3-6.2-27.7,0-27.7,0s0,12.3,9.2,18.5h-12.3c0,24.6,40,46.2,77,37c37-9.2,40-9.2,61.6-15.4
		c43.1,0,70.8-12.3,70.8-12.3c43.1-43.1,37-73.9,24.6-83.2s-12.3-15.4-9.2-21.6c3.1-6.2,12.3-6.2,15.4-40s-43.1-58.5-58.5-58.5
		l9.2,9.2c-9.2-6.2-27.7,0-27.7,0S1435.7,435.1,1438.8,438.2z"/>
	<path class="st23" d="M1429.6,592.2l24.6-33.9c0,0,12.3,21.6,15.4,30.8c0,0,6.2-27.7,6.2-30.8s18.5,15.4,18.5,24.6
		c3.5-7.8,5.5-16.1,6.2-24.6c0,0,6.2,6.2-3.1,27.7c-3.1,15.4-3.1,12.3-15.4,30.8c0,0-15.4,18.5-24.6,21.6l-3.1,6.2
		c-4.3,1.7-9.3,0.5-12.3-3.1c-10.3,5.6-22.2,7.8-33.9,6.2c-18.5-3.1-15.4-3.1-24.6-6.2l-18.5-6.2L1429.6,592.2z"/>
	<path class="st24" d="M1352.6,610.6c0,0-6.2-15.4,27.7-46.2c33.9-30.8,46.2-27.7,46.2-27.7s40-3.1,15.4,43.1
		c-24.6,46.2-73.9,67.8-73.9,67.8s-21.6,6.2-9.2-9.2c0,0-33.9,24.6-9.2-12.3C1349.5,626,1334.1,629.1,1352.6,610.6z"/>
	<path class="st8" d="M1432.6,450.5c0,0,12.3,9.2,21.6,9.2"/>
	
		<ellipse transform="matrix(0.1889 -0.982 0.982 0.1889 705.2427 1796.7927)" class="st11" cx="1440.3" cy="471.5" rx="14.8" ry="10.8"/>
	
		<ellipse transform="matrix(0.121 -0.9927 0.9927 0.121 792.3111 1847.7716)" class="st25" cx="1439.5" cy="476.5" rx="9.1" ry="8.7"/>
	
		<ellipse transform="matrix(0.1889 -0.982 0.982 0.1889 696.9204 1802.5576)" class="st26" cx="1439.7" cy="479.4" rx="5.8" ry="5.6"/>
	
		<ellipse transform="matrix(0.1889 -0.982 0.982 0.1889 698.7386 1802.0516)" class="st23" cx="1440.3" cy="478" rx="3.6" ry="3.5"/>
	
		<ellipse transform="matrix(0.6267 -0.7792 0.7792 0.6267 165.5534 1294.8466)" class="st27" cx="1434.4" cy="474.6" rx="2.4" ry="3.8"/>
	<path class="st8" d="M1469.6,459.7c0,0,18.5-6.2,21.6-12.3"/>
	
		<ellipse transform="matrix(0.997 -7.689305e-02 7.689305e-02 0.997 -31.4659 115.3129)" class="st11" cx="1481.7" cy="466.3" rx="6.4" ry="9.6"/>
	
		<ellipse transform="matrix(0.1889 -0.982 0.982 0.1889 739.7806 1839.387)" class="st26" cx="1483.4" cy="471.9" rx="3.6" ry="3.5"/>
	<path class="st21" d="M1454.2,493.6c0,0,15.4-18.5,21.6-18.5s15.4-9.2,46.2,12.3c30.8,21.6,24.6,43.1,24.6,43.1l-24.6-15.4
		c0,0-24.6,3.1-40,6.2c-9.3,1.6-18.7-1.9-24.6-9.2C1457.3,512.1,1451.1,496.7,1454.2,493.6z"/>
	<path class="st21" d="M1472.7,505.9c0,0,27.7-12.3,49.3,9.2"/>
	<path class="st8" d="M1287.9,598.3c0,0,37,18.5,43.1,18.5"/>
	<path class="st8" d="M1269.4,616.8c0,0,43.1,18.5,55.4,15.4"/>
	<path class="st24" d="M1352.6,610.6c0,0,37-30.8,43.1-37"/>
	<line class="st8" x1="1349.5" y1="626" x2="1380.3" y2="604.5"/>
	<path class="st24" d="M1361.8,635.3c0,0,18.5-12.3,27.7-24.6"/>
</g>
<text transform="matrix(1 0 0 1 92.2408 263.4181)" class="st1 st28">Specific Statement 1: Parrot can fly</text>
<text transform="matrix(1 0 0 1 92.2407 616.8003)" class="st1 st28">Specific Statement 2: Eagle can fly</text>
<text transform="matrix(1 0 0 1 92.2411 899.3581)" class="st29"><tspan x="0" y="0" class="st1 st28">General Conclusion:  </tspan><tspan x="0" y="102" class="st1 st28">Therefore, penguin can fly</tspan></text>
</svg>
