<?xml version="1.0" encoding="utf-8"?>
<!-- Generator: Adobe Illustrator 23.0.4, SVG Export Plug-In . SVG Version: 6.00 Build 0)  -->
<svg version="1.1" id="Layer_1" xmlns="http://www.w3.org/2000/svg" xmlns:xlink="http://www.w3.org/1999/xlink" x="0px" y="0px"
	 viewBox="0 0 1700 1080" style="enable-background:new 0 0 1700 1080;" xml:space="preserve">
<style type="text/css">
	.st0{font-family:'GillSans';}
	.st1{font-size:70px;}
	.st2{display:none;enable-background:new    ;}
	.st3{font-size:80px;}
	.st4{fill:#0C0C0C;}
	.st5{fill:#ED332B;}
	.st6{fill:#F58C3A;stroke:#231F20;stroke-miterlimit:10;}
	.st7{fill:#F9EB18;stroke:#231F20;stroke-miterlimit:10;}
	.st8{fill:#EBEBE2;stroke:#231F20;stroke-miterlimit:10;}
	.st9{fill:#FFFFFF;}
</style>
<text transform="matrix(1 0 0 1 51.9834 638.498)" class="st0 st1">Conclusion: </text>
<text transform="matrix(1 0 0 1 51.9834 722.498)" class="st0 st1">Therefore, penguin can fly. </text>
<text transform="matrix(1 0 0 1 51.9834 806.498)" class="st0 st1">(General conclusion)</text>
<text transform="matrix(1 0 0 1 854.9834 414.498)" class="st0 st1">According to the reasons, </text>
<text transform="matrix(1 0 0 1 854.9834 498.498)" class="st0 st1">the conclusion makes sense. </text>
<text transform="matrix(1 0 0 1 910.9834 648.498)" class="st2 st0 st3">LOGICALLY TRUE</text>
<g>
	<g>
		<rect x="429" y="411.5" width="290.3" height="42.1"/>
	</g>
	<g>
		<polygon points="824,431.8 705.1,500.5 705.1,363.2 		"/>
	</g>
</g>
<text transform="matrix(1 0 0 1 911.9834 627.498)" class="st0 st3">LOGICALLY TRUE</text>
<g>
	<path class="st4" d="M275.1,287.7c0-18.9-18-34.2-40.3-34.2s-39.1,15.3-40.2,34.2c-1.6,26.5,18,28.6,40.2,28.6
		S275.1,306.6,275.1,287.7z"/>
	<path class="st5" d="M206.6,297.2c0,0,0.5,8.4,17.3,6.3s17.7-3.3,17.3-10.1c-0.3-6.8-10.3-11-25.1-6.5
		C201.2,291.4,206.6,297.2,206.6,297.2z"/>
	<path class="st4" d="M214.6,314.5c0,0-18.5-3.8-34.2,14.4s-22.7,43.3-27.9,70.2c-5.2,26.8-25.5,55.4-24.1,64.8s18.1,25.1,37-5.2
		c11.4-19.1,17.2-41.1,16.8-63.4l50.9-51.5l37.1,32.5l15,45.4l12.6,2.1c0,0,20.6,47.1,37,48.2c16.4,1.1,29.6-7,7.7-34.5
		c-22-27.5-20.6-11.2-40.9-78.2c-5.8-23.8-29.3-49.9-55.9-48.5C219.1,312.1,214.6,314.5,214.6,314.5z"/>
	<path class="st6" d="M201.8,488.9c0,0-4.2,7.3-9.4,8.4l-5.2,1c-1.8,0.3-31.4,7.3-33.2,14c-1.7,6.6-1.8,20.2,34.7,19.2
		s33.4-13.1,33.1-27.6C221.4,489.5,201.8,488.9,201.8,488.9z"/>
	<path class="st6" d="M258.9,493.8c0,0-14,14-15,22.4c-1,8.4-5.6,13.4,15,16.5c20.6,3.1,41.9,6.2,50.3-12.3
		c8.4-18.5-31.8-14.4-42.2-28.9S258.9,493.8,258.9,493.8z"/>
	<path class="st7" d="M301.6,441.6c-10.5-79-32.3-110.8-68.7-111c-36.4-0.3-57.4,46.6-57.6,105c-0.2,58.5,31.1,67.1,67.5,67.2
		S306.3,497.5,301.6,441.6z"/>
	<path class="st8" d="M301.7,445.2c-10.8-74-32.8-103.7-69.1-103.7s-57.2,43.8-57.2,98.6s31.4,62.7,67.7,62.7
		S306.7,497.5,301.7,445.2z"/>
	<ellipse transform="matrix(0.681 -0.7323 0.7323 0.681 -124.4607 268.2602)" class="st9" cx="245.7" cy="277" rx="5.9" ry="8.1"/>
	<ellipse transform="matrix(0.5 -0.866 0.866 0.5 -138.2593 315.9081)" class="st9" cx="204.5" cy="277.7" rx="8.1" ry="4.1"/>
	<ellipse transform="matrix(0.5 -0.866 0.866 0.5 -138.2477 315.9803)" class="st4" cx="204.5" cy="277.7" rx="5.1" ry="2.8"/>
	<ellipse transform="matrix(0.843 -0.5379 0.5379 0.843 -110.6049 176.4588)" class="st4" cx="247" cy="277.7" rx="3.3" ry="4.6"/>
</g>
</svg>
