<?xml version="1.0" encoding="utf-8"?>
<!-- Generator: Adobe Illustrator 23.0.4, SVG Export Plug-In . SVG Version: 6.00 Build 0)  -->
<svg version="1.1" id="Layer_1" xmlns="http://www.w3.org/2000/svg" xmlns:xlink="http://www.w3.org/1999/xlink" x="0px" y="0px"
	 viewBox="0 0 1700 1080" style="enable-background:new 0 0 1700 1080;" xml:space="preserve">
<style type="text/css">
	.st0{font-family:'GillSans';}
	.st1{font-size:70px;}
	.st2{font-family:'GillSans-Bold';}
	.st3{font-size:90px;}
	.st4{letter-spacing:5;}
	.st5{fill:url(#SVGID_1_);}
	.st6{fill:#0C0C0C;}
	.st7{fill:#ED332B;}
	.st8{fill:#F58C3A;stroke:#231F20;stroke-miterlimit:10;}
	.st9{fill:#F9EB18;stroke:#231F20;stroke-miterlimit:10;}
	.st10{fill:#EBEBE2;stroke:#231F20;stroke-miterlimit:10;}
	.st11{fill:#FFFFFF;}
</style>
<text transform="matrix(1 0 0 1 591.1167 367.9979)" class="st0 st1">Penguin cannot fly</text>
<text transform="matrix(1 0 0 1 517.1001 362.9979)" class="st0 st1"> </text>
<text transform="matrix(1 0 0 1 1082.76 598.8575)" class="st0 st1">NOT </text>
<text transform="matrix(1 0 0 1 1082.76 682.8575)" class="st0 st1">Realistically true</text>
<text transform="matrix(1 0 0 1 288.9834 467.498)" class="st0 st1">So,</text>
<text transform="matrix(1 0 0 1 580.9834 223.498)" class="st2 st3 st4">HOWEVER</text>
<g>
	<g>
		<rect x="591" y="607.5" width="290.3" height="42.1"/>
	</g>
	<g>
		<polygon points="986,627.8 867.1,696.5 867.1,559.2 		"/>
	</g>
</g>
<linearGradient id="SVGID_1_" gradientUnits="userSpaceOnUse" x1="1189.7001" y1="890.72" x2="1323.03" y2="890.72" gradientTransform="matrix(1 0 0 -1 0 1080)">
	<stop  offset="0" style="stop-color:#FBB03B"/>
	<stop  offset="0.32" style="stop-color:#E352AC"/>
	<stop  offset="0.96" style="stop-color:#AA0004"/>
</linearGradient>
<path class="st5" d="M1275.6,223.7h-45.8v-4.6c0-7.8,0.9-14.1,2.7-19c1.8-4.9,4.5-9.4,7.9-13.3c3.5-4,11.4-11.1,23.6-21.2
	c6.5-5.3,9.8-10.2,9.8-14.6s-1.3-7.8-3.9-10.3c-2.6-2.4-6.6-3.7-11.9-3.7c-5.3-0.2-10.4,1.9-14.2,5.7c-3.7,3.8-6.1,10.4-7.2,19.8
	l-46.8-5.8c1.6-17.2,7.9-31.1,18.8-41.6c10.9-10.5,27.6-15.7,50.1-15.7c17.5,0,31.7,3.7,42.5,11c14.7,9.9,22,23.1,22,39.5
	c0,7-2,13.8-5.7,19.8c-3.8,6.4-11.5,14.1-23.2,23.3c-8.1,6.4-13.3,11.6-15.4,15.5C1276.7,212.3,1275.6,217.4,1275.6,223.7z
	 M1237.3,235.9h30.9c5,0,9.1,4.1,9.1,9.1v25.1c0,5-4.1,9.1-9.1,9.1h-30.9c-5,0-9.1-4.1-9.1-9.1V245
	C1228.2,240,1232.3,235.9,1237.3,235.9z"/>
<g>
	<path class="st6" d="M371.8,525.9c0-16.8-16.1-30.5-35.9-30.5s-34.9,13.7-35.9,30.5c-1.4,23.6,16,25.5,35.9,25.5
		S371.8,542.7,371.8,525.9z"/>
	<path class="st7" d="M310.7,534.3c0,0,0.5,7.5,15.5,5.6c15-1.9,15.7-3,15.5-9c-0.3-6.1-9.2-9.8-22.4-5.8
		C306,529.2,310.7,534.3,310.7,534.3z"/>
	<path class="st6" d="M317.9,549.8c0,0-16.5-3.4-30.5,12.9c-14,16.3-20.2,38.6-24.9,62.5c-4.7,23.9-22.7,49.4-21.5,57.8
		c1.2,8.4,16.2,22.4,33-4.7c10.2-17.1,15.4-36.7,14.9-56.5l45.4-45.9l33.1,29l13.4,40.5l11.2,1.9c0,0,18.3,42,33,43
		c14.6,1,26.4-6.2,6.8-30.8c-19.6-24.5-18.4-10-36.4-69.7c-5.2-21.2-26.1-44.5-49.8-43.3C321.9,547.6,317.9,549.8,317.9,549.8z"/>
	<path class="st8" d="M306.5,705.2c0,0-3.7,6.5-8.4,7.5l-4.7,0.9c-1.6,0.3-28,6.5-29.6,12.4c-1.5,5.9-1.6,18,30.9,17.1
		c32.5-0.9,29.8-11.7,29.5-24.6C324,705.8,306.5,705.2,306.5,705.2z"/>
	<path class="st8" d="M357.4,709.6c0,0-12.4,12.5-13.4,19.9c-0.9,7.5-5,11.9,13.4,14.7c18.3,2.8,37.4,5.5,44.8-10.9
		s-28.3-12.9-37.7-25.8C355.3,694.7,357.4,709.6,357.4,709.6z"/>
	<path class="st9" d="M395.4,663.1c-9.4-70.5-28.8-98.7-61.2-99c-32.4-0.2-51.2,41.5-51.4,93.6c-0.2,52.1,27.7,59.8,60.2,59.9
		C375.4,717.8,399.7,712.9,395.4,663.1z"/>
	<path class="st10" d="M395.5,666.3c-9.7-66-29.2-92.5-61.6-92.5s-51,39-51,87.9c0,48.8,28,55.9,60.4,55.9S400,713,395.5,666.3z"/>
	
		<ellipse transform="matrix(0.681 -0.7323 0.7323 0.681 -267.8491 417.8069)" class="st11" cx="345.6" cy="516.3" rx="5.3" ry="7.2"/>
	<ellipse transform="matrix(0.5 -0.866 0.866 0.5 -293.2626 525.9688)" class="st11" cx="308.9" cy="517" rx="7.2" ry="3.7"/>
	<ellipse transform="matrix(0.5 -0.866 0.866 0.5 -293.2522 526.0331)" class="st6" cx="308.9" cy="517" rx="4.6" ry="2.5"/>
	<ellipse transform="matrix(0.843 -0.5379 0.5379 0.843 -223.6355 267.7001)" class="st6" cx="346.8" cy="517" rx="2.9" ry="4.1"/>
</g>
<text transform="matrix(1 0 0 1 121.9834 835.498)" class="st0 st1">Conclusion: </text>
<text transform="matrix(1 0 0 1 121.9834 919.498)" class="st0 st1">Therefore, penguin can fly. </text>
<text transform="matrix(1 0 0 1 121.9834 1003.498)" class="st0 st1">(General conclusion)</text>
</svg>
