<?xml version="1.0" encoding="utf-8"?>
<!-- Generator: Adobe Illustrator 23.0.4, SVG Export Plug-In . SVG Version: 6.00 Build 0)  -->
<svg version="1.1" id="Layer_1" xmlns="http://www.w3.org/2000/svg" xmlns:xlink="http://www.w3.org/1999/xlink" x="0px" y="0px"
	 viewBox="0 0 1700 1080" style="enable-background:new 0 0 1700 1080;" xml:space="preserve">
<style type="text/css">
	.st0{fill:#8E775F;stroke:#000000;stroke-miterlimit:10;}
	.st1{fill:#BA9B79;}
	.st2{fill:#DA3732;stroke:#000000;stroke-width:0.34;stroke-linejoin:round;}
	.st3{fill:#DE543E;}
	.st4{fill:#AB2925;}
	.st5{fill:#E27F68;}
	.st6{fill:#A5C058;}
	.st7{fill:#006837;}
	.st8{fill:#72974F;}
	.st9{fill:#D7DC84;}
	.st10{fill:#E27F68;stroke:#000000;stroke-width:0.34;stroke-linecap:round;stroke-linejoin:round;}
	.st11{stroke:#000000;stroke-width:0.34;stroke-linecap:round;stroke-linejoin:round;}
	.st12{fill:#A82925;}
	.st13{font-family:'GillSans';}
	.st14{font-size:70px;}
	.st15{font-size:80px;}
</style>
<g>
	<polygon class="st0" points="201.9,376.1 116.2,423.2 204,478.6 285.1,427.4 	"/>
	<polygon class="st1" points="69.1,310.9 201.9,232.2 201.9,377.1 69.1,455.8 	"/>
	<path d="M199.7,235.9v139.9L71.3,452.1V312.2L199.7,235.9 M204,228.4L67,309.8v149.8l137-81.3V228.4z"/>
	<polygon class="st1" points="206.1,377.1 206.1,232.2 338.9,310.9 338.9,455.8 	"/>
	<path d="M208.3,235.9l128.4,76.2v139.9l-128.4-76.2V235.9 M204,228.4v149.8l137,81.3V309.8L204,228.4z"/>
	<g id="apple_1_">
		<path class="st2" d="M100.9,243.5c0,0-27.4,7.3-20.1,45.8c7.3,38.4,18.3,54.9,38.5,60.4c14.6,3.7,3.6-3.6,31.1,3.7
			s49.3-58.6,49.3-73.2s-7.3-40.2-31.1-38.5c-11.6,1.2-23.2,1.2-34.8,0C133.8,241.6,106.4,239.9,100.9,243.5z"/>
		<path class="st3" d="M122,257.3c0,0,20.1,11,31.1,9.2s22-11,25.7-3.7c3.7,7.3,7.3,11,0,29.3c-7.3,18.3-29.3,53-58.6,51.4
			s-44-66-31.2-86.1S122,257.3,122,257.3z"/>
		<path class="st4" d="M116.4,253.6c0,0,34.8-9.2,34.8,0c0,4.9-3.9,9-8.9,9c-0.1,0-0.2,0-0.3,0C134.5,257.4,125.6,254.3,116.4,253.6
			z"/>
		<path class="st5" d="M186.9,267.3c0,0-11-29.3-67.7-14.6c0,0,36.6,11,34.8,18.3c-1.8,7.3-23.8,0-43.9-1.8s-7.3,62.2,1.8,71.4
			c-14.6-12.8-36.6-49.4-22-84.2c14.6-20.1,49.4-9.2,64.2-11S185.1,249,186.9,267.3z"/>
		<g>
			<path class="st6" d="M90.8,209.7c0,0,9.2,34.8,20.1,38.5s22,3.7,25.7,7.3l3.6-3.6c0,0-7.3-7.3-7.3-9.2c0-1.8-3.6-22-18.3-25.7
				C106.6,215.1,98.6,212.6,90.8,209.7z"/>
			<path class="st7" d="M90.8,209.7c1.8,5.7,3.8,11.3,6.1,16.7c2.1,5.5,4.9,10.7,8.2,15.6c1.5,2.4,3.7,4.2,6.3,5.4
				c2.8,0.9,5.7,1.6,8.6,2.2l8.6,1.7c3.1,0.4,6,1.6,8.6,3.5h-1.3l3.6-3.6v1.3c-2.1-2.1-4-4.3-5.9-6.6c-0.5-0.6-0.9-1.3-1.3-2
				c-0.1-0.2-0.2-0.4-0.3-0.6c0-0.3,0-0.6,0-0.7c0-0.3,0-0.7,0-1c-0.2-1.4-0.6-2.9-1-4.3c-1.6-5.5-4.5-10.6-8.4-14.7
				c-2-2-4.4-3.4-7.1-4.3c-2.7-0.9-5.7-1.5-8.6-2.4C101.8,213.8,96.2,211.9,90.8,209.7z M90.8,209.7c5.5,1.9,11.1,3.6,16.7,5
				c2.8,0.8,5.7,1.3,8.6,2.2c2.9,0.9,5.5,2.5,7.7,4.6c4.2,4.3,7.2,9.7,8.7,15.5c0.4,1.4,0.8,2.9,1.1,4.3c0,0.4,0,0.8,0,1.2
				c0,0.1,0,0.2,0,0.3c0,0.1,0,0.2,0,0.3c0.3,0.6,0.7,1.2,1.2,1.7c1.8,2.2,3.7,4.4,5.8,6.4l0.6,0.6l-0.6,0.6l-3.6,3.6l-0.6,0.6
				l-0.6-0.6c-2.3-1.6-5-2.7-7.7-3l-8.6-1.8c-2.9-0.6-5.7-1.4-8.6-2.3c-2.9-1.3-5.3-3.4-6.9-6.1c-3.3-5-5.9-10.4-7.9-16.1
				C94,221.1,92.3,215.6,90.8,209.7z"/>
		</g>
		<path class="st8" d="M97.3,214.3c0,0,22,5.5,27.4,12.8c3.3,5.8,5.7,12,7.3,18.4c-3.9-6.4-8.2-12.5-12.8-18.3
			C115.5,223.4,100.9,214.3,97.3,214.3z"/>
		<path class="st9" d="M97.3,219.8l31.1,29.3c0,0-20.1-3.7-22-9.2C104.5,234.5,97.3,219.8,97.3,219.8z"/>
		<path class="st7" d="M101.8,220.7c6.6,4.9,12.8,10.4,18.9,15.8c6,5.4,12.1,11.1,17.7,17.1c-6.6-4.9-12.8-10.4-18.9-15.8
			C113.5,232.4,107.4,226.7,101.8,220.7z"/>
		<path class="st7" d="M114.7,226.1c0.6,0.8,0.9,1.8,0.9,2.9c0,1-0.3,2-0.9,2.8c-0.6-0.8-0.9-1.8-0.9-2.8
			C113.7,228,114.1,227,114.7,226.1z"/>
		<path class="st7" d="M119.6,236.6c-0.8,0.9-1.9,1.6-3.1,2.1c-1.2,0.4-2.4,0.5-3.7,0.3c0.8-0.9,1.9-1.6,3.1-2.1
			C117.1,236.5,118.3,236.4,119.6,236.6z"/>
		<path class="st7" d="M126.6,243c-2.2,2.2-5.2,3.4-8.3,3.3c1.1-1.1,2.4-2,3.9-2.5C123.6,243.2,125.1,242.9,126.6,243z"/>
		<path class="st7" d="M107.4,226.1c-0.5,0.6-1.1,0.9-1.8,0.9c-0.7,0-1.4-0.4-1.9-0.9c0.5-0.5,1.2-0.9,1.9-0.9
			C106.2,225.3,106.9,225.6,107.4,226.1z"/>
		<path class="st7" d="M122.7,239.2c-0.7-0.8-1.1-1.8-1.2-2.8c-0.1-1,0.2-2.1,0.7-3c0.6,0.8,1,1.8,1.2,2.8
			C123.4,237.3,123.1,238.3,122.7,239.2z"/>
		<path class="st10" d="M154.4,207c0,0-23.2,41.4-14.6,49.3c2.1-7.9,6.4-41.4,25.4-43.4C165,212.9,154.4,210.9,154.4,207z"/>
		<path class="st11" d="M118.4,251.8c8.3,1.1,16.3,3.6,23.8,7.3c9.1,5.5,22,1.8,22,1.8s-11,1.8-16.5-1.8S125.6,248.1,118.4,251.8z"
			/>
		<path class="st12" d="M117.4,346c9.4-3.3,19.5-4,29.3-2c14.6,3.6,49.4-34.8,49.4-62.2c-1.2,25.6-14,49.2-34.8,64.2
			c-3.7,1.8-9.2,5.5-15.8,3.8C136.9,347.7,119.2,344,117.4,346z"/>
		<path class="st4" d="M154,210.6c1,1,2.3,1.7,3.6,1.8h-1.8C154.8,212.4,154,211.6,154,210.6C154,210.6,154,210.6,154,210.6z"/>
	</g>
	<g id="apple-2">
		<path class="st2" d="M156.6,282.1c0,0-27.4,7.3-20.1,45.8s18.3,54.9,38.5,60.4c14.6,3.7,3.6-3.6,31.1,3.7s49.3-58.6,49.3-73.2
			c0-14.6-7.3-40.2-31.1-38.5c-11.6,1.2-23.2,1.2-34.8,0C189.5,280.1,162,278.4,156.6,282.1z"/>
		<path class="st3" d="M177.6,295.8c0,0,20.1,11,31.1,9.2c11-1.8,22-11,25.7-3.7c3.7,7.3,7.3,11,0,29.3c-7.3,18.3-29.3,53-58.6,51.4
			s-44-66-31.2-86.1C157.5,275.7,177.6,295.8,177.6,295.8z"/>
		<path class="st4" d="M172.1,292.2c0,0,34.8-9.2,34.8,0c0,4.9-3.9,9-8.9,9c-0.1,0-0.2,0-0.3,0C190.2,296,181.3,292.8,172.1,292.2z"
			/>
		<path class="st5" d="M242.5,305.9c0,0-11-29.3-67.7-14.6c0,0,36.6,11,34.8,18.3c-1.8,7.3-23.8,0-43.9-1.8s-7.3,62.2,1.8,71.4
			c-14.6-12.8-36.6-49.4-22-84.2c14.6-20.1,49.4-9.2,64.2-11S240.7,287.6,242.5,305.9z"/>
		<g>
			<path class="st6" d="M146.5,248.2c0,0,9.2,34.8,20.1,38.5c11,3.8,22,3.7,25.7,7.3l3.6-3.6c0,0-7.3-7.3-7.3-9.2
				c0-1.8-3.6-22-18.3-25.7C162.3,253.6,154.3,251.2,146.5,248.2z"/>
			<path class="st7" d="M146.5,248.2c1.8,5.7,3.8,11.3,6.1,16.7c2.1,5.5,4.9,10.7,8.2,15.6c1.5,2.4,3.7,4.2,6.3,5.4
				c2.8,0.9,5.7,1.6,8.6,2.2l8.6,1.7c3.1,0.4,6,1.6,8.6,3.5h-1.3l3.6-3.6v1.3c-2.1-2.1-4-4.3-5.9-6.6c-0.5-0.6-0.9-1.3-1.3-2
				c-0.1-0.2-0.2-0.4-0.3-0.6c0-0.3,0-0.6,0-0.7c0-0.3,0-0.7,0-1c-0.2-1.4-0.6-2.9-1-4.3c-1.6-5.5-4.5-10.6-8.4-14.7
				c-2-2-4.4-3.6-7.1-4.5c-2.7-0.9-5.7-1.5-8.6-2.4C157.5,252.3,151.9,250.5,146.5,248.2z M146.5,248.2c5.5,1.9,11.1,3.6,16.7,5
				c2.8,0.8,5.7,1.3,8.6,2.2c2.9,0.9,5.5,2.5,7.7,4.6c4.2,4.3,7.2,9.7,8.7,15.5c0.4,1.4,0.8,2.9,1.1,4.3c0,0.4,0,0.8,0,1.2
				c0,0.1,0,0.2,0,0.3c0,0.1,0,0.2,0,0.3c0.3,0.6,0.7,1.2,1.2,1.7c1.8,2.2,3.7,4.4,5.8,6.4l0.6,0.6l-0.6,0.6l-3.6,3.6l-0.6,0.6
				l-0.6-0.6c-2.3-1.6-5-2.7-7.7-3l-8.6-1.8c-2.9-0.6-5.7-1.4-8.6-2.3c-2.9-1.3-5.3-3.4-6.9-6.1c-3.3-5-5.9-10.4-7.9-16.1
				C149.7,259.7,148,254.1,146.5,248.2z"/>
		</g>
		<path class="st8" d="M152.9,252.8c0,0,22,5.5,27.4,12.8c3.3,5.8,5.7,12,7.3,18.4c-3.9-6.4-8.2-12.5-12.8-18.3
			C171.2,261.9,156.6,252.8,152.9,252.8z"/>
		<path class="st9" d="M152.9,258.4l31.1,29.3c0,0-20.1-3.7-22-9.2C160.2,273,152.9,258.4,152.9,258.4z"/>
		<path class="st7" d="M157.5,259.2c6.6,4.9,12.8,10.4,18.9,15.8c6,5.4,12.1,11.1,17.7,17.1c-6.6-4.9-12.8-10.4-18.9-15.8
			S163.1,265.3,157.5,259.2z"/>
		<path class="st7" d="M170.3,264.7c0.6,0.8,0.9,1.8,0.9,2.9c0,1-0.3,2-0.9,2.8c-0.6-0.8-0.9-1.8-0.9-2.8
			C169.4,266.5,169.7,265.5,170.3,264.7z"/>
		<path class="st7" d="M175.2,275.2c-0.8,0.9-1.9,1.6-3.1,2.1c-1.2,0.4-2.4,0.5-3.7,0.3c0.8-0.9,1.9-1.6,3.1-2.1
			C172.7,275.1,174,275,175.2,275.2z"/>
		<path class="st7" d="M182.3,281.5c-2.3,2.2-5.4,3.4-8.6,3.3c1.1-1.1,2.4-2,3.9-2.5C179.1,281.7,180.7,281.4,182.3,281.5z"/>
		<path class="st7" d="M163,264.7c-0.5,0.6-1.1,0.9-1.8,0.9c-0.7,0-1.4-0.4-1.9-0.9c0.5-0.5,1.2-0.9,1.9-0.9
			C161.9,263.8,162.6,264.1,163,264.7z"/>
		<path class="st7" d="M178.3,277.8c-0.7-0.8-1.1-1.8-1.2-2.8c-0.1-1,0.2-2.1,0.7-3c0.6,0.8,1,1.8,1.2,2.8
			C179,275.8,178.8,276.9,178.3,277.8z"/>
		<path class="st10" d="M210,245.5c0,0-23.2,41.4-14.6,49.3c2.1-7.9,6.4-41.4,25.4-43.4C220.6,251.4,210,249.5,210,245.5z"/>
		<path class="st11" d="M174,290.3c8.3,1.1,16.3,3.6,23.8,7.3c9.1,5.5,22,1.8,22,1.8s-11,1.8-16.5-1.8
			C197.8,294,181.3,286.6,174,290.3z"/>
		<path class="st12" d="M173,384.5c9.4-3.3,19.5-4,29.3-2c14.6,3.6,49.4-34.8,49.4-62.2c-1.2,25.6-14,49.2-34.8,64.2
			c-3.7,1.8-9.2,5.5-15.8,3.8C192.6,386.2,174.9,382.5,173,384.5z"/>
		<path class="st4" d="M209.7,249.1c1,1,2.3,1.7,3.6,1.8h-1.8C210.5,251,209.7,250.2,209.7,249.1
			C209.7,249.2,209.7,249.1,209.7,249.1z"/>
	</g>
	<g id="apple-3">
		<path class="st2" d="M225.1,260.6c0,0-27.4,7.3-20.1,45.8s18.3,54.9,38.5,60.4c14.6,3.7,3.6-3.6,31.1,3.7s49.3-58.6,49.3-73.2
			s-7.3-40.2-31.1-38.5c-11.6,1.2-23.2,1.2-34.8,0C258,258.7,230.5,257,225.1,260.6z"/>
		<path class="st3" d="M246.1,274.4c0,0,20.1,11,31.1,9.2s22-11,25.7-3.7c3.7,7.3,7.3,11,0,29.3c-7.3,18.3-29.3,53-58.6,51.4
			s-44-66-31.2-86.1C226,254.3,246.1,274.4,246.1,274.4z"/>
		<path class="st4" d="M240.6,270.7c0,0,34.8-9.2,34.8,0c0,4.9-3.9,9-8.9,9c-0.1,0-0.2,0-0.3,0C258.7,274.5,249.8,271.4,240.6,270.7
			z"/>
		<path class="st5" d="M311,284.4c0,0-11-29.3-67.7-14.6c0,0,36.6,11,34.8,18.3c-1.8,7.3-23.8,0-43.9-1.8s-7.3,62.2,1.8,71.4
			c-14.6-12.8-36.6-49.4-22-84.2c14.6-20.1,49.4-9.2,64.2-11C293.1,260.6,309.2,266.2,311,284.4z"/>
		<g>
			<path class="st6" d="M215,226.8c0,0,9.2,34.8,20.1,38.5c11,3.8,22,3.7,25.7,7.3l3.6-3.6c0,0-7.3-7.3-7.3-9.2
				c0-1.8-3.6-22-18.3-25.7C230.8,232.2,222.8,229.7,215,226.8z"/>
			<path class="st7" d="M215,226.8c1.8,5.7,3.8,11.3,6.1,16.7c2.1,5.5,4.9,10.7,8.2,15.6c1.5,2.4,3.7,4.2,6.3,5.4
				c2.8,0.9,5.7,1.6,8.6,2.2l8.6,1.7c3.1,0.4,6,1.6,8.6,3.5H260l3.6-3.6v1.3c-2.1-2.1-4-4.3-5.9-6.6c-0.5-0.6-0.9-1.3-1.3-2
				c-0.1-0.2-0.2-0.4-0.3-0.6c0-0.3,0-0.6,0-0.7c0-0.3,0-0.7,0-1c-0.2-1.4-0.6-2.9-1-4.3c-1.6-5.5-4.5-10.6-8.4-14.7
				c-2-2-4.4-3.6-7.1-4.5c-2.7-0.9-5.7-1.5-8.6-2.4C226,230.9,220.4,229,215,226.8z M215,226.8c5.5,1.9,11.1,3.6,16.7,5
				c2.8,0.8,5.7,1.3,8.6,2.2c2.9,0.9,5.5,2.5,7.7,4.6c4.2,4.3,7.2,9.7,8.7,15.5c0.4,1.4,0.8,2.9,1.1,4.3c0,0.4,0,0.8,0,1.2
				c0,0.1,0,0.2,0,0.3c0,0.1,0,0.2,0,0.3c0.3,0.6,0.7,1.2,1.2,1.7c1.8,2.2,3.7,4.4,5.8,6.4l0.6,0.6l-0.6,0.6l-3.6,3.6l-0.6,0.6
				l-0.6-0.6c-2.3-1.6-5-2.7-7.7-3l-8.6-1.8c-2.9-0.6-5.7-1.4-8.6-2.3c-2.9-1.3-5.3-3.4-6.9-6.1c-3.3-5-5.9-10.4-7.9-16.1
				C218.2,238.3,216.5,232.7,215,226.8z"/>
		</g>
		<path class="st8" d="M221.4,231.4c0,0,22,5.5,27.4,12.8c3.3,5.8,5.7,12,7.3,18.4c-3.9-6.4-8.2-12.5-12.8-18.3
			C239.7,240.5,225.1,231.4,221.4,231.4z"/>
		<path class="st9" d="M221.4,237l31.1,29.3c0,0-20.1-3.7-22-9.2C228.7,251.6,221.4,237,221.4,237z"/>
		<path class="st7" d="M226,237.8c6.6,4.9,12.8,10.4,18.9,15.8c6,5.4,12.1,11.1,17.7,17.1c-6.6-4.9-12.8-10.4-18.9-15.8
			S231.6,243.9,226,237.8z"/>
		<path class="st7" d="M238.8,243.3c0.6,0.8,0.9,1.8,0.9,2.9c0,1-0.3,2-0.9,2.8c-0.6-0.8-0.9-1.8-0.9-2.8
			C237.9,245.1,238.2,244.1,238.8,243.3z"/>
		<path class="st7" d="M243.7,253.8c-0.8,0.9-1.9,1.6-3.1,2.1c-1.2,0.4-2.4,0.5-3.7,0.3c0.8-0.9,1.9-1.6,3.1-2.1
			C241.2,253.7,242.5,253.6,243.7,253.8z"/>
		<path class="st7" d="M250.8,260.1c-2.3,2.2-5.4,3.4-8.6,3.3c1.1-1.1,2.4-2,3.9-2.5C247.6,260.3,249.2,260,250.8,260.1z"/>
		<path class="st7" d="M231.5,243.3c-0.5,0.6-1.1,0.9-1.8,0.9c-0.7,0-1.4-0.4-1.9-0.9c0.5-0.5,1.2-0.9,1.9-0.9
			C230.4,242.4,231.1,242.7,231.5,243.3z"/>
		<path class="st7" d="M246.8,256.4c-0.7-0.8-1.1-1.8-1.2-2.8c-0.1-1,0.2-2.1,0.7-3c0.6,0.8,1,1.8,1.2,2.8
			C247.5,254.4,247.3,255.5,246.8,256.4z"/>
		<path class="st10" d="M278.5,224.1c0,0-23.2,41.4-14.6,49.3c2.1-7.9,6.4-41.4,25.4-43.4C289.1,230,278.5,228.1,278.5,224.1z"/>
		<path class="st11" d="M242.5,268.9c8.3,1.1,16.3,3.6,23.8,7.3c9.1,5.5,22,1.8,22,1.8s-11,1.8-16.5-1.8
			C266.3,272.6,249.8,265.2,242.5,268.9z"/>
		<path class="st12" d="M241.5,363.1c9.4-3.3,19.5-4,29.3-2c14.6,3.6,49.4-34.8,49.4-62.2c-1.2,25.6-14,49.2-34.8,64.2
			c-3.7,1.8-9.2,5.5-15.8,3.8C261.1,364.8,243.4,361.1,241.5,363.1z"/>
		<path class="st4" d="M278.2,227.7c1,1,2.3,1.7,3.6,1.8h-1.8C279,229.6,278.2,228.8,278.2,227.7
			C278.2,227.8,278.2,227.7,278.2,227.7z"/>
	</g>
	<polygon class="st1" points="206.1,392.3 338.9,313.5 338.9,458.4 206.1,537.2 	"/>
	<path d="M336.7,317.3v139.9l-128.4,76.2V393.5L336.7,317.3 M341,309.8l-137,81.3v149.8l137-81.3V309.8z"/>
	<polygon class="st1" points="69.1,458.4 69.1,313.5 201.9,392.3 201.9,537.2 	"/>
	<path d="M71.3,317.3l128.4,76.2v139.9L71.3,457.2V317.3 M67,309.8v149.8l137,81.3V391.1L67,309.8z"/>
</g>
<text transform="matrix(1 0 0 1 51.9834 638.498)"><tspan x="0" y="0" class="st13 st14">Conclusion: </tspan><tspan x="0" y="84" class="st13 st14">The box is full of apples. </tspan><tspan x="0" y="168" class="st13 st14">(General conclusion)</tspan></text>
<text transform="matrix(1 0 0 1 854.9834 414.498)"><tspan x="0" y="0" class="st13 st14">According to the reasons, </tspan><tspan x="0" y="84" class="st13 st14">the conclusion makes sense. </tspan></text>
<text transform="matrix(1 0 0 1 910.9834 648.498)" class="st13 st15">LOGICALLY TRUE</text>
<g>
	<g>
		<rect x="429" y="411.5" width="290.3" height="42.1"/>
	</g>
	<g>
		<polygon points="824,431.8 705.1,500.5 705.1,363.2 		"/>
	</g>
</g>
</svg>
