<?xml version="1.0" encoding="utf-8"?>
<!-- Generator: Adobe Illustrator 23.0.4, SVG Export Plug-In . SVG Version: 6.00 Build 0)  -->
<svg version="1.1" id="Layer_1" xmlns="http://www.w3.org/2000/svg" xmlns:xlink="http://www.w3.org/1999/xlink" x="0px" y="0px"
	 viewBox="0 0 1700 1080" style="enable-background:new 0 0 1700 1080;" xml:space="preserve">
<style type="text/css">
	.st0{fill:#DA3732;stroke:#000000;stroke-width:0.8;stroke-linejoin:round;}
	.st1{fill:#DE543E;}
	.st2{fill:#AB2925;}
	.st3{fill:#E27F68;}
	.st4{fill:#A5C058;}
	.st5{fill:#006837;}
	.st6{fill:#72974F;}
	.st7{fill:#D7DC84;}
	.st8{fill:#E27F68;stroke:#000000;stroke-width:0.8;stroke-linecap:round;stroke-linejoin:round;}
	.st9{stroke:#000000;stroke-width:0.8;stroke-linecap:round;stroke-linejoin:round;}
	.st10{fill:#A82925;}
	.st11{display:none;}
	.st12{display:inline;fill:#DA3732;stroke:#000000;stroke-linejoin:round;}
	.st13{display:inline;fill:#442222;stroke:#000000;stroke-linejoin:round;}
	.st14{display:inline;fill:#819120;stroke:#000000;stroke-linejoin:round;}
	.st15{display:inline;fill:#8E6A21;stroke:#000000;stroke-linejoin:round;}
	.st16{display:inline;fill:#9933CC;stroke:#000000;stroke-width:0.8;stroke-miterlimit:10;}
	.st17{display:inline;fill:#FFCC33;stroke:#000000;stroke-width:0.8;stroke-linecap:round;stroke-linejoin:round;}
	.st18{display:inline;fill:#E08122;stroke:#000000;stroke-width:0.8;stroke-miterlimit:10;}
	.st19{display:inline;fill:#669933;stroke:#000000;stroke-width:0.4;stroke-miterlimit:10;}
	.st20{display:inline;fill:#7A5D3D;stroke:#000000;stroke-miterlimit:10;}
	.st21{display:inline;fill:#FFCC33;}
	.st22{display:inline;fill:#FFEC00;}
	.st23{display:inline;fill:#A37D57;}
</style>
<g id="apple">
	<path class="st0" d="M189.2,381.9c0,0-97.4,26-71.5,162.4s65,194.9,136.4,214.4c52,13,13-13,110.4,13
		C462,797.7,540,563.8,540,511.9S514,369,429.6,375.5s-123.4,0-123.4,0S208.7,368.9,189.2,381.9z"/>
	<path class="st1" d="M263.9,430.7c0,0,71.5,39,110.4,32.5s78-39,91-13s26,39,0,103.9S361.3,742.5,257.4,736S101.5,502.1,147,430.7
		S263.9,430.7,263.9,430.7z"/>
	<path class="st2" d="M244.4,417.7c0,0,123.4-32.5,123.4,0s-32.5,32.5-32.5,32.5S289.9,417.7,244.4,417.7z"/>
	<path class="st3" d="M494.5,466.4c0,0-39-103.9-240.4-52c0,0,129.9,39,123.4,65s-84.5,0-155.9-6.5s-26,220.9,6.5,253.4
		c-52-45.5-129.9-175.4-78-298.8c52-71.5,175.4-32.5,227.4-39S488,401.4,494.5,466.4z"/>
	<g>
		<path class="st4" d="M153.5,261.7c0,0,32.5,123.4,71.5,136.4s78,13,91,26l13-13c0,0-26-26-26-32.5s-13-78-65-91
			C209.3,280.8,181.1,272.1,153.5,261.7z"/>
		<path class="st5" d="M153.5,261.7c6.5,20.1,13,40,21.2,59.4c7.5,19.5,17.3,38.1,29.1,55.4c5.4,8.4,13.2,15.1,22.4,19.1
			c9.9,3.2,20,5.8,30.3,7.9l31.1,6c5.2,1.2,10.4,2.4,15.6,4.1c5.6,1.6,10.7,4.4,15,8.3h-4.5l13-13v4.5c-7.4-7.4-14.4-15.3-20.9-23.5
			c-1.7-2.2-3.2-4.5-4.5-7c-0.4-0.8-0.7-1.6-0.9-2.4c-0.1-0.5-0.3-1.1-0.3-1.6V378c0-1-0.3-2.3-0.5-3.5c-0.9-5-2-9.9-3.4-14.7
			c-5.2-19.7-15.1-37.7-28.8-52.7c-7-7.3-15.7-12.8-25.3-16.1c-4.6-1.8-9.8-2.9-14.7-4.4s-10-2.8-14.9-4.3
			C192.3,276.3,172.6,269.8,153.5,261.7z M153.5,261.7c19.5,6.5,39.4,12.6,59.4,17.7l15.1,3.8c5,1.3,10,2.2,15.1,4
			c10.2,3.2,19.6,8.8,27.3,16.2c14.9,15.2,25.6,34,31.1,54.5c1.6,5.1,2.8,10.2,3.8,15.5c0.3,1.4,0.4,2.8,0.5,4.2c0,0,0,0.9,0,1l0,0
			c0.1,0.4,0.3,0.8,0.5,1.2c1.2,2.1,2.5,4.1,4,6c6.4,7.9,13.3,15.5,20.6,22.7l2.2,2.3l-2.2,2.3l-13,13l-2.2,2.2l-2.3-2.2
			c-3.6-3.1-7.9-5.5-12.5-6.8c-4.9-1.6-9.9-3-14.9-4l-30.9-6.5c-10.4-2.2-20.7-5-30.8-8.3c-5.3-1.9-10.2-5-14.2-9.1
			c-3.9-3.8-7.4-8-10.5-12.5c-11.6-17.8-21-37-28-57.1C164.4,302.2,158.4,282.1,153.5,261.7z"/>
	</g>
	<path class="st6" d="M176.2,278c0,0,78,19.5,97.4,45.5c14,18.7,26,65,26,65s-32.5-52-45.5-65C241.2,310.5,189.2,278,176.2,278z"/>
	<path class="st7" d="M176.2,297.5l110.4,103.9c0,0-71.5-13-78-32.5C202.2,349.4,176.2,297.5,176.2,297.5z"/>
	<path class="st5" d="M192.4,300.7c11.7,8.8,23,18,34.2,27.4s22.1,19,32.9,28.6c10.8,9.7,21.6,19.5,32,29.8l15.6,15.3
		c5.1,5.3,10.3,10.4,15.2,15.8c-5.9-4.4-11.6-9-17.3-13.4l-16.9-13.9c-11.2-9.4-22.1-19-32.9-28.7c-10.8-9.7-21.6-19.5-32-29.8
		S202.2,311.4,192.4,300.7z"/>
	<path class="st5" d="M237.9,320.2c2.1,2.9,3.3,6.4,3.2,10.1c0.1,3.6-1,7.1-3.2,10c-2.2-2.9-3.3-6.4-3.2-10
		C234.6,326.7,235.8,323.1,237.9,320.2z"/>
	<path class="st5" d="M255.5,357.4c-2.9,3.4-6.7,5.8-11,7.2c-4.2,1.5-8.6,1.9-13,1c2.9-3.4,6.7-5.8,11-7.2
		C246.6,357,251.1,356.6,255.5,357.4z"/>
	<path class="st5" d="M280.5,380c-3.8,3.9-8.3,6.9-13.4,8.9c-5.1,2.1-10.5,3.1-16,2.8c7.9-7.7,18.6-12,29.6-11.7L280.5,380
		L280.5,380z"/>
	<path class="st5" d="M212.2,320.2c-1.6,2-4,3.2-6.5,3.2s-4.9-1.2-6.5-3.2c1.6-2,3.9-3.2,6.5-3.2C208.2,317,210.6,318.2,212.2,320.2
		z"/>
	<path class="st5" d="M265.7,366.7c-4.9-5.7-5.6-13.9-1.8-20.5c2.4,2.7,3.9,6.1,4.2,9.7C268.5,359.7,267.6,363.4,265.7,366.7z"/>
	<path class="st8" d="M379,252c0,0-82.6,147.2-52.5,175.4c7.5-28.2,22.5-147.2,90-154.2C416.6,273.2,379,266.2,379,252z"/>
	<path class="st9" d="M250.9,411.2c0,0,52,6.5,84.5,26s78,6.5,78,6.5s-39,6.5-58.5-6.5S276.9,398.2,250.9,411.2z"/>
	<path class="st10" d="M247.7,745.7c0,0,52-19.5,103.9-6.5S527,615.8,527,518.4C520.5,661.3,415.2,740,403.6,745.7
		c-13,6.5-32.5,19.5-55.9,13.6C317,751.6,254.2,739.2,247.7,745.7z"/>
	<path class="st2" d="M377.6,265c3.5,3.5,8.1,5.8,13,6.5h-6.5C380.5,271.5,377.6,268.6,377.6,265z"/>
</g>
<g id="fruits" class="st11">
	<path class="st12" d="M1236.2,357.6c0,0-86.2,25.8-51.7,77.5c21.8,31,56.9,50.1,94.8,51.7c0,0,94.8-25.8,94.8-60.3
		s-34.5-103.4-77.5-112C1262.7,307.8,1253.4,314.5,1236.2,357.6z"/>
	<polygon class="st13" points="1218.9,331.7 1236.2,357.6 1236.2,323.1 	"/>
	<path class="st14" d="M1476.7,419.3c0,0-50.7-74.3-89.5-25.8c-23.1,30.3-30.7,69.5-20.6,106.2c0,0,51.7,66.6,84.9,56.2
		s86.2-51.7,84.5-91.9C1534.6,429.3,1523,422.7,1476.7,419.3z"/>
	<polygon class="st15" points="1496.1,395.1 1476.7,419.3 1509.5,408.9 	"/>
	<circle class="st16" cx="1322.3" cy="504" r="25.8"/>
	<circle class="st16" cx="1296.5" cy="469.6" r="25.8"/>
	<circle class="st16" cx="1279.2" cy="512.6" r="25.8"/>
	<circle class="st16" cx="1348.2" cy="460.9" r="25.8"/>
	<circle class="st16" cx="1313.7" cy="426.5" r="25.8"/>
	<circle class="st16" cx="1270.6" cy="426.5" r="25.8"/>
	<circle class="st16" cx="1365.4" cy="504" r="25.8"/>
	<circle class="st16" cx="1330.9" cy="538.5" r="25.8"/>
	<circle class="st16" cx="1296.5" cy="538.5" r="25.8"/>
	<circle class="st16" cx="1253.4" cy="478.2" r="25.8"/>
	<circle class="st16" cx="1253.4" cy="512.6" r="25.8"/>
	<circle class="st16" cx="1244.8" cy="538.5" r="25.8"/>
	<circle class="st16" cx="1296.5" cy="495.4" r="25.8"/>
	<circle class="st16" cx="1339.5" cy="486.8" r="25.8"/>
	<circle class="st16" cx="1296.5" cy="460.9" r="25.8"/>
	<path class="st17" d="M1589.4,417.9c-5.2-10.8-8.1-22.5-8.6-34.5c0-17.2,25.8-34.5,25.8-17.2c0,17.2-8.6,51.7,8.6,68.9
		c17.2,17.2,5,53.2,0,60.3c-14.8,20.9-31.8,43.1-42.2,56.4c-7,9.1-16.3,16.1-27,20.3c-35.2,14.1-117.2,38.1-189.5-7.8
		c0,0-8.6-8.6,8.6-17.2c17.2-8.6,60.3,0,94.8-8.6s77.5-51.7,94.8-77.5C1571.9,435.1,1589.4,435.1,1589.4,417.9z"/>
	<ellipse class="st18" cx="1119.8" cy="525.6" rx="103.4" ry="94.8"/>
	<ellipse class="st19" cx="1089.7" cy="473.9" rx="12.9" ry="8.6"/>
	<ellipse class="st19" cx="1072.5" cy="482.5" rx="12.9" ry="8.6"/>
	<ellipse class="st19" cx="1072.5" cy="473.9" rx="12.9" ry="8.6"/>
	<path class="st20" d="M982,568.6h672l0,0v42.6c0,76.4-61.9,138.4-138.4,138.4h-395.3c-76.4,0-138.4-61.9-138.4-138.4l0,0L982,568.6
		L982,568.6z"/>
	<path class="st21" d="M1137.1,465.3c32.7,13,55.8,42.7,60.3,77.5c0,0,17.2-43.1-17.2-68.9C1151.7,452.6,1137.1,465.3,1137.1,465.3z
		"/>
	<path class="st22" d="M1593.7,473.9c0,0-25.8,68.9-43.1,77.5c0,0,43.1-34.5,51.7-60.3c5.4-13.9,5.4-29.2,0-43.1L1593.7,473.9z"/>
	<path class="st23" d="M1632.5,594.5h-86.2c0,0-8.6,129.2-34.5,137.8C1511.8,732.3,1632.5,706.5,1632.5,594.5z"/>
</g>
<path d="M630,517.2v-30.5h262v30.5H630z M630,616.6V586h262v30.4L630,616.6z"/>
</svg>
