<?xml version="1.0" encoding="utf-8"?>
<!-- Generator: Adobe Illustrator 23.0.4, SVG Export Plug-In . SVG Version: 6.00 Build 0)  -->
<svg version="1.1" id="Layer_1" xmlns="http://www.w3.org/2000/svg" xmlns:xlink="http://www.w3.org/1999/xlink" x="0px" y="0px"
	 viewBox="0 0 1700 1080" style="enable-background:new 0 0 1700 1080;" xml:space="preserve">
<style type="text/css">
	.st0{font-family:'GillSans-Bold';}
	.st1{font-size:80.956px;}
	.st2{letter-spacing:5;}
	.st3{opacity:0.6;fill:none;stroke:#000000;stroke-width:5;stroke-miterlimit:10;}
	.st4{display:none;}
	.st5{display:inline;}
	.st6{font-family:'GillSans-SemiBold';}
	.st7{fill:#5CE81A;}
	.st8{display:inline;fill:#F7E454;}
</style>
<g>
	<text transform="matrix(1 0 0 1 392.522 353.2783)" class="st0 st1 st2">Inductive Reasoning</text>
	<line class="st3" x1="375" y1="400.5" x2="1350" y2="400.5"/>
</g>
<g class="st4">
	<text transform="matrix(1 0 0 1 627.522 540.2783)" class="st5 st6 st1">Logically true</text>
	<g class="st5">
		<path class="st7" d="M497,503.9c2.3,3,4.3,6,6.3,8.9l5.7,8.4c0.9,1.4,1.8,2.7,2.7,4c0.9,1.3,1.8,2.6,2.7,3.8
			c0.9,1.2,1.8,2.4,2.6,3.5c0.9,1.1,1.8,2.2,2.6,3.1c0.8,1,1.7,1.8,2.5,2.6c0.8,0.7,1.5,1.3,2.2,1.7c0.6,0.3,1.2,0.5,1.3,0.4
			c0.2-0.1,0.1-0.4-0.3-0.7c-0.4-0.3-1-0.5-1.4-0.5c-0.4,0-0.4-0.2-0.3-0.3c0.4-0.3,1.8-1.2,3.3-2.6c1.6-1.3,3.4-3.1,5.2-5
			c0.9-0.9,1.9-2,2.8-3c0.9-1,1.8-2.2,2.9-3.2c1-1.1,2-2.2,2.9-3.4c0.9-1.2,2-2.3,3-3.5c2-2.4,4.1-4.8,6.1-7.2
			c4.2-4.9,8.6-9.9,13.4-14.8c2.4-2.5,4.9-4.9,7.5-7.3c2.6-2.4,5.3-4.8,8.4-7.1l1.8,0.8c-2.6,6.2-5.2,12.3-8,18.4
			c-2.9,6.1-5.8,12.1-9,18c-3.2,5.9-6.7,11.6-10.5,17.2c-2,2.8-4,5.5-6.2,8.1c-2.2,2.6-4.5,5.1-7.2,7.4c-2.6,2.3-5.6,4.3-8.9,5.7
			c-1.7,0.6-3.5,1.2-5.4,1.3c-1.9,0.1-3.8,0-5.7-0.5c-1.8-0.5-3.5-1.4-5-2.5c-1.5-1.1-2.8-2.3-4-3.6c-2.4-2.7-4.2-5.7-5.7-8.7
			c-6-12.4-8.7-25.7-10.3-39L497,503.9z"/>
	</g>
</g>
<g class="st4">
	<text transform="matrix(1 0 0 1 569.522 677.2783)" class="st5"><tspan x="0" y="0" class="st6 st1">   May or may not </tspan><tspan x="0" y="97.1" class="st6 st1">be realistically true</tspan></text>
	<polygon class="st8" points="568.9,683.7 486.8,683.2 528.3,612.3 	"/>
</g>
</svg>
