<?xml version="1.0" encoding="utf-8"?>
<!-- Generator: Adobe Illustrator 23.0.4, SVG Export Plug-In . SVG Version: 6.00 Build 0)  -->
<svg version="1.1" id="Layer_1" xmlns="http://www.w3.org/2000/svg" xmlns:xlink="http://www.w3.org/1999/xlink" x="0px" y="0px"
	 viewBox="0 0 1700 1080" style="enable-background:new 0 0 1700 1080;" xml:space="preserve">
<style type="text/css">
	.st0{display:none;}
	.st1{display:inline;fill:#8E775F;stroke:#000000;stroke-miterlimit:10;}
	.st2{display:inline;fill:#BA9B79;}
	.st3{display:inline;}
	.st4{fill:#DA3732;stroke:#000000;stroke-width:0.34;stroke-linejoin:round;}
	.st5{fill:#DE543E;}
	.st6{fill:#AB2925;}
	.st7{fill:#E27F68;}
	.st8{fill:#A5C058;}
	.st9{fill:#006837;}
	.st10{fill:#72974F;}
	.st11{fill:#D7DC84;}
	.st12{fill:#E27F68;stroke:#000000;stroke-width:0.34;stroke-linecap:round;stroke-linejoin:round;}
	.st13{stroke:#000000;stroke-width:0.34;stroke-linecap:round;stroke-linejoin:round;}
	.st14{fill:#A82925;}
	.st15{font-family:'GillSans';}
	.st16{font-size:70px;}
	.st17{fill:#00BF20;}
	.st18{font-family:'GillSans-Bold';}
	.st19{font-size:90px;}
	.st20{letter-spacing:6;}
</style>
<g class="st0">
	<polygon class="st1" points="322.9,700.1 237.2,747.2 325,802.6 406.1,751.4 	"/>
	<polygon class="st2" points="190.1,634.9 322.9,556.2 322.9,701.1 190.1,779.8 	"/>
	<path class="st3" d="M320.7,559.9v139.9l-128.4,76.2V636.2L320.7,559.9 M325,552.4l-137,81.3v149.8l137-81.3V552.4z"/>
	<polygon class="st2" points="327.1,701.1 327.1,556.2 459.9,634.9 459.9,779.8 	"/>
	<path class="st3" d="M329.3,559.9l128.4,76.2v139.9l-128.4-76.2V559.9 M325,552.4v149.8l137,81.3V633.8L325,552.4z"/>
	<g id="apple_1_" class="st3">
		<path class="st4" d="M221.9,567.5c0,0-27.4,7.3-20.1,45.8s18.3,54.9,38.5,60.4c14.6,3.7,3.6-3.6,31.1,3.7
			c27.4,7.3,49.3-58.6,49.3-73.2c0-14.6-7.3-40.2-31.1-38.5c-11.6,1.2-23.2,1.2-34.8,0C254.8,565.6,227.4,563.9,221.9,567.5z"/>
		<path class="st5" d="M243,581.3c0,0,20.1,11,31.1,9.2c11-1.8,22-11,25.7-3.7c3.7,7.3,7.3,11,0,29.3c-7.3,18.3-29.3,53-58.6,51.4
			c-29.3-1.7-44-66-31.2-86.1C222.8,561.1,243,581.3,243,581.3z"/>
		<path class="st6" d="M237.4,577.6c0,0,34.8-9.2,34.8,0c0,4.9-3.9,9-8.9,9c-0.1,0-0.2,0-0.3,0C255.5,581.4,246.6,578.3,237.4,577.6
			z"/>
		<path class="st7" d="M307.9,591.3c0,0-11-29.3-67.7-14.6c0,0,36.6,11,34.8,18.3s-23.8,0-43.9-1.8s-7.3,62.2,1.8,71.4
			c-14.6-12.8-36.6-49.4-22-84.2c14.6-20.1,49.4-9.2,64.2-11C289.9,567.5,306.1,573,307.9,591.3z"/>
		<g>
			<path class="st8" d="M211.8,533.7c0,0,9.2,34.8,20.1,38.5s22,3.7,25.7,7.3l3.6-3.6c0,0-7.3-7.3-7.3-9.2c0-1.8-3.6-22-18.3-25.7
				C227.6,539.1,219.6,536.6,211.8,533.7z"/>
			<path class="st9" d="M211.8,533.7c1.8,5.7,3.8,11.3,6.1,16.7c2.1,5.5,4.9,10.7,8.2,15.6c1.5,2.4,3.7,4.2,6.3,5.4
				c2.8,0.9,5.7,1.6,8.6,2.2l8.6,1.7c3.1,0.4,6,1.6,8.6,3.5h-1.3l3.6-3.6v1.3c-2.1-2.1-4-4.3-5.9-6.6c-0.5-0.6-0.9-1.3-1.3-2
				c-0.1-0.2-0.2-0.4-0.3-0.6c0-0.3,0-0.6,0-0.7c0-0.3,0-0.7,0-1c-0.2-1.4-0.6-2.9-1-4.3c-1.6-5.5-4.5-10.6-8.4-14.7
				c-2-2-4.4-3.4-7.1-4.3c-2.7-0.9-5.7-1.5-8.6-2.4C222.8,537.8,217.2,535.9,211.8,533.7z M211.8,533.7c5.5,1.9,11.1,3.6,16.7,5
				c2.8,0.8,5.7,1.3,8.6,2.2c2.9,0.9,5.5,2.5,7.7,4.6c4.2,4.3,7.2,9.7,8.7,15.5c0.4,1.4,0.8,2.9,1.1,4.3c0,0.4,0,0.8,0,1.2
				c0,0.1,0,0.2,0,0.3c0,0.1,0,0.2,0,0.3c0.3,0.6,0.7,1.2,1.2,1.7c1.8,2.2,3.7,4.4,5.8,6.4l0.6,0.6l-0.6,0.6l-3.6,3.6l-0.6,0.6
				l-0.6-0.6c-2.3-1.6-5-2.7-7.7-3l-8.6-1.8c-2.9-0.6-5.7-1.4-8.6-2.3c-2.9-1.3-5.3-3.4-6.9-6.1c-3.3-5-5.9-10.4-7.9-16.1
				C215,545.1,213.3,539.6,211.8,533.7z"/>
		</g>
		<path class="st10" d="M218.3,538.3c0,0,22,5.5,27.4,12.8c3.3,5.8,5.7,12,7.3,18.4c-3.9-6.4-8.2-12.5-12.8-18.3
			C236.5,547.4,221.9,538.3,218.3,538.3z"/>
		<path class="st11" d="M218.3,543.8l31.1,29.3c0,0-20.1-3.7-22-9.2C225.5,558.5,218.3,543.8,218.3,543.8z"/>
		<path class="st9" d="M222.8,544.7c6.6,4.9,12.8,10.4,18.9,15.8c6,5.4,12.1,11.1,17.7,17.1c-6.6-4.9-12.8-10.4-18.9-15.8
			C234.5,556.4,228.4,550.7,222.8,544.7z"/>
		<path class="st9" d="M235.7,550.1c0.6,0.8,0.9,1.8,0.9,2.9c0,1-0.3,2-0.9,2.8c-0.6-0.8-0.9-1.8-0.9-2.8
			C234.7,552,235.1,551,235.7,550.1z"/>
		<path class="st9" d="M240.6,560.6c-0.8,0.9-1.9,1.6-3.1,2.1c-1.2,0.4-2.4,0.5-3.7,0.3c0.8-0.9,1.9-1.6,3.1-2.1
			C238.1,560.5,239.3,560.4,240.6,560.6z"/>
		<path class="st9" d="M247.6,567c-2.2,2.2-5.2,3.4-8.3,3.3c1.1-1.1,2.4-2,3.9-2.5C244.6,567.2,246.1,566.9,247.6,567z"/>
		<path class="st9" d="M228.4,550.1c-0.5,0.6-1.1,0.9-1.8,0.9c-0.7,0-1.4-0.4-1.9-0.9c0.5-0.5,1.2-0.9,1.9-0.9
			C227.2,549.3,227.9,549.6,228.4,550.1z"/>
		<path class="st9" d="M243.7,563.2c-0.7-0.8-1.1-1.8-1.2-2.8c-0.1-1,0.2-2.1,0.7-3c0.6,0.8,1,1.8,1.2,2.8
			C244.4,561.3,244.1,562.3,243.7,563.2z"/>
		<path class="st12" d="M275.4,531c0,0-23.2,41.4-14.6,49.3c2.1-7.9,6.4-41.4,25.4-43.4C286,536.9,275.4,534.9,275.4,531z"/>
		<path class="st13" d="M239.4,575.8c8.3,1.1,16.3,3.6,23.8,7.3c9.1,5.5,22,1.8,22,1.8s-11,1.8-16.5-1.8
			C263.2,579.5,246.6,572.1,239.4,575.8z"/>
		<path class="st14" d="M238.4,670c9.4-3.3,19.5-4,29.3-2c14.6,3.6,49.4-34.8,49.4-62.2c-1.2,25.6-14,49.2-34.8,64.2
			c-3.7,1.8-9.2,5.5-15.8,3.8C257.9,671.7,240.2,668,238.4,670z"/>
		<path class="st6" d="M275,534.6c1,1,2.3,1.7,3.6,1.8h-1.8C275.8,536.4,275,535.6,275,534.6C275,534.6,275,534.6,275,534.6z"/>
	</g>
	<g id="apple-2" class="st3">
		<path class="st4" d="M277.6,606.1c0,0-27.4,7.3-20.1,45.8c7.3,38.4,18.3,54.9,38.5,60.4c14.6,3.7,3.6-3.6,31.1,3.7
			s49.3-58.6,49.3-73.2c0-14.6-7.3-40.2-31.1-38.5c-11.6,1.2-23.2,1.2-34.8,0C310.5,604.1,283,602.4,277.6,606.1z"/>
		<path class="st5" d="M298.6,619.8c0,0,20.1,11,31.1,9.2c11-1.8,22-11,25.7-3.7c3.7,7.3,7.3,11,0,29.3c-7.3,18.3-29.3,53-58.6,51.4
			s-44-66-31.2-86.1C278.5,599.7,298.6,619.8,298.6,619.8z"/>
		<path class="st6" d="M293.1,616.2c0,0,34.8-9.2,34.8,0c0,4.9-3.9,9-8.9,9c-0.1,0-0.2,0-0.3,0C311.2,620,302.3,616.8,293.1,616.2z"
			/>
		<path class="st7" d="M363.5,629.9c0,0-11-29.3-67.7-14.6c0,0,36.6,11,34.8,18.3s-23.8,0-43.9-1.8c-20.1-1.8-7.3,62.2,1.8,71.4
			c-14.6-12.8-36.6-49.4-22-84.2c14.6-20.1,49.4-9.2,64.2-11C345.6,606.1,361.7,611.6,363.5,629.9z"/>
		<g>
			<path class="st8" d="M267.5,572.2c0,0,9.2,34.8,20.1,38.5c11,3.8,22,3.7,25.7,7.3l3.6-3.6c0,0-7.3-7.3-7.3-9.2
				c0-1.8-3.6-22-18.3-25.7C283.3,577.6,275.3,575.2,267.5,572.2z"/>
			<path class="st9" d="M267.5,572.2c1.8,5.7,3.8,11.3,6.1,16.7c2.1,5.5,4.9,10.7,8.2,15.6c1.5,2.4,3.7,4.2,6.3,5.4
				c2.8,0.9,5.7,1.6,8.6,2.2l8.6,1.7c3.1,0.4,6,1.6,8.6,3.5h-1.3l3.6-3.6v1.3c-2.1-2.1-4-4.3-5.9-6.6c-0.5-0.6-0.9-1.3-1.3-2
				c-0.1-0.2-0.2-0.4-0.3-0.6c0-0.3,0-0.6,0-0.7c0-0.3,0-0.7,0-1c-0.2-1.4-0.6-2.9-1-4.3c-1.6-5.5-4.5-10.6-8.4-14.7
				c-2-2-4.4-3.6-7.1-4.5c-2.7-0.9-5.7-1.5-8.6-2.4C278.5,576.3,272.9,574.5,267.5,572.2z M267.5,572.2c5.5,1.9,11.1,3.6,16.7,5
				c2.8,0.8,5.7,1.3,8.6,2.2c2.9,0.9,5.5,2.5,7.7,4.6c4.2,4.3,7.2,9.7,8.7,15.5c0.4,1.4,0.8,2.9,1.1,4.3c0,0.4,0,0.8,0,1.2
				c0,0.1,0,0.2,0,0.3c0,0.1,0,0.2,0,0.3c0.3,0.6,0.7,1.2,1.2,1.7c1.8,2.2,3.7,4.4,5.8,6.4l0.6,0.6l-0.6,0.6l-3.6,3.6l-0.6,0.6
				l-0.6-0.6c-2.3-1.6-5-2.7-7.7-3l-8.6-1.8c-2.9-0.6-5.7-1.4-8.6-2.3c-2.9-1.3-5.3-3.4-6.9-6.1c-3.3-5-5.9-10.4-7.9-16.1
				C270.7,583.7,269,578.1,267.5,572.2z"/>
		</g>
		<path class="st10" d="M273.9,576.8c0,0,22,5.5,27.4,12.8c3.3,5.8,5.7,12,7.3,18.4c-3.9-6.4-8.2-12.5-12.8-18.3
			C292.2,585.9,277.6,576.8,273.9,576.8z"/>
		<path class="st11" d="M273.9,582.4l31.1,29.3c0,0-20.1-3.7-22-9.2S273.9,582.4,273.9,582.4z"/>
		<path class="st9" d="M278.5,583.2c6.6,4.9,12.8,10.4,18.9,15.8c6,5.4,12.1,11.1,17.7,17.1c-6.6-4.9-12.8-10.4-18.9-15.8
			C290.2,594.9,284.1,589.3,278.5,583.2z"/>
		<path class="st9" d="M291.3,588.7c0.6,0.8,0.9,1.8,0.9,2.9c0,1-0.3,2-0.9,2.8c-0.6-0.8-0.9-1.8-0.9-2.8
			C290.4,590.5,290.7,589.5,291.3,588.7z"/>
		<path class="st9" d="M296.2,599.2c-0.8,0.9-1.9,1.6-3.1,2.1c-1.2,0.4-2.4,0.5-3.7,0.3c0.8-0.9,1.9-1.6,3.1-2.1
			C293.7,599.1,295,599,296.2,599.2z"/>
		<path class="st9" d="M303.3,605.5c-2.3,2.2-5.4,3.4-8.6,3.3c1.1-1.1,2.4-2,3.9-2.5C300.1,605.7,301.7,605.4,303.3,605.5z"/>
		<path class="st9" d="M284,588.7c-0.5,0.6-1.1,0.9-1.8,0.9c-0.7,0-1.4-0.4-1.9-0.9c0.5-0.5,1.2-0.9,1.9-0.9
			C282.9,587.8,283.6,588.1,284,588.7z"/>
		<path class="st9" d="M299.3,601.8c-0.7-0.8-1.1-1.8-1.2-2.8c-0.1-1,0.2-2.1,0.7-3c0.6,0.8,1,1.8,1.2,2.8
			C300,599.8,299.8,600.9,299.3,601.8z"/>
		<path class="st12" d="M331,569.5c0,0-23.2,41.4-14.6,49.3c2.1-7.9,6.4-41.4,25.4-43.4C341.6,575.4,331,573.5,331,569.5z"/>
		<path class="st13" d="M295,614.3c8.3,1.1,16.3,3.6,23.8,7.3c9.1,5.5,22,1.8,22,1.8s-11,1.8-16.5-1.8
			C318.8,618,302.3,610.6,295,614.3z"/>
		<path class="st14" d="M294,708.5c9.4-3.3,19.5-4,29.3-2c14.6,3.6,49.4-34.8,49.4-62.2c-1.2,25.6-14,49.2-34.8,64.2
			c-3.7,1.8-9.2,5.5-15.8,3.8C313.6,710.2,295.9,706.5,294,708.5z"/>
		<path class="st6" d="M330.7,573.1c1,1,2.3,1.7,3.6,1.8h-1.8C331.5,575,330.7,574.2,330.7,573.1
			C330.7,573.2,330.7,573.1,330.7,573.1z"/>
	</g>
	<g id="apple-3" class="st3">
		<path class="st4" d="M346.1,584.6c0,0-27.4,7.3-20.1,45.8s18.3,54.9,38.5,60.4c14.6,3.7,3.6-3.6,31.1,3.7s49.3-58.6,49.3-73.2
			c0-14.6-7.3-40.2-31.1-38.5c-11.6,1.2-23.2,1.2-34.8,0C379,582.7,351.5,581,346.1,584.6z"/>
		<path class="st5" d="M367.1,598.4c0,0,20.1,11,31.1,9.2c11-1.8,22-11,25.7-3.7s7.3,11,0,29.3c-7.3,18.3-29.3,53-58.6,51.4
			c-29.3-1.7-44-66-31.2-86.1C347,578.3,367.1,598.4,367.1,598.4z"/>
		<path class="st6" d="M361.6,594.7c0,0,34.8-9.2,34.8,0c0,4.9-3.9,9-8.9,9c-0.1,0-0.2,0-0.3,0C379.7,598.5,370.8,595.4,361.6,594.7
			z"/>
		<path class="st7" d="M432,608.4c0,0-11-29.3-67.7-14.6c0,0,36.6,11,34.8,18.3s-23.8,0-43.9-1.8c-20.1-1.8-7.3,62.2,1.8,71.4
			c-14.6-12.8-36.6-49.4-22-84.2c14.6-20.1,49.4-9.2,64.2-11C414.1,584.6,430.2,590.2,432,608.4z"/>
		<g>
			<path class="st8" d="M336,550.8c0,0,9.2,34.8,20.1,38.5c11,3.8,22,3.7,25.7,7.3l3.6-3.6c0,0-7.3-7.3-7.3-9.2
				c0-1.8-3.6-22-18.3-25.7C351.8,556.2,343.8,553.7,336,550.8z"/>
			<path class="st9" d="M336,550.8c1.8,5.7,3.8,11.3,6.1,16.7c2.1,5.5,4.9,10.7,8.2,15.6c1.5,2.4,3.7,4.2,6.3,5.4
				c2.8,0.9,5.7,1.6,8.6,2.2l8.6,1.7c3.1,0.4,6,1.6,8.6,3.5H381l3.6-3.6v1.3c-2.1-2.1-4-4.3-5.9-6.6c-0.5-0.6-0.9-1.3-1.3-2
				c-0.1-0.2-0.2-0.4-0.3-0.6c0-0.3,0-0.6,0-0.7c0-0.3,0-0.7,0-1c-0.2-1.4-0.6-2.9-1-4.3c-1.6-5.5-4.5-10.6-8.4-14.7
				c-2-2-4.4-3.6-7.1-4.5c-2.7-0.9-5.7-1.5-8.6-2.4C347,554.9,341.4,553,336,550.8z M336,550.8c5.5,1.9,11.1,3.6,16.7,5
				c2.8,0.8,5.7,1.3,8.6,2.2c2.9,0.9,5.5,2.5,7.7,4.6c4.2,4.3,7.2,9.7,8.7,15.5c0.4,1.4,0.8,2.9,1.1,4.3c0,0.4,0,0.8,0,1.2
				c0,0.1,0,0.2,0,0.3c0,0.1,0,0.2,0,0.3c0.3,0.6,0.7,1.2,1.2,1.7c1.8,2.2,3.7,4.4,5.8,6.4l0.6,0.6l-0.6,0.6l-3.6,3.6l-0.6,0.6
				l-0.6-0.6c-2.3-1.6-5-2.7-7.7-3l-8.6-1.8c-2.9-0.6-5.7-1.4-8.6-2.3c-2.9-1.3-5.3-3.4-6.9-6.1c-3.3-5-5.9-10.4-7.9-16.1
				C339.2,562.3,337.5,556.7,336,550.8z"/>
		</g>
		<path class="st10" d="M342.4,555.4c0,0,22,5.5,27.4,12.8c3.3,5.8,5.7,12,7.3,18.4c-3.9-6.4-8.2-12.5-12.8-18.3
			C360.7,564.5,346.1,555.4,342.4,555.4z"/>
		<path class="st11" d="M342.4,561l31.1,29.3c0,0-20.1-3.7-22-9.2S342.4,561,342.4,561z"/>
		<path class="st9" d="M347,561.8c6.6,4.9,12.8,10.4,18.9,15.8c6,5.4,12.1,11.1,17.7,17.1c-6.6-4.9-12.8-10.4-18.9-15.8
			C358.7,573.5,352.6,567.9,347,561.8z"/>
		<path class="st9" d="M359.8,567.3c0.6,0.8,0.9,1.8,0.9,2.9c0,1-0.3,2-0.9,2.8c-0.6-0.8-0.9-1.8-0.9-2.8
			C358.9,569.1,359.2,568.1,359.8,567.3z"/>
		<path class="st9" d="M364.7,577.8c-0.8,0.9-1.9,1.6-3.1,2.1c-1.2,0.4-2.4,0.5-3.7,0.3c0.8-0.9,1.9-1.6,3.1-2.1
			C362.2,577.7,363.5,577.6,364.7,577.8z"/>
		<path class="st9" d="M371.8,584.1c-2.3,2.2-5.4,3.4-8.6,3.3c1.1-1.1,2.4-2,3.9-2.5C368.6,584.3,370.2,584,371.8,584.1z"/>
		<path class="st9" d="M352.5,567.3c-0.5,0.6-1.1,0.9-1.8,0.9c-0.7,0-1.4-0.4-1.9-0.9c0.5-0.5,1.2-0.9,1.9-0.9
			C351.4,566.4,352.1,566.7,352.5,567.3z"/>
		<path class="st9" d="M367.8,580.4c-0.7-0.8-1.1-1.8-1.2-2.8c-0.1-1,0.2-2.1,0.7-3c0.6,0.8,1,1.8,1.2,2.8
			C368.5,578.4,368.3,579.5,367.8,580.4z"/>
		<path class="st12" d="M399.5,548.1c0,0-23.2,41.4-14.6,49.3c2.1-7.9,6.4-41.4,25.4-43.4C410.1,554,399.5,552.1,399.5,548.1z"/>
		<path class="st13" d="M363.5,592.9c8.3,1.1,16.3,3.6,23.8,7.3c9.1,5.5,22,1.8,22,1.8s-11,1.8-16.5-1.8
			C387.3,596.6,370.8,589.2,363.5,592.9z"/>
		<path class="st14" d="M362.5,687.1c9.4-3.3,19.5-4,29.3-2c14.6,3.6,49.4-34.8,49.4-62.2c-1.2,25.6-14,49.2-34.8,64.2
			c-3.7,1.8-9.2,5.5-15.8,3.8C382.1,688.8,364.4,685.1,362.5,687.1z"/>
		<path class="st6" d="M399.2,551.7c1,1,2.3,1.7,3.6,1.8h-1.8C400,553.6,399.2,552.8,399.2,551.7
			C399.2,551.8,399.2,551.7,399.2,551.7z"/>
	</g>
	<polygon class="st2" points="327.1,716.3 459.9,637.5 459.9,782.4 327.1,861.2 	"/>
	<path class="st3" d="M457.7,641.3v139.9l-128.4,76.2V717.5L457.7,641.3 M462,633.8l-137,81.3v149.8l137-81.3V633.8z"/>
	<polygon class="st2" points="190.1,782.4 190.1,637.5 322.9,716.3 322.9,861.2 	"/>
	<path class="st3" d="M192.3,641.3l128.4,76.2v139.9l-128.4-76.2V641.3 M188,633.8v149.8l137,81.3V715.1L188,633.8z"/>
</g>
<text transform="matrix(1 0 0 1 229.9834 360.498)"><tspan x="0" y="0" class="st15 st16">There </tspan><tspan x="191.5" y="0" class="st17 st15 st16">can</tspan><tspan x="287" y="0" class="st15 st16"> </tspan><tspan x="306.5" y="0" class="st17 st15 st16">possibly</tspan><tspan x="530.3" y="0" class="st15 st16"> be other fruits inside the box.</tspan></text>
<text transform="matrix(1 0 0 1 1083.9834 615.498)" class="st0"><tspan x="0" y="0" class="st3 st15 st16">May or may not </tspan><tspan x="0" y="84" class="st3 st15 st16">be realistically true</tspan></text>
<text transform="matrix(1 0 0 1 288.9834 482.498)" class="st0 st15 st16">So,</text>
<text transform="matrix(1 0 0 1 580.9834 223.498)" class="st18 st19 st20">HOWEVER</text>
<g class="st0">
	<g class="st3">
		<rect x="591" y="607.5" width="290.3" height="42.1"/>
	</g>
	<g class="st3">
		<polygon points="986,627.8 867.1,696.5 867.1,559.2 		"/>
	</g>
</g>
</svg>
