<?xml version="1.0" encoding="utf-8"?>
<!-- Generator: Adobe Illustrator 23.0.4, SVG Export Plug-In . SVG Version: 6.00 Build 0)  -->
<svg version="1.1" id="Layer_1" xmlns="http://www.w3.org/2000/svg" xmlns:xlink="http://www.w3.org/1999/xlink" x="0px" y="0px"
	 viewBox="0 0 1700 1080" style="enable-background:new 0 0 1700 1080;" xml:space="preserve">
<style type="text/css">
	.st0{fill:#DA3732;stroke:#000000;stroke-width:0.8;stroke-linejoin:round;}
	.st1{fill:#DE543E;}
	.st2{fill:#AB2925;}
	.st3{fill:#E27F68;}
	.st4{fill:#A5C058;}
	.st5{fill:#006837;}
	.st6{fill:#72974F;}
	.st7{fill:#D7DC84;}
	.st8{fill:#E27F68;stroke:#000000;stroke-width:0.8;stroke-linecap:round;stroke-linejoin:round;}
	.st9{stroke:#000000;stroke-width:0.8;stroke-linecap:round;stroke-linejoin:round;}
	.st10{fill:#A82925;}
	.st11{fill:#DA3732;stroke:#000000;stroke-linejoin:round;}
	.st12{fill:#442222;stroke:#000000;stroke-linejoin:round;}
	.st13{fill:#819120;stroke:#000000;stroke-linejoin:round;}
	.st14{fill:#8E6A21;stroke:#000000;stroke-linejoin:round;}
	.st15{fill:#9933CC;stroke:#000000;stroke-width:0.8;stroke-miterlimit:10;}
	.st16{fill:#FFCC33;stroke:#000000;stroke-width:0.8;stroke-linecap:round;stroke-linejoin:round;}
	.st17{fill:#E08122;stroke:#000000;stroke-width:0.8;stroke-miterlimit:10;}
	.st18{fill:#669933;stroke:#000000;stroke-width:0.4;stroke-miterlimit:10;}
	.st19{fill:#7A5D3D;stroke:#000000;stroke-miterlimit:10;}
	.st20{fill:#FFCC33;}
	.st21{fill:#FFEC00;}
	.st22{fill:#A37D57;}
	.st23{display:none;}
	.st24{display:inline;fill:#DA3732;stroke:#000000;stroke-linejoin:round;}
	.st25{display:inline;fill:#442222;stroke:#000000;stroke-linejoin:round;}
	.st26{display:inline;fill:#819120;stroke:#000000;stroke-linejoin:round;}
	.st27{display:inline;fill:#8E6A21;stroke:#000000;stroke-linejoin:round;}
	.st28{display:inline;fill:#9933CC;stroke:#000000;stroke-width:0.8;stroke-miterlimit:10;}
	.st29{display:inline;fill:#FFCC33;stroke:#000000;stroke-width:0.8;stroke-linecap:round;stroke-linejoin:round;}
	.st30{display:inline;fill:#E08122;stroke:#000000;stroke-width:0.8;stroke-miterlimit:10;}
	.st31{display:inline;fill:#669933;stroke:#000000;stroke-width:0.4;stroke-miterlimit:10;}
	.st32{display:inline;fill:#7A5D3D;stroke:#000000;stroke-miterlimit:10;}
	.st33{display:inline;fill:#FFCC33;}
	.st34{display:inline;fill:#FFEC00;}
	.st35{display:inline;fill:#A37D57;}
	.st36{display:inline;fill:#8E775F;stroke:#000000;stroke-miterlimit:10;}
	.st37{display:inline;fill:#BA9B79;}
	.st38{display:inline;}
	.st39{font-family:'GillSans';}
	.st40{font-size:120px;}
	.st41{display:none;opacity:0.7;fill:none;stroke:#000000;stroke-width:7;stroke-miterlimit:10;}
	.st42{fill:#DA3732;stroke:#000000;stroke-width:0.34;stroke-linejoin:round;}
	.st43{fill:#E27F68;stroke:#000000;stroke-width:0.34;stroke-linecap:round;stroke-linejoin:round;}
	.st44{stroke:#000000;stroke-width:0.34;stroke-linecap:round;stroke-linejoin:round;}
</style>
<g id="apple">
	<path class="st0" d="M301.7,149.7c0,0-58.3,15.5-42.7,97.1s38.8,116.5,81.6,128.2c31.1,7.8,7.8-7.8,66,7.8
		c58.3,15.5,104.9-124.3,104.9-155.4s-15.5-85.5-66-81.6s-73.8,0-73.8,0S313.3,141.9,301.7,149.7z"/>
	<path class="st1" d="M346.4,178.8c0,0,42.7,23.3,66,19.4c23.3-3.9,46.6-23.3,54.4-7.8c7.8,15.5,15.5,23.3,0,62.2
		c-15.5,38.8-62.2,112.7-124.3,108.8s-93.2-139.9-66-182.6S346.4,178.8,346.4,178.8z"/>
	<path class="st2" d="M334.7,171.1c0,0,73.8-19.4,73.8,0s-19.4,19.4-19.4,19.4S361.9,171.1,334.7,171.1z"/>
	<path class="st3" d="M484.3,200.2c0,0-23.3-62.2-143.7-31.1c0,0,77.7,23.3,73.8,38.8c-3.9,15.5-50.5,0-93.2-3.9
		c-42.7-3.9-15.5,132.1,3.9,151.5c-31.1-27.2-77.7-104.9-46.6-178.7c31.1-42.7,104.9-19.4,136-23.3
		C445.4,149.7,480.4,161.4,484.3,200.2z"/>
	<g>
		<path class="st4" d="M280.3,77.8c0,0,19.4,73.8,42.7,81.6c23.3,7.8,46.6,7.8,54.4,15.5l7.8-7.8c0,0-15.5-15.5-15.5-19.4
			c0-3.9-7.8-46.6-38.8-54.4C313.7,89.2,296.8,84,280.3,77.8z"/>
		<path class="st5" d="M280.3,77.8c3.9,12,7.8,23.9,12.7,35.5c4.5,11.7,10.3,22.8,17.4,33.1c3.3,5,7.9,9,13.4,11.4
			c5.9,1.9,12,3.5,18.1,4.7l18.6,3.6c3.1,0.7,6.2,1.4,9.3,2.4c3.3,1,6.4,2.6,9,4.9h-2.7l7.8-7.8v2.7c-4.4-4.4-8.6-9.1-12.5-14.1
			c-1-1.3-1.9-2.7-2.7-4.2c-0.2-0.5-0.4-0.9-0.5-1.4c-0.1-0.3-0.2-0.6-0.2-1v-0.5c0-0.6-0.2-1.4-0.3-2.1c-0.5-3-1.2-5.9-2.1-8.8
			c-3.1-11.8-9-22.6-17.2-31.5c-4.2-4.4-9.4-7.7-15.2-9.6c-2.8-1-5.9-1.7-8.8-2.6s-6-1.7-8.9-2.6C303.6,86.5,291.7,82.6,280.3,77.8z
			 M280.3,77.8c11.7,3.9,23.6,7.5,35.5,10.6l9,2.3c3,0.8,6,1.3,9.1,2.4c6.1,1.9,11.7,5.2,16.3,9.7c8.9,9.1,15.3,20.3,18.6,32.6
			c0.9,3,1.7,6.1,2.3,9.2c0.2,0.8,0.3,1.7,0.3,2.5c0,0,0,0.5,0,0.6l0,0c0.1,0.3,0.2,0.5,0.3,0.7c0.7,1.3,1.5,2.4,2.4,3.6
			c3.8,4.7,8,9.3,12.3,13.6l1.3,1.4l-1.3,1.4l-7.8,7.8l-1.3,1.3l-1.4-1.3c-2.2-1.9-4.7-3.3-7.5-4.1c-2.9-1-5.9-1.8-8.9-2.4
			l-18.5-3.9c-6.2-1.3-12.4-3-18.4-4.9c-3.2-1.2-6.1-3-8.5-5.4c-2.3-2.3-4.4-4.8-6.3-7.5c-6.9-10.7-12.6-22.1-16.7-34.1
			C286.9,102,283.3,90,280.3,77.8z"/>
	</g>
	<path class="st6" d="M293.9,87.5c0,0,46.6,11.7,58.3,27.2c8.4,11.2,15.5,38.8,15.5,38.8s-19.4-31.1-27.2-38.8
		S301.7,87.5,293.9,87.5z"/>
	<path class="st7" d="M293.9,99.2l66,62.2c0,0-42.7-7.8-46.6-19.4C309.5,130.3,293.9,99.2,293.9,99.2z"/>
	<path class="st5" d="M303.6,101.1c7,5.2,13.8,10.8,20.4,16.4c6.7,5.6,13.2,11.3,19.7,17.1s12.9,11.7,19.2,17.8l9.3,9.2
		c3,3.1,6.1,6.2,9.1,9.4c-3.5-2.6-6.9-5.4-10.3-8l-10.1-8.3c-6.7-5.6-13.2-11.4-19.7-17.2c-6.5-5.8-12.9-11.7-19.2-17.8
		C315.8,113.5,309.5,107.5,303.6,101.1z"/>
	<path class="st5" d="M330.8,112.8c1.3,1.7,2,3.9,1.9,6c0.1,2.2-0.6,4.3-1.9,6c-1.3-1.7-2-3.8-1.9-6
		C328.9,116.6,329.5,114.5,330.8,112.8z"/>
	<path class="st5" d="M341.3,135.1c-1.8,2-4,3.5-6.6,4.3c-2.5,0.9-5.2,1.1-7.8,0.6c1.8-2,4-3.5,6.6-4.3
		C336,134.8,338.7,134.6,341.3,135.1z"/>
	<path class="st5" d="M356.3,148.5c-2.3,2.3-5,4.1-8,5.3c-3,1.3-6.3,1.8-9.6,1.7c4.7-4.6,11.1-7.2,17.7-7H356.3z"/>
	<path class="st5" d="M315.4,112.8c-1,1.2-2.4,1.9-3.9,1.9c-1.5,0-3-0.7-3.9-1.9c0.9-1.2,2.4-1.9,3.9-1.9
		C313.1,110.9,314.5,111.6,315.4,112.8z"/>
	<path class="st5" d="M347.5,140.6c-2.9-3.4-3.4-8.3-1.1-12.2c1.4,1.6,2.3,3.7,2.5,5.8C349.1,136.4,348.6,138.6,347.5,140.6z"/>
	<path class="st8" d="M415.2,72c0,0-49.4,88-31.4,104.9c4.5-16.9,13.4-88,53.8-92.2C437.7,84.7,415.2,80.5,415.2,72z"/>
	<path class="st9" d="M338.6,167.2c0,0,31.1,3.9,50.5,15.5c19.4,11.7,46.6,3.9,46.6,3.9s-23.3,3.9-35-3.9
		C389.1,175,354.1,159.4,338.6,167.2z"/>
	<path class="st10" d="M336.7,367.3c0,0,31.1-11.7,62.2-3.9c31.1,7.8,104.9-73.8,104.9-132.1c-3.9,85.5-66.9,132.5-73.8,136
		c-7.8,3.9-19.4,11.7-33.4,8.2C378.1,370.8,340.5,363.4,336.7,367.3z"/>
	<path class="st2" d="M414.4,79.8c2.1,2.1,4.8,3.5,7.8,3.9h-3.9C416.1,83.7,414.4,81.9,414.4,79.8z"/>
</g>
<g id="fruits">
	<path class="st11" d="M1293.8,137.1c0,0-51.5,15.5-30.9,46.4c13.1,18.6,34,30,56.7,30.9c0,0,56.7-15.5,56.7-36.1
		s-20.6-61.8-46.4-67C1309.7,107.3,1304.1,111.4,1293.8,137.1z"/>
	<polygon class="st12" points="1283.5,121.7 1293.8,137.1 1293.8,116.5 	"/>
	<path class="st13" d="M1437.6,174.1c0,0-30.3-44.4-53.5-15.5c-13.8,18.1-18.3,41.6-12.3,63.5c0,0,30.9,39.8,50.8,33.6
		c19.9-6.2,51.5-30.9,50.5-55C1472.3,180,1465.3,176.1,1437.6,174.1z"/>
	<polygon class="st14" points="1449.2,159.6 1437.6,174.1 1457.3,167.8 	"/>
	<circle class="st15" cx="1345.3" cy="224.7" r="15.5"/>
	<circle class="st15" cx="1329.9" cy="204.1" r="15.5"/>
	<circle class="st15" cx="1319.6" cy="229.9" r="15.5"/>
	<circle class="st15" cx="1360.8" cy="199" r="15.5"/>
	<circle class="st15" cx="1340.2" cy="178.3" r="15.5"/>
	<circle class="st15" cx="1314.4" cy="178.3" r="15.5"/>
	<circle class="st15" cx="1371.1" cy="224.7" r="15.5"/>
	<circle class="st15" cx="1350.5" cy="245.3" r="15.5"/>
	<circle class="st15" cx="1329.9" cy="245.3" r="15.5"/>
	<circle class="st15" cx="1304.1" cy="209.3" r="15.5"/>
	<circle class="st15" cx="1304.1" cy="229.9" r="15.5"/>
	<circle class="st15" cx="1298.9" cy="245.3" r="15.5"/>
	<circle class="st15" cx="1329.9" cy="219.6" r="15.5"/>
	<circle class="st15" cx="1355.6" cy="214.4" r="15.5"/>
	<circle class="st15" cx="1329.9" cy="199" r="15.5"/>
	<path class="st16" d="M1505,173.2c-3.1-6.5-4.8-13.5-5.2-20.6c0-10.3,15.5-20.6,15.5-10.3c0,10.3-5.2,30.9,5.2,41.2
		c10.3,10.3,3,31.8,0,36.1c-8.9,12.5-19,25.8-25.2,33.7c-4.2,5.4-9.8,9.6-16.1,12.2c-21,8.4-70.1,22.8-113.3-4.7
		c0,0-5.2-5.2,5.2-10.3c10.3-5.2,36.1,0,56.7-5.2c20.6-5.2,46.4-30.9,56.7-46.4C1494.6,183.5,1505,183.5,1505,173.2z"/>
	<ellipse class="st17" cx="1224.2" cy="237.6" rx="61.8" ry="56.7"/>
	<ellipse class="st18" cx="1206.2" cy="206.7" rx="7.7" ry="5.2"/>
	<ellipse class="st18" cx="1195.9" cy="211.8" rx="7.7" ry="5.2"/>
	<ellipse class="st18" cx="1195.9" cy="206.7" rx="7.7" ry="5.2"/>
	<path class="st19" d="M1141.8,263.4h401.9l0,0v25.5c0,45.7-37,82.7-82.7,82.7h-236.4c-45.7,0-82.7-37-82.7-82.7l0,0V263.4
		L1141.8,263.4z"/>
	<path class="st20" d="M1234.5,201.5c19.6,7.8,33.4,25.5,36.1,46.4c0,0,10.3-25.8-10.3-41.2C1243.3,194,1234.5,201.5,1234.5,201.5z"
		/>
	<path class="st21" d="M1507.6,206.7c0,0-15.5,41.2-25.8,46.4c0,0,25.8-20.6,30.9-36.1c3.2-8.3,3.2-17.5,0-25.8L1507.6,206.7z"/>
	<path class="st22" d="M1530.8,278.8h-51.5c0,0-5.2,77.3-20.6,82.4C1458.7,361.2,1530.8,345.8,1530.8,278.8z"/>
</g>
<g id="fruits_1_" class="st23">
	<path class="st24" d="M1301.8,475.1c0,0-51.5,15.5-30.9,46.4c13.1,18.6,34,30,56.7,30.9c0,0,56.7-15.5,56.7-36.1
		s-20.6-61.8-46.4-67C1317.7,445.3,1312.1,449.4,1301.8,475.1z"/>
	<polygon class="st25" points="1291.5,459.7 1301.8,475.1 1301.8,454.5 	"/>
	<path class="st26" d="M1445.6,512.1c0,0-30.3-44.4-53.5-15.5c-13.8,18.1-18.3,41.6-12.3,63.5c0,0,30.9,39.8,50.8,33.6
		c19.9-6.2,51.5-30.9,50.5-55C1480.3,518,1473.3,514.1,1445.6,512.1z"/>
	<polygon class="st27" points="1457.2,497.6 1445.6,512.1 1465.3,505.8 	"/>
	<circle class="st28" cx="1353.3" cy="562.7" r="15.5"/>
	<circle class="st28" cx="1337.9" cy="542.1" r="15.5"/>
	<circle class="st28" cx="1327.6" cy="567.9" r="15.5"/>
	<circle class="st28" cx="1368.8" cy="537" r="15.5"/>
	<circle class="st28" cx="1348.2" cy="516.3" r="15.5"/>
	<circle class="st28" cx="1322.4" cy="516.3" r="15.5"/>
	<circle class="st28" cx="1379.1" cy="562.7" r="15.5"/>
	<circle class="st28" cx="1358.5" cy="583.3" r="15.5"/>
	<circle class="st28" cx="1337.9" cy="583.3" r="15.5"/>
	<circle class="st28" cx="1312.1" cy="547.3" r="15.5"/>
	<circle class="st28" cx="1312.1" cy="567.9" r="15.5"/>
	<circle class="st28" cx="1306.9" cy="583.3" r="15.5"/>
	<circle class="st28" cx="1337.9" cy="557.6" r="15.5"/>
	<circle class="st28" cx="1363.6" cy="552.4" r="15.5"/>
	<circle class="st28" cx="1337.9" cy="537" r="15.5"/>
	<path class="st29" d="M1513,511.2c-3.1-6.5-4.8-13.5-5.2-20.6c0-10.3,15.5-20.6,15.5-10.3s-5.2,30.9,5.2,41.2
		c10.3,10.3,3,31.8,0,36.1c-8.9,12.5-19,25.8-25.2,33.7c-4.2,5.4-9.8,9.6-16.1,12.2c-21,8.4-70.1,22.8-113.3-4.7
		c0,0-5.2-5.2,5.2-10.3c10.3-5.2,36.1,0,56.7-5.2c20.6-5.2,46.4-30.9,56.7-46.4C1502.6,521.5,1513,521.5,1513,511.2z"/>
	<ellipse class="st30" cx="1232.2" cy="575.6" rx="61.8" ry="56.7"/>
	<ellipse class="st31" cx="1214.2" cy="544.7" rx="7.7" ry="5.2"/>
	<ellipse class="st31" cx="1203.9" cy="549.8" rx="7.7" ry="5.2"/>
	<ellipse class="st31" cx="1203.9" cy="544.7" rx="7.7" ry="5.2"/>
	<path class="st32" d="M1149.8,601.4h401.9l0,0v25.5c0,45.7-37,82.7-82.7,82.7h-236.4c-45.7,0-82.7-37-82.7-82.7l0,0V601.4
		L1149.8,601.4z"/>
	<path class="st33" d="M1242.5,539.5c19.6,7.8,33.4,25.5,36.1,46.4c0,0,10.3-25.8-10.3-41.2C1251.3,532,1242.5,539.5,1242.5,539.5z"
		/>
	<path class="st34" d="M1515.6,544.7c0,0-15.5,41.2-25.8,46.4c0,0,25.8-20.6,30.9-36.1c3.2-8.3,3.2-17.5,0-25.8L1515.6,544.7z"/>
	<path class="st35" d="M1538.8,616.8h-51.5c0,0-5.2,77.3-20.6,82.4C1466.7,699.2,1538.8,683.8,1538.8,616.8z"/>
</g>
<path d="M750.3,243.6v-18.2H907v18.2H750.3z M750.3,303v-18.3H907v18.2L750.3,303z"/>
<g class="st23">
	<polygon class="st36" points="378.8,569.8 291.9,617.6 381,673.8 463.2,621.8 	"/>
	<polygon class="st37" points="244.2,503.7 378.8,423.8 378.8,570.8 244.2,650.7 	"/>
	<path class="st38" d="M376.6,427.6v141.9l-130.3,77.3V505L376.6,427.6 M381,420l-139,82.5v152L381,572V420z"/>
	<polygon class="st37" points="383.1,570.8 383.1,423.8 517.7,503.7 517.7,650.7 	"/>
	<path class="st38" d="M385.3,427.6L515.6,505v141.9l-130.3-77.3V427.6 M381,420v152l139,82.5v-152L381,420z"/>
	<polygon class="st37" points="383.1,586.2 517.7,506.3 517.7,653.3 383.1,733.2 	"/>
	<path class="st38" d="M515.6,510.1V652l-130.3,77.3V587.5L515.6,510.1 M519.9,502.5L381,585v152l139-82.5V502.5z"/>
	<polygon class="st37" points="244.2,653.3 244.2,506.3 378.8,586.2 378.8,733.2 	"/>
	<path class="st38" d="M246.3,510.1l130.3,77.3v141.9L246.3,652V510.1 M242,502.5v152L381,737V585L242,502.5z"/>
</g>
<text transform="matrix(1 0 0 1 673.1035 631.1865)" class="st23 st39 st40">is full of</text>
<line class="st41" x1="131" y1="756.5" x2="1618" y2="756.5"/>
<g class="st23">
	<polygon class="st36" points="837.6,922.3 763.6,963 839.5,1011 909.6,966.6 	"/>
	<polygon class="st37" points="722.9,865.9 837.6,797.8 837.6,923.1 722.9,991.2 	"/>
	<path class="st38" d="M835.8,801v121l-111.1,66V867L835.8,801 M839.5,794.5L721,864.9v129.6l118.5-70.4V794.5z"/>
	<polygon class="st37" points="841.4,923.1 841.4,797.8 956.1,865.9 956.1,991.2 	"/>
	<path class="st38" d="M843.2,801l111.1,66v121l-111.1-66V801 M839.5,794.5v129.6L958,994.5V864.9L839.5,794.5z"/>
	<g id="apple_1_" class="st38">
		<path class="st42" d="M750.3,807.6c0,0-23.7,6.3-17.4,39.6c6.3,33.3,15.8,47.5,33.3,52.2c12.6,3.2,3.1-3.1,26.9,3.2
			s42.7-50.7,42.7-63.3s-6.3-34.8-26.9-33.3c-10,1.1-20.1,1.1-30.1,0C778.8,805.9,755.1,804.4,750.3,807.6z"/>
		<path class="st1" d="M768.5,819.5c0,0,17.4,9.5,26.9,7.9c9.5-1.6,19-9.5,22.2-3.2c3.2,6.3,6.3,9.5,0,25.3
			c-6.3,15.8-25.3,45.9-50.7,44.4c-25.3-1.4-38-57.1-27-74.5C751.1,802.1,768.5,819.5,768.5,819.5z"/>
		<path class="st2" d="M763.8,816.3c0,0,30.1-7.9,30.1,0c0,4.3-3.4,7.8-7.7,7.8c-0.1,0-0.1,0-0.2,0
			C779.4,819.6,771.7,816.9,763.8,816.3z"/>
		<path class="st3" d="M824.7,828.2c0,0-9.5-25.3-58.5-12.7c0,0,31.6,9.5,30.1,15.8c-1.6,6.3-20.6,0-38-1.6
			c-17.4-1.6-6.3,53.8,1.6,61.7c-12.7-11.1-31.7-42.7-19-72.8c12.7-17.4,42.7-7.9,55.5-9.5S823.1,812.4,824.7,828.2z"/>
		<g>
			<path class="st4" d="M741.6,778.3c0,0,7.9,30.1,17.4,33.3c9.5,3.3,19,3.2,22.2,6.3l3.1-3.1c0,0-6.3-6.3-6.3-7.9
				s-3.1-19-15.8-22.2C755.3,783,748.4,780.9,741.6,778.3z"/>
			<path class="st5" d="M741.6,778.3c1.5,4.9,3.3,9.7,5.3,14.5c1.8,4.8,4.2,9.3,7.1,13.5c1.3,2,3.2,3.7,5.4,4.7
				c2.4,0.8,4.9,1.4,7.4,1.9l7.4,1.5c2.7,0.4,5.2,1.4,7.4,3h-1.1l3.1-3.1v1.1c-1.8-1.8-3.5-3.7-5.1-5.7c-0.4-0.5-0.8-1.1-1.1-1.7
				c-0.1-0.2-0.2-0.4-0.3-0.6c0-0.3,0-0.6,0-0.6c0-0.3,0-0.6,0-0.9c-0.2-1.3-0.5-2.5-0.9-3.7c-1.3-4.8-3.9-9.2-7.3-12.7
				c-1.7-1.7-3.8-3-6.1-3.7c-2.3-0.8-4.9-1.3-7.4-2.1C751.1,781.9,746.3,780.3,741.6,778.3z M741.6,778.3c4.8,1.7,9.6,3.1,14.5,4.3
				c2.4,0.7,4.9,1.1,7.4,1.9c2.5,0.8,4.8,2.1,6.6,4c3.6,3.7,6.2,8.4,7.6,13.4c0.4,1.2,0.7,2.5,0.9,3.7c0,0.3,0,0.7,0,1
				c0,0.1,0,0.2,0,0.3c0,0.1,0,0.2,0,0.3c0.3,0.5,0.6,1,1,1.5c1.6,1.9,3.2,3.8,5,5.5l0.6,0.6l-0.6,0.6l-3.1,3.1l-0.6,0.6l-0.6-0.6
				c-2-1.4-4.3-2.3-6.7-2.6l-7.4-1.6c-2.5-0.5-5-1.2-7.4-2c-2.5-1.1-4.6-3-6-5.3c-2.8-4.3-5.1-9-6.9-13.9
				C744.4,788.2,742.9,783.4,741.6,778.3z"/>
		</g>
		<path class="st6" d="M747.2,782.3c0,0,19,4.7,23.7,11.1c2.8,5,5,10.3,6.3,15.9c-3.4-5.5-7.1-10.8-11.1-15.8
			C763,790.2,750.3,782.3,747.2,782.3z"/>
		<path class="st7" d="M747.2,787.1l26.9,25.3c0,0-17.4-3.2-19-7.9C753.5,799.8,747.2,787.1,747.2,787.1z"/>
		<path class="st5" d="M751.1,787.8c5.7,4.3,11.1,9,16.3,13.7c5.2,4.7,10.5,9.6,15.3,14.8c-5.7-4.3-11.1-9-16.3-13.7
			C761.2,798,756,793.1,751.1,787.8z"/>
		<path class="st5" d="M762.2,792.6c0.5,0.7,0.8,1.6,0.8,2.5c0,0.9-0.3,1.7-0.8,2.4c-0.5-0.7-0.8-1.6-0.8-2.4
			C761.4,794.1,761.7,793.3,762.2,792.6z"/>
		<path class="st5" d="M766.5,801.6c-0.7,0.8-1.6,1.4-2.7,1.8c-1,0.3-2.1,0.4-3.2,0.3c0.7-0.8,1.6-1.4,2.7-1.8
			C764.3,801.6,765.4,801.5,766.5,801.6z"/>
		<path class="st5" d="M772.6,807.1c-1.9,1.9-4.5,2.9-7.2,2.9c0.9-1,2.1-1.7,3.3-2.2C769.9,807.3,771.3,807.1,772.6,807.1z"/>
		<path class="st5" d="M755.9,792.6c-0.4,0.5-1,0.8-1.6,0.8c-0.6,0-1.2-0.3-1.6-0.8c0.4-0.5,1-0.7,1.6-0.8
			C754.9,791.8,755.5,792.1,755.9,792.6z"/>
		<path class="st5" d="M769.1,803.9c-0.6-0.7-0.9-1.5-1-2.4c-0.1-0.9,0.1-1.8,0.6-2.6c0.6,0.7,0.9,1.6,1,2.4
			C769.8,802.2,769.6,803.1,769.1,803.9z"/>
		<path class="st43" d="M796.6,776c0,0-20,35.8-12.6,42.6c1.9-6.8,5.5-35.8,22-37.5C805.7,781.1,796.6,779.4,796.6,776z"/>
		<path class="st44" d="M765.4,814.7c7.2,0.9,14.1,3.1,20.6,6.3c7.9,4.7,19,1.6,19,1.6s-9.5,1.6-14.3-1.6S771.7,811.5,765.4,814.7z"
			/>
		<path class="st10" d="M764.6,896.2c8.1-2.8,16.9-3.4,25.3-1.7c12.7,3.1,42.7-30.1,42.7-53.8c-1,22.1-12.1,42.6-30.1,55.5
			c-3.2,1.6-7.9,4.7-13.6,3.3C781.5,897.7,766.2,894.5,764.6,896.2z"/>
		<path class="st2" d="M796.2,779.1c0.8,0.9,1.9,1.4,3.1,1.6h-1.6C796.9,780.7,796.2,780,796.2,779.1
			C796.2,779.1,796.2,779.1,796.2,779.1z"/>
	</g>
	<g id="apple-2" class="st38">
		<path class="st42" d="M798.5,840.9c0,0-23.7,6.3-17.4,39.6c6.3,33.3,15.8,47.5,33.3,52.2c12.6,3.2,3.1-3.1,26.9,3.2
			c23.7,6.3,42.7-50.7,42.7-63.3s-6.3-34.8-26.9-33.3c-10,1.1-20.1,1.1-30.1,0C826.9,839.2,803.2,837.8,798.5,840.9z"/>
		<path class="st1" d="M816.7,852.8c0,0,17.4,9.5,26.9,7.9c9.5-1.6,19-9.5,22.2-3.2c3.2,6.3,6.3,9.5,0,25.3
			c-6.3,15.8-25.3,45.9-50.7,44.4c-25.3-1.4-38-57.1-27-74.5C799.2,835.4,816.7,852.8,816.7,852.8z"/>
		<path class="st2" d="M811.9,849.7c0,0,30.1-7.9,30.1,0c0,4.3-3.4,7.8-7.7,7.8c-0.1,0-0.1,0-0.2,0
			C827.5,852.9,819.9,850.2,811.9,849.7z"/>
		<path class="st3" d="M872.8,861.5c0,0-9.5-25.3-58.5-12.7c0,0,31.6,9.5,30.1,15.8c-1.6,6.3-20.6,0-38-1.6
			c-17.4-1.6-6.3,53.8,1.6,61.7c-12.7-11.1-31.7-42.7-19-72.8c12.7-17.4,42.7-7.9,55.5-9.5S871.3,845.7,872.8,861.5z"/>
		<g>
			<path class="st4" d="M789.8,811.7c0,0,7.9,30.1,17.4,33.3c9.5,3.3,19,3.2,22.2,6.3l3.1-3.1c0,0-6.3-6.3-6.3-7.9
				s-3.1-19-15.8-22.2C803.4,816.3,796.5,814.2,789.8,811.7z"/>
			<path class="st5" d="M789.8,811.7c1.5,4.9,3.3,9.7,5.3,14.5c1.8,4.8,4.2,9.3,7.1,13.5c1.3,2,3.2,3.7,5.4,4.7
				c2.4,0.8,4.9,1.4,7.4,1.9l7.4,1.5c2.7,0.4,5.2,1.4,7.4,3h-1.1l3.1-3.1v1.1c-1.8-1.8-3.5-3.7-5.1-5.7c-0.4-0.5-0.8-1.1-1.1-1.7
				c-0.1-0.2-0.2-0.4-0.3-0.6c0-0.3,0-0.6,0-0.6c0-0.3,0-0.6,0-0.9c-0.2-1.3-0.5-2.5-0.9-3.7c-1.3-4.8-3.9-9.2-7.3-12.7
				c-1.7-1.8-3.8-3.1-6.1-3.9c-2.3-0.8-4.9-1.3-7.4-2.1C799.2,815.2,794.4,813.6,789.8,811.7z M789.8,811.7
				c4.8,1.7,9.6,3.1,14.5,4.3c2.4,0.7,4.9,1.1,7.4,1.9c2.5,0.8,4.8,2.1,6.6,4c3.6,3.7,6.2,8.4,7.6,13.4c0.4,1.2,0.7,2.5,0.9,3.7
				c0,0.3,0,0.7,0,1c0,0.1,0,0.2,0,0.3c0,0.1,0,0.2,0,0.3c0.3,0.5,0.6,1,1,1.5c1.6,1.9,3.2,3.8,5,5.5l0.6,0.6l-0.6,0.6l-3.1,3.1
				l-0.6,0.6l-0.6-0.6c-2-1.4-4.3-2.3-6.7-2.6l-7.4-1.6c-2.5-0.5-5-1.2-7.4-2c-2.5-1.1-4.6-3-6-5.3c-2.8-4.3-5.1-9-6.9-13.9
				C792.5,821.5,791,816.7,789.8,811.7z"/>
		</g>
		<path class="st6" d="M795.3,815.6c0,0,19,4.7,23.7,11.1c2.8,5,5,10.3,6.3,15.9c-3.4-5.5-7.1-10.8-11.1-15.8
			C811.1,823.5,798.5,815.6,795.3,815.6z"/>
		<path class="st7" d="M795.3,820.4l26.9,25.3c0,0-17.4-3.2-19-7.9C801.6,833.1,795.3,820.4,795.3,820.4z"/>
		<path class="st5" d="M799.3,821.1c5.7,4.3,11.1,9,16.3,13.7c5.2,4.7,10.5,9.6,15.3,14.8c-5.7-4.3-11.1-9-16.3-13.7
			C809.4,831.3,804.1,826.4,799.3,821.1z"/>
		<path class="st5" d="M810.4,825.9c0.5,0.7,0.8,1.6,0.8,2.5c0,0.9-0.3,1.7-0.8,2.4c-0.5-0.7-0.8-1.6-0.8-2.4
			C809.6,827.5,809.8,826.6,810.4,825.9z"/>
		<path class="st5" d="M814.6,835c-0.7,0.8-1.6,1.4-2.7,1.8c-1,0.3-2.1,0.4-3.2,0.3c0.7-0.8,1.6-1.4,2.7-1.8
			C812.5,834.9,813.5,834.8,814.6,835z"/>
		<path class="st5" d="M820.7,840.5c-2,1.9-4.7,3-7.4,2.9c0.9-1,2.1-1.7,3.3-2.2C817.9,840.6,819.3,840.4,820.7,840.5z"/>
		<path class="st5" d="M804.1,825.9c-0.4,0.5-1,0.8-1.6,0.8c-0.6,0-1.2-0.3-1.6-0.8c0.4-0.5,1-0.7,1.6-0.8
			C803.1,825.1,803.7,825.4,804.1,825.9z"/>
		<path class="st5" d="M817.3,837.2c-0.6-0.7-0.9-1.5-1-2.4c-0.1-0.9,0.1-1.8,0.6-2.6c0.6,0.7,0.9,1.6,1,2.4
			C817.9,835.5,817.7,836.4,817.3,837.2z"/>
		<path class="st43" d="M844.7,809.3c0,0-20,35.8-12.6,42.6c1.9-6.8,5.5-35.8,22-37.5C853.9,814.4,844.7,812.7,844.7,809.3z"/>
		<path class="st44" d="M813.6,848.1c7.2,0.9,14.1,3.1,20.6,6.3c7.9,4.7,19,1.6,19,1.6s-9.5,1.6-14.3-1.6S819.8,844.9,813.6,848.1z"
			/>
		<path class="st10" d="M812.7,929.6c8.1-2.8,16.9-3.4,25.3-1.7c12.7,3.1,42.7-30.1,42.7-53.8c-1,22.1-12.1,42.6-30.1,55.5
			c-3.2,1.6-7.9,4.7-13.6,3.3C829.6,931,814.3,927.8,812.7,929.6z"/>
		<path class="st2" d="M844.4,812.4c0.8,0.9,1.9,1.4,3.1,1.6h-1.6C845.1,814,844.4,813.3,844.4,812.4
			C844.4,812.5,844.4,812.5,844.4,812.4z"/>
	</g>
	<g id="apple-3" class="st38">
		<path class="st42" d="M857.7,822.4c0,0-23.7,6.3-17.4,39.6c6.3,33.3,15.8,47.5,33.3,52.2c12.6,3.2,3.1-3.1,26.9,3.2
			c23.7,6.3,42.7-50.7,42.7-63.3s-6.3-34.8-26.9-33.3c-10,1.1-20.1,1.1-30.1,0C886.2,820.7,862.5,819.3,857.7,822.4z"/>
		<path class="st1" d="M875.9,834.3c0,0,17.4,9.5,26.9,7.9c9.5-1.6,19-9.5,22.2-3.2s6.3,9.5,0,25.3s-25.3,45.9-50.7,44.4
			s-38-57.1-27-74.5C858.5,816.9,875.9,834.3,875.9,834.3z"/>
		<path class="st2" d="M871.2,831.1c0,0,30.1-7.9,30.1,0c0,4.3-3.4,7.8-7.7,7.8c-0.1,0-0.1,0-0.2,0
			C886.8,834.4,879.1,831.7,871.2,831.1z"/>
		<path class="st3" d="M932.1,843c0,0-9.5-25.3-58.5-12.7c0,0,31.6,9.5,30.1,15.8c-1.6,6.3-20.6,0-38-1.6
			c-17.4-1.6-6.3,53.8,1.6,61.7c-12.7-11.1-31.7-42.7-19-72.8c12.7-17.4,42.7-7.9,55.5-9.5S930.5,827.2,932.1,843z"/>
		<g>
			<path class="st4" d="M849,793.1c0,0,7.9,30.1,17.4,33.3c9.5,3.3,19,3.2,22.2,6.3l3.1-3.1c0,0-6.3-6.3-6.3-7.9s-3.1-19-15.8-22.2
				C862.6,797.8,855.8,795.7,849,793.1z"/>
			<path class="st5" d="M849,793.1c1.5,4.9,3.3,9.7,5.3,14.5c1.8,4.8,4.2,9.3,7.1,13.5c1.3,2,3.2,3.7,5.4,4.7
				c2.4,0.8,4.9,1.4,7.4,1.9l7.4,1.5c2.7,0.4,5.2,1.4,7.4,3H888l3.1-3.1v1.1c-1.8-1.8-3.5-3.7-5.1-5.7c-0.4-0.5-0.8-1.1-1.1-1.7
				c-0.1-0.2-0.2-0.4-0.3-0.6c0-0.3,0-0.6,0-0.6c0-0.3,0-0.6,0-0.9c-0.2-1.3-0.5-2.5-0.9-3.7c-1.3-4.8-3.9-9.2-7.3-12.7
				c-1.7-1.8-3.8-3.1-6.1-3.9c-2.3-0.8-4.9-1.3-7.4-2.1C858.5,796.7,853.7,795.1,849,793.1z M849,793.1c4.8,1.7,9.6,3.1,14.5,4.3
				c2.4,0.7,4.9,1.1,7.4,1.9c2.5,0.8,4.8,2.1,6.6,4c3.6,3.7,6.2,8.4,7.6,13.4c0.4,1.2,0.7,2.5,0.9,3.7c0,0.3,0,0.7,0,1
				c0,0.1,0,0.2,0,0.3c0,0.1,0,0.2,0,0.3c0.3,0.5,0.6,1,1,1.5c1.6,1.9,3.2,3.8,5,5.5l0.6,0.6l-0.6,0.6l-3.1,3.1l-0.6,0.6l-0.6-0.6
				c-2-1.4-4.3-2.3-6.7-2.6l-7.4-1.6c-2.5-0.5-5-1.2-7.4-2c-2.5-1.1-4.6-3-6-5.3c-2.8-4.3-5.1-9-6.9-13.9
				C851.8,803,850.3,798.2,849,793.1z"/>
		</g>
		<path class="st6" d="M854.6,797.1c0,0,19,4.7,23.7,11.1c2.8,5,5,10.3,6.3,15.9c-3.4-5.5-7.1-10.8-11.1-15.8
			C870.4,805,857.7,797.1,854.6,797.1z"/>
		<path class="st7" d="M854.6,801.9l26.9,25.3c0,0-17.4-3.2-19-7.9C860.9,814.6,854.6,801.9,854.6,801.9z"/>
		<path class="st5" d="M858.5,802.6c5.7,4.3,11.1,9,16.3,13.7c5.2,4.7,10.5,9.6,15.3,14.8c-5.7-4.3-11.1-9-16.3-13.7
			C868.6,812.8,863.3,807.9,858.5,802.6z"/>
		<path class="st5" d="M869.6,807.4c0.5,0.7,0.8,1.6,0.8,2.5c0,0.9-0.3,1.7-0.8,2.4c-0.5-0.7-0.8-1.6-0.8-2.4
			C868.8,809,869.1,808.1,869.6,807.4z"/>
		<path class="st5" d="M873.9,816.4c-0.7,0.8-1.6,1.4-2.7,1.8c-1,0.3-2.1,0.4-3.2,0.3c0.7-0.8,1.6-1.4,2.7-1.8
			C871.7,816.4,872.8,816.3,873.9,816.4z"/>
		<path class="st5" d="M880,822c-2,1.9-4.7,3-7.4,2.9c0.9-1,2.1-1.7,3.3-2.2C877.2,822.1,878.6,821.9,880,822z"/>
		<path class="st5" d="M863.3,807.4c-0.4,0.5-1,0.8-1.6,0.8c-0.6,0-1.2-0.3-1.6-0.8c0.4-0.5,1-0.7,1.6-0.8
			C862.3,806.6,862.9,806.9,863.3,807.4z"/>
		<path class="st5" d="M876.5,818.7c-0.6-0.7-0.9-1.5-1-2.4c-0.1-0.9,0.1-1.8,0.6-2.6c0.6,0.7,0.9,1.6,1,2.4
			C877.1,817,877,817.9,876.5,818.7z"/>
		<path class="st43" d="M904,790.8c0,0-20,35.8-12.6,42.6c1.9-6.8,5.5-35.8,22-37.5C913.1,795.9,904,794.2,904,790.8z"/>
		<path class="st44" d="M872.8,829.5c7.2,0.9,14.1,3.1,20.6,6.3c7.9,4.7,19,1.6,19,1.6s-9.5,1.6-14.3-1.6S879.1,826.4,872.8,829.5z"
			/>
		<path class="st10" d="M872,911.1c8.1-2.8,16.9-3.4,25.3-1.7c12.7,3.1,42.7-30.1,42.7-53.8c-1,22.1-12.1,42.6-30.1,55.5
			c-3.2,1.6-7.9,4.7-13.6,3.3C888.9,912.5,873.6,909.3,872,911.1z"/>
		<path class="st2" d="M903.6,793.9c0.8,0.9,1.9,1.4,3.1,1.6h-1.6C904.3,795.5,903.6,794.8,903.6,793.9
			C903.6,793.9,903.6,793.9,903.6,793.9z"/>
	</g>
	<polygon class="st37" points="841.4,936.3 956.1,868.1 956.1,993.4 841.4,1061.6 	"/>
	<path class="st38" d="M954.3,871.4v121l-111.1,66v-121L954.3,871.4 M958,864.9l-118.5,70.4v129.6L958,994.5V864.9z"/>
	<polygon class="st37" points="722.9,993.4 722.9,868.1 837.6,936.3 837.6,1061.6 	"/>
	<path class="st38" d="M724.7,871.4l111.1,66v121l-111.1-66V871.4 M721,864.9v129.6l118.5,70.4V935.2L721,864.9z"/>
</g>
</svg>
