<svg id="Layer_1" data-name="Layer 1" xmlns="http://www.w3.org/2000/svg" viewBox="0 0 100 100"><defs><style>.cls-1{fill:#da3732;}.cls-1,.cls-10,.cls-11{stroke:#000;stroke-linejoin:round;stroke-width:0.8px;}.cls-1,.cls-12,.cls-2,.cls-3,.cls-4,.cls-5,.cls-9{isolation:isolate;}.cls-2{fill:#de543e;}.cls-13,.cls-3{fill:#ab2925;}.cls-10,.cls-4{fill:#e27f68;}.cls-6{fill:#a5c058;}.cls-7{fill:#006837;}.cls-8{fill:#72974f;}.cls-9{fill:#d7dc84;}.cls-10,.cls-11{stroke-linecap:round;}.cls-12{fill:#a82925;}</style></defs><title>Artboard 1</title><g id="apple"><path class="cls-1" d="M29,27S14,31,18,52,28,82,39,85c8,2,2-2,17,2S83,55,83,47,79,25,66,26s-19,0-19,0S32,25,29,27Z"/><path class="cls-2" d="M40.5,34.5s11,6,17,5,12-6,14-2,4,6,0,16-16,29-32,28-24-36-17-47S40.5,34.5,40.5,34.5Z"/><path class="cls-3" d="M37.5,32.5s19-5,19,0-5,5-5,5S44.5,32.5,37.5,32.5Z"/><path class="cls-4" d="M76,40s-6-16-37-8c0,0,20,6,19,10s-13,0-24-1-4,34,1,39c-8-7-20-27-12-46,8-11,27-5,35-6S75,30,76,40Z"/><g class="cls-5"><path class="cls-6" d="M23.5,8.5s5,19,11,21,12,2,14,4l2-2s-4-4-4-5-2-12-10-14A111.1,111.1,0,0,1,23.5,8.5Z"/><path class="cls-7" d="M23.5,8.5c1,3.1,2,6.16,3.27,9.15a41,41,0,0,0,4.48,8.52,7.89,7.89,0,0,0,3.45,2.94,43,43,0,0,0,4.66,1.21l4.78.93c.8.18,1.6.37,2.4.63a6,6,0,0,1,2.31,1.27h-.7l2-2v.7a42.86,42.86,0,0,1-3.22-3.62,8.6,8.6,0,0,1-.7-1.07,2.21,2.21,0,0,1-.14-.37,1.84,1.84,0,0,1-.05-.25V26.4c0-.15-.05-.36-.07-.54a20.16,20.16,0,0,0-.53-2.27A19.16,19.16,0,0,0,41,15.48,9.81,9.81,0,0,0,37.1,13c-.71-.27-1.51-.45-2.27-.67s-1.54-.43-2.3-.66C29.48,10.74,26.44,9.74,23.5,8.5Zm0,0c3,1,6.07,1.94,9.15,2.73l2.32.59c.77.2,1.54.34,2.33.62a10.6,10.6,0,0,1,4.2,2.5,19,19,0,0,1,4.79,8.39,21.17,21.17,0,0,1,.58,2.38,5.77,5.77,0,0,1,.08.65s0,.14,0,.15a.06.06,0,0,1,0,0,1.32,1.32,0,0,0,.08.19,7.07,7.07,0,0,0,.62.92,41.6,41.6,0,0,0,3.17,3.49l.34.35-.34.35-2,2-.34.34-.36-.34a5.15,5.15,0,0,0-1.92-1.05,21,21,0,0,0-2.3-.62l-4.76-1a46.71,46.71,0,0,1-4.74-1.27,5.85,5.85,0,0,1-2.18-1.4,12.71,12.71,0,0,1-1.61-1.92,40.49,40.49,0,0,1-4.31-8.79A84.73,84.73,0,0,1,23.5,8.5Z"/></g><path class="cls-8" d="M27,11s12,3,15,7c2.16,2.88,4,10,4,10s-5-8-7-10S29,11,27,11Z"/><path class="cls-9" d="M27,14,44,30s-11-2-12-5S27,14,27,14Z"/><path class="cls-7" d="M29.5,14.5c1.8,1.35,3.54,2.77,5.26,4.22s3.4,2.92,5.07,4.41,3.32,3,4.93,4.58l2.4,2.36c.78.81,1.58,1.6,2.34,2.43-.91-.67-1.78-1.38-2.66-2.07l-2.6-2.14c-1.72-1.44-3.4-2.93-5.07-4.42s-3.32-3-4.93-4.59S31,16.15,29.5,14.5Z"/><path class="cls-7" d="M36.5,17.5a2.57,2.57,0,0,1,.5,1.55,2.42,2.42,0,0,1-.5,1.54,2.42,2.42,0,0,1-.5-1.54A2.57,2.57,0,0,1,36.5,17.5Z"/><path class="cls-7" d="M39.2,23.23a3.78,3.78,0,0,1-1.69,1.11,3.74,3.74,0,0,1-2,.16,3.78,3.78,0,0,1,1.69-1.11A3.84,3.84,0,0,1,39.2,23.23Z"/><path class="cls-7" d="M43.06,26.7A5.82,5.82,0,0,1,41,28.07a5.7,5.7,0,0,1-2.46.43,6.29,6.29,0,0,1,4.56-1.8Z"/><path class="cls-7" d="M32.54,17.5a1.34,1.34,0,0,1-1,.5,1.28,1.28,0,0,1-1-.5,1.28,1.28,0,0,1,1-.5A1.34,1.34,0,0,1,32.54,17.5Z"/><path class="cls-7" d="M40.78,24.65a2.74,2.74,0,0,1-.28-3.15A2.59,2.59,0,0,1,41.14,23,2.65,2.65,0,0,1,40.78,24.65Z"/><path class="cls-10" d="M58.22,7S45.51,29.66,50.14,34C51.29,29.66,53.6,11.34,64,10.26,64,10.26,58.22,9.18,58.22,7Z"/><path class="cls-11" d="M38.5,31.5s8,1,13,4,12,1,12,1-6,1-9-1S42.5,29.5,38.5,31.5Z"/><path class="cls-12" d="M38,83s8-3,16-1S81,63,81,48C80,70,63.79,82.11,62,83c-2,1-5,3-8.6,2.1C48.67,83.91,39,82,38,83Z"/><path class="cls-13" d="M58,9a3.49,3.49,0,0,0,2,1H59A1,1,0,0,1,58,9Z"/></g></svg>