<svg id="Layer_1" data-name="Layer 1" xmlns="http://www.w3.org/2000/svg" viewBox="0 0 100 100"><defs><style>.cls-1,.cls-2{fill:#ece1ba;stroke:#b39d6a;}.cls-1{stroke-miterlimit:10;isolation:isolate;}.cls-2{stroke-linejoin:bevel;stroke-width:0.81px;opacity:0.72;}</style></defs><title>Artboard 1</title><path class="cls-1" d="M47.49,46.74S43.66,50.52,41.83,50s-5.4-1.35-4.4-4.84S42.42,40.26,47.49,46.74Z"/><path class="cls-2" d="M38.88,47a8.15,8.15,0,0,0,4,1.13S39.32,47.13,38.88,47Z"/><path class="cls-1" d="M58.46,48.87s-3.82,3.78-5.65,3.26-5.41-1.35-4.41-4.84S53.39,42.39,58.46,48.87Z"/><path class="cls-2" d="M49.86,49.1a8.13,8.13,0,0,0,4,1.12S50.29,49.26,49.86,49.1Z"/><path class="cls-1" d="M51.21,32.48s3.18,4.34,2.4,6.07-2.12,5.15-5.43,3.65S44.05,36.55,51.21,32.48Z"/><path class="cls-2" d="M50.17,41a8.11,8.11,0,0,0,1.7-3.83S50.4,40.62,50.17,41Z"/><path class="cls-1" d="M39.85,29s3.18,4.34,2.4,6.07-2.12,5.15-5.43,3.65S32.69,33.09,39.85,29Z"/><path class="cls-2" d="M38.81,37.57a8.11,8.11,0,0,0,1.7-3.83S39,37.16,38.81,37.57Z"/><path class="cls-1" d="M37,50.28s-4.68,2.64-6.31,1.66-4.86-2.73-3-5.83S33.86,42.69,37,50.28Z"/><path class="cls-2" d="M28.68,48.23a8.12,8.12,0,0,0,3.6,2.15S29.05,48.51,28.68,48.23Z"/><path class="cls-1" d="M34.36,40.7s-4.68,2.63-6.31,1.65-4.86-2.72-3-5.83S31.18,33.11,34.36,40.7Z"/><path class="cls-2" d="M26,38.65a8,8,0,0,0,3.6,2.14S26.38,38.92,26,38.65Z"/><path class="cls-1" d="M37.32,55.21S41.65,52,43.39,52.8s5.15,2.1,3.66,5.42S41.42,62.36,37.32,55.21Z"/><path class="cls-2" d="M45.87,56.22A8.14,8.14,0,0,0,42,54.53S45.47,56,45.87,56.22Z"/><path class="cls-1" d="M56,43.15s.87-5.31,2.65-6,5.16-2.09,6.41,1.31S63.93,45.4,56,43.15Z"/><path class="cls-2" d="M62.83,37.89a8.09,8.09,0,0,0-3.92,1.47S62.39,38,62.83,37.89Z"/><path class="cls-1" d="M40.05,69.3s.87-5.31,2.65-6,5.16-2.09,6.41,1.32S48,71.55,40.05,69.3Z"/><path class="cls-2" d="M46.87,64.05A8,8,0,0,0,43,65.52S46.42,64.17,46.87,64.05Z"/><path class="cls-1" d="M59.34,53.44s.86-5.31,2.64-6,5.16-2.09,6.42,1.31S67.26,55.69,59.34,53.44Z"/><path class="cls-2" d="M66.16,48.18a8.09,8.09,0,0,0-3.92,1.47S65.71,48.3,66.16,48.18Z"/><path class="cls-1" d="M64,57.7s5.27,1.06,5.87,2.86,1.9,5.23-1.55,6.36S61.43,65.53,64,57.7Z"/><path class="cls-2" d="M69,64.7a8.1,8.1,0,0,0-1.32-4S68.87,64.25,69,64.7Z"/><path class="cls-1" d="M69.19,39.12s5.27,1.06,5.86,2.86,1.91,5.24-1.54,6.36S66.65,47,69.19,39.12Z"/><path class="cls-2" d="M74.19,46.13a8.07,8.07,0,0,0-1.33-4S74.09,45.68,74.19,46.13Z"/><path class="cls-1" d="M19,46.13s5.27,1,5.86,2.86,1.91,5.23-1.54,6.36S16.44,54,19,46.13Z"/><path class="cls-2" d="M24,53.13a8.1,8.1,0,0,0-1.33-4S23.87,52.68,24,53.13Z"/><path class="cls-1" d="M65.85,27.38s5.27,1.06,5.86,2.86,1.91,5.23-1.54,6.36S63.31,35.21,65.85,27.38Z"/><path class="cls-2" d="M70.85,34.39a8.07,8.07,0,0,0-1.33-4S70.74,33.93,70.85,34.39Z"/><path class="cls-1" d="M49.86,61.75s.86-5.3,2.64-6,5.16-2.09,6.41,1.32S57.78,64,49.86,61.75Z"/><path class="cls-2" d="M56.68,56.5A8.09,8.09,0,0,0,52.76,58S56.23,56.62,56.68,56.5Z"/><path class="cls-1" d="M53.35,31.41s.86-5.31,2.64-6,5.16-2.1,6.41,1.31S61.26,33.66,53.35,31.41Z"/><path class="cls-2" d="M60.16,26.15a8,8,0,0,0-3.91,1.47S59.72,26.27,60.16,26.15Z"/><path class="cls-1" d="M42.78,20.86s5.32-.77,6.48.73,3.56,4.29.68,6.51S43,29.09,42.78,20.86Z"/><path class="cls-2" d="M49.84,25.78a8.07,8.07,0,0,0-2.58-3.29S49.59,25.39,49.84,25.78Z"/><path class="cls-1" d="M28,55.58s5.32-.78,6.49.72,3.55,4.29.68,6.51S28.25,63.81,28,55.58Z"/><path class="cls-2" d="M35.08,60.5a8.14,8.14,0,0,0-2.59-3.3S34.83,60.11,35.08,60.5Z"/></svg>