<svg id="Layer_1" data-name="Layer 1" xmlns="http://www.w3.org/2000/svg" viewBox="0 0 100 100"><defs><style>.cls-1{fill:#4453a3;}.cls-1,.cls-10,.cls-11,.cls-2,.cls-3,.cls-4,.cls-5,.cls-6,.cls-7,.cls-8,.cls-9{stroke:#000;stroke-linecap:round;stroke-miterlimit:10;stroke-width:0.8px;}.cls-2{fill:#f9eb18;}.cls-3{fill:#848a8a;}.cls-12,.cls-4{fill:#da1f29;}.cls-5{fill:#d1c9c2;}.cls-6{fill:none;}.cls-7{fill:#2a1b1b;}.cls-8{fill:#dfcd85;}.cls-9{fill:#fff;}.cls-10{fill:#8c523d;}.cls-11{fill:#25291d;}</style></defs><title>Artboard 1</title><path class="cls-1" d="M84.67,43a56.76,56.76,0,0,1,5.92-2.25c2.76-.83,6.38-1.5,7.09-2.27s.39,2.27-2.54,4.07a26.24,26.24,0,0,1-7.33,2.66s9.27-.94,10-1-2.59,7-11.45,5c0,0,10.7,1,7.9,4.56,0,0-1.47,1.81-6.6.68,0,0,6.11,6.2-3,3.78,0,0,3.95,7.65-3.93,2.27,0,0-.5,5.88-3.84,1.3,0,0-1.08,3.74-3.65-.19,0,0-2.9,5.95-4.44-.37,0,0-2,4.58-4.79-.32,0,0-1.55,4.77-3.81-.33s1.42-6.84,1.42-6.84Z"/><path class="cls-2" d="M61.27,54.38s2.82,8.77,7.6,1.68c0,0,2.83,4.72,6.52-1.68,0,0,5.49,1.5,3.58-3.28,0,0,10.72-.46,2.76-4,0,0,4.58,1.1,4.73-1.67s-2.89-2-2.89-2l-8.24,2.42L62,51.08Z"/><path class="cls-3" d="M52.05,68.52s-2,1.77-.94,3.57.55,3.08,3.67,3.58,4.22.8,6.18.5.7,2-.73,2.19-1.84-.77-3.19-.66a14.39,14.39,0,0,0-2.49.46,16.54,16.54,0,0,0,2.38,1.77c1.19.69-.54,2.31-2.15,1.43a3.79,3.79,0,0,1-1.89-2.46,2.39,2.39,0,0,0-2.08-.66l-1.26.23s-2.23.46-1.69-.46,1.23-1.34,3-1.88c1-.35-3.09-4.19-3-7.19S52.05,68.52,52.05,68.52Z"/><path class="cls-3" d="M40.09,69.9A41.93,41.93,0,0,0,41,75.36c.53,1.81.61,2.31-2.2,2.54s-2.07,1.76,0,1.69l2.08-.08s1.31-.08,2.77,4c.57,2.23,3.38,1.58,3.69.85s-2.31-1.77-2.81-3.58-.34-1.5-.34-1.5,3.3,3.4,6.15,2.37c1.61-.37,3.88-1.06.42-2s-2.46.27-6.5-2.21,0-8.47,0-8.47Z"/><path class="cls-4" d="M57,43.22a2.71,2.71,0,0,1,2.58,1c1.38,1.34,4.5,3.57,6.11,2.73s7.57-4.46,8.8-4.46,4,1.92,5.65,1.42,6-2.11,8.42-2c0,0-3.23,1.27-4.15,1.81s.38,2.46-6,2.31c0,0,.7,2.42-3.53,1.69,0,0-2.88,5.93-4.11,2.33,0,0-2.43,6.3-4.73,1.4,0,0-1,3.88-4,2.38S57,43.22,57,43.22Z"/><path class="cls-4" d="M62,47.16c-1.84-2.62-2.26-1.58-3.38-3.19s.5-4.08.5-4.08l1.19-1.27s5.27-10.34-1-16.64-13.53-1.73-13.53-1.73C45.7,19.29,47,16.1,47,16.1c-1.76.57-4.19,5-4.19,5l-.26-2.15s-.47,1.58-.89,2.73-7,6.69-3.54,13.88c2.92,6.05,3.08,6.9,3.06,7,2,2.59.3,5.89-2.47,7.27-.47.66-3.12,4.27-6.47,4.9-3.69.69-1.5,7.49-1.5,7.49s-5.91,2.16-18.37,5.85-6.11,4.76-6.11,4.76c-10.57,5.88-1,5.19-1,5.19-4.46,3.08,4.65,2,4.65,2s-2.84,2.15-1.42,3.11,10.15-2.34,14.91-4.92,9.07-7.65,12.19-7.46,3,1.93,4.3,1.93a18.63,18.63,0,0,0,8.46-2.23,4.82,4.82,0,0,0,2.57.73l.85-.43c.85-.42.77-1.61,1.69-2s.85.35,3.92-2.49C66.3,57.65,63.84,49.77,62,47.16Z"/><path class="cls-5" d="M57,28s-2.42-5.44-5.36-5.84-6.4,2-7.72,5.48.51,6.74,2.88,6.74c0,0-1.49,11.63,11,3.64S57,28,57,28Z"/><path class="cls-2" d="M81.18,51.38c.31.29,6.46,3.11,6.46,3.11"/><line class="cls-2" x1="79.44" y1="55.01" x2="84.68" y2="58.27"/><path class="cls-6" d="M76.52,55.85s3.11,4,4.23,4.69"/><path class="cls-6" d="M75.43,57.07s.91,4,1.48,4.77"/><path class="cls-6" d="M73,58.64s0,2.5.31,3"/><path class="cls-6" d="M69,58.28a17.81,17.81,0,0,0-.21,3"/><path class="cls-6" d="M63.8,58.29A6.62,6.62,0,0,0,64,61"/><path class="cls-1" d="M16.4,37.42a59,59,0,0,0-5.47-3.17C8.33,33,4.87,31.73,4.3,30.86S3.55,33,6.14,35.29a26.51,26.51,0,0,0,6.8,3.8S4,36.67,3.26,36.5s1.43,7.33,10.49,6.8c0,0-10.72-.75-8.53,3.23,0,0,1.15,2,6.4,1.73,0,0-7,5.13,2.3,4.21,0,0-5.13,6.92,3.52,2.88,0,0-.46,5.88,3.58,1.9,0,0,.46,3.87,3.63.41,0,0,1.9,6.34,4.44.34,0,0,1.21,4.85,4.78.46,0,0,.75,5,3.81.29s-.29-7-.29-7Z"/><path class="cls-2" d="M17.79,38.87s-2.89-2.3-3.87-.51.41,3,3.23,3.51c0,0-2.48-.17-2.59,1.27s1.21,2.94,4.73,3.17c0,0-1.73,2,0,3.52s3.11.63,3.11.63,1.35,5.59,3.92,4.1c2-1.18,2.13-1.56,2.13-1.56.05-.38,1.27,5.74,6.75,2.48,0,0,1.12-.35,1.08-2.13,0,0,2.21,4,2.44-1.94l.23-6-.81,1.67Z"/><path class="cls-4" d="M41.18,42.56s0,0,0,0a1.46,1.46,0,0,1-.65.58c-6,3.19-6.19,1.88-8,.77S26.29,38.35,25,38.7c-4.84,1.42-6.15-.12-9.15-2s-3.57-1.19-3.57-1.19a28.19,28.19,0,0,1,3.61,2.69c2.84,3.73,5.38,3,5.38,3-.35,2.77,3.23,2.42,3.23,2.42.08,5.65,3.5,3.07,3.5,3.07,2.5,7.38,4.3,2.27,4.3,2.27,1.54,5.08,4.77-.57,4.77-.57.11,1.26,1.73,1.33,1.73,1.33S44.35,46.94,41.18,42.56Z"/><path class="cls-7" d="M58,33.26s-2.07,2.88-1.09,5.07,4.78,5.13,9.05,0C65.93,38.33,65.24,32.05,58,33.26Z"/><path class="cls-8" d="M57.91,33.31s-2.84-7.3-.61-9.38,6.15-3.84,11.53,2.16S68.6,39.46,66.37,41C66.37,41,66.52,31.7,57.91,33.31Z"/><path class="cls-9" d="M48.52,32.61s-4.15-4.88.44-7.13c3.92-1.35,5.13,4.91,3.8,6.09A10.23,10.23,0,0,0,48.52,32.61Z"/><path class="cls-6" d="M47.28,33.3a11.63,11.63,0,0,1,7-1.65"/><ellipse class="cls-10" cx="49.82" cy="29.91" rx="2.31" ry="2"/><ellipse class="cls-11" cx="49.95" cy="30.2" rx="1.49" ry="1.61"/><ellipse class="cls-9" cx="49.13" cy="28.73" rx="1" ry="1.3" transform="translate(-6.77 39.42) rotate(-41.15)"/><path class="cls-1" d="M32.72,62.18s-.79-.74-3.67.49l-2.88,1.22h0c-.43,0-4.41.55-4.59,1.17s3,1.59,4.34,1.53,6.62-2.64,7.23-3S32.72,62.18,32.72,62.18Z"/><path class="cls-1" d="M35,63s-1.16-.55-3.68.25-6.06,3.12-7.22,4.71S21,70.75,22.47,71.12,30,68.73,31.19,68,35.66,64.5,35,63Z"/><path class="cls-1" d="M36,63.77s-1.41-1.07-4.23.5-9,7.16-9.33,8.2-.34.67-.34,1,.24,3.73,4.35,1.28S36,63.77,36,63.77Z"/><path class="cls-1" d="M26.48,75.35s3.73-.13,5.39-1.29,3.61-5.27,4.16-6.8a6.71,6.71,0,0,0,0-3.49s-6.54,5.7-7.53,7.1l-1,1.41h0S25.13,74.67,26.48,75.35Z"/><path class="cls-2" d="M18.49,46.23c-.35.24-6.87,2-6.87,2"/><line class="cls-2" x1="19.63" y1="50.1" x2="13.92" y2="52.47"/><path class="cls-6" d="M22.37,51.4s-3.71,3.42-4.93,4"/><path class="cls-6" d="M23.25,52.78S21.7,56.64,21,57.25"/><path class="cls-6" d="M25.44,54.73s-.35,2.48-.79,2.93"/><path class="cls-6" d="M29.37,55a17,17,0,0,1-.28,3"/><path class="cls-6" d="M34.53,55.87a6.6,6.6,0,0,1-.66,2.59"/><path class="cls-6" d="M17.15,41.87s3.4.17,3.87-.12"/><path class="cls-6" d="M19.29,46.31a41.65,41.65,0,0,0,5.17-1.1"/><path class="cls-6" d="M22.4,50.46s5.06-2,5.86-3"/><path class="cls-6" d="M28.45,53a6.33,6.33,0,0,0,1.93-2.36"/><path class="cls-6" d="M36.28,53.35a12,12,0,0,0-.81-2.89"/><path class="cls-6" d="M6.26,72.83S20,70.32,24.09,67.93"/><path class="cls-6" d="M5.26,78s15.45-5,18-6.59"/><path class="cls-6" d="M9.91,80.06a60.33,60.33,0,0,0,13-4.71"/><path class="cls-2" d="M68.87,56.06a7.87,7.87,0,0,0-.08-3.13"/><path class="cls-2" d="M75.39,54.38s-.25-4.18-1.25-5.4"/><path class="cls-2" d="M79,51.1a11.53,11.53,0,0,0-2.06-3.33"/><line class="cls-2" x1="81.73" y1="47.12" x2="78.4" y2="45.99"/><path class="cls-6" d="M54.55,78.16s-.75-.49-.67-1.17"/><line class="cls-6" x1="44.21" y1="79.24" x2="43.7" y2="78.02"/><path class="cls-6" d="M52.89,78.9s-1-1.16-.78-1.74"/><path class="cls-6" d="M48.35,70.49a8.48,8.48,0,0,0,2.88-2.56"/><path class="cls-6" d="M44.21,39.24s.66,2.07,4.92,2.68"/><path class="cls-6" d="M54.89,41.91a17,17,0,0,0,3.45-.17"/><ellipse class="cls-12" cx="43.5" cy="44" rx="2.5" ry="2"/></svg>